<svg width="48" height="48" viewBox="0 0 48 48" fill="none" xmlns="http://www.w3.org/2000/svg">
<path d="M44 0H4C1.79086 0 0 1.79086 0 4V44C0 46.2091 1.79086 48 4 48H44C46.2091 48 48 46.2091 48 44V4C48 1.79086 46.2091 0 44 0Z" fill="#FFF4EC"/>
<path d="M16.2222 35C15.6111 35 15.088 34.7846 14.6528 34.3538C14.2176 33.9229 14 33.405 14 32.8V17.4C14 16.795 14.2176 16.2771 14.6528 15.8463C15.088 15.4154 15.6111 15.2 16.2222 15.2H17.3333V13H19.5556V15.2H28.4444V13H30.6667V15.2H31.7778C32.3889 15.2 32.912 15.4154 33.3472 15.8463C33.7824 16.2771 34 16.795 34 17.4V32.8C34 33.405 33.7824 33.9229 33.3472 34.3538C32.912 34.7846 32.3889 35 31.7778 35H16.2222ZM16.2222 32.8H31.7778V21.8H16.2222V32.8ZM16.2222 19.6H31.7778V17.4H16.2222V19.6ZM18.4444 26.2V24H29.5556V26.2H18.4444ZM18.4444 30.6V28.4H26.2222V30.6H18.4444Z" fill="#FF6F0A"/>
</svg>
