<svg width="26" height="26" viewBox="0 0 26 26" fill="none" xmlns="http://www.w3.org/2000/svg">
<path d="M11.0825 18.915L20.28 9.7175L18.785 8.255L11.0825 15.9575L7.1825 12.0575L5.72 13.52L11.0825 18.915ZM13 26C11.2233 26 9.54417 25.6587 7.9625 24.9762C6.38083 24.2937 4.99958 23.3621 3.81875 22.1812C2.63792 21.0004 1.70625 19.6192 1.02375 18.0375C0.34125 16.4558 0 14.7767 0 13C0 11.2017 0.34125 9.51167 1.02375 7.93C1.70625 6.34833 2.63792 4.9725 3.81875 3.8025C4.99958 2.6325 6.38083 1.70625 7.9625 1.02375C9.54417 0.34125 11.2233 0 13 0C14.7983 0 16.4883 0.34125 18.07 1.02375C19.6517 1.70625 21.0275 2.6325 22.1975 3.8025C23.3675 4.9725 24.2937 6.34833 24.9762 7.93C25.6587 9.51167 26 11.2017 26 13C26 14.7767 25.6587 16.4558 24.9762 18.0375C24.2937 19.6192 23.3675 21.0004 22.1975 22.1812C21.0275 23.3621 19.6517 24.2937 18.07 24.9762C16.4883 25.6587 14.7983 26 13 26ZM13 24.05C16.0767 24.05 18.6875 22.9721 20.8325 20.8162C22.9775 18.6604 24.05 16.055 24.05 13C24.05 9.92333 22.9775 7.3125 20.8325 5.1675C18.6875 3.0225 16.0767 1.95 13 1.95C9.945 1.95 7.33958 3.0225 5.18375 5.1675C3.02792 7.3125 1.95 9.92333 1.95 13C1.95 16.055 3.02792 18.6604 5.18375 20.8162C7.33958 22.9721 9.945 24.05 13 24.05Z" fill="#1EB852"/>
</svg>
