<svg width="48" height="48" viewBox="0 0 48 48" fill="none" xmlns="http://www.w3.org/2000/svg">
<g clip-path="url(#clip0_424_2579)">
<mask id="mask0_424_2579" style="mask-type:luminance" maskUnits="userSpaceOnUse" x="0" y="0" width="48" height="48">
<path d="M48 0H0V48H48V0Z" fill="white"/>
</mask>
<g mask="url(#mask0_424_2579)">
<path d="M44 0H4C1.79086 0 0 1.79086 0 4V44C0 46.2091 1.79086 48 4 48H44C46.2091 48 48 46.2091 48 44V4C48 1.79086 46.2091 0 44 0Z" fill="#1E45B8" fill-opacity="0.08"/>
</g>
<path d="M15.2727 27.3684C14.3636 27.3684 13.5909 27.0461 12.9545 26.4013C12.3182 25.7566 12 24.9737 12 24.0526C12 23.1316 12.3182 22.3487 12.9545 21.7039C13.5909 21.0592 14.3636 20.7368 15.2727 20.7368V18.5263C15.2727 17.9184 15.4864 17.398 15.9136 16.9651C16.3409 16.5322 16.8545 16.3158 17.4545 16.3158H20.7273C20.7273 15.3947 21.0455 14.6118 21.6818 13.9671C22.3182 13.3224 23.0909 13 24 13C24.9091 13 25.6818 13.3224 26.3182 13.9671C26.9545 14.6118 27.2727 15.3947 27.2727 16.3158H30.5455C31.1455 16.3158 31.6591 16.5322 32.0864 16.9651C32.5136 17.398 32.7273 17.9184 32.7273 18.5263V20.7368C33.6364 20.7368 34.4091 21.0592 35.0455 21.7039C35.6818 22.3487 36 23.1316 36 24.0526C36 24.9737 35.6818 25.7566 35.0455 26.4013C34.4091 27.0461 33.6364 27.3684 32.7273 27.3684V31.7895C32.7273 32.3974 32.5136 32.9178 32.0864 33.3507C31.6591 33.7836 31.1455 34 30.5455 34H17.4545C16.8545 34 16.3409 33.7836 15.9136 33.3507C15.4864 32.9178 15.2727 32.3974 15.2727 31.7895V27.3684ZM20.7273 25.1579C21.1818 25.1579 21.5682 24.9967 21.8864 24.6743C22.2045 24.352 22.3636 23.9605 22.3636 23.5C22.3636 23.0395 22.2045 22.648 21.8864 22.3257C21.5682 22.0033 21.1818 21.8421 20.7273 21.8421C20.2727 21.8421 19.8864 22.0033 19.5682 22.3257C19.25 22.648 19.0909 23.0395 19.0909 23.5C19.0909 23.9605 19.25 24.352 19.5682 24.6743C19.8864 24.9967 20.2727 25.1579 20.7273 25.1579ZM27.2727 25.1579C27.7273 25.1579 28.1136 24.9967 28.4318 24.6743C28.75 24.352 28.9091 23.9605 28.9091 23.5C28.9091 23.0395 28.75 22.648 28.4318 22.3257C28.1136 22.0033 27.7273 21.8421 27.2727 21.8421C26.8182 21.8421 26.4318 22.0033 26.1136 22.3257C25.7955 22.648 25.6364 23.0395 25.6364 23.5C25.6364 23.9605 25.7955 24.352 26.1136 24.6743C26.4318 24.9967 26.8182 25.1579 27.2727 25.1579ZM19.6364 29.5789H28.3636V27.3684H19.6364V29.5789ZM17.4545 31.7895H30.5455V18.5263H17.4545V31.7895Z" fill="#1E45B8"/>
</g>
<defs>
<clipPath id="clip0_424_2579">
<rect width="48" height="48" fill="white"/>
</clipPath>
</defs>
</svg>
