<?xml version="1.0" encoding="utf-8"?>
<!-- Generator: Adobe Illustrator 24.1.1, SVG Export Plug-In . SVG Version: 6.00 Build 0)  -->
<svg version="1.1" id="Layer_1" xmlns="http://www.w3.org/2000/svg" xmlns:xlink="http://www.w3.org/1999/xlink" x="0px" y="0px"
	 viewBox="0 0 162.1 161.6" style="enable-background:new 0 0 162.1 161.6;" xml:space="preserve">
<style type="text/css">
	.st0{fill:#003DFF;}
</style>
<g>
	<g>
		<g>
			<path class="st0" d="M57.6,18.7c32.6-32.1,85.3-21.3,100.5,21.1c8.1,22.5,4,43.8-12.4,61.4c0,0-36,35.5-54.2,53.6l-7.5,6.8
				c-0.4-13-0.9-24.1-1.2-35.2c-0.2-10.3-0.4-10.5-9.7-6.9L51.3,128l-24.6,8.8l19-56.9C30,79.1,16,78.5,0,77.7 M136.9,89.8
				c8.2-9,12-20.4,10.8-32.6c-2-19.5-12.3-33.7-30.7-40.4c-17.6-6.4-34-2.5-47.6,10.3L38.8,57.7c0,0-5.9,6.9-5.9,6.8
				c3.6,0.3,7.9,0.4,10.6,0.5c14.3,0.5,19.9,8.7,14.7,21.9c-1.7,4.3-3.3,8.6-4.9,12.9c-1.4,3.9-2.8,7.8-4.9,13.9
				c10.9-4.1,19.4-7.4,27.9-10.5c11.5-4.2,19.6,1.1,20.8,13.4c0.3,3.5,0.5,6.9,0.8,11.2"/>
		</g>
		<circle class="st0" cx="78.5" cy="59.7" r="8.4"/>
		<circle class="st0" cx="102.3" cy="60.1" r="8.4"/>
		<circle class="st0" cx="125.9" cy="59.7" r="8.4"/>
	</g>
</g>
</svg>
