<svg width="26" height="25" viewBox="0 0 26 25" fill="none" xmlns="http://www.w3.org/2000/svg">
<path d="M6.3375 25C5.47986 25 4.75087 24.6988 4.15052 24.0965C3.55017 23.4941 3.25 22.7627 3.25 21.9022C3.25 21.0417 3.55017 20.3102 4.15052 19.7079C4.75087 19.1055 5.47986 18.8043 6.3375 18.8043C6.59028 18.8043 6.81146 18.827 7.00104 18.8723C7.19062 18.9176 7.38472 18.9855 7.58333 19.0761L9.88542 16.1957C9.54236 15.779 9.28056 15.3034 9.1 14.769C8.91944 14.2346 8.8743 13.6775 8.96458 13.0978L5.6875 11.9837C5.41667 12.4366 5.06007 12.7899 4.61771 13.0435C4.17535 13.2971 3.66528 13.4239 3.0875 13.4239C2.22986 13.4239 1.50087 13.1227 0.900521 12.5204C0.300174 11.918 0 11.1866 0 10.3261C0 9.46558 0.300174 8.73415 0.900521 8.13179C1.50087 7.52944 2.22986 7.22826 3.0875 7.22826C3.94514 7.22826 4.67413 7.52944 5.27448 8.13179C5.87483 8.73415 6.175 9.46558 6.175 10.3261V10.4348L9.47917 11.5761C9.80417 10.9964 10.1969 10.5525 10.6573 10.2446C11.1177 9.93659 11.6278 9.7192 12.1875 9.59239V6.08696C11.4833 5.88768 10.9281 5.49819 10.5219 4.91848C10.1156 4.33877 9.9125 3.73188 9.9125 3.09783C9.9125 2.23732 10.2127 1.50589 10.813 0.903533C11.4134 0.301178 12.1424 0 13 0C13.8576 0 14.5866 0.301178 15.187 0.903533C15.7873 1.50589 16.0875 2.23732 16.0875 3.09783C16.0875 3.73188 15.8799 4.33877 15.4646 4.91848C15.0493 5.49819 14.4986 5.88768 13.8125 6.08696V9.59239C14.3722 9.7192 14.8868 9.93659 15.3562 10.2446C15.8257 10.5525 16.2229 10.9964 16.5479 11.5761L19.825 10.4348V10.3261C19.825 9.46558 20.1252 8.73415 20.7255 8.13179C21.3259 7.52944 22.0549 7.22826 22.9125 7.22826C23.7701 7.22826 24.4991 7.52944 25.0995 8.13179C25.6998 8.73415 26 9.46558 26 10.3261C26 11.1866 25.6998 11.918 25.0995 12.5204C24.4991 13.1227 23.7701 13.4239 22.9125 13.4239C22.3347 13.4239 21.8201 13.2971 21.3687 13.0435C20.9174 12.7899 20.5653 12.4366 20.3125 11.9837L17.0354 13.0978C17.1257 13.6775 17.0851 14.2346 16.9135 14.769C16.742 15.3034 16.4757 15.779 16.1146 16.1957L18.4167 19.0761C18.6153 18.9855 18.8094 18.9176 18.999 18.8723C19.1885 18.827 19.4058 18.8043 19.6506 18.8043C20.5252 18.8043 21.2604 19.1055 21.8562 19.7079C22.4521 20.3102 22.75 21.0417 22.75 21.9022C22.75 22.7627 22.4498 23.4941 21.8495 24.0965C21.2491 24.6988 20.5201 25 19.6625 25C18.8049 25 18.0759 24.6988 17.4755 24.0965C16.8752 23.4941 16.575 22.7627 16.575 21.9022C16.575 21.5399 16.6247 21.2138 16.724 20.9239C16.8233 20.6341 16.9632 20.3533 17.1437 20.0815L14.8417 17.2011C14.2616 17.5091 13.6426 17.663 12.9848 17.663C12.3269 17.663 11.709 17.5091 11.1312 17.2011L8.85625 20.1087C9.03681 20.3804 9.17674 20.6567 9.27604 20.9375C9.37535 21.2183 9.425 21.5399 9.425 21.9022C9.425 22.7627 9.12483 23.4941 8.52448 24.0965C7.92413 24.6988 7.19514 25 6.3375 25ZM3.08845 11.7935C3.50309 11.7935 3.85035 11.6528 4.13021 11.3713C4.41007 11.0899 4.55 10.7412 4.55 10.3251C4.55 9.9091 4.40975 9.56069 4.12926 9.27989C3.84877 8.99909 3.5012 8.8587 3.08655 8.8587C2.67191 8.8587 2.32465 8.99941 2.04479 9.28084C1.76493 9.56227 1.625 9.91101 1.625 10.327C1.625 10.7431 1.76525 11.0915 2.04574 11.3723C2.32623 11.6531 2.6738 11.7935 3.08845 11.7935ZM6.33845 23.3696C6.75309 23.3696 7.10035 23.2289 7.38021 22.9474C7.66007 22.666 7.8 22.3173 7.8 21.9012C7.8 21.4852 7.65975 21.1368 7.37926 20.856C7.09877 20.5752 6.7512 20.4348 6.33655 20.4348C5.92191 20.4348 5.57465 20.5755 5.29479 20.8569C5.01493 21.1384 4.875 21.4871 4.875 21.9031C4.875 22.3192 5.01525 22.6676 5.29574 22.9484C5.57623 23.2292 5.9238 23.3696 6.33845 23.3696ZM13.0009 4.56522C13.4156 4.56522 13.7628 4.4245 14.0427 4.14307C14.3226 3.86164 14.4625 3.51291 14.4625 3.09687C14.4625 2.68084 14.3223 2.33243 14.0418 2.05163C13.7613 1.77083 13.4137 1.63043 12.9991 1.63043C12.5844 1.63043 12.2372 1.77115 11.9573 2.05258C11.6774 2.33401 11.5375 2.68274 11.5375 3.09878C11.5375 3.51481 11.6777 3.86322 11.9582 4.14402C12.2387 4.42482 12.5863 4.56522 13.0009 4.56522ZM13.0135 16.0326C13.6906 16.0326 14.2639 15.7926 14.7333 15.3125C15.2028 14.8324 15.4375 14.2527 15.4375 13.5734C15.4375 12.894 15.2019 12.3188 14.7306 11.8478C14.2594 11.3768 13.6825 11.1413 13 11.1413C12.3319 11.1413 11.7587 11.3777 11.2802 11.8505C10.8017 12.3234 10.5625 12.9022 10.5625 13.587C10.5625 14.2572 10.8017 14.8324 11.2802 15.3125C11.7587 15.7926 12.3365 16.0326 13.0135 16.0326ZM19.6634 23.3696C20.0781 23.3696 20.4253 23.2289 20.7052 22.9474C20.9851 22.666 21.125 22.3173 21.125 21.9012C21.125 21.4852 20.9848 21.1368 20.7043 20.856C20.4238 20.5752 20.0762 20.4348 19.6616 20.4348C19.2469 20.4348 18.8997 20.5755 18.6198 20.8569C18.3399 21.1384 18.2 21.4871 18.2 21.9031C18.2 22.3192 18.3402 22.6676 18.6207 22.9484C18.9012 23.2292 19.2488 23.3696 19.6634 23.3696ZM22.9134 11.7935C23.3281 11.7935 23.6753 11.6528 23.9552 11.3713C24.2351 11.0899 24.375 10.7412 24.375 10.3251C24.375 9.9091 24.2348 9.56069 23.9543 9.27989C23.6738 8.99909 23.3262 8.8587 22.9116 8.8587C22.4969 8.8587 22.1497 8.99941 21.8698 9.28084C21.5899 9.56227 21.45 9.91101 21.45 10.327C21.45 10.7431 21.5902 11.0915 21.8707 11.3723C22.1512 11.6531 22.4988 11.7935 22.9134 11.7935Z" fill="#1E45B8"/>
</svg>
