<svg width="46" height="24" viewBox="0 0 46 24" fill="none" xmlns="http://www.w3.org/2000/svg">
<path d="M12 16C10.9 16 9.95833 15.6083 9.175 14.825C8.39167 14.0417 8 13.1 8 12C8 10.9 8.39167 9.95833 9.175 9.175C9.95833 8.39167 10.9 8 12 8C13.1 8 14.0417 8.39167 14.825 9.175C15.6083 9.95833 16 10.9 16 12C16 13.1 15.6083 14.0417 14.825 14.825C14.0417 15.6083 13.1 16 12 16ZM12 24C8.66667 24 5.83333 22.8333 3.5 20.5C1.16667 18.1667 0 15.3333 0 12C0 8.66667 1.16667 5.83333 3.5 3.5C5.83333 1.16667 8.66667 0 12 0C14.2333 0 16.2583 0.55 18.075 1.65C19.8917 2.75 21.3333 4.2 22.4 6H40L46 12L37 21L33 18L29 21L24.75 18H22.4C21.3333 19.8 19.8917 21.25 18.075 22.35C16.2583 23.45 14.2333 24 12 24ZM12 20C13.8667 20 15.5083 19.4333 16.925 18.3C18.3417 17.1667 19.2833 15.7333 19.75 14H26L28.9 16.05L33 13L36.55 15.75L40.3 12L38.3 10H19.75C19.2833 8.26667 18.3417 6.83333 16.925 5.7C15.5083 4.56667 13.8667 4 12 4C9.8 4 7.91667 4.78333 6.35 6.35C4.78333 7.91667 4 9.8 4 12C4 14.2 4.78333 16.0833 6.35 17.65C7.91667 19.2167 9.8 20 12 20Z" fill="#1E45B8"/>
</svg>
