<svg width="24" height="20" viewBox="0 0 24 20" fill="none" xmlns="http://www.w3.org/2000/svg">
<path d="M4.5 13.2H8.1V11.4H5.1V7.8H8.1V6H4.5C4.16 6 3.875 6.115 3.645 6.345C3.415 6.575 3.3 6.86 3.3 7.2V12C3.3 12.34 3.415 12.625 3.645 12.855C3.875 13.085 4.16 13.2 4.5 13.2ZM9.18 13.2H12.78C13.12 13.2 13.405 13.085 13.635 12.855C13.865 12.625 13.98 12.34 13.98 12V10.2C13.98 9.86 13.865 9.545 13.635 9.255C13.405 8.965 13.12 8.82 12.78 8.82H10.98V7.8H13.98V6H10.38C10.04 6 9.755 6.115 9.525 6.345C9.295 6.575 9.18 6.86 9.18 7.2V9C9.18 9.34 9.295 9.645 9.525 9.915C9.755 10.185 10.04 10.32 10.38 10.32H12.18V11.4H9.18V13.2ZM17.1 13.2H18.9L21 6H19.2L18 10.14L16.8 6H15L17.1 13.2ZM2.4 19.2C1.74 19.2 1.175 18.965 0.705 18.495C0.235 18.025 0 17.46 0 16.8V2.4C0 1.74 0.235 1.175 0.705 0.705C1.175 0.235 1.74 0 2.4 0H21.6C22.26 0 22.825 0.235 23.295 0.705C23.765 1.175 24 1.74 24 2.4V16.8C24 17.46 23.765 18.025 23.295 18.495C22.825 18.965 22.26 19.2 21.6 19.2H2.4ZM2.4 16.8H21.6V2.4H2.4V16.8Z" fill="#1E45B8"/>
</svg>
