<svg width="48" height="48" viewBox="0 0 48 48" fill="none" xmlns="http://www.w3.org/2000/svg">
<g clip-path="url(#clip0_125_2)">
<path d="M44 0H4C1.79086 0 0 1.79086 0 4V44C0 46.2091 1.79086 48 4 48H44C46.2091 48 48 46.2091 48 44V4C48 1.79086 46.2091 0 44 0Z" fill="#1E45B8" fill-opacity="0.08"/>
<g clip-path="url(#clip1_125_2)">
<path d="M17.3333 30.6667H20V24H17.3333V30.6667ZM28 30.6667H30.6667V17.3333H28V30.6667ZM22.6667 30.6667H25.3333V26.6667H22.6667V30.6667ZM22.6667 24H25.3333V21.3333H22.6667V24ZM14.6667 36C13.9333 36 13.3056 35.7389 12.7833 35.2167C12.2611 34.6944 12 34.0667 12 33.3333V14.6667C12 13.9333 12.2611 13.3056 12.7833 12.7833C13.3056 12.2611 13.9333 12 14.6667 12H33.3333C34.0667 12 34.6944 12.2611 35.2167 12.7833C35.7389 13.3056 36 13.9333 36 14.6667V33.3333C36 34.0667 35.7389 34.6944 35.2167 35.2167C34.6944 35.7389 34.0667 36 33.3333 36H14.6667ZM14.6667 33.3333H33.3333V14.6667H14.6667V33.3333Z" fill="#1E45B8"/>
</g>
</g>
<defs>
<clipPath id="clip0_125_2">
<rect width="48" height="48" fill="white"/>
</clipPath>
<clipPath id="clip1_125_2">
<rect width="24" height="24" fill="white" transform="translate(12 12)"/>
</clipPath>
</defs>
</svg>
