<svg width="26" height="23" viewBox="0 0 26 23" fill="none" xmlns="http://www.w3.org/2000/svg">
<path d="M22.295 23C21.4067 23 20.6321 22.7391 19.9712 22.2174C19.3104 21.6956 18.8933 21.062 18.72 20.3167H11.7975C10.3675 20.3167 9.18125 19.8535 8.23875 18.9271C7.29625 18.0007 6.825 16.8347 6.825 15.4292C6.825 14.0236 7.29625 12.8576 8.23875 11.9312C9.18125 11.0049 10.3675 10.5417 11.7975 10.5417H14.3C15.1883 10.5417 15.9142 10.2648 16.4775 9.71111C17.0408 9.15741 17.3225 8.44398 17.3225 7.57083C17.3225 6.69769 17.0408 5.98426 16.4775 5.43056C15.9142 4.87685 15.1883 4.6 14.3 4.6H7.28C7.085 5.34537 6.6625 5.97893 6.0125 6.50069C5.3625 7.02245 4.59333 7.28333 3.705 7.28333C2.665 7.28333 1.7875 6.93194 1.0725 6.22917C0.3575 5.52639 0 4.66389 0 3.64167C0 2.61944 0.3575 1.75694 1.0725 1.05417C1.7875 0.351389 2.665 0 3.705 0C4.59333 0 5.3625 0.26088 6.0125 0.782639C6.6625 1.3044 7.085 1.93796 7.28 2.68333H14.3C15.73 2.68333 16.9163 3.14653 17.8588 4.07292C18.8013 4.99931 19.2725 6.16528 19.2725 7.57083C19.2725 8.97639 18.8013 10.1424 17.8588 11.0687C16.9163 11.9951 15.73 12.4583 14.3 12.4583H11.7975C10.9092 12.4583 10.1833 12.7352 9.62 13.2889C9.05667 13.8426 8.775 14.556 8.775 15.4292C8.775 16.3023 9.05667 17.0157 9.62 17.5694C10.1833 18.1231 10.9092 18.4 11.7975 18.4H18.72C18.915 17.6546 19.3375 17.0211 19.9875 16.4993C20.6375 15.9775 21.4067 15.7167 22.295 15.7167C23.335 15.7167 24.2125 16.0681 24.9275 16.7708C25.6425 17.4736 26 18.3361 26 19.3583C26 20.3806 25.6425 21.2431 24.9275 21.9458C24.2125 22.6486 23.335 23 22.295 23ZM3.705 5.36667C4.20333 5.36667 4.62042 5.20162 4.95625 4.87153C5.29208 4.54144 5.46 4.13148 5.46 3.64167C5.46 3.15185 5.29208 2.7419 4.95625 2.41181C4.62042 2.08171 4.20333 1.91667 3.705 1.91667C3.20667 1.91667 2.78958 2.08171 2.45375 2.41181C2.11792 2.7419 1.95 3.15185 1.95 3.64167C1.95 4.13148 2.11792 4.54144 2.45375 4.87153C2.78958 5.20162 3.20667 5.36667 3.705 5.36667Z" fill="#1E45B8"/>
</svg>
