<svg width="24" height="24" viewBox="0 0 24 24" fill="none" xmlns="http://www.w3.org/2000/svg">
<path d="M2.4 6.85714H19.2V4.57143H2.4V6.85714ZM2.4 22.8571C1.74 22.8571 1.175 22.6333 0.705 22.1857C0.235 21.7381 0 21.2 0 20.5714V4.57143C0 3.94286 0.235 3.40476 0.705 2.95714C1.175 2.50952 1.74 2.28571 2.4 2.28571H3.6V0H6V2.28571H15.6V0H18V2.28571H19.2C19.86 2.28571 20.425 2.50952 20.895 2.95714C21.365 3.40476 21.6 3.94286 21.6 4.57143V11.0571C21.22 10.8857 20.83 10.7429 20.43 10.6286C20.03 10.5143 19.62 10.4286 19.2 10.3714V9.14286H2.4V20.5714H9.96C10.1 20.9905 10.265 21.3905 10.455 21.7714C10.645 22.1524 10.87 22.5143 11.13 22.8571H2.4ZM18 24C16.34 24 14.925 23.4429 13.755 22.3286C12.585 21.2143 12 19.8667 12 18.2857C12 16.7048 12.585 15.3571 13.755 14.2429C14.925 13.1286 16.34 12.5714 18 12.5714C19.66 12.5714 21.075 13.1286 22.245 14.2429C23.415 15.3571 24 16.7048 24 18.2857C24 19.8667 23.415 21.2143 22.245 22.3286C21.075 23.4429 19.66 24 18 24ZM20.01 21L20.85 20.2L18.6 18.0571V14.8571H17.4V18.5143L20.01 21Z" fill="#1E45B8"/>
</svg>
