<svg width="20" height="24" viewBox="0 0 20 24" fill="none" xmlns="http://www.w3.org/2000/svg">
<path d="M4.875 22.2H15.125V18.39C15.125 16.99 14.6302 15.785 13.6406 14.775C12.651 13.765 11.4375 13.26 10 13.26C8.5625 13.26 7.34896 13.765 6.35937 14.775C5.36979 15.785 4.875 16.99 4.875 18.39V22.2ZM0 24V22.2H3V18.39C3 16.99 3.38021 15.705 4.14062 14.535C4.90104 13.365 5.95833 12.52 7.3125 12C5.95833 11.48 4.90104 10.63 4.14062 9.45C3.38021 8.27 3 6.98 3 5.58V1.8H0V0H20V1.8H17V5.58C17 6.98 16.6198 8.27 15.8594 9.45C15.099 10.63 14.0417 11.48 12.6875 12C14.0417 12.52 15.099 13.365 15.8594 14.535C16.6198 15.705 17 16.99 17 18.39V22.2H20V24H0Z" fill="#1E45B8"/>
</svg>
