<svg width="48" height="48" viewBox="0 0 48 48" fill="none" xmlns="http://www.w3.org/2000/svg">
<path d="M18 34C17.45 34 16.9792 33.8042 16.5875 33.4125C16.1958 33.0208 16 32.55 16 32V16C16 15.45 16.1958 14.9792 16.5875 14.5875C16.9792 14.1958 17.45 14 18 14H26L32 20V32C32 32.55 31.8042 33.0208 31.4125 33.4125C31.0208 33.8042 30.55 34 30 34H18ZM25 21V16H18V32H30V21H25Z" fill="#1EB852"/>
<path d="M0 4C0 1.79086 1.79086 0 4 0H44C46.2091 0 48 1.79086 48 4V44C48 46.2091 46.2091 48 44 48H4C1.79086 48 0 46.2091 0 44V4Z" fill="#1EB852" fill-opacity="0.08"/>
</svg>
