<svg width="26" height="21" viewBox="0 0 26 21" fill="none" xmlns="http://www.w3.org/2000/svg">
<path d="M2.6 21C1.885 21 1.27296 20.743 0.763749 20.2289C0.254539 19.7148 0 19.0969 0 18.375V14.4375H2.6V18.375H23.4V2.625H2.6V6.5625H0V2.625C0 1.90312 0.254539 1.2852 0.763749 0.771093C1.27296 0.256987 1.885 0 2.6 0H23.4C24.115 0 24.727 0.256987 25.2362 0.771093C25.7455 1.2852 26 1.90312 26 2.625V18.375C26 19.0969 25.7455 19.7148 25.2362 20.2289C24.727 20.743 24.115 21 23.4 21H2.6ZM12.35 16.4062L10.53 14.5031L13.2275 11.8125H0V9.1875H13.2275L10.53 6.49688L12.35 4.59375L18.2 10.5L12.35 16.4062Z" fill="#1E45B8"/>
</svg>
