<svg width="500" height="500" viewBox="0 0 500 500" fill="none" xmlns="http://www.w3.org/2000/svg">
<g clip-path="url(#clip0_27_158)">
<path d="M476.908 339.596C476.908 362.445 460.68 390.513 440.975 401.879L285.886 491.417C266.066 502.899 233.726 502.899 214.021 491.417L58.9324 401.879C39.1116 390.397 23 362.445 23 339.596V160.404C23 137.555 39.1116 109.487 58.9324 98.121L214.021 8.58264C233.842 -2.89962 266.181 -2.89962 285.886 8.58264L440.859 98.121C460.68 109.487 476.792 137.555 476.792 160.404L476.908 339.596Z" fill="#F15A2B"/>
<path d="M205.908 208.536H411.302V150.777H206.371C177.046 150.777 152.705 160.868 134.159 180.585C89.417 228.253 88.2579 348.295 88.2579 348.295H409.795V239.736H352.072V290.536H149.923C151.198 271.631 159.891 237.764 176.35 220.251C183.769 212.248 193.157 208.536 205.908 208.536Z" fill="white"/>
</g>
<defs>
<clipPath id="clip0_27_158">
<rect width="500" height="500" fill="white"/>
</clipPath>
</defs>
</svg>
