<svg width="21" height="22" viewBox="0 0 21 22" fill="none" xmlns="http://www.w3.org/2000/svg">
<path d="M10.5 0C8.4233 0 6.39323 0.645139 4.66652 1.85383C2.9398 3.06253 1.59399 4.78049 0.799269 6.79048C0.0045495 8.80047 -0.203386 11.0122 0.201759 13.146C0.606904 15.2798 1.60693 17.2398 3.07538 18.7782C4.54383 20.3165 6.41475 21.3642 8.45156 21.7886C10.4884 22.2131 12.5996 21.9952 14.5182 21.1627C16.4368 20.3301 18.0767 18.9202 19.2304 17.1113C20.3842 15.3023 21 13.1756 21 11C20.997 8.08359 19.8898 5.28753 17.9213 3.22531C15.9528 1.16309 13.2839 0.00315432 10.5 0V0ZM18.0661 6.41667H15.2478C14.6168 4.8849 13.7861 3.45224 12.7794 2.15967C15.0076 2.79485 16.907 4.32435 18.0661 6.41667ZM14.4375 11C14.4303 11.9333 14.2899 12.8602 14.021 13.75H6.979C6.71007 12.8602 6.56969 11.9333 6.5625 11C6.56969 10.0667 6.71007 9.13978 6.979 8.25H14.021C14.2899 9.13978 14.4303 10.0667 14.4375 11ZM7.68075 15.5833H13.3193C12.5766 17.1194 11.6271 18.5358 10.5 19.789C9.37245 18.5361 8.42296 17.1197 7.68075 15.5833ZM7.68075 6.41667C8.42342 4.88058 9.37287 3.46423 10.5 2.211C11.6276 3.46387 12.577 4.88029 13.3193 6.41667H7.68075ZM8.225 2.15967C7.21671 3.45197 6.38451 4.88464 5.75225 6.41667H2.93388C4.094 4.3234 5.9952 2.79377 8.225 2.15967ZM2.15338 8.25H5.1625C4.93567 9.14755 4.81807 10.0715 4.8125 11C4.81807 11.9285 4.93567 12.8524 5.1625 13.75H2.15338C1.61555 11.96 1.61555 10.04 2.15338 8.25ZM2.93388 15.5833H5.75225C6.38451 17.1154 7.21671 18.548 8.225 19.8403C5.9952 19.2062 4.094 17.6766 2.93388 15.5833ZM12.7794 19.8403C13.7861 18.5478 14.6168 17.1151 15.2478 15.5833H18.0661C16.907 17.6756 15.0076 19.2051 12.7794 19.8403ZM18.8466 13.75H15.8375C16.0643 12.8524 16.1819 11.9285 16.1875 11C16.1819 10.0715 16.0643 9.14755 15.8375 8.25H18.8449C19.3827 10.04 19.3827 11.96 18.8449 13.75H18.8466Z" fill="#189EFF"/>
</svg>
