<?xml version="1.0" encoding="UTF-8"?>
<svg id="image_2" xmlns="http://www.w3.org/2000/svg" version="1.1" xmlns:xlink="http://www.w3.org/1999/xlink" viewBox="0 0 566.9 566.9">
  <!-- Generator: Adobe Illustrator 29.1.0, SVG Export Plug-In . SVG Version: 2.1.0 Build 142)  -->
  <defs>
    <style>
      .st0 {
        fill: url(#linear-gradient2);
      }

      .st1 {
        fill: url(#linear-gradient1);
      }

      .st2 {
        fill: #f8f3ff;
      }

      .st3 {
        fill: url(#linear-gradient);
      }
    </style>
    <linearGradient id="linear-gradient" x1="170" y1="414.1" x2="329.9" y2="233.3" gradientUnits="userSpaceOnUse">
      <stop offset="0" stop-color="#00debc"/>
      <stop offset=".3" stop-color="#00b8ff"/>
      <stop offset=".7" stop-color="#d25cf1"/>
      <stop offset="1" stop-color="#fa42b1"/>
    </linearGradient>
    <linearGradient id="linear-gradient1" x1="171.7" y1="415.6" x2="331.6" y2="234.8" xlink:href="#linear-gradient"/>
    <linearGradient id="linear-gradient2" x1="170.3" y1="414.3" x2="330.2" y2="233.5" xlink:href="#linear-gradient"/>
  </defs>
  <rect class="st2" x="-10" y="-10" width="589.8" height="589.8"/>
  <g>
    <path class="st3" d="M393.7,318.6c-.2-13.4-16.6-20.3-26.3-10.9-1.4,1.4-4.6,6.6-4.6,8.5v29.4c-14.4-16.4-39.7-19-56.7-4.8-6.2,5.2-11.4,15.6-21,9.4-21.6-21-42-43.5-64.5-63.4-12.9-8.4-29.8-9-43.1-1.1v-55.3c0-9.8,12.7-22,22.6-22.3,28-1.9,13.4,2.1,41.2-.1,18.5-1.5,19.7-26.6,2.2-30.9h-45.1c-26.9,2.2-49.1,25-51.6,51.6v143.8c.8,3.4,1.1,6.8,2.1,10.2,6.3,23.1,27.4,39.8,51.2,41.4h140.4c28.4-1.8,51.6-24.8,53.3-53.3,1.7-28-1.4-24.2,0-52.4ZM357,383.9c-4.5,5.4-11.1,8.7-18,9.5h-137.5c-33.6-4.5-21.7-41.3-23.9-65l.5-1.4c5.3-4,12.5-15.4,19.2-16,2.6-.2,5,1,7.1,2.3l60.1,60.1c15.4,12.8,37.3,13,52.6,0,6.4-5.4,11.7-15.8,21.5-8.4,3.5,2.6,15.2,14.3,17.9,17.8.3.4.8.6.7,1.2Z"/>
    <g>
      <path class="st1" d="M375.2,233.7l-12.3,28.5c-1,2.3-4.2,2.3-5.2,0l-12.7-29c-3.1-7-8.7-12.6-15.7-15.7l-29-12.7c-2.3-1-2.3-4.2,0-5.2l29-12.7c7-3.1,12.6-8.7,15.7-15.7l12.7-29c1-2.3,4.2-2.3,5.2,0l12.7,29c3.1,7,8.7,12.6,15.7,15.7l29.1,12.7c2.3,1,2.3,4.2,0,5.2l-29.6,13.1c-7,3.1-12.6,8.8-15.6,15.8h0Z"/>
      <path class="st0" d="M331.1,275.2l-17.9,7.9c-4.2,1.9-7.6,5.3-9.5,9.5l-7.4,17.3c-.6,1.4-2.5,1.4-3.1,0l-7.7-17.6c-1.9-4.3-5.2-7.6-9.5-9.5l-17.6-7.7c-1.4-.6-1.4-2.5,0-3.1l17.6-7.7c4.3-1.9,7.6-5.2,9.5-9.5l7.7-17.6c.6-1.4,2.5-1.4,3.1,0l7.7,17.6c1.9,4.3,5.2,7.6,9.5,9.5l17.6,7.7c1.4.6,1.4,2.5,0,3.1Z"/>
    </g>
  </g>
</svg>