<svg width="500" height="500" viewBox="0 0 500 500" fill="none" xmlns="http://www.w3.org/2000/svg">
<path d="M144.546 475.169C153.986 484.32 147.315 500 133.91 500H50.0201C33.4687 500 20 486.944 20 470.899V389.573C20 376.578 36.1747 370.112 45.6143 379.263L144.546 475.169Z" fill="#0A1551"/>
<path d="M275.684 481.498C250.851 456.827 250.853 416.829 275.684 392.159L365.302 303.126C390.134 278.455 430.393 278.455 455.226 303.126C480.057 327.796 480.057 367.793 455.226 392.464L365.608 481.498C340.776 506.167 300.516 506.167 275.684 481.498Z" fill="#FFB629"/>
<path d="M38.927 257.781C14.0961 233.111 14.0961 193.113 38.927 168.442L189.745 18.5032C214.576 -6.16773 254.837 -6.16773 279.669 18.5032C304.5 43.1726 304.5 83.1705 279.669 107.841L128.851 257.781C104.019 282.45 63.7594 282.45 38.927 257.781Z" fill="#0099FF"/>
<path d="M162.219 364.648C137.386 339.978 137.386 299.979 162.219 275.31L366 72.8563C390.832 48.1854 431.092 48.1854 455.924 72.8563C480.756 97.5257 480.756 137.524 455.924 162.195L252.142 364.648C227.311 389.317 187.05 389.317 162.219 364.648Z" fill="#FF6100"/>
</svg>
