<svg width="20" height="21" viewBox="0 0 20 21" fill="none" xmlns="http://www.w3.org/2000/svg">
<path d="M7.72601 21C6.57288 20.9922 5.64268 20.8628 4.93542 20.612C4.22817 20.3611 3.7131 19.9731 3.39022 19.4479C3.06734 18.9306 2.9059 18.2721 2.9059 17.4726L2.9059 13.8158C2.9059 13.2828 2.79443 12.8555 2.57149 12.5342C2.34855 12.2128 2.02183 11.9776 1.59133 11.8287C1.16082 11.6797 0.630381 11.6053 0 11.6053L0 9.38298C0.630381 9.38298 1.16082 9.31243 1.59133 9.17133C2.02183 9.0224 2.34855 8.78723 2.57149 8.46584C2.79443 8.13662 2.9059 7.70941 2.9059 7.18421L2.9059 3.50392C2.9059 2.69653 3.07119 2.03415 3.40175 1.5168C3.73232 0.99944 4.25123 0.619261 4.95849 0.37626C5.67343 0.12542 6.59594 2.82752e-10 7.72601 2.79614e-10L7.72601 2.11646C7.23401 2.13214 6.81119 2.20269 6.45756 2.32811C6.10394 2.45353 5.83487 2.66125 5.65037 2.95129C5.46587 3.23348 5.37362 3.6215 5.37362 4.11534L5.37362 7.64278C5.37362 8.41881 5.15452 9.03807 4.71633 9.50056C4.28582 9.96305 3.64007 10.2688 2.77906 10.4177L2.77906 10.5588C3.64776 10.692 4.29736 10.9938 4.72786 11.4642C5.15836 11.9267 5.37362 12.5459 5.37362 13.3219L5.37362 16.8847C5.37362 17.3785 5.46587 17.7665 5.65037 18.0487C5.83487 18.3387 6.10394 18.5426 6.45756 18.6601C6.81119 18.7856 7.23401 18.8522 7.72601 18.86L7.72601 21Z" fill="#1E45B8"/>
<path d="M12 21L12 18.86C12.4843 18.8443 12.8994 18.7738 13.2454 18.6484C13.599 18.5308 13.8681 18.327 14.0526 18.037C14.2448 17.7548 14.3409 17.3667 14.3409 16.8729L14.3409 13.3337C14.3409 12.5577 14.56 11.9384 14.9982 11.4759C15.4363 11.0056 16.0821 10.7038 16.9354 10.5705L16.9354 10.4295C16.0744 10.2805 15.4248 9.9748 14.9866 9.51232C14.5561 9.04983 14.3409 8.43057 14.3409 7.65453L14.3409 4.10358C14.3409 3.60974 14.2486 3.22172 14.0641 2.93953C13.8796 2.6495 13.6105 2.44177 13.2569 2.31635C12.911 2.19093 12.492 2.1243 12 2.11646L12 0C13.1454 0 14.0718 0.12542 14.7791 0.37626C15.4863 0.6271 16.0014 1.0112 16.3243 1.52856C16.6471 2.04591 16.8086 2.70829 16.8086 3.51568L16.8086 7.17245C16.8086 7.70549 16.92 8.13662 17.143 8.46584C17.3659 8.78723 17.6927 9.0224 18.1232 9.17133C18.5537 9.31243 19.0841 9.38298 19.7145 9.38298L19.7145 11.6053C19.0841 11.6053 18.5537 11.6797 18.1232 11.8287C17.6927 11.9776 17.3659 12.2128 17.143 12.5342C16.92 12.8555 16.8086 13.2788 16.8086 13.804L16.8086 17.4843C16.8086 18.2839 16.6433 18.9423 16.3127 19.4597C15.9822 19.9849 15.4633 20.3729 14.756 20.6237C14.0487 20.8746 13.1301 21 12 21Z" fill="#1E45B8"/>
</svg>
