<svg width="512" height="512" viewBox="0 0 512 512" fill="none" xmlns="http://www.w3.org/2000/svg">
<path d="M0 245.76C0 129.908 0 71.9814 35.9907 35.9907C71.9814 0 129.908 0 245.76 0H266.24C382.092 0 440.019 0 476.009 35.9907C512 71.9814 512 129.908 512 245.76V266.24C512 382.092 512 440.019 476.009 476.009C440.019 512 382.092 512 266.24 512H245.76C129.908 512 71.9814 512 35.9907 476.009C0 440.019 0 382.092 0 266.24V245.76Z" fill="#8D34F0"/>
<rect x="512" y="512" width="512" height="512" rx="122.88" transform="rotate(-180 512 512)" fill="url(#paint0_linear_2038_105)"/>
<path d="M512 245.76C512 129.908 512 71.9814 476.009 35.9907C440.019 -1.46484e-05 382.092 -1.01174e-05 266.24 1.07414e-08L245.76 1.80116e-06C129.908 1.19293e-05 71.9814 1.70898e-05 35.9907 35.9907C-1.46484e-05 71.9815 -1.01174e-05 129.908 1.07411e-08 245.76L1.80116e-06 266.24C1.19293e-05 382.092 1.70898e-05 440.019 35.9907 476.009C71.9815 512 129.908 512 245.76 512H266.24C382.092 512 440.019 512 476.009 476.009C512 440.019 512 382.092 512 266.24V245.76Z" fill="url(#paint1_linear_2038_105)"/>
<path d="M194.628 424.003C180.507 434.186 160.386 431.366 151.104 417.084C120.144 369.446 102.4 314.007 102.4 254.839C102.4 196.709 119.526 142.179 149.485 95.11C158.584 80.8137 178.548 77.7785 192.716 87.7755C195.325 89.6164 198.024 91.5279 200.821 93.5079C210.326 100.238 212.296 112.84 206.121 122.408C180.996 161.339 166.609 206.577 166.609 254.839C166.609 303.509 181.241 349.105 206.763 388.259C213.388 398.422 211.434 411.86 201.386 419.122C199.068 420.797 196.816 422.425 194.628 424.003Z" fill="url(#paint2_linear_2038_105)"/>
<path d="M286.032 153.838C271.124 143.283 249.639 146.421 241.385 162.166C226.648 190.28 218.408 221.693 218.408 254.839C218.408 288.676 226.996 320.709 242.318 349.269C250.73 364.95 272.26 367.897 287.063 357.198L293.695 352.405C307.358 342.53 310.225 324.502 303.738 309.483C296.42 292.539 292.406 274.11 292.406 254.839C292.406 236.038 296.226 218.041 303.207 201.441C309.552 186.353 306.503 168.332 292.724 158.577L286.032 153.838Z" fill="url(#paint3_linear_2038_105)"/>
<path d="M387.691 224.211C372.075 212.753 347.871 218.623 344.397 236.969C343.297 242.778 342.724 248.748 342.724 254.839C342.724 261.198 343.349 267.426 344.545 273.475C348.174 291.818 372.472 297.495 387.988 285.881C399.826 277.021 409.666 266.797 409.6 254.925C409.534 243.069 399.602 232.95 387.691 224.211Z" fill="url(#paint4_linear_2038_105)"/>
<defs>
<linearGradient id="paint0_linear_2038_105" x1="791.04" y1="437.76" x2="811.52" y2="737.28" gradientUnits="userSpaceOnUse">
<stop stop-color="#F4B7FF" stop-opacity="0.7"/>
<stop offset="0.495" stop-color="#F4B7FF" stop-opacity="0"/>
</linearGradient>
<linearGradient id="paint1_linear_2038_105" x1="94.72" y1="1.26488e-05" x2="358.4" y2="335.36" gradientUnits="userSpaceOnUse">
<stop stop-color="#F4B7FF" stop-opacity="0.7"/>
<stop offset="0.95" stop-color="#F4B7FF" stop-opacity="0"/>
</linearGradient>
<linearGradient id="paint2_linear_2038_105" x1="256" y1="70.2478" x2="256" y2="441.948" gradientUnits="userSpaceOnUse">
<stop stop-color="white"/>
<stop offset="1" stop-color="#EFEFEF"/>
</linearGradient>
<linearGradient id="paint3_linear_2038_105" x1="256" y1="70.2478" x2="256" y2="441.948" gradientUnits="userSpaceOnUse">
<stop stop-color="white"/>
<stop offset="1" stop-color="#EFEFEF"/>
</linearGradient>
<linearGradient id="paint4_linear_2038_105" x1="256" y1="70.2478" x2="256" y2="441.948" gradientUnits="userSpaceOnUse">
<stop stop-color="white"/>
<stop offset="1" stop-color="#EFEFEF"/>
</linearGradient>
</defs>
</svg>
