<?xml version="1.0" encoding="UTF-8"?><svg id="Layer_1" xmlns="http://www.w3.org/2000/svg" width="104" height="104" viewBox="0 0 104 104"><defs><style>.cls-1{fill:none;}.cls-2{fill:#857aeb;}</style></defs><path class="cls-2" d="m93.5,10.5c-2.45-2.46-6.12-3.21-9.35-1.92L12.17,37.37c-3.21,1.29-5.3,4.23-5.44,7.69-.14,3.46,1.69,6.56,4.78,8.11l21.31,10.65,7.75-7.75-20.96-10.48,64.65-25.86-25.86,64.65-10.48-20.96-7.75,7.75,10.65,21.31c1.49,2.98,4.43,4.79,7.73,4.79.12,0,.25,0,.38,0,3.46-.14,6.4-2.23,7.69-5.44l28.79-71.99c1.29-3.22.54-6.89-1.92-9.35Z"/><rect class="cls-1" width="104" height="104"/></svg>