<svg width="21" height="21" viewBox="0 0 21 21" fill="none" xmlns="http://www.w3.org/2000/svg">
<path d="M12.8002 2.90024L10.8002 4.80024M3.90024 6.80024L1.00024 6.00024M4.80024 10.8002L2.90024 12.8002M6.00024 1.00024L6.80024 3.90024M7.83724 8.49024C7.79847 8.3989 7.78787 8.29805 7.8068 8.20063C7.82574 8.10322 7.87334 8.01368 7.94351 7.94351C8.01368 7.87334 8.10322 7.82574 8.20063 7.8068C8.29805 7.78787 8.3989 7.79847 8.49024 7.83724L19.4902 12.3372C19.5881 12.3774 19.6708 12.4476 19.7263 12.5377C19.7817 12.6278 19.8072 12.7332 19.799 12.8387C19.7907 12.9442 19.7493 13.0444 19.6805 13.1248C19.6117 13.2052 19.5192 13.2617 19.4162 13.2862L15.0672 14.3272C14.8877 14.3701 14.7235 14.4619 14.5929 14.5923C14.4623 14.7227 14.3704 14.8868 14.3272 15.0662L13.2872 19.4162C13.263 19.5195 13.2065 19.6124 13.126 19.6815C13.0455 19.7506 12.9451 19.7923 12.8393 19.8005C12.7335 19.8088 12.6279 19.7831 12.5376 19.7274C12.4474 19.6716 12.3772 19.5885 12.3372 19.4902L7.83724 8.49024Z" stroke="#6308F7" stroke-width="2" stroke-linecap="round" stroke-linejoin="round"/>
</svg>
