<svg width="44" height="44" viewBox="0 0 44 44" fill="none" xmlns="http://www.w3.org/2000/svg">
<rect width="44" height="44" rx="4" fill="#EDFAF2"/>
<mask id="path-2-outside-1_220_4167" maskUnits="userSpaceOnUse" x="6.98438" y="7.58057" width="30" height="29" fill="black">
<rect fill="white" x="6.98438" y="7.58057" width="30" height="29"/>
<path d="M20.1811 8.59054C20.228 8.59039 20.2748 8.59024 20.3231 8.59008C20.5701 8.58926 20.8171 8.58875 21.0641 8.58852C21.3176 8.58821 21.5711 8.58689 21.8246 8.58534C22.0214 8.58432 22.2182 8.58404 22.415 8.58396C22.5085 8.58379 22.602 8.58336 22.6954 8.58263C23.7836 8.57481 23.7836 8.57481 24.1411 8.85971C24.1653 8.89186 24.1896 8.924 24.2146 8.95712C24.2399 8.98927 24.2653 9.02141 24.2915 9.05453C24.4401 9.28818 24.4357 9.538 24.406 9.80478C24.2835 10.2169 23.955 10.5652 23.695 10.8985C23.7883 10.9115 23.7883 10.9115 23.8834 10.9248C24.8369 11.0655 25.7949 11.3169 26.4294 12.1017C26.6297 12.3722 26.7575 12.6322 26.8469 12.9574C26.9615 13.3671 27.1011 13.5746 27.47 13.8029C27.7028 13.951 27.8933 14.1364 28.0946 14.324C28.2115 14.4323 28.3306 14.5355 28.4528 14.6378C29.5744 15.6205 30.3981 16.9413 31.0231 18.2813C31.0516 18.3415 31.0801 18.4017 31.1095 18.4638C31.9374 20.2983 32.1516 22.2502 32.1169 24.2423C32.166 24.2596 32.215 24.277 32.2656 24.2948C33.7641 24.8461 34.8876 25.9122 35.5658 27.3537C36.117 28.5959 36.2118 30.1139 35.781 31.4063C35.7612 31.468 35.7413 31.5297 35.7209 31.5933C35.4906 32.2469 35.1368 32.8485 34.6872 33.3751C34.6515 33.4187 34.6157 33.4624 34.5789 33.5073C33.607 34.6492 32.1961 35.2561 30.7224 35.3849C29.2782 35.4749 27.7842 35.0403 26.6774 34.0931C26.5361 33.9671 26.3995 33.8368 26.2653 33.7032C26.2268 33.7225 26.1884 33.7417 26.1487 33.7615C26.0332 33.8193 25.9176 33.8769 25.802 33.9344C25.6779 33.9967 25.5544 34.0602 25.4316 34.1249C22.7455 35.5233 19.4423 35.7697 16.5547 34.8938C15.8256 34.6631 15.1199 34.397 14.4468 34.0325C14.3424 33.9761 14.2371 33.9213 14.1318 33.8666C13.2974 33.4246 12.5422 32.8562 11.8642 32.2006C11.7222 32.0622 11.7222 32.0622 11.5736 31.9472C11.4564 31.853 11.3639 31.7602 11.2673 31.6456C11.1641 31.5242 11.0608 31.4048 10.9513 31.2891C9.15744 29.3849 8.01171 26.569 7.98668 23.9605C7.98614 23.9141 7.98561 23.8676 7.98506 23.8198C7.95552 20.5921 8.88385 17.5262 11.1457 15.1449C11.2426 15.0412 11.3334 14.9381 11.423 14.8286C11.5266 14.7051 11.6236 14.6012 11.7458 14.4976C11.7827 14.4661 11.8197 14.4346 11.8577 14.4022C11.902 14.3649 11.9463 14.3276 11.9919 14.2892C12.0515 14.2384 12.111 14.1876 12.1705 14.1368C12.234 14.0828 12.2975 14.0287 12.361 13.9747C12.3914 13.9489 12.4217 13.9231 12.453 13.8965C12.694 13.6926 12.694 13.6926 12.8252 13.6182C12.9868 13.4595 13.0068 13.2507 13.0549 13.0348C13.4125 11.5688 14.2651 10.3847 15.5466 9.58603C16.993 8.73316 18.5377 8.59427 20.1811 8.59054ZM14.8527 11.4351C13.9777 12.4383 13.8305 13.6288 13.8444 14.9078C13.845 14.9968 13.8455 15.0858 13.8459 15.1747C13.8471 15.39 13.849 15.6052 13.8513 15.8204C13.8829 15.8125 13.9146 15.8045 13.9472 15.7964C14.1988 15.7363 14.4185 15.7063 14.6784 15.7144C14.8879 15.7004 14.9683 15.6918 15.1093 15.5327C15.1715 15.4269 15.2315 15.3198 15.2894 15.2116C15.5168 14.8286 15.8967 14.6305 16.3122 14.5079C16.5333 14.4629 16.7465 14.448 16.9719 14.443C17.6663 14.4231 18.0769 14.1554 18.6376 13.7715C19.164 13.417 19.7294 13.3075 20.3591 13.3595C21.0211 13.4916 21.5623 13.837 22.1072 14.2202C22.3801 14.3893 22.627 14.4157 22.9431 14.4259C23.4534 14.4503 23.8487 14.5032 24.2942 14.7694C24.4042 14.8384 24.4042 14.8384 24.5228 14.8856C24.6862 14.9815 24.7194 15.1129 24.77 15.2893C24.8292 15.4534 24.8763 15.5387 25.0075 15.6563C25.2886 15.7421 25.589 15.7484 25.881 15.7573C25.9961 15.766 26.0997 15.7894 26.2106 15.8204C26.2765 14.0721 26.2765 14.0721 25.5544 12.5392C25.0159 12.0545 24.3762 11.9215 23.6772 11.8399C23.357 11.7981 23.1106 11.7189 22.9042 11.4512C22.7856 11.2023 22.7218 11.0148 22.7653 10.7345C22.9088 10.3498 23.1437 10.0286 23.3902 9.70373C23.4817 9.60298 23.4817 9.60298 23.4763 9.53134C22.9076 9.52879 22.339 9.52685 21.7704 9.52567C21.5062 9.52511 21.2421 9.52434 20.978 9.52309C20.7223 9.52189 20.4666 9.52124 20.211 9.52096C20.1142 9.52076 20.0174 9.52037 19.9207 9.51978C17.9439 9.50807 16.2485 9.96161 14.8527 11.4351ZM18.6874 14.8002C18.31 15.0603 17.9254 15.273 17.4581 15.2851C17.4164 15.2866 17.3746 15.2882 17.3316 15.2898C17.2453 15.2926 17.159 15.295 17.0727 15.297C16.7095 15.3117 16.3338 15.3706 16.073 15.6495C16.0477 15.6753 16.0225 15.7011 15.9965 15.7277C15.8287 15.9596 15.8061 16.1782 15.805 16.4591C15.8047 16.4947 15.8044 16.5304 15.8042 16.567C15.8034 16.6844 15.8034 16.8017 15.8036 16.9191C15.8034 17.0014 15.8031 17.0838 15.8029 17.1662C15.8025 17.339 15.8025 17.5118 15.8028 17.6846C15.8031 17.9039 15.8022 18.1232 15.8009 18.3426C15.8001 18.5129 15.8 18.6833 15.8002 18.8537C15.8002 18.9344 15.7999 19.0151 15.7993 19.0959C15.7916 20.3818 16.1728 21.4611 17.0778 22.3829C17.1148 22.4213 17.1519 22.4596 17.19 22.4991C18.0203 23.2997 19.1431 23.5594 20.2659 23.5429C21.1477 23.5138 21.968 23.2076 22.656 22.6563C22.7008 22.6211 22.7456 22.5858 22.7918 22.5495C23.6643 21.8179 24.1219 20.8214 24.2303 19.6995C24.2523 19.395 24.252 19.0904 24.253 18.7853C24.2533 18.7144 24.2536 18.6435 24.254 18.5705C24.2545 18.4213 24.2548 18.2722 24.255 18.123C24.2553 17.9332 24.2567 17.7433 24.2582 17.5535C24.2595 17.3705 24.2596 17.1875 24.2598 17.0045C24.2609 16.9032 24.2609 16.9032 24.2619 16.7999C24.2608 16.3894 24.2469 15.9879 23.9896 15.6497C23.9589 15.626 23.9283 15.6022 23.8967 15.5777C23.8513 15.5406 23.8513 15.5406 23.805 15.5027C23.5093 15.3276 23.2283 15.3149 22.8952 15.3077C22.1706 15.2748 21.6871 15.0571 21.1017 14.6353C20.2282 14.0151 19.516 14.2266 18.6874 14.8002ZM12.5661 15.0514C12.5216 15.0925 12.5216 15.0925 12.4762 15.1345C11.1816 16.337 10.2086 17.7747 9.58565 19.4298C9.57059 19.469 9.55553 19.5082 9.54001 19.5485C9.16472 20.5387 8.92703 21.6315 8.91637 22.692C8.91583 22.7363 8.91529 22.7805 8.91474 22.8261C8.90509 23.8257 8.91509 24.7955 9.14815 25.7735C9.16708 25.8537 9.16708 25.8537 9.18639 25.9355C9.50636 27.3993 9.50636 27.3993 10.2966 28.5626C10.3251 28.5282 10.3537 28.4938 10.3831 28.4583C11.2169 27.4887 12.3732 27.0299 13.5501 26.608C13.8806 26.4893 14.2104 26.3685 14.5397 26.2465C14.6509 26.2055 14.7623 26.1652 14.8738 26.1249C15.6437 25.8428 16.3591 25.5411 16.7702 24.7892C16.8734 24.5577 16.9325 24.3285 16.9685 24.0782C16.9776 24.0295 16.9866 23.9808 16.996 23.9306C17.0147 23.7611 17.0152 23.6412 16.9685 23.4767C16.836 23.3334 16.6931 23.2276 16.5352 23.1131C15.7321 22.4995 15.3108 21.5248 15.0544 20.5782C15.0364 20.5241 15.0183 20.4699 14.9997 20.4142C14.9377 20.4088 14.8756 20.4034 14.8117 20.3979C13.9893 20.3193 13.9893 20.3193 13.6325 20.086C13.584 20.0556 13.5355 20.0251 13.4856 19.9937C13.0985 19.6067 12.9605 19.0984 12.9588 18.5623C12.9583 18.5211 12.9577 18.48 12.9572 18.4376C12.9555 18.303 12.9546 18.1684 12.9536 18.0338C12.9526 17.9399 12.9515 17.846 12.9504 17.7522C12.9476 17.5061 12.9454 17.26 12.9434 17.014C12.9412 16.7625 12.9384 16.511 12.9357 16.2595C12.9304 15.7668 12.9258 15.2741 12.9216 14.7813C12.7949 14.7813 12.6589 14.9654 12.5661 15.0514ZM27.1403 14.7813C27.132 15.0081 27.1242 15.2348 27.1164 15.4615C27.1151 15.4975 27.1139 15.5335 27.1125 15.5706C27.0938 16.1032 27.083 16.6356 27.0775 17.1686C27.0753 17.3495 27.0729 17.5305 27.0706 17.7114C27.0692 17.8311 27.0683 17.9508 27.0677 18.0704C27.0669 18.2409 27.0647 18.4113 27.0624 18.5817C27.0625 18.6577 27.0625 18.6577 27.0627 18.7353C27.0533 19.2347 26.8793 19.6293 26.5362 19.9918C26.1251 20.3544 25.5843 20.3655 25.0622 20.4142C25.0532 20.4427 25.0442 20.4713 25.0349 20.5007C24.6767 21.6179 24.2321 22.5249 23.302 23.2682C23.1427 23.4051 23.1427 23.4051 23.0593 23.5916C23.0556 23.7231 23.0704 23.8393 23.0935 23.9688C23.099 24.0176 23.1045 24.0663 23.1101 24.1165C23.1816 24.6392 23.4177 25.0849 23.8044 25.4454C24.1682 25.6971 24.5616 25.8775 24.9699 26.0435C25.0226 26.066 25.0752 26.0885 25.1294 26.1116C25.1803 26.1325 25.2313 26.1534 25.2837 26.1749C25.3292 26.1937 25.3747 26.2126 25.4216 26.232C25.5798 26.2722 25.6731 26.2608 25.8278 26.211C25.9327 26.1118 26.0227 26.0165 26.1149 25.9068C26.1683 25.8464 26.2219 25.7862 26.2756 25.7261C26.3149 25.6819 26.3149 25.6819 26.3551 25.6369C27.2447 24.6545 28.6243 24.1131 29.9294 24.0235C30.1403 24.0178 30.3508 24.0183 30.5617 24.0201C30.6445 24.0205 30.6445 24.0205 30.7289 24.0209C30.8634 24.0215 30.998 24.0224 31.1325 24.0235C31.5492 21.7835 30.5958 19.086 29.3859 17.2286C28.9709 16.6282 28.5209 16.0727 28.0153 15.547C27.9723 15.5021 27.9723 15.5021 27.9284 15.4564C27.8405 15.3653 27.752 15.2749 27.6633 15.1847C27.6362 15.1568 27.609 15.129 27.5811 15.1003C27.4421 14.961 27.318 14.8636 27.1403 14.7813ZM14.07 16.8048C13.7871 17.1267 13.8392 17.5022 13.8381 17.9063C13.8376 18.024 13.8359 18.1417 13.8342 18.2594C13.8338 18.3349 13.8335 18.4103 13.8333 18.4858C13.8328 18.554 13.8323 18.6223 13.8318 18.6926C13.8603 18.9709 13.9474 19.1482 14.1521 19.3375C14.4201 19.5184 14.533 19.4845 14.8903 19.4845C14.8903 18.528 14.8903 17.5715 14.8903 16.586C14.4081 16.5668 14.4081 16.5668 14.07 16.8048ZM25.1716 16.586C25.1716 17.5425 25.1716 18.499 25.1716 19.4845C25.5173 19.4845 25.6502 19.4829 25.9372 19.3204C26.1444 19.0712 26.1886 18.8686 26.185 18.5531C26.1853 18.4912 26.1853 18.4912 26.1856 18.4281C26.1858 18.3413 26.1854 18.2545 26.1845 18.1678C26.1833 18.0356 26.1845 17.9036 26.1859 17.7714C26.1857 17.6868 26.1854 17.6021 26.185 17.5174C26.1855 17.4783 26.1859 17.4391 26.1864 17.3988C26.1812 17.1215 26.1117 16.9635 25.9372 16.7501C25.6559 16.5583 25.5435 16.586 25.1716 16.586ZM17.8981 24.0235C17.8811 24.105 17.8811 24.105 17.8638 24.188C17.7272 24.8029 17.5318 25.3829 17.1325 25.8829C17.6731 26.7668 18.2534 27.3786 19.2886 27.6703C20.0968 27.8572 20.9765 27.7263 21.6904 27.2984C22.2189 26.9237 22.7192 26.4588 22.9294 25.8282C22.8723 25.7343 22.8723 25.7343 22.7858 25.6402C22.409 25.1599 22.283 24.6208 22.2185 24.0235C22.1866 24.0335 22.1547 24.0434 22.1219 24.0536C20.692 24.4921 19.3148 24.5613 17.8981 24.0235ZM26.6276 26.6451C25.8308 27.6521 25.4245 28.9164 25.5666 30.2042C25.6979 31.1686 26.0803 32.0273 26.7028 32.7735C26.7447 32.8263 26.7866 32.8791 26.8297 32.9335C27.5807 33.8305 28.7974 34.3254 29.932 34.455C31.2577 34.5401 32.4959 34.1196 33.4978 33.2418C33.5853 33.1596 33.6719 33.0764 33.7575 32.9923C33.7951 32.9554 33.8327 32.9185 33.8714 32.8806C34.7292 31.9787 35.1398 30.7637 35.123 29.5307C35.0704 28.2584 34.5463 27.1537 33.6481 26.2657C33.6042 26.2212 33.5603 26.1768 33.5151 26.1309C32.6657 25.315 31.5052 24.9115 30.3396 24.878C28.8867 24.9198 27.5758 25.5492 26.6276 26.6451ZM15.8566 26.6776C15.4788 26.8394 15.0989 26.9902 14.712 27.1288C14.6652 27.1456 14.6183 27.1624 14.5701 27.1797C14.3795 27.2478 14.1888 27.3156 13.9979 27.3828C12.3384 27.9571 12.3384 27.9571 11.0485 29.0855C11.011 29.1375 10.9735 29.1895 10.9349 29.243C10.8365 29.3806 10.8365 29.3806 10.7888 29.547C10.8608 29.6611 10.9331 29.7606 11.0178 29.8648C11.0424 29.8959 11.0671 29.927 11.0924 29.959C11.1727 30.0594 11.2539 30.1588 11.3356 30.2579C11.3761 30.307 11.3761 30.307 11.4174 30.3572C11.9399 30.9875 12.4917 31.5595 13.1403 32.0626C13.1694 32.0855 13.1985 32.1084 13.2284 32.132C14.5101 33.1357 15.9903 33.8145 17.57 34.1954C17.6261 34.209 17.6261 34.209 17.6834 34.2229C20.1963 34.8097 22.9343 34.3797 25.2092 33.1939C25.2436 33.1761 25.2781 33.1584 25.3136 33.14C25.5149 33.033 25.5149 33.033 25.6091 32.8282C25.5286 32.6693 25.5286 32.6693 25.4143 32.4933C24.6475 31.2119 24.4981 29.6733 24.8435 28.2345C24.9211 27.9561 25.0176 27.6854 25.1169 27.4142C25.1536 27.3048 25.19 27.1955 25.2263 27.086C25.0031 26.9958 24.7797 26.9059 24.5564 26.816C24.4613 26.7776 24.4613 26.7776 24.3643 26.7384C24.3033 26.7139 24.2423 26.6894 24.1795 26.6641C24.1234 26.6415 24.0673 26.6189 24.0094 26.5956C23.8863 26.5494 23.7685 26.5125 23.6403 26.4845C23.6126 26.5274 23.5848 26.5703 23.5562 26.6146C22.8742 27.6554 22.0287 28.2803 20.7966 28.5626C19.6755 28.7509 18.5551 28.5096 17.6247 27.8517C17.1682 27.4823 16.7678 27.0781 16.4786 26.5648C16.4598 26.5383 16.441 26.5118 16.4216 26.4845C16.2216 26.4845 16.0381 26.5985 15.8566 26.6776Z"/>
</mask>
<path d="M20.1811 8.59054C20.228 8.59039 20.2748 8.59024 20.3231 8.59008C20.5701 8.58926 20.8171 8.58875 21.0641 8.58852C21.3176 8.58821 21.5711 8.58689 21.8246 8.58534C22.0214 8.58432 22.2182 8.58404 22.415 8.58396C22.5085 8.58379 22.602 8.58336 22.6954 8.58263C23.7836 8.57481 23.7836 8.57481 24.1411 8.85971C24.1653 8.89186 24.1896 8.924 24.2146 8.95712C24.2399 8.98927 24.2653 9.02141 24.2915 9.05453C24.4401 9.28818 24.4357 9.538 24.406 9.80478C24.2835 10.2169 23.955 10.5652 23.695 10.8985C23.7883 10.9115 23.7883 10.9115 23.8834 10.9248C24.8369 11.0655 25.7949 11.3169 26.4294 12.1017C26.6297 12.3722 26.7575 12.6322 26.8469 12.9574C26.9615 13.3671 27.1011 13.5746 27.47 13.8029C27.7028 13.951 27.8933 14.1364 28.0946 14.324C28.2115 14.4323 28.3306 14.5355 28.4528 14.6378C29.5744 15.6205 30.3981 16.9413 31.0231 18.2813C31.0516 18.3415 31.0801 18.4017 31.1095 18.4638C31.9374 20.2983 32.1516 22.2502 32.1169 24.2423C32.166 24.2596 32.215 24.277 32.2656 24.2948C33.7641 24.8461 34.8876 25.9122 35.5658 27.3537C36.117 28.5959 36.2118 30.1139 35.781 31.4063C35.7612 31.468 35.7413 31.5297 35.7209 31.5933C35.4906 32.2469 35.1368 32.8485 34.6872 33.3751C34.6515 33.4187 34.6157 33.4624 34.5789 33.5073C33.607 34.6492 32.1961 35.2561 30.7224 35.3849C29.2782 35.4749 27.7842 35.0403 26.6774 34.0931C26.5361 33.9671 26.3995 33.8368 26.2653 33.7032C26.2268 33.7225 26.1884 33.7417 26.1487 33.7615C26.0332 33.8193 25.9176 33.8769 25.802 33.9344C25.6779 33.9967 25.5544 34.0602 25.4316 34.1249C22.7455 35.5233 19.4423 35.7697 16.5547 34.8938C15.8256 34.6631 15.1199 34.397 14.4468 34.0325C14.3424 33.9761 14.2371 33.9213 14.1318 33.8666C13.2974 33.4246 12.5422 32.8562 11.8642 32.2006C11.7222 32.0622 11.7222 32.0622 11.5736 31.9472C11.4564 31.853 11.3639 31.7602 11.2673 31.6456C11.1641 31.5242 11.0608 31.4048 10.9513 31.2891C9.15744 29.3849 8.01171 26.569 7.98668 23.9605C7.98614 23.9141 7.98561 23.8676 7.98506 23.8198C7.95552 20.5921 8.88385 17.5262 11.1457 15.1449C11.2426 15.0412 11.3334 14.9381 11.423 14.8286C11.5266 14.7051 11.6236 14.6012 11.7458 14.4976C11.7827 14.4661 11.8197 14.4346 11.8577 14.4022C11.902 14.3649 11.9463 14.3276 11.9919 14.2892C12.0515 14.2384 12.111 14.1876 12.1705 14.1368C12.234 14.0828 12.2975 14.0287 12.361 13.9747C12.3914 13.9489 12.4217 13.9231 12.453 13.8965C12.694 13.6926 12.694 13.6926 12.8252 13.6182C12.9868 13.4595 13.0068 13.2507 13.0549 13.0348C13.4125 11.5688 14.2651 10.3847 15.5466 9.58603C16.993 8.73316 18.5377 8.59427 20.1811 8.59054ZM14.8527 11.4351C13.9777 12.4383 13.8305 13.6288 13.8444 14.9078C13.845 14.9968 13.8455 15.0858 13.8459 15.1747C13.8471 15.39 13.849 15.6052 13.8513 15.8204C13.8829 15.8125 13.9146 15.8045 13.9472 15.7964C14.1988 15.7363 14.4185 15.7063 14.6784 15.7144C14.8879 15.7004 14.9683 15.6918 15.1093 15.5327C15.1715 15.4269 15.2315 15.3198 15.2894 15.2116C15.5168 14.8286 15.8967 14.6305 16.3122 14.5079C16.5333 14.4629 16.7465 14.448 16.9719 14.443C17.6663 14.4231 18.0769 14.1554 18.6376 13.7715C19.164 13.417 19.7294 13.3075 20.3591 13.3595C21.0211 13.4916 21.5623 13.837 22.1072 14.2202C22.3801 14.3893 22.627 14.4157 22.9431 14.4259C23.4534 14.4503 23.8487 14.5032 24.2942 14.7694C24.4042 14.8384 24.4042 14.8384 24.5228 14.8856C24.6862 14.9815 24.7194 15.1129 24.77 15.2893C24.8292 15.4534 24.8763 15.5387 25.0075 15.6563C25.2886 15.7421 25.589 15.7484 25.881 15.7573C25.9961 15.766 26.0997 15.7894 26.2106 15.8204C26.2765 14.0721 26.2765 14.0721 25.5544 12.5392C25.0159 12.0545 24.3762 11.9215 23.6772 11.8399C23.357 11.7981 23.1106 11.7189 22.9042 11.4512C22.7856 11.2023 22.7218 11.0148 22.7653 10.7345C22.9088 10.3498 23.1437 10.0286 23.3902 9.70373C23.4817 9.60298 23.4817 9.60298 23.4763 9.53134C22.9076 9.52879 22.339 9.52685 21.7704 9.52567C21.5062 9.52511 21.2421 9.52434 20.978 9.52309C20.7223 9.52189 20.4666 9.52124 20.211 9.52096C20.1142 9.52076 20.0174 9.52037 19.9207 9.51978C17.9439 9.50807 16.2485 9.96161 14.8527 11.4351ZM18.6874 14.8002C18.31 15.0603 17.9254 15.273 17.4581 15.2851C17.4164 15.2866 17.3746 15.2882 17.3316 15.2898C17.2453 15.2926 17.159 15.295 17.0727 15.297C16.7095 15.3117 16.3338 15.3706 16.073 15.6495C16.0477 15.6753 16.0225 15.7011 15.9965 15.7277C15.8287 15.9596 15.8061 16.1782 15.805 16.4591C15.8047 16.4947 15.8044 16.5304 15.8042 16.567C15.8034 16.6844 15.8034 16.8017 15.8036 16.9191C15.8034 17.0014 15.8031 17.0838 15.8029 17.1662C15.8025 17.339 15.8025 17.5118 15.8028 17.6846C15.8031 17.9039 15.8022 18.1232 15.8009 18.3426C15.8001 18.5129 15.8 18.6833 15.8002 18.8537C15.8002 18.9344 15.7999 19.0151 15.7993 19.0959C15.7916 20.3818 16.1728 21.4611 17.0778 22.3829C17.1148 22.4213 17.1519 22.4596 17.19 22.4991C18.0203 23.2997 19.1431 23.5594 20.2659 23.5429C21.1477 23.5138 21.968 23.2076 22.656 22.6563C22.7008 22.6211 22.7456 22.5858 22.7918 22.5495C23.6643 21.8179 24.1219 20.8214 24.2303 19.6995C24.2523 19.395 24.252 19.0904 24.253 18.7853C24.2533 18.7144 24.2536 18.6435 24.254 18.5705C24.2545 18.4213 24.2548 18.2722 24.255 18.123C24.2553 17.9332 24.2567 17.7433 24.2582 17.5535C24.2595 17.3705 24.2596 17.1875 24.2598 17.0045C24.2609 16.9032 24.2609 16.9032 24.2619 16.7999C24.2608 16.3894 24.2469 15.9879 23.9896 15.6497C23.9589 15.626 23.9283 15.6022 23.8967 15.5777C23.8513 15.5406 23.8513 15.5406 23.805 15.5027C23.5093 15.3276 23.2283 15.3149 22.8952 15.3077C22.1706 15.2748 21.6871 15.0571 21.1017 14.6353C20.2282 14.0151 19.516 14.2266 18.6874 14.8002ZM12.5661 15.0514C12.5216 15.0925 12.5216 15.0925 12.4762 15.1345C11.1816 16.337 10.2086 17.7747 9.58565 19.4298C9.57059 19.469 9.55553 19.5082 9.54001 19.5485C9.16472 20.5387 8.92703 21.6315 8.91637 22.692C8.91583 22.7363 8.91529 22.7805 8.91474 22.8261C8.90509 23.8257 8.91509 24.7955 9.14815 25.7735C9.16708 25.8537 9.16708 25.8537 9.18639 25.9355C9.50636 27.3993 9.50636 27.3993 10.2966 28.5626C10.3251 28.5282 10.3537 28.4938 10.3831 28.4583C11.2169 27.4887 12.3732 27.0299 13.5501 26.608C13.8806 26.4893 14.2104 26.3685 14.5397 26.2465C14.6509 26.2055 14.7623 26.1652 14.8738 26.1249C15.6437 25.8428 16.3591 25.5411 16.7702 24.7892C16.8734 24.5577 16.9325 24.3285 16.9685 24.0782C16.9776 24.0295 16.9866 23.9808 16.996 23.9306C17.0147 23.7611 17.0152 23.6412 16.9685 23.4767C16.836 23.3334 16.6931 23.2276 16.5352 23.1131C15.7321 22.4995 15.3108 21.5248 15.0544 20.5782C15.0364 20.5241 15.0183 20.4699 14.9997 20.4142C14.9377 20.4088 14.8756 20.4034 14.8117 20.3979C13.9893 20.3193 13.9893 20.3193 13.6325 20.086C13.584 20.0556 13.5355 20.0251 13.4856 19.9937C13.0985 19.6067 12.9605 19.0984 12.9588 18.5623C12.9583 18.5211 12.9577 18.48 12.9572 18.4376C12.9555 18.303 12.9546 18.1684 12.9536 18.0338C12.9526 17.9399 12.9515 17.846 12.9504 17.7522C12.9476 17.5061 12.9454 17.26 12.9434 17.014C12.9412 16.7625 12.9384 16.511 12.9357 16.2595C12.9304 15.7668 12.9258 15.2741 12.9216 14.7813C12.7949 14.7813 12.6589 14.9654 12.5661 15.0514ZM27.1403 14.7813C27.132 15.0081 27.1242 15.2348 27.1164 15.4615C27.1151 15.4975 27.1139 15.5335 27.1125 15.5706C27.0938 16.1032 27.083 16.6356 27.0775 17.1686C27.0753 17.3495 27.0729 17.5305 27.0706 17.7114C27.0692 17.8311 27.0683 17.9508 27.0677 18.0704C27.0669 18.2409 27.0647 18.4113 27.0624 18.5817C27.0625 18.6577 27.0625 18.6577 27.0627 18.7353C27.0533 19.2347 26.8793 19.6293 26.5362 19.9918C26.1251 20.3544 25.5843 20.3655 25.0622 20.4142C25.0532 20.4427 25.0442 20.4713 25.0349 20.5007C24.6767 21.6179 24.2321 22.5249 23.302 23.2682C23.1427 23.4051 23.1427 23.4051 23.0593 23.5916C23.0556 23.7231 23.0704 23.8393 23.0935 23.9688C23.099 24.0176 23.1045 24.0663 23.1101 24.1165C23.1816 24.6392 23.4177 25.0849 23.8044 25.4454C24.1682 25.6971 24.5616 25.8775 24.9699 26.0435C25.0226 26.066 25.0752 26.0885 25.1294 26.1116C25.1803 26.1325 25.2313 26.1534 25.2837 26.1749C25.3292 26.1937 25.3747 26.2126 25.4216 26.232C25.5798 26.2722 25.6731 26.2608 25.8278 26.211C25.9327 26.1118 26.0227 26.0165 26.1149 25.9068C26.1683 25.8464 26.2219 25.7862 26.2756 25.7261C26.3149 25.6819 26.3149 25.6819 26.3551 25.6369C27.2447 24.6545 28.6243 24.1131 29.9294 24.0235C30.1403 24.0178 30.3508 24.0183 30.5617 24.0201C30.6445 24.0205 30.6445 24.0205 30.7289 24.0209C30.8634 24.0215 30.998 24.0224 31.1325 24.0235C31.5492 21.7835 30.5958 19.086 29.3859 17.2286C28.9709 16.6282 28.5209 16.0727 28.0153 15.547C27.9723 15.5021 27.9723 15.5021 27.9284 15.4564C27.8405 15.3653 27.752 15.2749 27.6633 15.1847C27.6362 15.1568 27.609 15.129 27.5811 15.1003C27.4421 14.961 27.318 14.8636 27.1403 14.7813ZM14.07 16.8048C13.7871 17.1267 13.8392 17.5022 13.8381 17.9063C13.8376 18.024 13.8359 18.1417 13.8342 18.2594C13.8338 18.3349 13.8335 18.4103 13.8333 18.4858C13.8328 18.554 13.8323 18.6223 13.8318 18.6926C13.8603 18.9709 13.9474 19.1482 14.1521 19.3375C14.4201 19.5184 14.533 19.4845 14.8903 19.4845C14.8903 18.528 14.8903 17.5715 14.8903 16.586C14.4081 16.5668 14.4081 16.5668 14.07 16.8048ZM25.1716 16.586C25.1716 17.5425 25.1716 18.499 25.1716 19.4845C25.5173 19.4845 25.6502 19.4829 25.9372 19.3204C26.1444 19.0712 26.1886 18.8686 26.185 18.5531C26.1853 18.4912 26.1853 18.4912 26.1856 18.4281C26.1858 18.3413 26.1854 18.2545 26.1845 18.1678C26.1833 18.0356 26.1845 17.9036 26.1859 17.7714C26.1857 17.6868 26.1854 17.6021 26.185 17.5174C26.1855 17.4783 26.1859 17.4391 26.1864 17.3988C26.1812 17.1215 26.1117 16.9635 25.9372 16.7501C25.6559 16.5583 25.5435 16.586 25.1716 16.586ZM17.8981 24.0235C17.8811 24.105 17.8811 24.105 17.8638 24.188C17.7272 24.8029 17.5318 25.3829 17.1325 25.8829C17.6731 26.7668 18.2534 27.3786 19.2886 27.6703C20.0968 27.8572 20.9765 27.7263 21.6904 27.2984C22.2189 26.9237 22.7192 26.4588 22.9294 25.8282C22.8723 25.7343 22.8723 25.7343 22.7858 25.6402C22.409 25.1599 22.283 24.6208 22.2185 24.0235C22.1866 24.0335 22.1547 24.0434 22.1219 24.0536C20.692 24.4921 19.3148 24.5613 17.8981 24.0235ZM26.6276 26.6451C25.8308 27.6521 25.4245 28.9164 25.5666 30.2042C25.6979 31.1686 26.0803 32.0273 26.7028 32.7735C26.7447 32.8263 26.7866 32.8791 26.8297 32.9335C27.5807 33.8305 28.7974 34.3254 29.932 34.455C31.2577 34.5401 32.4959 34.1196 33.4978 33.2418C33.5853 33.1596 33.6719 33.0764 33.7575 32.9923C33.7951 32.9554 33.8327 32.9185 33.8714 32.8806C34.7292 31.9787 35.1398 30.7637 35.123 29.5307C35.0704 28.2584 34.5463 27.1537 33.6481 26.2657C33.6042 26.2212 33.5603 26.1768 33.5151 26.1309C32.6657 25.315 31.5052 24.9115 30.3396 24.878C28.8867 24.9198 27.5758 25.5492 26.6276 26.6451ZM15.8566 26.6776C15.4788 26.8394 15.0989 26.9902 14.712 27.1288C14.6652 27.1456 14.6183 27.1624 14.5701 27.1797C14.3795 27.2478 14.1888 27.3156 13.9979 27.3828C12.3384 27.9571 12.3384 27.9571 11.0485 29.0855C11.011 29.1375 10.9735 29.1895 10.9349 29.243C10.8365 29.3806 10.8365 29.3806 10.7888 29.547C10.8608 29.6611 10.9331 29.7606 11.0178 29.8648C11.0424 29.8959 11.0671 29.927 11.0924 29.959C11.1727 30.0594 11.2539 30.1588 11.3356 30.2579C11.3761 30.307 11.3761 30.307 11.4174 30.3572C11.9399 30.9875 12.4917 31.5595 13.1403 32.0626C13.1694 32.0855 13.1985 32.1084 13.2284 32.132C14.5101 33.1357 15.9903 33.8145 17.57 34.1954C17.6261 34.209 17.6261 34.209 17.6834 34.2229C20.1963 34.8097 22.9343 34.3797 25.2092 33.1939C25.2436 33.1761 25.2781 33.1584 25.3136 33.14C25.5149 33.033 25.5149 33.033 25.6091 32.8282C25.5286 32.6693 25.5286 32.6693 25.4143 32.4933C24.6475 31.2119 24.4981 29.6733 24.8435 28.2345C24.9211 27.9561 25.0176 27.6854 25.1169 27.4142C25.1536 27.3048 25.19 27.1955 25.2263 27.086C25.0031 26.9958 24.7797 26.9059 24.5564 26.816C24.4613 26.7776 24.4613 26.7776 24.3643 26.7384C24.3033 26.7139 24.2423 26.6894 24.1795 26.6641C24.1234 26.6415 24.0673 26.6189 24.0094 26.5956C23.8863 26.5494 23.7685 26.5125 23.6403 26.4845C23.6126 26.5274 23.5848 26.5703 23.5562 26.6146C22.8742 27.6554 22.0287 28.2803 20.7966 28.5626C19.6755 28.7509 18.5551 28.5096 17.6247 27.8517C17.1682 27.4823 16.7678 27.0781 16.4786 26.5648C16.4598 26.5383 16.441 26.5118 16.4216 26.4845C16.2216 26.4845 16.0381 26.5985 15.8566 26.6776Z" fill="#209849"/>
<path d="M20.1811 8.59054C20.228 8.59039 20.2748 8.59024 20.3231 8.59008C20.5701 8.58926 20.8171 8.58875 21.0641 8.58852C21.3176 8.58821 21.5711 8.58689 21.8246 8.58534C22.0214 8.58432 22.2182 8.58404 22.415 8.58396C22.5085 8.58379 22.602 8.58336 22.6954 8.58263C23.7836 8.57481 23.7836 8.57481 24.1411 8.85971C24.1653 8.89186 24.1896 8.924 24.2146 8.95712C24.2399 8.98927 24.2653 9.02141 24.2915 9.05453C24.4401 9.28818 24.4357 9.538 24.406 9.80478C24.2835 10.2169 23.955 10.5652 23.695 10.8985C23.7883 10.9115 23.7883 10.9115 23.8834 10.9248C24.8369 11.0655 25.7949 11.3169 26.4294 12.1017C26.6297 12.3722 26.7575 12.6322 26.8469 12.9574C26.9615 13.3671 27.1011 13.5746 27.47 13.8029C27.7028 13.951 27.8933 14.1364 28.0946 14.324C28.2115 14.4323 28.3306 14.5355 28.4528 14.6378C29.5744 15.6205 30.3981 16.9413 31.0231 18.2813C31.0516 18.3415 31.0801 18.4017 31.1095 18.4638C31.9374 20.2983 32.1516 22.2502 32.1169 24.2423C32.166 24.2596 32.215 24.277 32.2656 24.2948C33.7641 24.8461 34.8876 25.9122 35.5658 27.3537C36.117 28.5959 36.2118 30.1139 35.781 31.4063C35.7612 31.468 35.7413 31.5297 35.7209 31.5933C35.4906 32.2469 35.1368 32.8485 34.6872 33.3751C34.6515 33.4187 34.6157 33.4624 34.5789 33.5073C33.607 34.6492 32.1961 35.2561 30.7224 35.3849C29.2782 35.4749 27.7842 35.0403 26.6774 34.0931C26.5361 33.9671 26.3995 33.8368 26.2653 33.7032C26.2268 33.7225 26.1884 33.7417 26.1487 33.7615C26.0332 33.8193 25.9176 33.8769 25.802 33.9344C25.6779 33.9967 25.5544 34.0602 25.4316 34.1249C22.7455 35.5233 19.4423 35.7697 16.5547 34.8938C15.8256 34.6631 15.1199 34.397 14.4468 34.0325C14.3424 33.9761 14.2371 33.9213 14.1318 33.8666C13.2974 33.4246 12.5422 32.8562 11.8642 32.2006C11.7222 32.0622 11.7222 32.0622 11.5736 31.9472C11.4564 31.853 11.3639 31.7602 11.2673 31.6456C11.1641 31.5242 11.0608 31.4048 10.9513 31.2891C9.15744 29.3849 8.01171 26.569 7.98668 23.9605C7.98614 23.9141 7.98561 23.8676 7.98506 23.8198C7.95552 20.5921 8.88385 17.5262 11.1457 15.1449C11.2426 15.0412 11.3334 14.9381 11.423 14.8286C11.5266 14.7051 11.6236 14.6012 11.7458 14.4976C11.7827 14.4661 11.8197 14.4346 11.8577 14.4022C11.902 14.3649 11.9463 14.3276 11.9919 14.2892C12.0515 14.2384 12.111 14.1876 12.1705 14.1368C12.234 14.0828 12.2975 14.0287 12.361 13.9747C12.3914 13.9489 12.4217 13.9231 12.453 13.8965C12.694 13.6926 12.694 13.6926 12.8252 13.6182C12.9868 13.4595 13.0068 13.2507 13.0549 13.0348C13.4125 11.5688 14.2651 10.3847 15.5466 9.58603C16.993 8.73316 18.5377 8.59427 20.1811 8.59054ZM14.8527 11.4351C13.9777 12.4383 13.8305 13.6288 13.8444 14.9078C13.845 14.9968 13.8455 15.0858 13.8459 15.1747C13.8471 15.39 13.849 15.6052 13.8513 15.8204C13.8829 15.8125 13.9146 15.8045 13.9472 15.7964C14.1988 15.7363 14.4185 15.7063 14.6784 15.7144C14.8879 15.7004 14.9683 15.6918 15.1093 15.5327C15.1715 15.4269 15.2315 15.3198 15.2894 15.2116C15.5168 14.8286 15.8967 14.6305 16.3122 14.5079C16.5333 14.4629 16.7465 14.448 16.9719 14.443C17.6663 14.4231 18.0769 14.1554 18.6376 13.7715C19.164 13.417 19.7294 13.3075 20.3591 13.3595C21.0211 13.4916 21.5623 13.837 22.1072 14.2202C22.3801 14.3893 22.627 14.4157 22.9431 14.4259C23.4534 14.4503 23.8487 14.5032 24.2942 14.7694C24.4042 14.8384 24.4042 14.8384 24.5228 14.8856C24.6862 14.9815 24.7194 15.1129 24.77 15.2893C24.8292 15.4534 24.8763 15.5387 25.0075 15.6563C25.2886 15.7421 25.589 15.7484 25.881 15.7573C25.9961 15.766 26.0997 15.7894 26.2106 15.8204C26.2765 14.0721 26.2765 14.0721 25.5544 12.5392C25.0159 12.0545 24.3762 11.9215 23.6772 11.8399C23.357 11.7981 23.1106 11.7189 22.9042 11.4512C22.7856 11.2023 22.7218 11.0148 22.7653 10.7345C22.9088 10.3498 23.1437 10.0286 23.3902 9.70373C23.4817 9.60298 23.4817 9.60298 23.4763 9.53134C22.9076 9.52879 22.339 9.52685 21.7704 9.52567C21.5062 9.52511 21.2421 9.52434 20.978 9.52309C20.7223 9.52189 20.4666 9.52124 20.211 9.52096C20.1142 9.52076 20.0174 9.52037 19.9207 9.51978C17.9439 9.50807 16.2485 9.96161 14.8527 11.4351ZM18.6874 14.8002C18.31 15.0603 17.9254 15.273 17.4581 15.2851C17.4164 15.2866 17.3746 15.2882 17.3316 15.2898C17.2453 15.2926 17.159 15.295 17.0727 15.297C16.7095 15.3117 16.3338 15.3706 16.073 15.6495C16.0477 15.6753 16.0225 15.7011 15.9965 15.7277C15.8287 15.9596 15.8061 16.1782 15.805 16.4591C15.8047 16.4947 15.8044 16.5304 15.8042 16.567C15.8034 16.6844 15.8034 16.8017 15.8036 16.9191C15.8034 17.0014 15.8031 17.0838 15.8029 17.1662C15.8025 17.339 15.8025 17.5118 15.8028 17.6846C15.8031 17.9039 15.8022 18.1232 15.8009 18.3426C15.8001 18.5129 15.8 18.6833 15.8002 18.8537C15.8002 18.9344 15.7999 19.0151 15.7993 19.0959C15.7916 20.3818 16.1728 21.4611 17.0778 22.3829C17.1148 22.4213 17.1519 22.4596 17.19 22.4991C18.0203 23.2997 19.1431 23.5594 20.2659 23.5429C21.1477 23.5138 21.968 23.2076 22.656 22.6563C22.7008 22.6211 22.7456 22.5858 22.7918 22.5495C23.6643 21.8179 24.1219 20.8214 24.2303 19.6995C24.2523 19.395 24.252 19.0904 24.253 18.7853C24.2533 18.7144 24.2536 18.6435 24.254 18.5705C24.2545 18.4213 24.2548 18.2722 24.255 18.123C24.2553 17.9332 24.2567 17.7433 24.2582 17.5535C24.2595 17.3705 24.2596 17.1875 24.2598 17.0045C24.2609 16.9032 24.2609 16.9032 24.2619 16.7999C24.2608 16.3894 24.2469 15.9879 23.9896 15.6497C23.9589 15.626 23.9283 15.6022 23.8967 15.5777C23.8513 15.5406 23.8513 15.5406 23.805 15.5027C23.5093 15.3276 23.2283 15.3149 22.8952 15.3077C22.1706 15.2748 21.6871 15.0571 21.1017 14.6353C20.2282 14.0151 19.516 14.2266 18.6874 14.8002ZM12.5661 15.0514C12.5216 15.0925 12.5216 15.0925 12.4762 15.1345C11.1816 16.337 10.2086 17.7747 9.58565 19.4298C9.57059 19.469 9.55553 19.5082 9.54001 19.5485C9.16472 20.5387 8.92703 21.6315 8.91637 22.692C8.91583 22.7363 8.91529 22.7805 8.91474 22.8261C8.90509 23.8257 8.91509 24.7955 9.14815 25.7735C9.16708 25.8537 9.16708 25.8537 9.18639 25.9355C9.50636 27.3993 9.50636 27.3993 10.2966 28.5626C10.3251 28.5282 10.3537 28.4938 10.3831 28.4583C11.2169 27.4887 12.3732 27.0299 13.5501 26.608C13.8806 26.4893 14.2104 26.3685 14.5397 26.2465C14.6509 26.2055 14.7623 26.1652 14.8738 26.1249C15.6437 25.8428 16.3591 25.5411 16.7702 24.7892C16.8734 24.5577 16.9325 24.3285 16.9685 24.0782C16.9776 24.0295 16.9866 23.9808 16.996 23.9306C17.0147 23.7611 17.0152 23.6412 16.9685 23.4767C16.836 23.3334 16.6931 23.2276 16.5352 23.1131C15.7321 22.4995 15.3108 21.5248 15.0544 20.5782C15.0364 20.5241 15.0183 20.4699 14.9997 20.4142C14.9377 20.4088 14.8756 20.4034 14.8117 20.3979C13.9893 20.3193 13.9893 20.3193 13.6325 20.086C13.584 20.0556 13.5355 20.0251 13.4856 19.9937C13.0985 19.6067 12.9605 19.0984 12.9588 18.5623C12.9583 18.5211 12.9577 18.48 12.9572 18.4376C12.9555 18.303 12.9546 18.1684 12.9536 18.0338C12.9526 17.9399 12.9515 17.846 12.9504 17.7522C12.9476 17.5061 12.9454 17.26 12.9434 17.014C12.9412 16.7625 12.9384 16.511 12.9357 16.2595C12.9304 15.7668 12.9258 15.2741 12.9216 14.7813C12.7949 14.7813 12.6589 14.9654 12.5661 15.0514ZM27.1403 14.7813C27.132 15.0081 27.1242 15.2348 27.1164 15.4615C27.1151 15.4975 27.1139 15.5335 27.1125 15.5706C27.0938 16.1032 27.083 16.6356 27.0775 17.1686C27.0753 17.3495 27.0729 17.5305 27.0706 17.7114C27.0692 17.8311 27.0683 17.9508 27.0677 18.0704C27.0669 18.2409 27.0647 18.4113 27.0624 18.5817C27.0625 18.6577 27.0625 18.6577 27.0627 18.7353C27.0533 19.2347 26.8793 19.6293 26.5362 19.9918C26.1251 20.3544 25.5843 20.3655 25.0622 20.4142C25.0532 20.4427 25.0442 20.4713 25.0349 20.5007C24.6767 21.6179 24.2321 22.5249 23.302 23.2682C23.1427 23.4051 23.1427 23.4051 23.0593 23.5916C23.0556 23.7231 23.0704 23.8393 23.0935 23.9688C23.099 24.0176 23.1045 24.0663 23.1101 24.1165C23.1816 24.6392 23.4177 25.0849 23.8044 25.4454C24.1682 25.6971 24.5616 25.8775 24.9699 26.0435C25.0226 26.066 25.0752 26.0885 25.1294 26.1116C25.1803 26.1325 25.2313 26.1534 25.2837 26.1749C25.3292 26.1937 25.3747 26.2126 25.4216 26.232C25.5798 26.2722 25.6731 26.2608 25.8278 26.211C25.9327 26.1118 26.0227 26.0165 26.1149 25.9068C26.1683 25.8464 26.2219 25.7862 26.2756 25.7261C26.3149 25.6819 26.3149 25.6819 26.3551 25.6369C27.2447 24.6545 28.6243 24.1131 29.9294 24.0235C30.1403 24.0178 30.3508 24.0183 30.5617 24.0201C30.6445 24.0205 30.6445 24.0205 30.7289 24.0209C30.8634 24.0215 30.998 24.0224 31.1325 24.0235C31.5492 21.7835 30.5958 19.086 29.3859 17.2286C28.9709 16.6282 28.5209 16.0727 28.0153 15.547C27.9723 15.5021 27.9723 15.5021 27.9284 15.4564C27.8405 15.3653 27.752 15.2749 27.6633 15.1847C27.6362 15.1568 27.609 15.129 27.5811 15.1003C27.4421 14.961 27.318 14.8636 27.1403 14.7813ZM14.07 16.8048C13.7871 17.1267 13.8392 17.5022 13.8381 17.9063C13.8376 18.024 13.8359 18.1417 13.8342 18.2594C13.8338 18.3349 13.8335 18.4103 13.8333 18.4858C13.8328 18.554 13.8323 18.6223 13.8318 18.6926C13.8603 18.9709 13.9474 19.1482 14.1521 19.3375C14.4201 19.5184 14.533 19.4845 14.8903 19.4845C14.8903 18.528 14.8903 17.5715 14.8903 16.586C14.4081 16.5668 14.4081 16.5668 14.07 16.8048ZM25.1716 16.586C25.1716 17.5425 25.1716 18.499 25.1716 19.4845C25.5173 19.4845 25.6502 19.4829 25.9372 19.3204C26.1444 19.0712 26.1886 18.8686 26.185 18.5531C26.1853 18.4912 26.1853 18.4912 26.1856 18.4281C26.1858 18.3413 26.1854 18.2545 26.1845 18.1678C26.1833 18.0356 26.1845 17.9036 26.1859 17.7714C26.1857 17.6868 26.1854 17.6021 26.185 17.5174C26.1855 17.4783 26.1859 17.4391 26.1864 17.3988C26.1812 17.1215 26.1117 16.9635 25.9372 16.7501C25.6559 16.5583 25.5435 16.586 25.1716 16.586ZM17.8981 24.0235C17.8811 24.105 17.8811 24.105 17.8638 24.188C17.7272 24.8029 17.5318 25.3829 17.1325 25.8829C17.6731 26.7668 18.2534 27.3786 19.2886 27.6703C20.0968 27.8572 20.9765 27.7263 21.6904 27.2984C22.2189 26.9237 22.7192 26.4588 22.9294 25.8282C22.8723 25.7343 22.8723 25.7343 22.7858 25.6402C22.409 25.1599 22.283 24.6208 22.2185 24.0235C22.1866 24.0335 22.1547 24.0434 22.1219 24.0536C20.692 24.4921 19.3148 24.5613 17.8981 24.0235ZM26.6276 26.6451C25.8308 27.6521 25.4245 28.9164 25.5666 30.2042C25.6979 31.1686 26.0803 32.0273 26.7028 32.7735C26.7447 32.8263 26.7866 32.8791 26.8297 32.9335C27.5807 33.8305 28.7974 34.3254 29.932 34.455C31.2577 34.5401 32.4959 34.1196 33.4978 33.2418C33.5853 33.1596 33.6719 33.0764 33.7575 32.9923C33.7951 32.9554 33.8327 32.9185 33.8714 32.8806C34.7292 31.9787 35.1398 30.7637 35.123 29.5307C35.0704 28.2584 34.5463 27.1537 33.6481 26.2657C33.6042 26.2212 33.5603 26.1768 33.5151 26.1309C32.6657 25.315 31.5052 24.9115 30.3396 24.878C28.8867 24.9198 27.5758 25.5492 26.6276 26.6451ZM15.8566 26.6776C15.4788 26.8394 15.0989 26.9902 14.712 27.1288C14.6652 27.1456 14.6183 27.1624 14.5701 27.1797C14.3795 27.2478 14.1888 27.3156 13.9979 27.3828C12.3384 27.9571 12.3384 27.9571 11.0485 29.0855C11.011 29.1375 10.9735 29.1895 10.9349 29.243C10.8365 29.3806 10.8365 29.3806 10.7888 29.547C10.8608 29.6611 10.9331 29.7606 11.0178 29.8648C11.0424 29.8959 11.0671 29.927 11.0924 29.959C11.1727 30.0594 11.2539 30.1588 11.3356 30.2579C11.3761 30.307 11.3761 30.307 11.4174 30.3572C11.9399 30.9875 12.4917 31.5595 13.1403 32.0626C13.1694 32.0855 13.1985 32.1084 13.2284 32.132C14.5101 33.1357 15.9903 33.8145 17.57 34.1954C17.6261 34.209 17.6261 34.209 17.6834 34.2229C20.1963 34.8097 22.9343 34.3797 25.2092 33.1939C25.2436 33.1761 25.2781 33.1584 25.3136 33.14C25.5149 33.033 25.5149 33.033 25.6091 32.8282C25.5286 32.6693 25.5286 32.6693 25.4143 32.4933C24.6475 31.2119 24.4981 29.6733 24.8435 28.2345C24.9211 27.9561 25.0176 27.6854 25.1169 27.4142C25.1536 27.3048 25.19 27.1955 25.2263 27.086C25.0031 26.9958 24.7797 26.9059 24.5564 26.816C24.4613 26.7776 24.4613 26.7776 24.3643 26.7384C24.3033 26.7139 24.2423 26.6894 24.1795 26.6641C24.1234 26.6415 24.0673 26.6189 24.0094 26.5956C23.8863 26.5494 23.7685 26.5125 23.6403 26.4845C23.6126 26.5274 23.5848 26.5703 23.5562 26.6146C22.8742 27.6554 22.0287 28.2803 20.7966 28.5626C19.6755 28.7509 18.5551 28.5096 17.6247 27.8517C17.1682 27.4823 16.7678 27.0781 16.4786 26.5648C16.4598 26.5383 16.441 26.5118 16.4216 26.4845C16.2216 26.4845 16.0381 26.5985 15.8566 26.6776Z" stroke="#209849" stroke-width="0.6" mask="url(#path-2-outside-1_220_4167)"/>
<path d="M31.5425 29.9004L31.5425 29.9004C31.6633 29.7798 31.7841 29.6591 31.9047 29.5384C31.9047 29.5384 31.9048 29.5384 31.9048 29.5384L32.0789 29.3641L32.0791 29.3639C32.3238 29.1198 32.566 28.8753 32.8035 28.6266L32.9076 28.5128L33.0542 28.6469L32.9076 28.5128L32.987 28.426C33.0263 28.3655 33.0376 28.3224 33.0405 28.2807C33.0438 28.2326 33.0368 28.1778 33.0207 28.0873C32.9913 28.0389 32.9856 28.032 32.9806 28.027C32.9758 28.0222 32.9692 28.0167 32.9248 27.9897C32.7176 27.9647 32.6015 27.9806 32.4907 28.0826L32.3801 28.1941L32.3799 28.1943L32.2513 28.3234L32.2509 28.3238L32.1117 28.4644L32.1113 28.4648C31.9367 28.6401 31.7622 28.8155 31.588 28.991C31.4109 29.1693 31.2338 29.3478 31.0563 29.526L31.0563 29.526L30.912 29.671C30.9119 29.671 30.9119 29.6711 30.9118 29.6712C30.6217 29.9642 30.3266 30.2522 30.0027 30.5209L29.8619 30.6378L29.733 30.5078C29.5995 30.3732 29.466 30.2387 29.3323 30.1045L29.1658 29.9373L29.1656 29.937C28.9063 29.6754 28.6452 29.4164 28.3809 29.1606L28.2375 29.0265L28.2372 29.0262C28.1716 28.9646 28.1445 28.9393 28.1187 28.9177C28.0985 28.9008 28.0788 28.8859 28.0394 28.8569C27.9414 28.8357 27.8807 28.841 27.7514 28.8635C27.6928 28.8935 27.6945 28.8958 27.6949 28.8963C27.6949 28.8963 27.6949 28.8964 27.6949 28.8964C27.691 28.9019 27.6823 28.9163 27.6658 28.9557C27.6533 28.9856 27.639 29.0232 27.6202 29.0739C27.6406 29.1806 27.6709 29.259 27.7116 29.3287C27.7598 29.4112 27.8278 29.4906 27.9318 29.5952L28.0405 29.7002L28.0425 29.7021L28.0425 29.7021C28.1599 29.8187 28.277 29.9347 28.3949 30.0496L31.5425 29.9004ZM31.5425 29.9004C31.3872 30.0553 31.2323 30.2104 31.0775 30.3655C30.9582 30.485 30.8388 30.6044 30.7192 30.7238L30.7192 30.7238M31.5425 29.9004L30.7192 30.7238M30.7192 30.7238L30.5476 30.8956C30.4683 30.975 30.3889 31.0542 30.3093 31.1335L30.3091 31.1337M30.7192 30.7238L30.3091 31.1337M30.3091 31.1337L30.1743 31.2683C30.1109 31.3276 30.0799 31.3485 30.053 31.3609C30.027 31.373 29.9934 31.3827 29.9197 31.3953C29.829 31.3827 29.7976 31.3736 29.7753 31.363C29.7499 31.3509 29.7227 31.3305 29.6406 31.2551L29.6401 31.2547M30.3091 31.1337L29.6401 31.2547M29.6401 31.2547L29.5256 31.1501M29.6401 31.2547L29.5256 31.1501M29.5256 31.1501C29.2265 30.8682 28.9327 30.5804 28.6396 30.2898L28.6394 30.2896C28.5582 30.2093 28.4767 30.1293 28.3949 30.0496L29.5256 31.1501Z" fill="#209849" stroke="#209849" stroke-width="0.4"/>
</svg>
