<svg width="25" height="25" viewBox="0 0 25 25" fill="none" xmlns="http://www.w3.org/2000/svg">
<path d="M6.94444 20.8333H9.02778V18.0556H11.8056V15.9722H9.02778V13.1944H6.94444V15.9722H4.16667V18.0556H6.94444V20.8333ZM13.8889 19.7917H20.8333V17.7083H13.8889V19.7917ZM13.8889 16.3194H20.8333V14.2361H13.8889V16.3194ZM15.4167 11.0417L17.3611 9.09722L19.3056 11.0417L20.7639 9.58333L18.8194 7.56944L20.7639 5.625L19.3056 4.16667L17.3611 6.11111L15.4167 4.16667L13.9583 5.625L15.9028 7.56944L13.9583 9.58333L15.4167 11.0417ZM4.51389 8.61111H11.4583V6.52778H4.51389V8.61111ZM2.77778 25C2.01389 25 1.35995 24.728 0.815972 24.184C0.271991 23.64 0 22.9861 0 22.2222V2.77778C0 2.01389 0.271991 1.35995 0.815972 0.815972C1.35995 0.271991 2.01389 0 2.77778 0H22.2222C22.9861 0 23.64 0.271991 24.184 0.815972C24.728 1.35995 25 2.01389 25 2.77778V22.2222C25 22.9861 24.728 23.64 24.184 24.184C23.64 24.728 22.9861 25 22.2222 25H2.77778ZM2.77778 22.2222H22.2222V2.77778H2.77778V22.2222Z" fill="#1E45B8"/>
</svg>
