<svg width="24" height="24" viewBox="0 0 24 24" fill="none" xmlns="http://www.w3.org/2000/svg">
<mask id="mask0_654_2793" style="mask-type:luminance" maskUnits="userSpaceOnUse" x="0" y="0" width="24" height="24">
<path d="M24 0H0V24H24V0Z" fill="white"/>
</mask>
<g mask="url(#mask0_654_2793)">
<path d="M13.4046 -0.00867969C13.441 -0.00888969 13.4774 -0.00909961 13.5139 -0.00931961C13.5901 -0.00970961 13.6663 -0.00988952 13.7425 -0.00995952C13.8197 -0.0100595 13.8969 -0.0105396 13.9741 -0.0113996C14.7922 -0.0203096 14.7922 -0.0203094 15.1876 0.117201C15.2257 0.129601 15.2639 0.142001 15.302 0.154401C15.7336 0.296801 16.143 0.5164 16.5001 0.7969C16.5305 0.8196 16.5305 0.819601 16.5615 0.842701C16.9078 1.1104 17.2234 1.437 17.4611 1.8047C17.4749 1.8259 17.4749 1.8259 17.489 1.8475C17.8764 2.4476 18.1459 3.1744 18.1439 3.8951C18.1439 3.9127 18.1439 3.9302 18.1439 3.9483C18.1439 3.9851 18.1439 4.0219 18.1438 4.0588C18.1437 4.1147 18.1438 4.1706 18.1439 4.2266C18.1439 4.2626 18.1439 4.2986 18.1439 4.3346C18.1439 4.3511 18.1439 4.3676 18.144 4.3846C18.1435 4.4881 18.134 4.5857 18.1173 4.6875C18.1297 4.6839 18.1421 4.6803 18.1548 4.6766C19.1049 4.4646 20.2265 4.8121 21.0317 5.311C21.9857 5.9215 22.6749 6.8892 22.9279 7.9922C23.1208 8.892 23.0139 9.8334 22.6173 10.6641C22.6052 10.6895 22.6052 10.6895 22.5929 10.7155C22.499 10.9096 22.3918 11.092 22.2687 11.2691C22.253 11.2917 22.253 11.2917 22.2371 11.3148C22.0461 11.5807 21.803 11.8101 21.5719 12.0408C21.5443 12.0683 21.5167 12.0959 21.4892 12.1235C21.432 12.1808 21.3747 12.238 21.3174 12.2951C21.2445 12.368 21.1716 12.4409 21.0988 12.5139C21.0421 12.5706 20.9854 12.6274 20.9286 12.684C20.9017 12.7109 20.8749 12.7378 20.848 12.7647C20.7221 12.8908 20.596 13.0148 20.4605 13.1307C20.3617 13.2185 20.2699 13.3138 20.1769 13.4077C20.1545 13.4302 20.1321 13.4527 20.1097 13.4752C20.0392 13.5459 19.9689 13.6167 19.8986 13.6875C19.8169 13.7697 19.7353 13.8519 19.6535 13.9339C19.6211 13.9664 19.5889 13.999 19.5566 14.0315C19.4551 14.1334 19.3522 14.2311 19.2432 14.3247C19.1457 14.4114 19.055 14.5053 18.9633 14.5979C18.9301 14.6312 18.897 14.6644 18.8639 14.6976C18.8064 14.7554 18.749 14.8133 18.6915 14.8711C18.6229 14.9402 18.5542 15.0094 18.4854 15.0784C18.4428 15.1212 18.4002 15.1641 18.3577 15.207C18.272 15.293 18.1863 15.3776 18.0942 15.4567C17.9778 15.5568 17.8708 15.6659 17.7628 15.7749C17.7404 15.7974 17.718 15.8199 17.6956 15.8424C17.6252 15.9131 17.5548 15.9839 17.4845 16.0547C17.4029 16.1369 17.3212 16.219 17.2394 16.3011C17.2071 16.3336 17.1748 16.3662 17.1425 16.3987C17.0411 16.5006 16.9382 16.5983 16.8291 16.6919C16.7317 16.7786 16.641 16.8724 16.5492 16.9651C16.5161 16.9983 16.483 17.0316 16.4499 17.0648C16.3924 17.1226 16.3349 17.1804 16.2775 17.2383C16.2088 17.3074 16.1401 17.3766 16.0714 17.4456C16.0287 17.4884 15.9862 17.5312 15.9436 17.5742C15.858 17.6602 15.7723 17.7448 15.6801 17.8239C15.5637 17.924 15.4567 18.0331 15.3488 18.1421C15.3264 18.1646 15.304 18.1871 15.2815 18.2096C15.2111 18.2803 15.1408 18.3511 15.0704 18.4219C14.9888 18.5041 14.9071 18.5862 14.8254 18.6683C14.793 18.7008 14.7607 18.7333 14.7285 18.7659C14.627 18.8678 14.5241 18.9654 14.4151 19.0591C14.3176 19.1458 14.2269 19.2396 14.1351 19.3323C14.102 19.3655 14.0689 19.3988 14.0358 19.432C13.9783 19.4898 13.9208 19.5476 13.8634 19.6055C13.7947 19.6746 13.7261 19.7437 13.6573 19.8128C13.6147 19.8556 13.5721 19.8984 13.5296 19.9414C13.4272 20.0441 13.3237 20.1434 13.2127 20.237C13.1117 20.3275 13.0139 20.422 13.0006 20.5606C13.0196 20.788 13.2557 20.9551 13.4191 21.0946C13.5384 21.1989 13.6494 21.3109 13.7609 21.4234C13.7833 21.4459 13.8057 21.4684 13.8281 21.4908C13.9104 21.5735 13.9926 21.6562 14.0748 21.739C14.1446 21.8092 14.2144 21.8794 14.2843 21.9495C14.3166 21.982 14.3489 22.0146 14.3811 22.0472C14.4848 22.1512 14.5896 22.2522 14.7013 22.3477C14.9102 22.527 15.0773 22.7357 15.0997 23.0193C15.1084 23.2695 15.0607 23.48 14.9009 23.677C14.7218 23.8577 14.4892 23.9539 14.2369 23.9605C13.7786 23.9548 13.5157 23.6233 13.2174 23.3203C13.1673 23.2696 13.1172 23.2189 13.067 23.1682C13.0359 23.1369 13.0049 23.1055 12.974 23.0741C12.9026 23.0019 12.8302 22.9325 12.7533 22.8661C12.5713 22.709 12.4037 22.5358 12.2332 22.3663C12.1884 22.3218 12.1434 22.2774 12.0982 22.2332C11.6345 21.7786 11.2574 21.3094 11.2445 20.6274C11.2417 19.9378 11.547 19.4635 12.0159 18.9893C12.0935 18.9112 12.1713 18.8334 12.2492 18.7557C12.3094 18.6956 12.3695 18.6354 12.4296 18.5751C12.4684 18.5363 12.5072 18.4976 12.546 18.4588C12.5638 18.441 12.5815 18.4233 12.5997 18.405C12.6784 18.3267 12.7576 18.2503 12.8418 18.178C12.9587 18.0772 13.0663 17.9675 13.1749 17.8579C13.1973 17.8354 13.2197 17.8129 13.2421 17.7904C13.3126 17.7197 13.3829 17.649 13.4532 17.5781C13.5349 17.496 13.6165 17.4138 13.6983 17.3318C13.7307 17.2993 13.7629 17.2667 13.7952 17.2341C13.8966 17.1324 13.9994 17.0348 14.1083 16.9413C14.2076 16.8528 14.3001 16.7571 14.3937 16.6626C14.4161 16.6401 14.4385 16.6176 14.4609 16.5951C14.5313 16.5244 14.6017 16.4536 14.672 16.3828C14.7536 16.3006 14.8353 16.2185 14.9171 16.1364C14.9494 16.104 14.9817 16.0714 15.014 16.0388C15.1153 15.9371 15.2181 15.8395 15.327 15.7459C15.4264 15.6575 15.5188 15.5618 15.6124 15.4673C15.6348 15.4448 15.6572 15.4223 15.6796 15.3998C15.7501 15.3291 15.8204 15.2583 15.8907 15.1875C15.9724 15.1053 16.054 15.0232 16.1358 14.9411C16.1682 14.9086 16.2004 14.8761 16.2327 14.8435C16.3342 14.7416 16.4371 14.644 16.5461 14.5503C16.6436 14.4636 16.7343 14.3698 16.826 14.2771C16.8591 14.2439 16.8923 14.2106 16.9254 14.1774C16.9829 14.1196 17.0403 14.0618 17.0978 14.0039C17.1664 13.9348 17.2351 13.8657 17.3039 13.7966C17.3465 13.7538 17.3891 13.711 17.4316 13.6681C17.5173 13.582 17.603 13.4974 17.6951 13.4183C17.8115 13.3183 17.9185 13.2091 18.0265 13.1001C18.0489 13.0776 18.0713 13.0551 18.0937 13.0326C18.1641 12.9619 18.2345 12.8911 18.3048 12.8203C18.3864 12.7381 18.4681 12.656 18.5499 12.5739C18.5822 12.5415 18.6145 12.5089 18.6468 12.4763C18.7481 12.3746 18.8509 12.277 18.9599 12.1834C19.0592 12.095 19.1516 11.9993 19.2452 11.9048C19.2676 11.8823 19.29 11.8598 19.3124 11.8373C19.3829 11.7666 19.4532 11.6958 19.5236 11.625C19.6052 11.5428 19.6869 11.4607 19.7686 11.3786C19.801 11.3461 19.8332 11.3136 19.8655 11.281C19.9696 11.1766 20.075 11.0757 20.1868 10.9797C20.6483 10.5817 21.0266 10.1104 21.1876 9.5156C21.1951 9.4891 21.2025 9.4626 21.2102 9.4353C21.3655 8.7926 21.229 8.1162 20.8892 7.5568C20.7997 7.417 20.69 7.2942 20.5782 7.1719C20.5629 7.1546 20.5475 7.1373 20.5316 7.1194C20.1388 6.6997 19.5282 6.4063 18.9549 6.3702C18.8729 6.3679 18.7911 6.3673 18.7091 6.3677C18.6801 6.3678 18.651 6.368 18.6211 6.3681C18.413 6.3709 18.2238 6.385 18.0236 6.4453C18.0081 6.4499 17.9926 6.4544 17.9767 6.4591C17.2413 6.6795 16.7495 7.2233 16.2233 7.7534C16.1382 7.8391 16.0531 7.9247 15.9679 8.0102C15.9488 8.0295 15.9297 8.0488 15.9101 8.0687C15.828 8.1511 15.7458 8.2317 15.6576 8.3074C15.5409 8.4078 15.4336 8.5172 15.3253 8.6265C15.3029 8.649 15.2805 8.6715 15.2581 8.694C15.1877 8.7647 15.1173 8.8355 15.047 8.9063C14.9654 8.9885 14.8837 9.0706 14.8019 9.1527C14.7696 9.1851 14.7373 9.2177 14.705 9.2503C14.6037 9.352 14.5009 9.4496 14.3919 9.5431C14.2926 9.6316 14.2002 9.7273 14.1066 9.8218C14.0842 9.8443 14.0618 9.8668 14.0394 9.8893C13.9689 9.96 13.8986 10.0308 13.8282 10.1016C13.7466 10.1838 13.6649 10.2659 13.5832 10.348C13.5508 10.3805 13.5186 10.413 13.4863 10.4456C13.3849 10.5473 13.2821 10.6449 13.1732 10.7385C13.0738 10.8269 12.9814 10.9226 12.8878 11.0171C12.8654 11.0396 12.843 11.0621 12.8206 11.0846C12.7502 11.1553 12.6798 11.2261 12.6095 11.2969C12.5279 11.3791 12.4462 11.4612 12.3644 11.5433C12.3321 11.5758 12.2998 11.6083 12.2675 11.6409C12.1662 11.7427 12.0634 11.8402 11.9544 11.9338C11.8551 12.0222 11.7627 12.118 11.6691 12.2124C11.6467 12.2349 11.6243 12.2574 11.6019 12.2799C11.5314 12.3506 11.4611 12.4214 11.3907 12.4922C11.3091 12.5744 11.2274 12.6565 11.1457 12.7386C11.1133 12.7711 11.0811 12.8037 11.0488 12.8362C10.9618 12.9236 10.8749 13.0096 10.7813 13.0899C10.6652 13.1895 10.5592 13.2988 10.452 13.4077C10.4297 13.4302 10.4074 13.4527 10.3851 13.4752C10.2914 13.5697 10.1977 13.6643 10.1043 13.7592C10.0468 13.8176 9.98922 13.8758 9.93142 13.9339C9.89922 13.9663 9.86732 13.9989 9.83532 14.0315C9.62142 14.2463 9.39742 14.4424 9.08232 14.4497C9.06482 14.4495 9.04742 14.4494 9.02942 14.4492C9.01102 14.4491 8.99271 14.449 8.97371 14.4488C8.74451 14.4419 8.55141 14.3631 8.38491 14.2035C8.21211 14.0045 8.14452 13.8023 8.15062 13.5421C8.18172 13.1892 8.41882 12.9694 8.65802 12.734C8.70412 12.6886 8.75001 12.643 8.79581 12.5973C8.82551 12.5678 8.85521 12.5383 8.88491 12.5089C8.89841 12.4955 8.91191 12.4821 8.92571 12.4684C8.99401 12.4013 9.06341 12.3368 9.13601 12.2745C9.25361 12.1725 9.36232 12.0622 9.47182 11.9517C9.49422 11.9292 9.51661 11.9067 9.53901 11.8842C9.60941 11.8135 9.67981 11.7427 9.75011 11.6719C9.83171 11.5897 9.91341 11.5076 9.99521 11.4255C10.0275 11.393 10.0598 11.3604 10.0921 11.3279C10.1934 11.2261 10.2962 11.1286 10.4052 11.035C10.5045 10.9466 10.597 10.8508 10.6905 10.7564C10.7129 10.7339 10.7353 10.7114 10.7578 10.6889C10.8282 10.6182 10.8985 10.5474 10.9689 10.4766C11.0505 10.3944 11.1322 10.3122 11.2139 10.2302C11.2463 10.1977 11.2786 10.1651 11.3108 10.1326C11.4122 10.0308 11.515 9.9332 11.6239 9.8397C11.7233 9.7512 11.8157 9.6555 11.9093 9.5611C11.9317 9.5386 11.9541 9.5161 11.9765 9.4936C12.0469 9.4229 12.1173 9.3521 12.1876 9.2813C12.2692 9.1991 12.3509 9.1169 12.4327 9.0349C12.465 9.0024 12.4973 8.9698 12.5296 8.9373C12.6309 8.8355 12.7337 8.7379 12.8427 8.6444C12.942 8.5559 13.0345 8.4602 13.128 8.3657C13.1504 8.3432 13.1728 8.3207 13.1953 8.2983C13.2657 8.2276 13.336 8.1568 13.4064 8.086C13.488 8.0038 13.5697 7.9216 13.6514 7.8396C13.6838 7.8071 13.7161 7.7745 13.7483 7.7419C13.8497 7.6402 13.9525 7.5426 14.0614 7.4491C14.1608 7.3606 14.2532 7.2649 14.3468 7.1704C14.3692 7.1479 14.3916 7.1254 14.414 7.1029C14.4844 7.0322 14.5548 6.9615 14.6251 6.8906C14.7067 6.8085 14.7884 6.7263 14.8702 6.6443C14.9025 6.6118 14.9348 6.5792 14.9671 6.5466C15.071 6.4424 15.1762 6.3417 15.2879 6.2458C15.9057 5.7126 16.3342 5.0947 16.4064 4.2656C16.4471 3.6867 16.2622 3.0491 15.8857 2.6022C15.865 2.5787 15.865 2.5787 15.8439 2.5547C15.8289 2.5364 15.8138 2.518 15.7984 2.4991C15.4094 2.0399 14.8615 1.7637 14.2736 1.6641C14.2468 1.6595 14.2468 1.6595 14.2194 1.6547C13.5592 1.5624 12.8737 1.754 12.34 2.146C12.1878 2.2644 12.0544 2.4021 11.9206 2.5403C11.8664 2.5957 11.8109 2.6475 11.7519 2.6976C11.6328 2.8012 11.5223 2.9128 11.4112 3.0249C11.3889 3.0474 11.3664 3.0699 11.344 3.0924C11.2736 3.1631 11.2033 3.2339 11.1329 3.3047C11.0513 3.3869 10.9696 3.469 10.8879 3.5511C10.8555 3.5836 10.8232 3.6162 10.791 3.6487C10.6896 3.7505 10.5868 3.848 10.4779 3.9416C10.3785 4.03 10.2861 4.1258 10.1925 4.2202C10.1701 4.2427 10.1477 4.2652 10.1253 4.2877C10.0549 4.3584 9.98452 4.4292 9.91422 4.5C9.83252 4.5822 9.75092 4.6644 9.66912 4.7464C9.63682 4.7789 9.60452 4.8115 9.57222 4.844C9.47082 4.9459 9.36792 5.0436 9.25882 5.1372C9.16132 5.2239 9.07072 5.3178 8.97892 5.4104C8.94582 5.4437 8.91272 5.4769 8.87962 5.5101C8.82202 5.5679 8.76462 5.6258 8.70712 5.6836C8.63852 5.7527 8.56982 5.8219 8.50112 5.8909C8.45842 5.9337 8.41582 5.9766 8.37332 6.0195C8.28762 6.1055 8.20202 6.1901 8.10982 6.2692C7.99342 6.3693 7.88642 6.4784 7.77842 6.5874C7.75602 6.6099 7.73362 6.6324 7.71122 6.6549C7.64082 6.7256 7.57041 6.7964 7.50011 6.8672C7.41851 6.9494 7.33681 7.0315 7.25501 7.1136C7.22271 7.1461 7.19041 7.1787 7.15821 7.2112C7.05681 7.313 6.95402 7.4105 6.84512 7.5041C6.74572 7.5925 6.65332 7.6883 6.55972 7.7827C6.53732 7.8052 6.51492 7.8277 6.49252 7.8502C6.42202 7.9209 6.35172 7.9917 6.28142 8.0625C6.19972 8.1447 6.11812 8.2269 6.03632 8.3089C6.00392 8.3414 5.97171 8.374 5.93941 8.4065C5.83801 8.5083 5.73522 8.6058 5.62632 8.6994C5.52702 8.7879 5.43452 8.8836 5.34092 8.978C5.31852 9.0005 5.29612 9.023 5.27372 9.0455C5.20332 9.1162 5.13292 9.187 5.06262 9.2578C4.98102 9.34 4.89932 9.4222 4.81752 9.5042C4.78522 9.5367 4.75292 9.5693 4.72072 9.6018C4.61932 9.7036 4.51652 9.8012 4.40762 9.8947C4.30822 9.9832 4.21582 10.0789 4.12222 10.1734C4.09982 10.1959 4.07742 10.2184 4.05502 10.2408C3.98452 10.3115 3.91421 10.3823 3.84391 10.4531C3.76221 10.5353 3.68061 10.6175 3.59881 10.6995C3.56641 10.732 3.53421 10.7646 3.50191 10.7972C3.39911 10.9004 3.29482 10.9995 3.18432 11.0944C3.11152 11.1586 3.04442 11.2281 2.97692 11.2977C2.94652 11.3286 2.91612 11.3595 2.88582 11.3903C2.83892 11.4381 2.79202 11.4859 2.74542 11.534C2.48582 11.8008 2.24452 12.0371 1.84982 12.0491C1.58552 12.0355 1.36372 11.9386 1.17932 11.7482C1.04152 11.5822 0.964815 11.3639 0.975615 11.1477C1.03472 10.7368 1.30421 10.4758 1.60711 10.2174C1.72631 10.1134 1.83711 10.0015 1.94841 9.8892C1.97081 9.8667 1.99322 9.8442 2.01562 9.8217C2.08602 9.751 2.15641 9.6802 2.22671 9.6094C2.30831 9.5272 2.39001 9.4451 2.47181 9.363C2.50411 9.3305 2.53641 9.2979 2.56861 9.2654C2.67011 9.1635 2.77302 9.0658 2.88202 8.9722C2.97952 8.8855 3.07021 8.7916 3.16201 8.699C3.19511 8.6658 3.22822 8.6325 3.26132 8.5993C3.31882 8.5415 3.37631 8.4836 3.43371 8.4258C3.50241 8.3567 3.57102 8.2875 3.63982 8.2185C3.68242 8.1757 3.72502 8.1328 3.76752 8.0899C3.85322 8.0039 3.93892 7.9193 4.03102 7.8402C4.14752 7.7401 4.25442 7.631 4.36242 7.522C4.38482 7.4995 4.40722 7.477 4.42962 7.4545C4.50012 7.3838 4.57042 7.313 4.64072 7.2422C4.72242 7.16 4.80402 7.0779 4.88582 6.9958C4.91822 6.9633 4.95042 6.9308 4.98272 6.8982C5.08412 6.7964 5.18692 6.6989 5.29582 6.6053C5.39512 6.5169 5.48761 6.4211 5.58121 6.3267C5.60361 6.3042 5.62602 6.2817 5.64842 6.2592C5.71882 6.1885 5.78922 6.1177 5.85952 6.0469C5.94112 5.9647 6.02282 5.8826 6.10462 5.8005C6.13692 5.768 6.16922 5.7354 6.20152 5.7029C6.30282 5.6011 6.40561 5.5036 6.51451 5.41C6.61391 5.3216 6.70632 5.2258 6.79992 5.1314C6.82232 5.1089 6.84472 5.0864 6.86712 5.0639C6.93762 4.9932 7.00791 4.9224 7.07821 4.8516C7.15991 4.7694 7.24151 4.6872 7.32331 4.6052C7.35571 4.5727 7.38792 4.5401 7.42022 4.5076C7.52172 4.4057 7.62462 4.308 7.73362 4.2144C7.83112 4.1277 7.92182 4.0338 8.01352 3.9412C8.04662 3.9079 8.07982 3.8747 8.11292 3.8415C8.17042 3.7837 8.22781 3.7258 8.28531 3.668C8.35391 3.5988 8.42262 3.5297 8.49142 3.4607C8.53402 3.4179 8.57662 3.375 8.61912 3.3321C8.70482 3.2461 8.79052 3.1615 8.88262 3.0824C8.99902 2.9823 9.10602 2.8732 9.21402 2.7642C9.23642 2.7417 9.25882 2.7192 9.28122 2.6967C9.35162 2.626 9.42202 2.5552 9.49232 2.4844C9.57392 2.4022 9.65562 2.3201 9.73742 2.238C9.76972 2.2055 9.80201 2.1729 9.83431 2.1404C9.93691 2.0374 10.041 1.9383 10.1513 1.8436C10.2273 1.7766 10.2978 1.7043 10.3687 1.632C10.4011 1.5993 10.4335 1.5667 10.4659 1.534C10.5159 1.4834 10.5659 1.4327 10.6158 1.382C10.8038 1.1913 10.9899 1.0063 11.2032 0.8438C11.2251 0.8269 11.2251 0.826901 11.2474 0.809601C11.8669 0.338801 12.6189 -0.00629969 13.4046 -0.00867969Z" fill="#F36621"/>
<path d="M14.4653 3.4762C14.6231 3.6203 14.7294 3.8041 14.7511 4.0181C14.7583 4.3091 14.6817 4.5152 14.4909 4.735C14.4466 4.7814 14.4015 4.8267 14.3557 4.8716C14.3309 4.8963 14.3309 4.8963 14.3056 4.9215C14.2709 4.9561 14.2361 4.9906 14.2013 5.0249C14.1484 5.0771 14.0957 5.1295 14.0431 5.182C14.0091 5.2157 13.9751 5.2495 13.9411 5.2832C13.9256 5.2986 13.9101 5.314 13.8941 5.3299C13.8206 5.4023 13.7462 5.4725 13.6679 5.5397C13.5526 5.6395 13.4461 5.7475 13.3389 5.8558C13.3058 5.889 13.2727 5.9223 13.2396 5.9555C13.1821 6.0133 13.1246 6.0711 13.0672 6.129C12.9985 6.1981 12.9298 6.2673 12.8611 6.3363C12.8184 6.3791 12.7759 6.4219 12.7334 6.4649C12.6477 6.5509 12.562 6.6355 12.4698 6.7146C12.3534 6.8147 12.2465 6.9238 12.1385 7.0328C12.1161 7.0553 12.0937 7.0778 12.0712 7.1003C12.0008 7.171 11.9305 7.2418 11.8601 7.3126C11.7785 7.3948 11.6968 7.4769 11.6151 7.559C11.5827 7.5915 11.5504 7.624 11.5182 7.6566C11.4167 7.7585 11.3138 7.8561 11.2048 7.9498C11.1073 8.0365 11.0166 8.1303 10.9248 8.223C10.8917 8.2562 10.8586 8.2895 10.8255 8.3227C10.768 8.3805 10.7106 8.4383 10.6531 8.4962C10.5844 8.5653 10.5158 8.6344 10.447 8.7035C10.4044 8.7463 10.3618 8.7891 10.3193 8.8321C10.2336 8.9181 10.1479 9.0027 10.0558 9.0818C9.93929 9.1818 9.83239 9.291 9.72439 9.4C9.70199 9.4225 9.67959 9.445 9.65719 9.4675C9.58669 9.5382 9.51639 9.609 9.44609 9.6798C9.36439 9.762 9.28279 9.8441 9.20099 9.9262C9.16869 9.9587 9.13639 9.9912 9.10409 10.0238C9.00279 10.1255 8.89999 10.2231 8.79099 10.3167C8.69169 10.4051 8.59919 10.5008 8.50559 10.5953C8.48319 10.6178 8.46079 10.6403 8.43839 10.6628C8.36799 10.7335 8.29769 10.8043 8.22729 10.8751C8.14569 10.9573 8.06399 11.0394 7.98229 11.1215C7.94989 11.154 7.91759 11.1865 7.88539 11.2191C7.78099 11.3239 7.67529 11.4255 7.56289 11.5217C7.09339 11.9238 6.74059 12.4972 6.66199 13.1177C6.61409 13.8579 6.77539 14.5165 7.26419 15.0879C7.68719 15.5614 8.29929 15.8757 8.93509 15.9193C9.27169 15.9314 9.59239 15.9224 9.91479 15.8204C9.93089 15.8154 9.94699 15.8104 9.96349 15.8052C10.7128 15.5637 11.2287 14.956 11.7679 14.4127C11.852 14.3279 11.9363 14.2431 12.0206 14.1584C12.0394 14.1394 12.0582 14.1204 12.0776 14.1009C12.1588 14.0194 12.2402 13.9397 12.3275 13.8648C12.4442 13.7643 12.5516 13.6549 12.6599 13.5455C12.6823 13.523 12.7047 13.5005 12.7272 13.478C12.7976 13.4073 12.8679 13.3365 12.9383 13.2657C13.0199 13.1835 13.1016 13.1014 13.1833 13.0193C13.2157 12.9868 13.248 12.9543 13.2802 12.9217C13.3816 12.8199 13.4844 12.7224 13.5933 12.6288C13.6927 12.5404 13.7851 12.4446 13.8787 12.3502C13.9011 12.3277 13.9235 12.3052 13.9459 12.2827C14.0163 12.212 14.0867 12.1412 14.157 12.0704C14.2386 11.9882 14.3203 11.9061 14.4021 11.824C14.4344 11.7915 14.4667 11.759 14.499 11.7264C14.6003 11.6246 14.7031 11.5271 14.8121 11.4335C14.9114 11.3451 15.0038 11.2493 15.0974 11.1549C15.1198 11.1324 15.1422 11.1099 15.1647 11.0874C15.2351 11.0167 15.3054 10.9459 15.3758 10.8751C15.4574 10.7929 15.5391 10.7108 15.6208 10.6287C15.6532 10.5962 15.6855 10.5636 15.7177 10.5311C15.8191 10.4293 15.9219 10.3318 16.0308 10.2382C16.1302 10.1497 16.2226 10.054 16.3162 9.9596C16.3386 9.9371 16.361 9.9146 16.3834 9.8921C16.4538 9.8214 16.5242 9.7506 16.5945 9.6798C16.6761 9.5976 16.7578 9.5154 16.8396 9.4334C16.8719 9.4009 16.9042 9.3683 16.9365 9.3358C17.0389 9.2329 17.1428 9.1343 17.2529 9.0397C17.3329 8.9689 17.4067 8.892 17.4812 8.8155C17.5157 8.7805 17.5503 8.7454 17.5848 8.7104C17.6383 8.6561 17.6917 8.6016 17.7449 8.547C18.263 8.0161 18.263 8.0161 18.6003 7.9844C18.9099 7.9811 19.1274 8.0512 19.3527 8.2639C19.4983 8.4182 19.5742 8.6243 19.5711 8.836C19.5368 9.2336 19.3244 9.435 19.054 9.7076C19.0407 9.721 19.0275 9.7343 19.0139 9.7481C18.9471 9.8146 18.8791 9.8784 18.8073 9.9395C18.6882 10.0433 18.5777 10.155 18.4666 10.2672C18.4442 10.2897 18.4218 10.3122 18.3994 10.3347C18.3289 10.4054 18.2586 10.4762 18.1883 10.547C18.1066 10.6291 18.025 10.7113 17.9432 10.7933C17.9108 10.8258 17.8786 10.8584 17.8463 10.891C17.7448 10.9928 17.6419 11.0905 17.5329 11.1842C17.4354 11.2709 17.3447 11.3647 17.253 11.4574C17.2199 11.4906 17.1868 11.5238 17.1536 11.5571C17.0961 11.6148 17.0387 11.6727 16.9812 11.7306C16.9126 11.7997 16.8439 11.8688 16.7751 11.9378C16.7325 11.9806 16.6899 12.0235 16.6474 12.0664C16.5617 12.1525 16.476 12.237 16.3839 12.3162C16.2675 12.4162 16.1605 12.5254 16.0525 12.6344C16.0301 12.6569 16.0077 12.6794 15.9853 12.7018C15.9149 12.7725 15.8445 12.8433 15.7742 12.9141C15.6926 12.9963 15.6109 13.0785 15.5291 13.1605C15.4968 13.193 15.4645 13.2256 15.4322 13.2582C15.3308 13.36 15.2279 13.4577 15.1188 13.5513C15.0214 13.6381 14.9307 13.7319 14.8389 13.8245C14.8058 13.8578 14.7727 13.891 14.7396 13.9243C14.6821 13.982 14.6246 14.0399 14.5672 14.0977C14.4985 14.1669 14.4298 14.236 14.3611 14.305C14.3184 14.3478 14.2759 14.3907 14.2334 14.4336C14.1477 14.5196 14.062 14.6042 13.9698 14.6834C13.8534 14.7834 13.7465 14.8926 13.6385 15.0016C13.6161 15.0241 13.5937 15.0465 13.5712 15.069C13.5008 15.1397 13.4305 15.2105 13.3601 15.2813C13.2785 15.3635 13.1968 15.4457 13.1151 15.5277C13.0827 15.5602 13.0504 15.5928 13.0182 15.6254C12.9148 15.7291 12.8099 15.829 12.6988 15.9244C12.6367 15.9788 12.5797 16.037 12.5221 16.0962C12.4977 16.121 12.4733 16.1459 12.4489 16.1707C12.4364 16.1834 12.424 16.1961 12.4112 16.2091C12.1999 16.424 11.9912 16.6322 11.743 16.8048C11.7299 16.8142 11.7169 16.8236 11.7034 16.8333C10.7596 17.5127 9.60489 17.7657 8.45889 17.5905C7.60129 17.4444 6.83059 17.0669 6.20119 16.4646C6.17659 16.441 6.15179 16.4176 6.12699 16.3943C5.35539 15.6681 4.93679 14.627 4.89399 13.5767C4.88199 13.1136 4.94659 12.6524 5.08669 12.211C5.09519 12.1841 5.09519 12.1841 5.10389 12.1566C5.24579 11.7192 5.45649 11.3059 5.74299 10.9454C5.76419 10.9183 5.76419 10.9183 5.78589 10.8907C5.92059 10.7225 6.06619 10.5687 6.21909 10.417C6.24409 10.392 6.26909 10.367 6.29409 10.342C6.34609 10.2901 6.39809 10.2383 6.45019 10.1865C6.51639 10.1206 6.58259 10.0546 6.64859 9.9885C6.70009 9.937 6.75159 9.8857 6.80309 9.8343C6.82749 9.81 6.85189 9.7856 6.87629 9.7613C6.99519 9.6426 7.11509 9.5266 7.24259 9.4171C7.34169 9.3289 7.43379 9.2334 7.52709 9.1392C7.54949 9.1167 7.57189 9.0943 7.59429 9.0718C7.66479 9.0011 7.73509 8.9303 7.80549 8.8595C7.88709 8.7773 7.96879 8.6951 8.05049 8.6131C8.08289 8.5806 8.11509 8.548 8.14739 8.5154C8.24879 8.4137 8.35159 8.3161 8.46049 8.2226C8.55989 8.1341 8.65229 8.0384 8.74589 7.9439C8.76829 7.9214 8.79069 7.8989 8.81309 7.8765C8.88349 7.8058 8.95389 7.735 9.02419 7.6641C9.10579 7.582 9.18749 7.4998 9.26929 7.4178C9.30159 7.3853 9.33389 7.3527 9.36619 7.3201C9.46749 7.2184 9.57029 7.1208 9.67919 7.0273C9.77859 6.9388 9.87099 6.8431 9.96459 6.7486C9.98699 6.7261 10.0094 6.7036 10.0318 6.6811C10.1023 6.6104 10.1726 6.5396 10.243 6.4688C10.3246 6.3866 10.4063 6.3045 10.488 6.2225C10.5204 6.19 10.5526 6.1574 10.5849 6.1248C10.6863 6.0231 10.7891 5.9255 10.898 5.832C10.9974 5.7435 11.0898 5.6478 11.1834 5.5533C11.2058 5.5308 11.2282 5.5083 11.2506 5.4858C11.321 5.4151 11.3914 5.3443 11.4617 5.2735C11.5433 5.1913 11.625 5.1092 11.7068 5.0271C11.7391 4.9946 11.7714 4.9621 11.8037 4.9295C11.8907 4.8422 11.9776 4.7561 12.0712 4.6758C12.1871 4.5763 12.2932 4.4675 12.4005 4.3588C12.4228 4.3364 12.4451 4.3139 12.4674 4.2915C12.5611 4.1972 12.6546 4.1028 12.7481 4.0083C12.8057 3.9501 12.8633 3.8921 12.9211 3.8341C12.9532 3.8017 12.9851 3.7693 13.0171 3.7369C13.4329 3.3194 13.941 3.0593 14.4653 3.4762Z" fill="#F36621"/>
</g>
</svg>
