<svg width="48" height="48" viewBox="0 0 48 48" fill="none" xmlns="http://www.w3.org/2000/svg">
<g clip-path="url(#clip0_117_2)">
<path d="M44 0H4C1.79086 0 0 1.79086 0 4V44C0 46.2091 1.79086 48 4 48H44C46.2091 48 48 46.2091 48 44V4C48 1.79086 46.2091 0 44 0Z" fill="#1E45B8" fill-opacity="0.08"/>
<path d="M20.4 24.6H21.6V22.2H22.8C23.14 22.2 23.425 22.085 23.655 21.855C23.885 21.625 24 21.34 24 21V19.8C24 19.46 23.885 19.175 23.655 18.945C23.425 18.715 23.14 18.6 22.8 18.6H20.4V24.6ZM21.6 21V19.8H22.8V21H21.6ZM25.2 24.6H27.6C27.94 24.6 28.225 24.485 28.455 24.255C28.685 24.025 28.8 23.74 28.8 23.4V19.8C28.8 19.46 28.685 19.175 28.455 18.945C28.225 18.715 27.94 18.6 27.6 18.6H25.2V24.6ZM26.4 23.4V19.8H27.6V23.4H26.4ZM30 24.6H31.2V22.2H32.4V21H31.2V19.8H32.4V18.6H30V24.6ZM19.2 31.2C18.54 31.2 17.975 30.965 17.505 30.495C17.035 30.025 16.8 29.46 16.8 28.8V14.4C16.8 13.74 17.035 13.175 17.505 12.705C17.975 12.235 18.54 12 19.2 12H33.6C34.26 12 34.825 12.235 35.295 12.705C35.765 13.175 36 13.74 36 14.4V28.8C36 29.46 35.765 30.025 35.295 30.495C34.825 30.965 34.26 31.2 33.6 31.2H19.2ZM19.2 28.8H33.6V14.4H19.2V28.8ZM14.4 36C13.74 36 13.175 35.765 12.705 35.295C12.235 34.825 12 34.26 12 33.6V16.8H14.4V33.6H31.2V36H14.4Z" fill="#1E45B8"/>
</g>
<defs>
<clipPath id="clip0_117_2">
<rect width="48" height="48" fill="white"/>
</clipPath>
</defs>
</svg>
