<svg width="23" height="23" viewBox="0 0 23 23" fill="none" xmlns="http://www.w3.org/2000/svg">
<path d="M21.25 15.625H17.875C17.2783 15.625 16.706 15.8621 16.284 16.284C15.8621 16.706 15.625 17.2783 15.625 17.875V21.25M21.25 21.25V21.2613M11.125 5.5V8.875C11.125 9.47174 10.8879 10.044 10.466 10.466C10.044 10.8879 9.47174 11.125 8.875 11.125H5.5M1 11.125H1.01125M11.125 1H11.1363M11.125 15.625V15.6363M15.625 11.125H16.75M21.25 11.125V11.1363M11.125 21.25V20.125M2.125 1H5.5C6.12132 1 6.625 1.50368 6.625 2.125V5.5C6.625 6.12132 6.12132 6.625 5.5 6.625H2.125C1.50368 6.625 1 6.12132 1 5.5V2.125C1 1.50368 1.50368 1 2.125 1ZM16.75 1H20.125C20.7463 1 21.25 1.50368 21.25 2.125V5.5C21.25 6.12132 20.7463 6.625 20.125 6.625H16.75C16.1287 6.625 15.625 6.12132 15.625 5.5V2.125C15.625 1.50368 16.1287 1 16.75 1ZM2.125 15.625H5.5C6.12132 15.625 6.625 16.1287 6.625 16.75V20.125C6.625 20.7463 6.12132 21.25 5.5 21.25H2.125C1.50368 21.25 1 20.7463 1 20.125V16.75C1 16.1287 1.50368 15.625 2.125 15.625Z" stroke="#1E45B8" stroke-width="2" stroke-linecap="round" stroke-linejoin="round"/>
</svg>
