<svg width="29" height="26" viewBox="0 0 29 26" fill="none" xmlns="http://www.w3.org/2000/svg">
<path d="M9.5 21C9.1022 21 8.7206 20.8617 8.43935 20.6156C8.1581 20.3695 8 20.0356 8 19.6875V1.3125C8 0.964425 8.1581 0.630525 8.43935 0.384431C8.7206 0.138338 9.1022 0 9.5 0C9.8978 0 10.2794 0.138338 10.5606 0.384431C10.8419 0.630525 11 0.964425 11 1.3125V19.6875C11 20.0356 10.8419 20.3695 10.5606 20.6156C10.2794 20.8617 9.8978 21 9.5 21Z" fill="#1E45B8"/>
<path d="M14.5 21C14.1022 21 13.7206 20.8617 13.4394 20.6156C13.1581 20.3695 13 20.0356 13 19.6875V1.3125C13 0.964425 13.1581 0.630525 13.4394 0.384431C13.7206 0.138338 14.1022 0 14.5 0C14.8978 0 15.2794 0.138338 15.5606 0.384431C15.8419 0.630525 16 0.964425 16 1.3125V19.6875C16 20.0356 15.8419 20.3695 15.5606 20.6156C15.2794 20.8617 14.8978 21 14.5 21Z" fill="#1E45B8"/>
<path d="M19.5 21C19.1022 21 18.7206 20.8617 18.4394 20.6156C18.1581 20.3695 18 20.0356 18 19.6875V1.3125C18 0.964425 18.1581 0.630525 18.4394 0.384431C18.7206 0.138338 19.1022 0 19.5 0C19.8978 0 20.2794 0.138338 20.5606 0.384431C20.8419 0.630525 21 0.964425 21 1.3125V19.6875C21 20.0356 20.8419 20.3695 20.5606 20.6156C20.2794 20.8617 19.8978 21 19.5 21Z" fill="#1E45B8"/>
<path d="M24.5305 14.0151C24.2205 14.0777 23.9417 14.2523 23.743 14.5081C23.5443 14.7638 23.4386 15.0843 23.4444 15.4133V23.3367H5.55562V15.4133C5.56137 15.0843 5.45569 14.7638 5.257 14.5081C5.05831 14.2523 4.7795 14.0777 4.46951 14.0151C4.28641 13.9861 4.09934 13.999 3.92148 14.0528C3.74361 14.1066 3.57916 14.2002 3.43937 14.3269C3.29959 14.4535 3.18791 14.6104 3.11201 14.7864C3.03624 14.9626 2.99803 15.1537 3.00008 15.3468V24.6683C3.00008 25.0215 3.13475 25.3603 3.37434 25.61C3.61392 25.8596 3.93898 26 4.27785 26H24.7222C25.061 26 25.3861 25.8596 25.6257 25.61C25.8652 25.3603 25.9999 25.0215 25.9999 24.6683V15.3468C26.002 15.1537 25.9639 14.9626 25.888 14.7864C25.8121 14.6104 25.7004 14.4535 25.5606 14.3269C25.421 14.2002 25.2564 14.1066 25.0785 14.0528C24.9007 13.999 24.7136 13.9861 24.5305 14.0151Z" fill="#1E45B8"/>
<path d="M4.84469 7.82L0.310557 5.06C0.124223 4.94 0 5 0 5.24V10.76C0 11 0.124223 11.06 0.310557 10.94L4.84469 8.18C5.05177 8.06 5.05177 7.94 4.84469 7.82Z" fill="#1E45B8"/>
<path d="M28.8447 7.82L24.3106 5.06C24.1242 4.94 24 5 24 5.24V10.76C24 11 24.1242 11.06 24.3106 10.94L28.8447 8.18C29.0518 8.06 29.0518 7.94 28.8447 7.82Z" fill="#1E45B8"/>
</svg>
