<svg width="24" height="24" viewBox="0 0 24 24" fill="none" xmlns="http://www.w3.org/2000/svg">
<path d="M11.999 0C15.1804 0.00354312 18.2309 1.26908 20.4805 3.51855C22.7301 5.76817 23.9964 8.81858 24 12C23.9998 15.1823 22.7356 18.2351 20.4854 20.4854C18.235 22.7357 15.1824 23.9999 12 24C8.81758 24 5.76502 22.7356 3.51465 20.4854C1.26431 18.235 6.38742e-05 15.1824 0 12C0 11.6885 0.12356 11.3893 0.34375 11.1689C0.564047 10.9486 0.863268 10.8243 1.1748 10.8242C1.48645 10.8242 1.78547 10.9486 2.00586 11.1689C2.22626 11.3893 2.35059 11.6883 2.35059 12C2.35063 13.9083 2.91643 15.7736 3.97656 17.3604C5.03684 18.9472 6.54444 20.1837 8.30762 20.9141C10.0706 21.6443 12.0103 21.8361 13.8818 21.4639C15.7536 21.0915 17.4738 20.1727 18.8232 18.8232C20.1727 17.4738 21.0915 15.7536 21.4639 13.8818C21.8361 12.0103 21.6443 10.0706 20.9141 8.30762C20.1837 6.54444 18.9472 5.03684 17.3604 3.97656C15.7737 2.91643 13.9083 2.35063 12 2.35059C11.6883 2.35059 11.3893 2.22626 11.1689 2.00586C10.9486 1.78547 10.8242 1.48645 10.8242 1.1748C10.8243 0.863268 10.9486 0.564048 11.1689 0.34375C11.3891 0.123734 11.6878 0.000194508 11.999 0ZM11.7539 21.8936H11.7549H11.7539ZM8.21289 21.1436H8.21191H8.21289ZM12 5.1543C12.3116 5.15436 12.6107 5.27868 12.8311 5.49902C13.0513 5.7194 13.1748 6.01852 13.1748 6.33008V10.6486C13.1748 10.7391 13.2078 10.8266 13.2676 10.8945C13.5499 11.2153 13.6991 11.6315 13.6855 12.0586C13.6719 12.4858 13.4966 12.8921 13.1943 13.1943C12.8921 13.4966 12.4858 13.6719 12.0586 13.6855C11.6315 13.6991 11.2153 13.5499 10.8945 13.2676C10.8266 13.2078 10.7391 13.1748 10.6486 13.1748H8.3916C8.07997 13.1748 7.78093 13.0514 7.56055 12.8311C7.3402 12.6107 7.21686 12.3116 7.2168 12C7.2168 11.6884 7.34022 11.3893 7.56055 11.1689C7.78095 10.9485 8.07991 10.8242 8.3916 10.8242C9.7351 10.8242 10.8242 9.7351 10.8242 8.3916V6.33008C10.8242 6.0184 10.9486 5.71942 11.1689 5.49902C11.3893 5.27862 11.6883 5.1543 12 5.1543ZM13.2617 12.6953H13.2627H13.2617ZM2.10254 12H2.10352H2.10254ZM2.86133 5.9502C3.08914 5.99554 3.2986 6.10729 3.46289 6.27148C3.62725 6.43584 3.73883 6.64605 3.78418 6.87402C3.82946 7.10192 3.80669 7.33807 3.71777 7.55273C3.62886 7.76739 3.4783 7.95095 3.28516 8.08008C3.09189 8.20921 2.86428 8.27832 2.63184 8.27832C2.32017 8.2783 2.02116 8.15398 1.80078 7.93359C1.58053 7.71322 1.45703 7.41412 1.45703 7.10254C1.45711 6.87037 1.52537 6.64328 1.6543 6.4502C1.78343 6.25693 1.96787 6.10653 2.18262 6.01758C2.3973 5.92871 2.63344 5.90487 2.86133 5.9502ZM6.80664 1.97559C7.03451 2.02097 7.24391 2.13258 7.4082 2.29688C7.5725 2.4612 7.68414 2.67054 7.72949 2.89844C7.77481 3.12628 7.75191 3.3625 7.66309 3.57715C7.57421 3.79173 7.42352 3.97537 7.23047 4.10449C7.0372 4.23363 6.80959 4.30273 6.57715 4.30273C6.2655 4.30272 5.96648 4.17934 5.74609 3.95898C5.52573 3.73862 5.40239 3.43956 5.40234 3.12793C5.40234 2.8955 5.47048 2.66787 5.59961 2.47461C5.72875 2.28134 5.91318 2.13094 6.12793 2.04199C6.34256 1.95318 6.57881 1.93027 6.80664 1.97559Z" fill="#6E41E2"/>
</svg>
