<svg width="26" height="25" viewBox="0 0 26 25" fill="none" xmlns="http://www.w3.org/2000/svg">
<path d="M9.4 22H3.4C2.76352 22 2.15308 21.7397 1.70296 21.2764C1.25284 20.813 1 20.1846 1 19.5294V3.47073C1 2.81541 1.25284 2.18702 1.70296 1.72379C2.15308 1.26043 2.76352 1.00012 3.4 1.00012H8.08C8.4814 0.996067 8.8774 1.09577 9.23164 1.28995C9.58588 1.48414 9.8872 1.76677 10.108 2.11191L11.08 3.59425C11.2985 3.93581 11.596 4.21622 11.9458 4.41028C12.2956 4.60435 12.6867 4.70589 13.084 4.70601H22.6C23.2365 4.70601 23.8469 4.96628 24.297 5.42964C24.7472 5.89287 25 6.52126 25 7.17658V7.79422" stroke="#1EB852" stroke-width="2" stroke-linecap="round" stroke-linejoin="round"/>
<path d="M12 9V15H18" stroke="#1EB852" stroke-width="2" stroke-linecap="round" stroke-linejoin="round"/>
<path d="M12 15L14.0928 12.86C14.8754 12.1244 15.8264 11.5823 16.8665 11.2785C17.9067 10.9749 19.006 10.9185 20.0728 11.1141C21.1398 11.3099 22.1435 11.7517 23.0004 12.4033C23.8575 13.0548 24.543 13.8971 25 14.86" stroke="#1EB852" stroke-width="2" stroke-linecap="round" stroke-linejoin="round"/>
<path d="M25 24V19H20" stroke="#1EB852" stroke-width="2" stroke-linecap="round" stroke-linejoin="round"/>
<path d="M25 19L23.2292 21.14C22.5668 21.8756 21.7622 22.4177 20.8821 22.7215C20.002 23.025 19.0719 23.0815 18.169 22.8859C17.2663 22.6901 16.417 22.2483 15.6918 21.5967C14.9668 20.9452 14.3867 20.1029 14 19.14" stroke="#1EB852" stroke-width="2" stroke-linecap="round" stroke-linejoin="round"/>
</svg>
