<svg width="33" height="25" viewBox="0 0 33 25" fill="none" xmlns="http://www.w3.org/2000/svg">
<path d="M2.475 25C1.815 25 1.2375 24.7656 0.7425 24.2969C0.2475 23.8281 0 23.2812 0 22.6562V2.34375C0 1.71875 0.2475 1.17188 0.7425 0.703125C1.2375 0.234375 1.815 0 2.475 0H30.525C31.185 0 31.7625 0.234375 32.2575 0.703125C32.7525 1.17188 33 1.71875 33 2.34375V22.6562C33 23.2812 32.7525 23.8281 32.2575 24.2969C31.7625 24.7656 31.185 25 30.525 25H2.475ZM16.5 13.2031L2.475 4.49219V22.6562H30.525V4.49219L16.5 13.2031ZM16.5 10.8594L30.36 2.34375H2.68125L16.5 10.8594ZM2.475 4.49219V2.34375V22.6562V4.49219Z" fill="#1E45B8"/>
</svg>
