<svg width="20" height="25" viewBox="0 0 20 25" fill="none" xmlns="http://www.w3.org/2000/svg">
<path d="M10 0C15.4682 0 19.9113 1.37965 19.9987 3.09201H20V3.46195C19.9086 3.60767 19.7483 3.77563 19.4842 3.96064C19.01 4.29281 18.2911 4.61232 17.3573 4.88898C15.4962 5.44039 12.8949 5.78864 10 5.78864C7.10509 5.78864 4.5038 5.44039 2.64269 4.88898C1.70888 4.61232 0.990001 4.29281 0.515823 3.96064C0.251659 3.77563 0.0914227 3.60767 0 3.46195V3.09201H0.00129372C0.088712 1.37965 4.53183 0 10 0Z" fill="#1E45B8"/>
<path d="M0 4.82034V10.6841C0.0914227 10.8298 0.251659 10.9978 0.515823 11.1828C0.990001 11.515 1.70888 11.8345 2.64269 12.1111C4.5038 12.6625 7.10509 13.0108 10 13.0108C12.8949 13.0108 15.4962 12.6625 17.3573 12.1111C18.2911 11.8345 19.01 11.515 19.4842 11.1828C19.7483 10.9978 19.9086 10.8298 20 10.6841V4.82034C19.406 5.22018 18.5968 5.56229 17.6474 5.84357C15.6685 6.42989 12.9648 6.7853 10 6.7853C7.03517 6.7853 4.33155 6.42989 2.35259 5.84357C1.40319 5.56229 0.594001 5.22018 0 4.82034Z" fill="#1E45B8"/>
<path d="M0 12.0425V17.9063C0.0914227 18.052 0.251659 18.2199 0.515823 18.405C0.990001 18.7371 1.70888 19.0566 2.64269 19.3333C4.5038 19.8847 7.10509 20.233 10 20.233C12.8949 20.233 15.4962 19.8847 17.3573 19.3333C18.2911 19.0566 19.01 18.7371 19.4842 18.405C19.7483 18.2199 19.9086 18.052 20 17.9063V12.0425C19.406 12.4423 18.5968 12.7844 17.6474 13.0657C15.6685 13.652 12.9648 14.0075 10 14.0075C7.03517 14.0075 4.33155 13.652 2.35259 13.0657C1.40319 12.7844 0.594001 12.4423 0 12.0425Z" fill="#1E45B8"/>
<path d="M0 21.8565V19.2646C0.594001 19.6645 1.40319 20.0066 2.35259 20.2879C4.33155 20.8742 7.03517 21.2296 10 21.2296C12.9648 21.2296 15.6685 20.8742 17.6474 20.2879C18.5968 20.0066 19.406 19.6645 20 19.2646V21.8565C20 23.5926 15.5229 25 10 25C4.47712 25 0 23.5926 0 21.8565Z" fill="#1E45B8"/>
</svg>
