<svg width="572" height="572" viewBox="0 0 572 572" fill="none" xmlns="http://www.w3.org/2000/svg">
<g clip-path="url(#clip0_23_6)">
<rect x="30" y="30" width="512" height="512" rx="100" fill="black"/>
<rect x="30.3467" y="29.9597" width="512" height="512" rx="100" fill="black"/>
<path d="M30 457.475V390.23H124.143L176.979 192.818H30V126.053H193.79L249.987 -86.7298H320.114L263.917 126.053H399.848L458.447 -86.7298H528.574L470.936 126.053H551.63V192.818H452.203L399.848 390.23H551.63V457.475H381.115L326.359 658.73H255.271L310.988 457.475H176.979L124.143 658.73H53.0555L106.371 457.475H30ZM194.75 390.23H329.241L383.517 192.818H246.145L194.75 390.23Z" fill="white"/>
</g>
<rect x="15" y="15" width="542" height="542" rx="115" stroke="white" stroke-width="30"/>
<defs>
<clipPath id="clip0_23_6">
<rect x="30" y="30" width="512" height="512" rx="100" fill="white"/>
</clipPath>
</defs>
</svg>
