<svg width="24" height="24" viewBox="0 0 24 24" fill="none" xmlns="http://www.w3.org/2000/svg">
<path d="M8.25 1H3.41667C2.77573 1 2.16104 1.25461 1.70783 1.70783C1.25461 2.16104 1 2.77573 1 3.41667V8.25M8.25 1H20.3333C20.9743 1 21.589 1.25461 22.0422 1.70783C22.4954 2.16104 22.75 2.77573 22.75 3.41667V8.25M8.25 1V22.75M1 8.25V20.3333C1 20.9743 1.25461 21.589 1.70783 22.0422C2.16104 22.4954 2.77573 22.75 3.41667 22.75H8.25M1 8.25H22.75M22.75 8.25V20.3333C22.75 20.9743 22.4954 21.589 22.0422 22.0422C21.589 22.4954 20.9743 22.75 20.3333 22.75H8.25" stroke="#1E45B8" stroke-width="2" stroke-linecap="round" stroke-linejoin="round"/>
</svg>
