<svg width="24" height="24" viewBox="0 0 24 24" fill="none" xmlns="http://www.w3.org/2000/svg">
<path d="M14.3342 23.4607C13.9751 23.8202 13.5411 24 13.0324 24C12.5237 24 12.0898 23.8202 11.7307 23.4607L0.508728 12.2247C0.309227 12.025 0.174564 11.8152 0.104738 11.5955C0.0349127 11.3758 0 11.1461 0 10.9064V1.79775C0 1.2784 0.169576 0.848939 0.508728 0.509363C0.84788 0.169788 1.27681 0 1.79551 0H10.8928C11.1322 0 11.3716 0.0349563 11.611 0.104869C11.8504 0.174782 12.0698 0.309613 12.2693 0.509363L23.4314 11.6854C23.8105 12.0649 24 12.5094 24 13.0187C24 13.5281 23.8105 13.9725 23.4314 14.3521L14.3342 23.4607ZM13.1072 22.2322L22.2045 13.1236L10.8928 1.79775H1.79551V10.9064L13.1072 22.2322ZM4.93766 6.47191C5.35661 6.47191 5.7207 6.3171 6.02993 6.00749C6.33915 5.69788 6.49377 5.33333 6.49377 4.91386C6.49377 4.49438 6.33915 4.12984 6.02993 3.82022C5.7207 3.51061 5.35661 3.35581 4.93766 3.35581C4.5187 3.35581 4.15461 3.51061 3.84539 3.82022C3.53616 4.12984 3.38155 4.49438 3.38155 4.91386C3.38155 5.33333 3.53616 5.69788 3.84539 6.00749C4.15461 6.3171 4.5187 6.47191 4.93766 6.47191Z" fill="#1E45B8"/>
</svg>
