<?xml version="1.0" encoding="UTF-8"?>
<svg width="47px" height="49px" viewBox="0 0 47 49" version="1.1" xmlns="http://www.w3.org/2000/svg" xmlns:xlink="http://www.w3.org/1999/xlink">
    <title>224EA4B4-FD0D-4D3D-B361-23FBCBCF8067</title>
    <g id="website" stroke="none" stroke-width="1" fill="none" fill-rule="evenodd">
        <g id="Home_2_updated-Copy" transform="translate(-88.000000, -10193.000000)" fill-rule="nonzero">
            <g id="footer" transform="translate(0.000000, 10096.000000)">
                <g id="logo_sign" transform="translate(88.000000, 97.000000)">
                    <path d="M21.9476037,0 C23.575625,0 24.8952074,1.33902292 24.8952074,2.99012163 L24.8952074,9.00937437 C24.8952074,10.6604731 23.575625,12.0004032 21.9476037,12.0004032 C20.3195824,12.0004032 19,10.6604731 19,9.00937437 L19,2.99012163 C19,1.33902292 20.3195824,0 21.9476037,0 L21.9476037,0 Z M47,23.9908272 L47,24.0089712 C47,25.6609771 45.6804176,27 44.0523963,27 L38.158083,27 C36.5300616,27 35.2104793,25.6609771 35.2104793,24.0089712 L35.2104793,23.9908272 C35.2104793,22.3388213 36.5300616,20.9997984 38.158083,20.9997984 L44.0523963,20.9997984 C45.6804176,20.9997984 47,22.3388213 47,23.9908272 L47,23.9908272 Z M41.2102877,5.12112762 L41.220122,5.13110679 C42.3662633,6.29776225 42.3662633,8.18654662 41.220122,9.35410928 L37.0414445,13.6061421 C35.8944091,14.7746119 34.031259,14.7773335 32.8806475,13.6124924 L32.8734953,13.6061421 L32.863661,13.5961629 C31.7175197,12.4295074 31.7175197,10.5407231 32.863661,9.37406762 L37.0414445,5.12112762 C38.1893739,3.95265776 40.052524,3.94993616 41.2040295,5.11477722 L41.2102877,5.12112762 Z" id="Combined-Shape" fill="#FC501E"></path>
                    <polygon id="T" fill="#1C2940" points="19.4402873 27.9075127 19.4402873 49 10.5597127 49 10.5597127 27.9075127 0 27.9075127 0 19 30 19 30 27.9075127"></polygon>
                </g>
            </g>
        </g>
    </g>
</svg>