<svg width="27" height="24" viewBox="0 0 27 24" fill="none" xmlns="http://www.w3.org/2000/svg">
<path d="M0 15V12H10.5V15H0ZM0 9V6H16.5V9H0ZM0 3V0H16.5V3H0ZM13.5 24V19.3875L21.7875 11.1375C22.0125 10.9125 22.2625 10.75 22.5375 10.65C22.8125 10.55 23.0875 10.5 23.3625 10.5C23.6625 10.5 23.95 10.5563 24.225 10.6688C24.5 10.7813 24.75 10.95 24.975 11.175L26.3625 12.5625C26.5625 12.7875 26.7188 13.0375 26.8313 13.3125C26.9438 13.5875 27 13.8625 27 14.1375C27 14.4125 26.95 14.6938 26.85 14.9813C26.75 15.2688 26.5875 15.525 26.3625 15.75L18.1125 24H13.5ZM15.75 21.75H17.175L21.7125 17.175L21.0375 16.4625L20.325 15.7875L15.75 20.325V21.75ZM21.0375 16.4625L20.325 15.7875L21.7125 17.175L21.0375 16.4625Z" fill="#1E45B8"/>
</svg>
