<svg width="30" height="29" viewBox="0 0 30 29" fill="none" xmlns="http://www.w3.org/2000/svg">
<path d="M13.1967 1.00997C13.2436 1.00982 13.2904 1.00968 13.3387 1.00952C13.5857 1.0087 13.8327 1.00818 14.0797 1.00795C14.3332 1.00764 14.5867 1.00632 14.8402 1.00477C15.037 1.00375 15.2338 1.00347 15.4306 1.00339C15.5241 1.00322 15.6176 1.00279 15.711 1.00206C16.7992 0.994245 16.7992 0.994245 17.1567 1.27914C17.1809 1.31129 17.2052 1.34343 17.2302 1.37655C17.2555 1.4087 17.2809 1.44084 17.3071 1.47396C17.4557 1.70761 17.4513 1.95743 17.4216 2.22421C17.2991 2.63633 16.9706 2.98464 16.7106 3.31794C16.8039 3.33094 16.8039 3.33093 16.899 3.34423C17.8525 3.48493 18.8105 3.73633 19.445 4.52113C19.6453 4.79163 19.7731 5.05163 19.8625 5.37683C19.9771 5.78653 20.1167 5.99403 20.4856 6.22233C20.7184 6.37043 20.9089 6.55583 21.1102 6.74343C21.2271 6.85173 21.3462 6.95493 21.4684 7.05723C22.59 8.03993 23.4137 9.36073 24.0387 10.7007C24.0672 10.7609 24.0957 10.8211 24.1251 10.8832C24.953 12.7177 25.1672 14.6696 25.1325 16.6617C25.1816 16.679 25.2306 16.6964 25.2812 16.7142C26.7797 17.2655 27.9032 18.3316 28.5814 19.7731C29.1326 21.0153 29.2274 22.5333 28.7966 23.8257C28.7768 23.8874 28.7569 23.9491 28.7365 24.0127C28.5062 24.6663 28.1524 25.2679 27.7028 25.7945C27.6671 25.8381 27.6313 25.8818 27.5945 25.9267C26.6226 27.0686 25.2117 27.6755 23.738 27.8043C22.2938 27.8943 20.7998 27.4597 19.693 26.5125C19.5517 26.3865 19.4151 26.2562 19.2809 26.1226C19.2424 26.1419 19.204 26.1611 19.1643 26.1809C19.0488 26.2387 18.9332 26.2963 18.8176 26.3538C18.6935 26.4161 18.57 26.4796 18.4472 26.5443C15.7611 27.9427 12.4579 28.1891 9.57032 27.3132C8.84122 27.0825 8.13552 26.8164 7.46242 26.4519C7.35802 26.3955 7.25272 26.3407 7.14742 26.286C6.31302 25.844 5.55782 25.2756 4.87982 24.62C4.73782 24.4816 4.73782 24.4816 4.58922 24.3666C4.47202 24.2724 4.37952 24.1796 4.28292 24.065C4.17972 23.9436 4.07642 23.8242 3.96692 23.7085C2.17306 21.8043 1.02733 18.9884 1.0023 16.3799C1.00176 16.3335 1.00123 16.287 1.00068 16.2392C0.971142 13.0115 1.89947 9.94563 4.16132 7.56433C4.25822 7.46063 4.34902 7.35753 4.43862 7.24803C4.54222 7.12453 4.63922 7.02063 4.76142 6.91703C4.79832 6.88553 4.83532 6.85403 4.87332 6.82163C4.91762 6.78433 4.96192 6.74703 5.00752 6.70863C5.06712 6.65783 5.12662 6.60703 5.18612 6.55623C5.24962 6.50223 5.31312 6.44813 5.37662 6.39413C5.40702 6.36833 5.43732 6.34253 5.46862 6.31593C5.70962 6.11203 5.70962 6.11203 5.84082 6.03763C6.00242 5.87893 6.02242 5.67013 6.07052 5.45423C6.42812 3.98823 7.28072 2.80413 8.56222 2.00546C10.0086 1.15259 11.5533 1.0137 13.1967 1.00997ZM7.86832 3.85453C6.99332 4.85773 6.84612 6.04823 6.86002 7.32723C6.86062 7.41623 6.86112 7.50523 6.86152 7.59413C6.86272 7.80943 6.86462 8.02463 6.86692 8.23983C6.89852 8.23193 6.93022 8.22393 6.96282 8.21583C7.21442 8.15573 7.43412 8.12573 7.69402 8.13383C7.90352 8.11983 7.98392 8.11123 8.12492 7.95213C8.18712 7.84633 8.24712 7.73923 8.30502 7.63103C8.53242 7.24803 8.91232 7.04993 9.32782 6.92733C9.54892 6.88233 9.76212 6.86743 9.98752 6.86243C10.6819 6.84253 11.0925 6.57483 11.6532 6.19093C12.1796 5.83643 12.745 5.72693 13.3747 5.77893C14.0367 5.91103 14.5779 6.25643 15.1228 6.63963C15.3957 6.80873 15.6426 6.83514 15.9587 6.84534C16.469 6.86974 16.8643 6.92263 17.3098 7.18883C17.4198 7.25783 17.4198 7.25783 17.5384 7.30503C17.7018 7.40093 17.735 7.53233 17.7856 7.70873C17.8448 7.87283 17.8919 7.95813 18.0231 8.07573C18.3042 8.16153 18.6046 8.16783 18.8966 8.17673C19.0117 8.18543 19.1153 8.20883 19.2262 8.23983C19.2921 6.49153 19.2921 6.49153 18.57 4.95863C18.0315 4.47393 17.3918 4.34093 16.6928 4.25933C16.3726 4.21753 16.1262 4.13833 15.9198 3.87063C15.8012 3.62173 15.7374 3.43423 15.7809 3.15393C15.9244 2.76923 16.1593 2.44803 16.4058 2.12316C16.4973 2.02241 16.4973 2.02241 16.4919 1.95077C15.9232 1.94822 15.3546 1.94628 14.786 1.9451C14.5218 1.94454 14.2577 1.94378 13.9936 1.94253C13.7379 1.94133 13.4822 1.94067 13.2266 1.94039C13.1298 1.94019 13.033 1.9398 12.9363 1.93921C10.9595 1.9275 9.26412 2.38104 7.86832 3.85453ZM11.703 7.21964C11.3256 7.47974 10.941 7.69243 10.4737 7.70453C10.432 7.70603 10.3902 7.70763 10.3472 7.70923C10.2609 7.71203 10.1746 7.71443 10.0883 7.71643C9.72512 7.73113 9.34942 7.79003 9.08862 8.06893C9.06332 8.09473 9.03812 8.12053 9.01212 8.14713C8.84432 8.37903 8.82172 8.59764 8.82062 8.87854C8.82032 8.91414 8.82002 8.94983 8.81982 8.98643C8.81902 9.10383 8.81902 9.22113 8.81922 9.33853C8.81902 9.42083 8.81872 9.50324 8.81852 9.58564C8.81812 9.75844 8.81812 9.93124 8.81842 10.104C8.81872 10.3233 8.81782 10.5426 8.81652 10.762C8.81572 10.9323 8.81562 11.1027 8.81582 11.2731C8.81582 11.3538 8.81552 11.4345 8.81492 11.5153C8.80722 12.8012 9.18842 13.8805 10.0934 14.8023C10.1304 14.8407 10.1675 14.879 10.2056 14.9185C11.0359 15.7191 12.1587 15.9788 13.2815 15.9623C14.1633 15.9332 14.9836 15.627 15.6716 15.0757C15.7164 15.0405 15.7612 15.0052 15.8074 14.9689C16.6799 14.2373 17.1375 13.2408 17.2459 12.1189C17.2679 11.8144 17.2676 11.5098 17.2686 11.2047C17.2689 11.1338 17.2692 11.0629 17.2696 10.9899C17.2701 10.8407 17.2704 10.6916 17.2706 10.5424C17.2709 10.3526 17.2723 10.1627 17.2738 9.97293C17.2751 9.78993 17.2752 9.60693 17.2754 9.42393C17.2765 9.32263 17.2765 9.32263 17.2775 9.21933C17.2764 8.80883 17.2625 8.40733 17.0052 8.06913C16.9745 8.04543 16.9439 8.02163 16.9123 7.99713C16.8669 7.96003 16.8669 7.96003 16.8206 7.92213C16.5249 7.74703 16.2439 7.73433 15.9108 7.72713C15.1862 7.69423 14.7027 7.47653 14.1173 7.05473C13.2438 6.43453 12.5316 6.64604 11.703 7.21964ZM5.58172 7.47083C5.53722 7.51193 5.53722 7.51193 5.49182 7.55393C4.19722 8.75643 3.22422 10.1941 2.60127 11.8492C2.58621 11.8884 2.57115 11.9276 2.55563 11.9679C2.18034 12.9581 1.94265 14.0509 1.93199 15.1114C1.93145 15.1557 1.93091 15.1999 1.93036 15.2455C1.92071 16.2451 1.93071 17.2149 2.16377 18.1929C2.1827 18.2731 2.1827 18.2731 2.20201 18.3549C2.52198 19.8187 2.52198 19.8187 3.31222 20.982C3.34072 20.9476 3.36932 20.9132 3.39872 20.8777C4.23252 19.9081 5.38882 19.4493 6.56572 19.0274C6.89622 18.9087 7.22602 18.7879 7.55532 18.6659C7.66652 18.6249 7.77792 18.5846 7.88942 18.5443C8.65932 18.2622 9.37472 17.9605 9.78582 17.2086C9.88902 16.9771 9.94812 16.7479 9.98412 16.4976C9.99322 16.4489 10.0022 16.4002 10.0116 16.35C10.0303 16.1805 10.0308 16.0606 9.98412 15.8961C9.85162 15.7528 9.70872 15.647 9.55082 15.5325C8.74772 14.9189 8.32642 13.9442 8.07002 12.9976C8.05202 12.9435 8.03392 12.8893 8.01532 12.8336C7.95332 12.8282 7.89122 12.8228 7.82732 12.8173C7.00492 12.7387 7.00492 12.7387 6.64812 12.5054C6.59962 12.475 6.55112 12.4445 6.50122 12.4131C6.11412 12.0261 5.97612 11.5178 5.97442 10.9817C5.97392 10.9405 5.97332 10.8994 5.97282 10.857C5.97112 10.7224 5.97022 10.5878 5.96922 10.4532C5.96822 10.3593 5.96712 10.2654 5.96602 10.1716C5.96322 9.92553 5.96102 9.67943 5.95902 9.43343C5.95682 9.18193 5.95402 8.93044 5.95132 8.67894C5.94602 8.18624 5.94142 7.69353 5.93722 7.20073C5.81052 7.20073 5.67452 7.38483 5.58172 7.47083ZM20.1559 7.20073C20.1476 7.42753 20.1398 7.65423 20.132 7.88093C20.1307 7.91693 20.1295 7.95293 20.1281 7.99003C20.1094 8.52263 20.0986 9.05503 20.0931 9.58803C20.0909 9.76893 20.0885 9.94993 20.0862 10.1308C20.0848 10.2505 20.0839 10.3702 20.0833 10.4898C20.0825 10.6603 20.0803 10.8307 20.078 11.0011C20.0781 11.0771 20.0781 11.0771 20.0783 11.1547C20.0689 11.6541 19.8949 12.0487 19.5518 12.4112C19.1407 12.7738 18.5999 12.7849 18.0778 12.8336C18.0688 12.8621 18.0598 12.8907 18.0505 12.9201C17.6923 14.0373 17.2477 14.9443 16.3176 15.6876C16.1583 15.8245 16.1583 15.8245 16.0749 16.011C16.0712 16.1425 16.086 16.2587 16.1091 16.3882C16.1146 16.437 16.1201 16.4857 16.1257 16.5359C16.1972 17.0586 16.4333 17.5043 16.82 17.8648C17.1838 18.1165 17.5772 18.2969 17.9855 18.4629C18.0382 18.4854 18.0908 18.5079 18.145 18.531C18.1959 18.5519 18.2469 18.5728 18.2993 18.5943C18.3448 18.6131 18.3903 18.632 18.4372 18.6514C18.5954 18.6916 18.6887 18.6802 18.8434 18.6304C18.9483 18.5312 19.0383 18.4359 19.1305 18.3262C19.1839 18.2658 19.2375 18.2056 19.2912 18.1455C19.3305 18.1013 19.3305 18.1013 19.3707 18.0563C20.2603 17.0739 21.6399 16.5325 22.945 16.4429C23.1559 16.4372 23.3664 16.4377 23.5773 16.4395C23.6601 16.4399 23.6601 16.4399 23.7445 16.4403C23.879 16.4409 24.0136 16.4418 24.1481 16.4429C24.5648 14.2029 23.6114 11.5054 22.4015 9.64803C21.9865 9.04763 21.5365 8.49213 21.0309 7.96643C20.9879 7.92153 20.9879 7.92153 20.944 7.87583C20.8561 7.78473 20.7676 7.69433 20.6789 7.60413C20.6518 7.57623 20.6246 7.54843 20.5967 7.51973C20.4577 7.38043 20.3336 7.28303 20.1559 7.20073ZM7.08562 9.22423C6.80272 9.54613 6.85482 9.92163 6.85372 10.3257C6.85322 10.4434 6.85152 10.5611 6.84982 10.6788C6.84942 10.7543 6.84912 10.8297 6.84892 10.9052C6.84842 10.9734 6.84792 11.0417 6.84742 11.112C6.87592 11.3903 6.96302 11.5676 7.16772 11.7569C7.43572 11.9378 7.54862 11.9039 7.90592 11.9039C7.90592 10.9474 7.90592 9.99093 7.90592 9.00543C7.42372 8.98623 7.42372 8.98623 7.08562 9.22423ZM18.1872 9.00543C18.1872 9.96193 18.1872 10.9184 18.1872 11.9039C18.5329 11.9039 18.6658 11.9023 18.9528 11.7398C19.16 11.4906 19.2042 11.288 19.2006 10.9725C19.2009 10.9106 19.2009 10.9106 19.2012 10.8475C19.2014 10.7607 19.201 10.6739 19.2001 10.5872C19.1989 10.455 19.2001 10.323 19.2015 10.1908C19.2013 10.1062 19.201 10.0215 19.2006 9.93684C19.2011 9.89774 19.2015 9.85853 19.202 9.81823C19.1968 9.54093 19.1273 9.38293 18.9528 9.16953C18.6715 8.97773 18.5591 9.00543 18.1872 9.00543ZM10.9137 16.4429C10.8967 16.5244 10.8967 16.5244 10.8794 16.6074C10.7428 17.2223 10.5474 17.8023 10.1481 18.3023C10.6887 19.1862 11.269 19.798 12.3042 20.0897C13.1124 20.2766 13.9921 20.1457 14.706 19.7178C15.2345 19.3431 15.7348 18.8782 15.945 18.2476C15.8879 18.1537 15.8879 18.1537 15.8014 18.0596C15.4246 17.5793 15.2986 17.0402 15.2341 16.4429C15.2022 16.4529 15.1703 16.4628 15.1375 16.473C13.7076 16.9115 12.3304 16.9807 10.9137 16.4429ZM19.6432 19.0645C18.8464 20.0715 18.4401 21.3358 18.5822 22.6236C18.7135 23.588 19.0959 24.4467 19.7184 25.1929C19.7603 25.2457 19.8022 25.2985 19.8453 25.3529C20.5963 26.2499 21.813 26.7448 22.9476 26.8744C24.2733 26.9595 25.5115 26.539 26.5134 25.6612C26.6009 25.579 26.6875 25.4958 26.7731 25.4117C26.8107 25.3748 26.8483 25.3379 26.887 25.3C27.7448 24.3981 28.1554 23.1831 28.1386 21.9501C28.086 20.6778 27.5619 19.5731 26.6637 18.6851C26.6198 18.6406 26.5759 18.5962 26.5307 18.5503C25.6813 17.7344 24.5208 17.3309 23.3552 17.2974C21.9023 17.3392 20.5914 17.9686 19.6432 19.0645ZM8.87222 19.097C8.49442 19.2588 8.11452 19.4096 7.72762 19.5482C7.68082 19.565 7.63392 19.5818 7.58572 19.5991C7.39512 19.6672 7.20442 19.735 7.01352 19.8022C5.35402 20.3765 5.35402 20.3765 4.06412 21.5049C4.02662 21.5569 3.98912 21.6089 3.95052 21.6624C3.85212 21.8 3.85212 21.8 3.80442 21.9664C3.87642 22.0805 3.94872 22.18 4.03342 22.2842C4.05802 22.3153 4.08272 22.3464 4.10802 22.3784C4.18832 22.4788 4.26952 22.5782 4.35122 22.6773C4.39172 22.7264 4.39172 22.7264 4.43302 22.7766C4.95552 23.4069 5.50732 23.9789 6.15592 24.482C6.18502 24.5049 6.21412 24.5278 6.24402 24.5514C7.52572 25.5551 9.00592 26.2339 10.5856 26.6148C10.6417 26.6284 10.6417 26.6284 10.699 26.6423C13.2119 27.2291 15.9499 26.7991 18.2248 25.6133C18.2592 25.5955 18.2937 25.5778 18.3292 25.5594C18.5305 25.4524 18.5305 25.4524 18.6247 25.2476C18.5442 25.0887 18.5442 25.0887 18.4299 24.9127C17.6631 23.6313 17.5137 22.0927 17.8591 20.6539C17.9367 20.3755 18.0332 20.1048 18.1325 19.8336C18.1692 19.7242 18.2056 19.6149 18.2419 19.5054C18.0187 19.4152 17.7953 19.3253 17.572 19.2354C17.4769 19.197 17.4769 19.197 17.3799 19.1578C17.3189 19.1333 17.2579 19.1088 17.1951 19.0835C17.139 19.0609 17.0829 19.0383 17.025 19.015C16.9019 18.9688 16.7841 18.9319 16.6559 18.9039C16.6282 18.9468 16.6004 18.9897 16.5718 19.034C15.8898 20.0748 15.0443 20.6997 13.8122 20.982C12.6911 21.1703 11.5707 20.929 10.6403 20.2711C10.1838 19.9017 9.78342 19.4975 9.49422 18.9842C9.47542 18.9577 9.45662 18.9312 9.43722 18.9039C9.23722 18.9039 9.05372 19.0179 8.87222 19.097Z" fill="#209849"/>
<mask id="mask0_664_4370" style="mask-type:luminance" maskUnits="userSpaceOnUse" x="0" y="0" width="30" height="29">
<path d="M30 0H0V29H30V0Z" fill="white"/>
<path d="M13.1967 1.00997C13.2436 1.00982 13.2904 1.00968 13.3387 1.00952C13.5857 1.0087 13.8327 1.00818 14.0797 1.00795C14.3332 1.00764 14.5867 1.00632 14.8402 1.00477C15.037 1.00375 15.2338 1.00347 15.4306 1.00339C15.5241 1.00322 15.6176 1.00279 15.711 1.00206C16.7992 0.994245 16.7992 0.994245 17.1567 1.27914C17.1809 1.31129 17.2052 1.34343 17.2302 1.37655C17.2555 1.4087 17.2809 1.44084 17.3071 1.47396C17.4557 1.70761 17.4513 1.95743 17.4216 2.22421C17.2991 2.63633 16.9706 2.98464 16.7106 3.31794C16.8039 3.33094 16.8039 3.33093 16.899 3.34423C17.8525 3.48493 18.8105 3.73633 19.445 4.52113C19.6453 4.79163 19.7731 5.05163 19.8625 5.37683C19.9771 5.78653 20.1167 5.99403 20.4856 6.22233C20.7184 6.37043 20.9089 6.55583 21.1102 6.74343C21.2271 6.85173 21.3462 6.95493 21.4684 7.05723C22.59 8.03993 23.4137 9.36073 24.0387 10.7007C24.0672 10.7609 24.0957 10.8211 24.1251 10.8832C24.953 12.7177 25.1672 14.6696 25.1325 16.6617C25.1816 16.679 25.2306 16.6964 25.2812 16.7142C26.7797 17.2655 27.9032 18.3316 28.5814 19.7731C29.1326 21.0153 29.2274 22.5333 28.7966 23.8257C28.7768 23.8874 28.7569 23.9491 28.7365 24.0127C28.5062 24.6663 28.1524 25.2679 27.7028 25.7945C27.6671 25.8381 27.6313 25.8818 27.5945 25.9267C26.6226 27.0686 25.2117 27.6755 23.738 27.8043C22.2938 27.8943 20.7998 27.4597 19.693 26.5125C19.5517 26.3865 19.4151 26.2562 19.2809 26.1226C19.2424 26.1419 19.204 26.1611 19.1643 26.1809C19.0488 26.2387 18.9332 26.2963 18.8176 26.3538C18.6935 26.4161 18.57 26.4796 18.4472 26.5443C15.7611 27.9427 12.4579 28.1891 9.57032 27.3132C8.84122 27.0825 8.13552 26.8164 7.46242 26.4519C7.35802 26.3955 7.25272 26.3407 7.14742 26.286C6.31302 25.844 5.55782 25.2756 4.87982 24.62C4.73782 24.4816 4.73782 24.4816 4.58922 24.3666C4.47202 24.2724 4.37952 24.1796 4.28292 24.065C4.17972 23.9436 4.07642 23.8242 3.96692 23.7085C2.17306 21.8043 1.02733 18.9884 1.0023 16.3799C1.00176 16.3335 1.00123 16.287 1.00068 16.2392C0.971142 13.0115 1.89947 9.94563 4.16132 7.56433C4.25822 7.46063 4.34902 7.35753 4.43862 7.24803C4.54222 7.12453 4.63922 7.02063 4.76142 6.91703C4.79832 6.88553 4.83532 6.85403 4.87332 6.82163C4.91762 6.78433 4.96192 6.74703 5.00752 6.70863C5.06712 6.65783 5.12662 6.60703 5.18612 6.55623C5.24962 6.50223 5.31312 6.44813 5.37662 6.39413C5.40702 6.36833 5.43732 6.34253 5.46862 6.31593C5.70962 6.11203 5.70962 6.11203 5.84082 6.03763C6.00242 5.87893 6.02242 5.67013 6.07052 5.45423C6.42812 3.98823 7.28072 2.80413 8.56222 2.00546C10.0086 1.15259 11.5533 1.0137 13.1967 1.00997ZM7.86832 3.85453C6.99332 4.85773 6.84612 6.04823 6.86002 7.32723C6.86062 7.41623 6.86112 7.50523 6.86152 7.59413C6.86272 7.80943 6.86462 8.02463 6.86692 8.23983C6.89852 8.23193 6.93022 8.22393 6.96282 8.21583C7.21442 8.15573 7.43412 8.12573 7.69402 8.13383C7.90352 8.11983 7.98392 8.11123 8.12492 7.95213C8.18712 7.84633 8.24712 7.73923 8.30502 7.63103C8.53242 7.24803 8.91232 7.04993 9.32782 6.92733C9.54892 6.88233 9.76212 6.86743 9.98752 6.86243C10.6819 6.84253 11.0925 6.57483 11.6532 6.19093C12.1796 5.83643 12.745 5.72693 13.3747 5.77893C14.0367 5.91103 14.5779 6.25643 15.1228 6.63963C15.3957 6.80873 15.6426 6.83514 15.9587 6.84534C16.469 6.86974 16.8643 6.92263 17.3098 7.18883C17.4198 7.25783 17.4198 7.25783 17.5384 7.30503C17.7018 7.40093 17.735 7.53233 17.7856 7.70873C17.8448 7.87283 17.8919 7.95813 18.0231 8.07573C18.3042 8.16153 18.6046 8.16783 18.8966 8.17673C19.0117 8.18543 19.1153 8.20883 19.2262 8.23983C19.2921 6.49153 19.2921 6.49153 18.57 4.95863C18.0315 4.47393 17.3918 4.34093 16.6928 4.25933C16.3726 4.21753 16.1262 4.13833 15.9198 3.87063C15.8012 3.62173 15.7374 3.43423 15.7809 3.15393C15.9244 2.76923 16.1593 2.44803 16.4058 2.12316C16.4973 2.02241 16.4973 2.02241 16.4919 1.95077C15.9232 1.94822 15.3546 1.94628 14.786 1.9451C14.5218 1.94454 14.2577 1.94378 13.9936 1.94253C13.7379 1.94133 13.4822 1.94067 13.2266 1.94039C13.1298 1.94019 13.033 1.9398 12.9363 1.93921C10.9595 1.9275 9.26412 2.38104 7.86832 3.85453ZM11.703 7.21964C11.3256 7.47974 10.941 7.69243 10.4737 7.70453C10.432 7.70603 10.3902 7.70763 10.3472 7.70923C10.2609 7.71203 10.1746 7.71443 10.0883 7.71643C9.72512 7.73113 9.34942 7.79003 9.08862 8.06893C9.06332 8.09473 9.03812 8.12053 9.01212 8.14713C8.84432 8.37903 8.82172 8.59764 8.82062 8.87854C8.82032 8.91414 8.82002 8.94983 8.81982 8.98643C8.81902 9.10383 8.81902 9.22113 8.81922 9.33853C8.81902 9.42083 8.81872 9.50324 8.81852 9.58564C8.81812 9.75844 8.81812 9.93124 8.81842 10.104C8.81872 10.3233 8.81782 10.5426 8.81652 10.762C8.81572 10.9323 8.81562 11.1027 8.81582 11.2731C8.81582 11.3538 8.81552 11.4345 8.81492 11.5153C8.80722 12.8012 9.18842 13.8805 10.0934 14.8023C10.1304 14.8407 10.1675 14.879 10.2056 14.9185C11.0359 15.7191 12.1587 15.9788 13.2815 15.9623C14.1633 15.9332 14.9836 15.627 15.6716 15.0757C15.7164 15.0405 15.7612 15.0052 15.8074 14.9689C16.6799 14.2373 17.1375 13.2408 17.2459 12.1189C17.2679 11.8144 17.2676 11.5098 17.2686 11.2047C17.2689 11.1338 17.2692 11.0629 17.2696 10.9899C17.2701 10.8407 17.2704 10.6916 17.2706 10.5424C17.2709 10.3526 17.2723 10.1627 17.2738 9.97293C17.2751 9.78993 17.2752 9.60693 17.2754 9.42393C17.2765 9.32263 17.2765 9.32263 17.2775 9.21933C17.2764 8.80883 17.2625 8.40733 17.0052 8.06913C16.9745 8.04543 16.9439 8.02163 16.9123 7.99713C16.8669 7.96003 16.8669 7.96003 16.8206 7.92213C16.5249 7.74703 16.2439 7.73433 15.9108 7.72713C15.1862 7.69423 14.7027 7.47653 14.1173 7.05473C13.2438 6.43453 12.5316 6.64604 11.703 7.21964ZM5.58172 7.47083C5.53722 7.51193 5.53722 7.51193 5.49182 7.55393C4.19722 8.75643 3.22422 10.1941 2.60127 11.8492C2.58621 11.8884 2.57115 11.9276 2.55563 11.9679C2.18034 12.9581 1.94265 14.0509 1.93199 15.1114C1.93145 15.1557 1.93091 15.1999 1.93036 15.2455C1.92071 16.2451 1.93071 17.2149 2.16377 18.1929C2.1827 18.2731 2.1827 18.2731 2.20201 18.3549C2.52198 19.8187 2.52198 19.8187 3.31222 20.982C3.34072 20.9476 3.36932 20.9132 3.39872 20.8777C4.23252 19.9081 5.38882 19.4493 6.56572 19.0274C6.89622 18.9087 7.22602 18.7879 7.55532 18.6659C7.66652 18.6249 7.77792 18.5846 7.88942 18.5443C8.65932 18.2622 9.37472 17.9605 9.78582 17.2086C9.88902 16.9771 9.94812 16.7479 9.98412 16.4976C9.99322 16.4489 10.0022 16.4002 10.0116 16.35C10.0303 16.1805 10.0308 16.0606 9.98412 15.8961C9.85162 15.7528 9.70872 15.647 9.55082 15.5325C8.74772 14.9189 8.32642 13.9442 8.07002 12.9976C8.05202 12.9435 8.03392 12.8893 8.01532 12.8336C7.95332 12.8282 7.89122 12.8228 7.82732 12.8173C7.00492 12.7387 7.00492 12.7387 6.64812 12.5054C6.59962 12.475 6.55112 12.4445 6.50122 12.4131C6.11412 12.0261 5.97612 11.5178 5.97442 10.9817C5.97392 10.9405 5.97332 10.8994 5.97282 10.857C5.97112 10.7224 5.97022 10.5878 5.96922 10.4532C5.96822 10.3593 5.96712 10.2654 5.96602 10.1716C5.96322 9.92553 5.96102 9.67943 5.95902 9.43343C5.95682 9.18193 5.95402 8.93044 5.95132 8.67894C5.94602 8.18624 5.94142 7.69353 5.93722 7.20073C5.81052 7.20073 5.67452 7.38483 5.58172 7.47083ZM20.1559 7.20073C20.1476 7.42753 20.1398 7.65423 20.132 7.88093C20.1307 7.91693 20.1295 7.95293 20.1281 7.99003C20.1094 8.52263 20.0986 9.05503 20.0931 9.58803C20.0909 9.76893 20.0885 9.94993 20.0862 10.1308C20.0848 10.2505 20.0839 10.3702 20.0833 10.4898C20.0825 10.6603 20.0803 10.8307 20.078 11.0011C20.0781 11.0771 20.0781 11.0771 20.0783 11.1547C20.0689 11.6541 19.8949 12.0487 19.5518 12.4112C19.1407 12.7738 18.5999 12.7849 18.0778 12.8336C18.0688 12.8621 18.0598 12.8907 18.0505 12.9201C17.6923 14.0373 17.2477 14.9443 16.3176 15.6876C16.1583 15.8245 16.1583 15.8245 16.0749 16.011C16.0712 16.1425 16.086 16.2587 16.1091 16.3882C16.1146 16.437 16.1201 16.4857 16.1257 16.5359C16.1972 17.0586 16.4333 17.5043 16.82 17.8648C17.1838 18.1165 17.5772 18.2969 17.9855 18.4629C18.0382 18.4854 18.0908 18.5079 18.145 18.531C18.1959 18.5519 18.2469 18.5728 18.2993 18.5943C18.3448 18.6131 18.3903 18.632 18.4372 18.6514C18.5954 18.6916 18.6887 18.6802 18.8434 18.6304C18.9483 18.5312 19.0383 18.4359 19.1305 18.3262C19.1839 18.2658 19.2375 18.2056 19.2912 18.1455C19.3305 18.1013 19.3305 18.1013 19.3707 18.0563C20.2603 17.0739 21.6399 16.5325 22.945 16.4429C23.1559 16.4372 23.3664 16.4377 23.5773 16.4395C23.6601 16.4399 23.6601 16.4399 23.7445 16.4403C23.879 16.4409 24.0136 16.4418 24.1481 16.4429C24.5648 14.2029 23.6114 11.5054 22.4015 9.64803C21.9865 9.04763 21.5365 8.49213 21.0309 7.96643C20.9879 7.92153 20.9879 7.92153 20.944 7.87583C20.8561 7.78473 20.7676 7.69433 20.6789 7.60413C20.6518 7.57623 20.6246 7.54843 20.5967 7.51973C20.4577 7.38043 20.3336 7.28303 20.1559 7.20073ZM7.08562 9.22423C6.80272 9.54613 6.85482 9.92163 6.85372 10.3257C6.85322 10.4434 6.85152 10.5611 6.84982 10.6788C6.84942 10.7543 6.84912 10.8297 6.84892 10.9052C6.84842 10.9734 6.84792 11.0417 6.84742 11.112C6.87592 11.3903 6.96302 11.5676 7.16772 11.7569C7.43572 11.9378 7.54862 11.9039 7.90592 11.9039C7.90592 10.9474 7.90592 9.99093 7.90592 9.00543C7.42372 8.98623 7.42372 8.98623 7.08562 9.22423ZM18.1872 9.00543C18.1872 9.96193 18.1872 10.9184 18.1872 11.9039C18.5329 11.9039 18.6658 11.9023 18.9528 11.7398C19.16 11.4906 19.2042 11.288 19.2006 10.9725C19.2009 10.9106 19.2009 10.9106 19.2012 10.8475C19.2014 10.7607 19.201 10.6739 19.2001 10.5872C19.1989 10.455 19.2001 10.323 19.2015 10.1908C19.2013 10.1062 19.201 10.0215 19.2006 9.93684C19.2011 9.89774 19.2015 9.85853 19.202 9.81823C19.1968 9.54093 19.1273 9.38293 18.9528 9.16953C18.6715 8.97773 18.5591 9.00543 18.1872 9.00543ZM10.9137 16.4429C10.8967 16.5244 10.8967 16.5244 10.8794 16.6074C10.7428 17.2223 10.5474 17.8023 10.1481 18.3023C10.6887 19.1862 11.269 19.798 12.3042 20.0897C13.1124 20.2766 13.9921 20.1457 14.706 19.7178C15.2345 19.3431 15.7348 18.8782 15.945 18.2476C15.8879 18.1537 15.8879 18.1537 15.8014 18.0596C15.4246 17.5793 15.2986 17.0402 15.2341 16.4429C15.2022 16.4529 15.1703 16.4628 15.1375 16.473C13.7076 16.9115 12.3304 16.9807 10.9137 16.4429ZM19.6432 19.0645C18.8464 20.0715 18.4401 21.3358 18.5822 22.6236C18.7135 23.588 19.0959 24.4467 19.7184 25.1929C19.7603 25.2457 19.8022 25.2985 19.8453 25.3529C20.5963 26.2499 21.813 26.7448 22.9476 26.8744C24.2733 26.9595 25.5115 26.539 26.5134 25.6612C26.6009 25.579 26.6875 25.4958 26.7731 25.4117C26.8107 25.3748 26.8483 25.3379 26.887 25.3C27.7448 24.3981 28.1554 23.1831 28.1386 21.9501C28.086 20.6778 27.5619 19.5731 26.6637 18.6851C26.6198 18.6406 26.5759 18.5962 26.5307 18.5503C25.6813 17.7344 24.5208 17.3309 23.3552 17.2974C21.9023 17.3392 20.5914 17.9686 19.6432 19.0645ZM8.87222 19.097C8.49442 19.2588 8.11452 19.4096 7.72762 19.5482C7.68082 19.565 7.63392 19.5818 7.58572 19.5991C7.39512 19.6672 7.20442 19.735 7.01352 19.8022C5.35402 20.3765 5.35402 20.3765 4.06412 21.5049C4.02662 21.5569 3.98912 21.6089 3.95052 21.6624C3.85212 21.8 3.85212 21.8 3.80442 21.9664C3.87642 22.0805 3.94872 22.18 4.03342 22.2842C4.05802 22.3153 4.08272 22.3464 4.10802 22.3784C4.18832 22.4788 4.26952 22.5782 4.35122 22.6773C4.39172 22.7264 4.39172 22.7264 4.43302 22.7766C4.95552 23.4069 5.50732 23.9789 6.15592 24.482C6.18502 24.5049 6.21412 24.5278 6.24402 24.5514C7.52572 25.5551 9.00592 26.2339 10.5856 26.6148C10.6417 26.6284 10.6417 26.6284 10.699 26.6423C13.2119 27.2291 15.9499 26.7991 18.2248 25.6133C18.2592 25.5955 18.2937 25.5778 18.3292 25.5594C18.5305 25.4524 18.5305 25.4524 18.6247 25.2476C18.5442 25.0887 18.5442 25.0887 18.4299 24.9127C17.6631 23.6313 17.5137 22.0927 17.8591 20.6539C17.9367 20.3755 18.0332 20.1048 18.1325 19.8336C18.1692 19.7242 18.2056 19.6149 18.2419 19.5054C18.0187 19.4152 17.7953 19.3253 17.572 19.2354C17.4769 19.197 17.4769 19.197 17.3799 19.1578C17.3189 19.1333 17.2579 19.1088 17.1951 19.0835C17.139 19.0609 17.0829 19.0383 17.025 19.015C16.9019 18.9688 16.7841 18.9319 16.6559 18.9039C16.6282 18.9468 16.6004 18.9897 16.5718 19.034C15.8898 20.0748 15.0443 20.6997 13.8122 20.982C12.6911 21.1703 11.5707 20.929 10.6403 20.2711C10.1838 19.9017 9.78342 19.4975 9.49422 18.9842C9.47542 18.9577 9.45662 18.9312 9.43722 18.9039C9.23722 18.9039 9.05372 19.0179 8.87222 19.097Z" fill="black"/>
</mask>
<g mask="url(#mask0_664_4370)">
<path d="M13.1967 1.00997C13.2436 1.00982 13.2904 1.00968 13.3387 1.00952C13.5857 1.0087 13.8327 1.00818 14.0797 1.00795C14.3332 1.00764 14.5867 1.00632 14.8402 1.00477C15.037 1.00375 15.2338 1.00347 15.4306 1.00339C15.5241 1.00322 15.6176 1.00279 15.711 1.00206C16.7992 0.994245 16.7992 0.994245 17.1567 1.27914C17.1809 1.31129 17.2052 1.34343 17.2302 1.37655C17.2555 1.4087 17.2809 1.44084 17.3071 1.47396C17.4557 1.70761 17.4513 1.95743 17.4216 2.22421C17.2991 2.63633 16.9706 2.98464 16.7106 3.31794C16.8039 3.33094 16.8039 3.33093 16.899 3.34423C17.8525 3.48493 18.8105 3.73633 19.445 4.52113C19.6453 4.79163 19.7731 5.05163 19.8625 5.37683C19.9771 5.78653 20.1167 5.99403 20.4856 6.22233C20.7184 6.37043 20.9089 6.55583 21.1102 6.74343C21.2271 6.85173 21.3462 6.95493 21.4684 7.05723C22.59 8.03993 23.4137 9.36073 24.0387 10.7007C24.0672 10.7609 24.0957 10.8211 24.1251 10.8832C24.953 12.7177 25.1672 14.6696 25.1325 16.6617C25.1816 16.679 25.2306 16.6964 25.2812 16.7142C26.7797 17.2655 27.9032 18.3316 28.5814 19.7731C29.1326 21.0153 29.2274 22.5333 28.7966 23.8257C28.7768 23.8874 28.7569 23.9491 28.7365 24.0127C28.5062 24.6663 28.1524 25.2679 27.7028 25.7945C27.6671 25.8381 27.6313 25.8818 27.5945 25.9267C26.6226 27.0686 25.2117 27.6755 23.738 27.8043C22.2938 27.8943 20.7998 27.4597 19.693 26.5125C19.5517 26.3865 19.4151 26.2562 19.2809 26.1226C19.2424 26.1419 19.204 26.1611 19.1643 26.1809C19.0488 26.2387 18.9332 26.2963 18.8176 26.3538C18.6935 26.4161 18.57 26.4796 18.4472 26.5443C15.7611 27.9427 12.4579 28.1891 9.57032 27.3132C8.84122 27.0825 8.13552 26.8164 7.46242 26.4519C7.35802 26.3955 7.25272 26.3407 7.14742 26.286C6.31302 25.844 5.55782 25.2756 4.87982 24.62C4.73782 24.4816 4.73782 24.4816 4.58922 24.3666C4.47202 24.2724 4.37952 24.1796 4.28292 24.065C4.17972 23.9436 4.07642 23.8242 3.96692 23.7085C2.17306 21.8043 1.02733 18.9884 1.0023 16.3799C1.00176 16.3335 1.00123 16.287 1.00068 16.2392C0.971142 13.0115 1.89947 9.94563 4.16132 7.56433C4.25822 7.46063 4.34902 7.35753 4.43862 7.24803C4.54222 7.12453 4.63922 7.02063 4.76142 6.91703C4.79832 6.88553 4.83532 6.85403 4.87332 6.82163C4.91762 6.78433 4.96192 6.74703 5.00752 6.70863C5.06712 6.65783 5.12662 6.60703 5.18612 6.55623C5.24962 6.50223 5.31312 6.44813 5.37662 6.39413C5.40702 6.36833 5.43732 6.34253 5.46862 6.31593C5.70962 6.11203 5.70962 6.11203 5.84082 6.03763C6.00242 5.87893 6.02242 5.67013 6.07052 5.45423C6.42812 3.98823 7.28072 2.80413 8.56222 2.00546C10.0086 1.15259 11.5533 1.0137 13.1967 1.00997ZM7.86832 3.85453C6.99332 4.85773 6.84612 6.04823 6.86002 7.32723C6.86062 7.41623 6.86112 7.50523 6.86152 7.59413C6.86272 7.80943 6.86462 8.02463 6.86692 8.23983C6.89852 8.23193 6.93022 8.22393 6.96282 8.21583C7.21442 8.15573 7.43412 8.12573 7.69402 8.13383C7.90352 8.11983 7.98392 8.11123 8.12492 7.95213C8.18712 7.84633 8.24712 7.73923 8.30502 7.63103C8.53242 7.24803 8.91232 7.04993 9.32782 6.92733C9.54892 6.88233 9.76212 6.86743 9.98752 6.86243C10.6819 6.84253 11.0925 6.57483 11.6532 6.19093C12.1796 5.83643 12.745 5.72693 13.3747 5.77893C14.0367 5.91103 14.5779 6.25643 15.1228 6.63963C15.3957 6.80873 15.6426 6.83514 15.9587 6.84534C16.469 6.86974 16.8643 6.92263 17.3098 7.18883C17.4198 7.25783 17.4198 7.25783 17.5384 7.30503C17.7018 7.40093 17.735 7.53233 17.7856 7.70873C17.8448 7.87283 17.8919 7.95813 18.0231 8.07573C18.3042 8.16153 18.6046 8.16783 18.8966 8.17673C19.0117 8.18543 19.1153 8.20883 19.2262 8.23983C19.2921 6.49153 19.2921 6.49153 18.57 4.95863C18.0315 4.47393 17.3918 4.34093 16.6928 4.25933C16.3726 4.21753 16.1262 4.13833 15.9198 3.87063C15.8012 3.62173 15.7374 3.43423 15.7809 3.15393C15.9244 2.76923 16.1593 2.44803 16.4058 2.12316C16.4973 2.02241 16.4973 2.02241 16.4919 1.95077C15.9232 1.94822 15.3546 1.94628 14.786 1.9451C14.5218 1.94454 14.2577 1.94378 13.9936 1.94253C13.7379 1.94133 13.4822 1.94067 13.2266 1.94039C13.1298 1.94019 13.033 1.9398 12.9363 1.93921C10.9595 1.9275 9.26412 2.38104 7.86832 3.85453ZM11.703 7.21964C11.3256 7.47974 10.941 7.69243 10.4737 7.70453C10.432 7.70603 10.3902 7.70763 10.3472 7.70923C10.2609 7.71203 10.1746 7.71443 10.0883 7.71643C9.72512 7.73113 9.34942 7.79003 9.08862 8.06893C9.06332 8.09473 9.03812 8.12053 9.01212 8.14713C8.84432 8.37903 8.82172 8.59764 8.82062 8.87854C8.82032 8.91414 8.82002 8.94983 8.81982 8.98643C8.81902 9.10383 8.81902 9.22113 8.81922 9.33853C8.81902 9.42083 8.81872 9.50324 8.81852 9.58564C8.81812 9.75844 8.81812 9.93124 8.81842 10.104C8.81872 10.3233 8.81782 10.5426 8.81652 10.762C8.81572 10.9323 8.81562 11.1027 8.81582 11.2731C8.81582 11.3538 8.81552 11.4345 8.81492 11.5153C8.80722 12.8012 9.18842 13.8805 10.0934 14.8023C10.1304 14.8407 10.1675 14.879 10.2056 14.9185C11.0359 15.7191 12.1587 15.9788 13.2815 15.9623C14.1633 15.9332 14.9836 15.627 15.6716 15.0757C15.7164 15.0405 15.7612 15.0052 15.8074 14.9689C16.6799 14.2373 17.1375 13.2408 17.2459 12.1189C17.2679 11.8144 17.2676 11.5098 17.2686 11.2047C17.2689 11.1338 17.2692 11.0629 17.2696 10.9899C17.2701 10.8407 17.2704 10.6916 17.2706 10.5424C17.2709 10.3526 17.2723 10.1627 17.2738 9.97293C17.2751 9.78993 17.2752 9.60693 17.2754 9.42393C17.2765 9.32263 17.2765 9.32263 17.2775 9.21933C17.2764 8.80883 17.2625 8.40733 17.0052 8.06913C16.9745 8.04543 16.9439 8.02163 16.9123 7.99713C16.8669 7.96003 16.8669 7.96003 16.8206 7.92213C16.5249 7.74703 16.2439 7.73433 15.9108 7.72713C15.1862 7.69423 14.7027 7.47653 14.1173 7.05473C13.2438 6.43453 12.5316 6.64604 11.703 7.21964ZM5.58172 7.47083C5.53722 7.51193 5.53722 7.51193 5.49182 7.55393C4.19722 8.75643 3.22422 10.1941 2.60127 11.8492C2.58621 11.8884 2.57115 11.9276 2.55563 11.9679C2.18034 12.9581 1.94265 14.0509 1.93199 15.1114C1.93145 15.1557 1.93091 15.1999 1.93036 15.2455C1.92071 16.2451 1.93071 17.2149 2.16377 18.1929C2.1827 18.2731 2.1827 18.2731 2.20201 18.3549C2.52198 19.8187 2.52198 19.8187 3.31222 20.982C3.34072 20.9476 3.36932 20.9132 3.39872 20.8777C4.23252 19.9081 5.38882 19.4493 6.56572 19.0274C6.89622 18.9087 7.22602 18.7879 7.55532 18.6659C7.66652 18.6249 7.77792 18.5846 7.88942 18.5443C8.65932 18.2622 9.37472 17.9605 9.78582 17.2086C9.88902 16.9771 9.94812 16.7479 9.98412 16.4976C9.99322 16.4489 10.0022 16.4002 10.0116 16.35C10.0303 16.1805 10.0308 16.0606 9.98412 15.8961C9.85162 15.7528 9.70872 15.647 9.55082 15.5325C8.74772 14.9189 8.32642 13.9442 8.07002 12.9976C8.05202 12.9435 8.03392 12.8893 8.01532 12.8336C7.95332 12.8282 7.89122 12.8228 7.82732 12.8173C7.00492 12.7387 7.00492 12.7387 6.64812 12.5054C6.59962 12.475 6.55112 12.4445 6.50122 12.4131C6.11412 12.0261 5.97612 11.5178 5.97442 10.9817C5.97392 10.9405 5.97332 10.8994 5.97282 10.857C5.97112 10.7224 5.97022 10.5878 5.96922 10.4532C5.96822 10.3593 5.96712 10.2654 5.96602 10.1716C5.96322 9.92553 5.96102 9.67943 5.95902 9.43343C5.95682 9.18193 5.95402 8.93044 5.95132 8.67894C5.94602 8.18624 5.94142 7.69353 5.93722 7.20073C5.81052 7.20073 5.67452 7.38483 5.58172 7.47083ZM20.1559 7.20073C20.1476 7.42753 20.1398 7.65423 20.132 7.88093C20.1307 7.91693 20.1295 7.95293 20.1281 7.99003C20.1094 8.52263 20.0986 9.05503 20.0931 9.58803C20.0909 9.76893 20.0885 9.94993 20.0862 10.1308C20.0848 10.2505 20.0839 10.3702 20.0833 10.4898C20.0825 10.6603 20.0803 10.8307 20.078 11.0011C20.0781 11.0771 20.0781 11.0771 20.0783 11.1547C20.0689 11.6541 19.8949 12.0487 19.5518 12.4112C19.1407 12.7738 18.5999 12.7849 18.0778 12.8336C18.0688 12.8621 18.0598 12.8907 18.0505 12.9201C17.6923 14.0373 17.2477 14.9443 16.3176 15.6876C16.1583 15.8245 16.1583 15.8245 16.0749 16.011C16.0712 16.1425 16.086 16.2587 16.1091 16.3882C16.1146 16.437 16.1201 16.4857 16.1257 16.5359C16.1972 17.0586 16.4333 17.5043 16.82 17.8648C17.1838 18.1165 17.5772 18.2969 17.9855 18.4629C18.0382 18.4854 18.0908 18.5079 18.145 18.531C18.1959 18.5519 18.2469 18.5728 18.2993 18.5943C18.3448 18.6131 18.3903 18.632 18.4372 18.6514C18.5954 18.6916 18.6887 18.6802 18.8434 18.6304C18.9483 18.5312 19.0383 18.4359 19.1305 18.3262C19.1839 18.2658 19.2375 18.2056 19.2912 18.1455C19.3305 18.1013 19.3305 18.1013 19.3707 18.0563C20.2603 17.0739 21.6399 16.5325 22.945 16.4429C23.1559 16.4372 23.3664 16.4377 23.5773 16.4395C23.6601 16.4399 23.6601 16.4399 23.7445 16.4403C23.879 16.4409 24.0136 16.4418 24.1481 16.4429C24.5648 14.2029 23.6114 11.5054 22.4015 9.64803C21.9865 9.04763 21.5365 8.49213 21.0309 7.96643C20.9879 7.92153 20.9879 7.92153 20.944 7.87583C20.8561 7.78473 20.7676 7.69433 20.6789 7.60413C20.6518 7.57623 20.6246 7.54843 20.5967 7.51973C20.4577 7.38043 20.3336 7.28303 20.1559 7.20073ZM7.08562 9.22423C6.80272 9.54613 6.85482 9.92163 6.85372 10.3257C6.85322 10.4434 6.85152 10.5611 6.84982 10.6788C6.84942 10.7543 6.84912 10.8297 6.84892 10.9052C6.84842 10.9734 6.84792 11.0417 6.84742 11.112C6.87592 11.3903 6.96302 11.5676 7.16772 11.7569C7.43572 11.9378 7.54862 11.9039 7.90592 11.9039C7.90592 10.9474 7.90592 9.99093 7.90592 9.00543C7.42372 8.98623 7.42372 8.98623 7.08562 9.22423ZM18.1872 9.00543C18.1872 9.96193 18.1872 10.9184 18.1872 11.9039C18.5329 11.9039 18.6658 11.9023 18.9528 11.7398C19.16 11.4906 19.2042 11.288 19.2006 10.9725C19.2009 10.9106 19.2009 10.9106 19.2012 10.8475C19.2014 10.7607 19.201 10.6739 19.2001 10.5872C19.1989 10.455 19.2001 10.323 19.2015 10.1908C19.2013 10.1062 19.201 10.0215 19.2006 9.93684C19.2011 9.89774 19.2015 9.85853 19.202 9.81823C19.1968 9.54093 19.1273 9.38293 18.9528 9.16953C18.6715 8.97773 18.5591 9.00543 18.1872 9.00543ZM10.9137 16.4429C10.8967 16.5244 10.8967 16.5244 10.8794 16.6074C10.7428 17.2223 10.5474 17.8023 10.1481 18.3023C10.6887 19.1862 11.269 19.798 12.3042 20.0897C13.1124 20.2766 13.9921 20.1457 14.706 19.7178C15.2345 19.3431 15.7348 18.8782 15.945 18.2476C15.8879 18.1537 15.8879 18.1537 15.8014 18.0596C15.4246 17.5793 15.2986 17.0402 15.2341 16.4429C15.2022 16.4529 15.1703 16.4628 15.1375 16.473C13.7076 16.9115 12.3304 16.9807 10.9137 16.4429ZM19.6432 19.0645C18.8464 20.0715 18.4401 21.3358 18.5822 22.6236C18.7135 23.588 19.0959 24.4467 19.7184 25.1929C19.7603 25.2457 19.8022 25.2985 19.8453 25.3529C20.5963 26.2499 21.813 26.7448 22.9476 26.8744C24.2733 26.9595 25.5115 26.539 26.5134 25.6612C26.6009 25.579 26.6875 25.4958 26.7731 25.4117C26.8107 25.3748 26.8483 25.3379 26.887 25.3C27.7448 24.3981 28.1554 23.1831 28.1386 21.9501C28.086 20.6778 27.5619 19.5731 26.6637 18.6851C26.6198 18.6406 26.5759 18.5962 26.5307 18.5503C25.6813 17.7344 24.5208 17.3309 23.3552 17.2974C21.9023 17.3392 20.5914 17.9686 19.6432 19.0645ZM8.87222 19.097C8.49442 19.2588 8.11452 19.4096 7.72762 19.5482C7.68082 19.565 7.63392 19.5818 7.58572 19.5991C7.39512 19.6672 7.20442 19.735 7.01352 19.8022C5.35402 20.3765 5.35402 20.3765 4.06412 21.5049C4.02662 21.5569 3.98912 21.6089 3.95052 21.6624C3.85212 21.8 3.85212 21.8 3.80442 21.9664C3.87642 22.0805 3.94872 22.18 4.03342 22.2842C4.05802 22.3153 4.08272 22.3464 4.10802 22.3784C4.18832 22.4788 4.26952 22.5782 4.35122 22.6773C4.39172 22.7264 4.39172 22.7264 4.43302 22.7766C4.95552 23.4069 5.50732 23.9789 6.15592 24.482C6.18502 24.5049 6.21412 24.5278 6.24402 24.5514C7.52572 25.5551 9.00592 26.2339 10.5856 26.6148C10.6417 26.6284 10.6417 26.6284 10.699 26.6423C13.2119 27.2291 15.9499 26.7991 18.2248 25.6133C18.2592 25.5955 18.2937 25.5778 18.3292 25.5594C18.5305 25.4524 18.5305 25.4524 18.6247 25.2476C18.5442 25.0887 18.5442 25.0887 18.4299 24.9127C17.6631 23.6313 17.5137 22.0927 17.8591 20.6539C17.9367 20.3755 18.0332 20.1048 18.1325 19.8336C18.1692 19.7242 18.2056 19.6149 18.2419 19.5054C18.0187 19.4152 17.7953 19.3253 17.572 19.2354C17.4769 19.197 17.4769 19.197 17.3799 19.1578C17.3189 19.1333 17.2579 19.1088 17.1951 19.0835C17.139 19.0609 17.0829 19.0383 17.025 19.015C16.9019 18.9688 16.7841 18.9319 16.6559 18.9039C16.6282 18.9468 16.6004 18.9897 16.5718 19.034C15.8898 20.0748 15.0443 20.6997 13.8122 20.982C12.6911 21.1703 11.5707 20.929 10.6403 20.2711C10.1838 19.9017 9.78342 19.4975 9.49422 18.9842C9.47542 18.9577 9.45662 18.9312 9.43722 18.9039C9.23722 18.9039 9.05372 19.0179 8.87222 19.097Z" stroke="#209849" stroke-width="0.6"/>
</g>
<path d="M23.7047 23.5737C23.8255 23.4531 25.1795 22.0993 25.3001 21.9786L25.4743 21.8043C25.719 21.5602 25.9614 21.3155 26.1989 21.0668L26.303 20.953L26.3824 20.8662C26.4217 20.8057 26.433 20.7626 26.4359 20.7209C26.4392 20.6728 26.4322 20.618 26.4161 20.5275C26.3867 20.4791 26.381 20.4722 26.376 20.4672C26.3712 20.4624 26.3646 20.4569 26.3202 20.4299C26.113 20.4049 25.9969 20.4208 25.8861 20.5228L25.7755 20.6343L25.6467 20.7636L25.5071 20.9046C25.3325 21.0799 25.1576 21.2557 24.9834 21.4312C24.8063 21.6095 24.6292 21.788 24.4517 21.9662L24.3074 22.1112C24.0173 22.4042 23.722 22.6924 23.3981 22.9611L23.1284 23.4867V22.948C22.9949 22.8134 22.8614 22.6789 22.7277 22.5447L22.5612 22.3775C22.3019 22.1159 22.0406 21.8566 21.7763 21.6008L21.6329 21.4667C21.5673 21.4051 21.5399 21.3795 21.5141 21.3579C21.4939 21.341 21.4742 21.3261 21.4348 21.2971C21.3368 21.2759 21.2761 21.2812 21.1468 21.3037C21.0882 21.3337 21.0903 21.3365 21.0903 21.3365C21.0864 21.342 21.0777 21.3565 21.0612 21.3959C21.0487 21.4258 21.0344 21.4634 21.0156 21.5141C21.036 21.6208 21.0663 21.6992 21.107 21.7689C21.1552 21.8514 21.2232 21.9308 21.3272 22.0354L21.4359 22.1404L21.4379 22.1423C21.5553 22.2589 21.6724 22.3749 21.7903 22.4898L23.7047 23.5737ZM23.7047 23.5737C23.5494 23.7286 24.6277 22.6506 24.4729 22.8057C24.3536 22.9252 24.2342 23.0446 24.1146 23.164M23.7047 23.5737L24.1146 23.164ZM24.1146 23.164L23.943 23.3358C23.8637 23.4152 23.7843 23.4944 23.7047 23.5737M23.7047 23.5737L24.1146 23.164ZM23.7047 23.5737L23.5697 23.7085C23.5063 23.7678 23.4753 23.7887 23.4484 23.8011C23.4224 23.8132 23.3888 23.8229 23.3151 23.8355C23.2244 23.8229 23.193 23.8138 23.1707 23.8032C23.1453 23.7911 23.1181 23.7707 23.036 23.6953M23.7047 23.5737L23.036 23.6953ZM23.036 23.6953L22.921 23.5903ZM23.036 23.6953L22.921 23.5903ZM22.921 23.5903C22.6219 23.3084 22.3281 23.0206 22.035 22.73C21.9538 22.6497 21.8721 22.5695 21.7903 22.4898L22.921 23.5903Z" fill="#209849"/>
<path d="M23.7047 23.5737C23.8255 23.4531 25.1795 22.0993 25.3001 21.9786L25.4743 21.8043C25.719 21.5602 25.9614 21.3155 26.1989 21.0668L26.303 20.953M23.7047 23.5737L21.7903 22.4898M23.7047 23.5737C23.5494 23.7286 24.6277 22.6506 24.4729 22.8057C24.3536 22.9252 24.2342 23.0446 24.1146 23.164M23.7047 23.5737L24.1146 23.164M23.7047 23.5737C23.7843 23.4944 23.8637 23.4152 23.943 23.3358L24.1146 23.164M23.7047 23.5737L23.5697 23.7085C23.5063 23.7678 23.4753 23.7887 23.4484 23.8011C23.4224 23.8132 23.3888 23.8229 23.3151 23.8355C23.2244 23.8229 23.193 23.8138 23.1707 23.8032C23.1453 23.7911 23.1181 23.7707 23.036 23.6953M23.7047 23.5737L23.036 23.6953M26.303 20.953L26.4496 21.0871M26.303 20.953L26.3824 20.8662C26.4217 20.8057 26.433 20.7626 26.4359 20.7209C26.4392 20.6728 26.4322 20.618 26.4161 20.5275C26.3867 20.4791 26.381 20.4722 26.376 20.4672C26.3712 20.4624 26.3646 20.4569 26.3202 20.4299C26.113 20.4049 25.9969 20.4208 25.8861 20.5228L25.7755 20.6343L25.6467 20.7636L25.5071 20.9046C25.3325 21.0799 25.1576 21.2557 24.9834 21.4312C24.8063 21.6095 24.6292 21.788 24.4517 21.9662L24.3074 22.1112C24.0173 22.4042 23.722 22.6924 23.3981 22.9611L23.1284 23.4867V22.948C22.9949 22.8134 22.8614 22.6789 22.7277 22.5447L22.5612 22.3775C22.3019 22.1159 22.0406 21.8566 21.7763 21.6008L21.6329 21.4667C21.5673 21.4051 21.5399 21.3795 21.5141 21.3579C21.4939 21.341 21.4742 21.3261 21.4348 21.2971C21.3368 21.2759 21.2761 21.2812 21.1468 21.3037C21.0882 21.3337 21.0903 21.3365 21.0903 21.3365C21.0864 21.342 21.0777 21.3565 21.0612 21.3959C21.0487 21.4258 21.0344 21.4634 21.0156 21.5141C21.036 21.6208 21.0663 21.6992 21.107 21.7689C21.1552 21.8514 21.2232 21.9308 21.3272 22.0354L21.4359 22.1404L21.4379 22.1423C21.5553 22.2589 21.6724 22.3749 21.7903 22.4898M21.7903 22.4898C21.8721 22.5695 21.9538 22.6497 22.035 22.73C22.3281 23.0206 22.6219 23.3084 22.921 23.5903M21.7903 22.4898L22.921 23.5903M23.036 23.6953L22.921 23.5903" stroke="#209849" stroke-width="0.4"/>
</svg>
