<?xml version="1.0" encoding="UTF-8"?>
<svg id="Layer_4" xmlns="http://www.w3.org/2000/svg" version="1.1" xmlns:xlink="http://www.w3.org/1999/xlink" viewBox="0 0 566.9 566.9">
  <!-- Generator: Adobe Illustrator 29.1.0, SVG Export Plug-In . SVG Version: 2.1.0 Build 142)  -->
  <defs>
    <style>
      .st0 {
        fill: url(#linear-gradient2);
      }

      .st1 {
        fill: url(#linear-gradient1);
      }

      .st2 {
        fill: url(#linear-gradient4);
      }

      .st3 {
        fill: url(#linear-gradient3);
      }

      .st4 {
        display: none;
      }

      .st5 {
        fill: #f8f3ff;
      }

      .st6 {
        fill: url(#linear-gradient);
      }
    </style>
    <linearGradient id="linear-gradient" x1="187.3" y1="383.6" x2="366.2" y2="204.8" gradientUnits="userSpaceOnUse">
      <stop offset=".3" stop-color="#00b8ff"/>
      <stop offset=".7" stop-color="#d25cf1"/>
      <stop offset="1" stop-color="#fa42b1"/>
    </linearGradient>
    <linearGradient id="linear-gradient1" x1="152.3" y1="305.4" x2="414.5" y2="305.4" xlink:href="#linear-gradient"/>
    <linearGradient id="linear-gradient2" x1="185.5" y1="380.9" x2="385.1" y2="224.1" xlink:href="#linear-gradient"/>
    <linearGradient id="linear-gradient3" x1="170.9" y1="362.6" x2="372.5" y2="204.2" gradientUnits="userSpaceOnUse">
      <stop offset="0" stop-color="#00debc"/>
      <stop offset=".3" stop-color="#00b8ff"/>
      <stop offset=".7" stop-color="#d25cf1"/>
      <stop offset="1" stop-color="#fa42b1"/>
    </linearGradient>
    <linearGradient id="linear-gradient4" x1="180.5" y1="374.7" x2="382.1" y2="216.3" xlink:href="#linear-gradient3"/>
  </defs>
  <rect class="st5" x="-10" y="-10" width="589.8" height="589.8"/>
  <g class="st4">
    <path class="st6" d="M435.9,298.7c-.3,2.9-1,5.2-2.3,7.3-1.3,2-3.1,3.7-5.5,5.1-2.2,1.3-5.2,2.3-10.7,4.2-1,.3-3.5,1.2-5.6,2-2,6.3-5,14.6-9.4,22.8l6.9,16,.2,1.1c1.2,7-1.2,11.4-3.5,13.9l-.3.3-29.1,28.6h-10.7c0,0-15.9-7.2-15.9-7.2-7.2,3.8-14.9,7-22.9,9.4-.8,2.1-1.7,4.8-2.1,6-1.9,5.5-3.1,8.7-4.5,11-2.4,3.9-6.2,6.4-10.5,7.1h-.7c0,.1-42.1-.1-42.1-.1l-7.3-7-6.8-17c-8.5-2.7-15.8-5.8-22.5-9.3l-15.7,7-1.1.2c-5.1.9-9.4,0-12.8-2.6l-.5-.4-29.3-29.8v-10.7c0,0,7.2-16,7.2-16-3.8-7.2-7-14.9-9.4-22.9-2.2-.9-5.1-1.9-6-2.1-5.7-2-8.8-3.1-11-4.5-3.9-2.4-6.4-6.2-7.1-10.5v-.7c-.1,0,.1-42,.1-42l7-7.3,17-6.8c2.7-8.4,5.8-15.8,9.3-22.5l-7-15.7-.2-1.2c-.9-5,0-9.3,2.6-12.8l.5-.6,29.8-29.3h10.7c0,0,16,7.2,16,7.2,7.1-3.8,14.8-6.9,22.9-9.4.6-1.7,1.4-3.8,1.9-5.4l.2-.7c1.8-5.2,2.8-8.1,4.1-10.2,2.3-4,5.7-6.6,9.7-7.5,2.4-.5,7.9-.6,12-.6s9.1.1,11.2.4c5,.8,9.1,4,11,8.8l.7,1.9-.2,59.3-.8,1.9c-3.6,8.4-13,8.6-18.1,8.7h-.3c-.7,0-1.5,0-1.7,0-24,3.4-43.8,18.4-53,39.9-8.9,20.7-6.3,43.5,7.1,62.4,15.7,22.1,41.7,31.9,67.9,25.4,26.8-6.6,45.9-27.8,49.7-55.5,0-.7.1-1.9.2-3.1v-.5c0-2.1,0-4.7.5-7.1,1.1-6.2,6.3-10.5,13.5-11.2,9.2-.8,18.8-.5,28-.1h0c7.6.3,16.3.6,23.8.1h.5s.6,0,.6,0c6.9.3,12.5,5.3,13.5,12,.8,5,.5,16.6.1,20.4Z"/>
    <path class="st5" d="M412.8,289.2v3.2c-2.2,1-4.8,1.9-7.4,2.7-3.4,1.1-6.9,2.2-9.9,3.9-3.6,2.1-4.8,7-5.9,11.3-.3,1.2-.6,2.3-.8,3-1.4,3.9-2.5,6.9-3.7,9.5-.4,1-1.6,3-2.7,5.1-3.4,6.1-4.8,8.8-5,10.8-.3,3.1,1.6,7.2,5.1,14.1.9,1.9,2.1,4.1,2.8,5.8l-16.5,16.7-17-7.3-4.4-.3-1.1.6c-11.2,6.4-22.2,10.9-33.6,13.9l-1.7.4-.9,1.5c-2.5,4.1-4.1,8.6-5.7,12.9-.7,2-1.4,3.9-2.2,5.7l-23.7.2c-.6-1.6-1.2-3.3-1.8-5-1.7-4.7-3.4-9.5-6.1-13.9l-.9-1.5-1.6-.5c-12.7-3.5-23.5-8-33.2-13.7l-.4-.2c-1.1-.5-2.1-.7-3-.7s-2,.2-2.7.4c-3.2.8-6.7,2.7-10.1,4.4-2.1,1.1-4.3,2.2-6.2,3l-17.1-16.8c.7-1.7,1.5-3.3,2.4-5.1,2.2-4.5,4.4-9.1,5.4-14.2l.3-1.6-.8-1.4c-4.6-7.9-8.1-15.4-10.8-23-.3-.7-.5-1.8-.8-3-1.1-4.3-2.3-9.2-5.9-11.3-2.9-1.7-6.4-2.8-9.7-3.8-2.6-.8-5.3-1.7-7.5-2.8v-23.4l19.8-8.4,1.3-3.9c3.4-10.6,7-21.6,13.2-30.9l.7-1,.2-5.1-7.6-17.1,16.6-17c1.7.7,3.3,1.5,5.1,2.4,4.5,2.2,9.1,4.4,14.2,5.4l1.6.3,1.4-.8c9.9-5.9,21.1-10.5,33.2-13.7h.5c0-.1.4-.3.4-.3,1.9-1,2.8-2.5,3.3-3.4,1.7-3,2.9-6.6,4-10.1.8-2.5,1.6-5,2.6-7.2h3.2v35c-35.9,3.1-67.9,30.4-76.7,66-7.5,30.2,1.2,61.4,23.1,83.5,21.8,22,52.8,30.8,82.9,23.6,36.4-8.7,63.8-40.7,66.8-76.9h35.1Z"/>
  </g>
  <g class="st4">
    <path class="st1" d="M293.8,429.4l-2.3-.4c-14.3-2.7-17.9-15.5-19.7-21.7-.4-1.5-.8-2.8-1.2-3.7-1-2.5-2.8-4.2-5-4.8-2-.5-4.1,0-6.1,1.6-.6.5-2.2,2.1-3.2,3.2-4.4,4.6-9.4,9.8-16,11.4-8.2,2-14.6-1.8-17.7-3.6-.2-.1-24.7-15.9-29.1-22.7-7.8-11.7-1.3-23.2,1.8-28.8.7-1.3,1.5-2.7,1.8-3.5.9-2.4.8-4.8-.4-6.7-.8-1.2-2.3-2.7-5.2-3-1,0-2.7,0-4.3,0-6.8.3-20.9,1-27.8-12.2l-1-1.9-6.2-37.8.4-2.3c2.7-14.3,15.5-17.9,21.7-19.7,1.5-.4,2.8-.8,3.7-1.2,2.5-1,4.2-2.8,4.8-5,.5-2,0-4.1-1.6-6.1-.5-.6-2.1-2.2-3.2-3.2-4.6-4.4-9.8-9.4-11.4-15.9-2-8.3,1.8-14.6,3.6-17.7.2-.3,16-24.7,22.6-29.1,11.7-7.8,23.3-1.3,28.8,1.8,1.3.7,2.7,1.5,3.5,1.8,2.7,1,5.5.7,7.4-.9l19.1-16.1,8.2,68.7-4.8,4.6c-10,9.7-15.6,23.5-15.3,37.9.2,14.1,6.1,27,16.6,36.5,11.7,10.6,27.5,14.9,43.3,11.9,15.8-3,29.3-13.2,36.1-27.1l3-6.1,64.1-12.4-5.2,20.6c-.5,2,0,4,1.6,6,.5.6,2.1,2.2,3.2,3.2,4.6,4.4,9.8,9.4,11.4,15.9,2.1,8.2-1.8,14.6-3.6,17.7h0c-.1.2-16,24.7-22.7,29.1-11.7,7.8-23.2,1.3-28.8-1.8-1.3-.7-2.7-1.5-3.5-1.8-2.4-.9-4.8-.8-6.7.4-1.2.8-2.7,2.3-3,5.3,0,1,0,2.7,0,4.3.3,6.8,1,20.9-12.2,27.8l-1.9,1-37.8,6.2ZM264.2,371.7c2.8,0,5.6.4,8.3,1.1,10.4,2.7,18.8,10.2,23.1,20.6,1,2.3,1.6,4.6,2.2,6.7.1.4.3.9.4,1.4l20.6-3.4c0-.8,0-1.6,0-2.3-.1-2.4-.2-5.2,0-8,1-10.8,6.7-20.1,15.6-25.7,9.1-5.7,20.2-6.7,30.6-2.8,2.7,1,5.1,2.3,7.2,3.5.5.3,1.1.6,1.8,1,3.6-4.6,9.4-12.7,12.1-16.8-.8-.7-1.5-1.5-2.2-2.1-2.1-2-4.1-4-5.8-6-2.4-3.1-4.3-6.4-5.5-9.9l-15.8,3.1c-11.2,18.3-30.1,31.4-51.9,35.6-24.2,4.7-48.5-2-66.5-18.4-16.1-14.6-25.1-34.5-25.5-56.1-.3-19.4,6.4-38.3,18.8-52.7l-1.7-14.5c-4.7.2-9.6-.5-14.2-2.3-2.7-1-5.1-2.4-7.2-3.5-.5-.3-1.1-.6-1.8-1-3.6,4.6-9.4,12.7-12.1,16.8.8.8,1.5,1.5,2.2,2.1,2.1,2,4.1,4,5.8,6,6.8,8.6,9.2,19.4,6.5,29.6-2.7,10.4-10.2,18.8-20.6,23.1-2.4,1-4.7,1.6-6.7,2.2-.4.1-.9.3-1.4.4l3.4,20.6c.8,0,1.6,0,2.3,0,2.4-.1,5.2-.2,8,0,10.8,1,20.1,6.7,25.7,15.6,5.7,9.1,6.7,20.2,2.8,30.6-1,2.7-2.3,5.1-3.5,7.2-.3.5-.6,1.1-1,1.7,4.6,3.6,12.7,9.4,16.8,12.1.8-.8,1.5-1.6,2.1-2.2,2-2.1,4-4.1,6-5.8,6.3-5,13.8-7.6,21.3-7.6ZM215,372.5h0ZM371.3,366.7h0ZM192.1,233.3h0ZM209.2,216.3h0s0,0,0,0Z"/>
  </g>
  <path class="st0" d="M402.4,337.3l-13.7,31.4c-.9,2-3.1,2.8-5.1,2l-20.8-9.1c-3-1.3-9.9,8.2-11.9,10.2-2.7,2.7-11.7,9.2-12.7,11.8-.4,1.1-.4,2.1,0,3.2l8.6,21.8c.2.6.1,1.2-.2,1.7h0c-.2.3-.5.5-.8.7l-33.7,13.1c-2,.8-4.2-.2-5-2.1-2.4-5.7-6.1-17-7.4-19.1-.8-1.2-1.7-2.6-3-3.3-1.8-.9-15.7-.1-19.2-.2-3.4,0-12.5-2.3-14.3,1.9l-8.6,19.7c-.9,2-3.1,2.8-5.1,2l-30.9-13.5c-2-.9-2.8-3.1-2-5.1l9.1-20.8c1.3-3-8.5-10.1-10.6-12.2-2.8-2.8-6.9-9.2-9.2-11-1.5-1.2-3.5-2.1-5.5-1.4l-21.8,8.6c-.5.2-1.2.1-1.7-.2h0c-.3-.2-.5-.5-.7-.8l-13.1-33.7c-.8-2,.2-4.2,2.1-5,5.7-2.4,17-6.1,19.1-7.4,1.2-.8,2.6-1.7,3.3-3,1-2.1,0-12.7,0-16,.1-4.4,3.1-15.4-1.8-17.5l-19.7-8.6c-2-.9-2.8-3.1-2-5.1l13.5-30.9c.9-2,3.1-2.8,5.1-2l20.8,9.1c.6.3,3.2-.7,3.9-1.3,3.1-2.4,7.3-8.3,10.6-11.5,3.7-3.6,10.8-6.8,9.9-12.8s-.1-.6-.2-.8l-8.1-20.6c-.2-.6-.1-1.2.2-1.7h0c.2-.3.5-.5.8-.6l33.7-13.1c2-.8,4.2.2,5,2.1,2.4,5.7,6.1,17,7.4,19.1.8,1.2,1.7,2.6,3,3.3.5.2,1.5.4,2.8.4,2.3,0,4,2.2,3.6,4.5l-4.4,25.6c-.3,1.5-1.4,2.7-2.9,3.1-33.3,8-57.7,43-46.5,79.9,14.2,46.6,73.3,61,106.8,25.6,11.1-11.8,16.7-26.2,17.3-40.6h0s28.1-6.8,28.1-6.8c2.4-.6,4.8,1.2,4.8,3.7s0,0,0,0c0,4.6-1.3,11.5-1,15.4,0,.9,1.1,3.5,1.7,3.8l20.3,8.8c2,.9,2.8,3.1,2,5.1Z"/>
  <g>
    <path class="st3" d="M391.6,232.3l-12.3,28.5c-1,2.3-4.2,2.3-5.2,0l-12.7-29c-3.1-7-8.7-12.6-15.7-15.7l-29-12.7c-2.3-1-2.3-4.2,0-5.2l29-12.7c7-3.1,12.6-8.7,15.7-15.7l12.7-29c1-2.3,4.2-2.3,5.2,0l12.7,29c3.1,7,8.7,12.6,15.7,15.7l29.1,12.7c2.3,1,2.3,4.2,0,5.2l-29.6,13.1c-7,3.1-12.6,8.8-15.6,15.8h0Z"/>
    <path class="st2" d="M347.4,273.7l-17.9,7.9c-4.2,1.9-7.6,5.3-9.5,9.5l-7.4,17.3c-.6,1.4-2.5,1.4-3.1,0l-7.7-17.6c-1.9-4.3-5.2-7.6-9.5-9.5l-17.6-7.7c-1.4-.6-1.4-2.5,0-3.1l17.6-7.7c4.3-1.9,7.6-5.2,9.5-9.5l7.7-17.6c.6-1.4,2.5-1.4,3.1,0l7.7,17.6c1.9,4.3,5.2,7.6,9.5,9.5l17.6,7.7c1.4.6,1.4,2.5,0,3.1Z"/>
  </g>
</svg>