<svg width="25" height="23" viewBox="0 0 25 23" fill="none" xmlns="http://www.w3.org/2000/svg">
<g clip-path="url(#clip0_1_202)">
<path d="M10.8169 9.24745C11.3077 9.56898 11.5055 10.2168 11.2019 10.719C10.3503 12.1275 9.52051 13.5043 8.67656 14.8725C8.41216 15.3011 8.2813 15.6501 8.49252 16.1948C9.07568 17.6996 8.25302 19.1639 6.70692 19.5614C5.24881 19.9364 3.8282 18.9959 3.5389 17.4637C3.28254 16.1077 4.35482 14.7783 5.8783 14.5663C6.00589 14.5484 6.13625 14.5464 6.35075 14.5306L8.66812 10.7168C7.21061 9.29443 6.34311 7.63185 6.53508 5.57151C6.6708 4.11515 7.25436 2.85655 8.32088 1.82501C10.3636 -0.15042 13.4801 -0.47028 15.8853 1.04596C17.8725 2.29883 18.9331 4.57324 18.6168 6.73018C18.5285 7.33193 17.93 7.65532 17.3423 7.49881C16.7361 7.33738 16.3575 6.72052 16.351 6.09324C16.3415 5.18255 16.0457 4.34801 15.3801 3.60289C14.7671 2.91721 13.9806 2.55782 13.0863 2.4254C11.2934 2.15958 9.53305 3.29004 9.0107 5.01718C8.50197 6.69902 9.09046 8.11662 10.8169 9.24745Z" fill="#6E41E2"/>
<path d="M14.0511 7.59317C14.7939 8.87856 15.548 10.1833 16.2954 11.4761C20.0732 10.3296 22.9215 12.3811 23.9433 14.5775C25.1776 17.2306 24.3338 20.373 21.9099 22.0099C19.797 23.4367 17.2094 23.4449 15.127 22.0931C14.5196 21.6987 14.544 20.8562 15.1038 20.3967C15.5102 20.0631 16.096 20.0261 16.5679 20.2579C18.4253 21.1702 20.0508 20.9476 21.2958 19.5049C22.5014 18.1074 22.4752 16.0237 21.2347 14.6556C19.9966 13.2902 18.3951 13.0696 16.4854 14.0152C15.9702 14.2703 15.3262 14.1242 15.0384 13.6265C14.2496 12.2623 13.4575 10.9022 12.6967 9.52511C12.3827 8.95703 12.0362 8.62737 11.3285 8.50719C10.1468 8.30619 9.3839 7.31069 9.3381 6.19539C9.29309 5.09238 9.95553 4.09532 10.9909 3.70688C12.0165 3.32196 13.2201 3.63261 13.9099 4.48804C14.4737 5.18693 14.6529 5.97354 14.3562 6.83551C14.2737 7.07588 14.1669 7.30835 14.0511 7.59317Z" fill="#6E41E2"/>
<path d="M16.1564 18.3304H11.7471C11.3244 20.0483 10.4115 21.4353 8.83861 22.3173C7.6158 23.0028 6.29789 23.2352 4.89521 23.0114C2.31259 22.5998 0.200861 20.3021 0.0149289 17.715C-0.166889 15.1823 1.33059 12.8928 3.49411 11.9399C4.07104 11.6857 4.69217 12.0684 4.86157 12.6756C5.0145 13.2238 4.75195 13.7938 4.27275 14.1008C2.44194 15.2739 1.85552 16.7043 2.46673 18.4392C3.08088 20.1819 4.82547 21.1371 6.71976 20.7677C8.3738 20.4452 9.32663 19.2368 9.49368 17.2993C9.54269 16.7309 9.98767 16.2517 10.5583 16.2502C12.0433 16.2464 13.529 16.2384 15.0139 16.261C15.73 16.2722 16.2829 16.1988 16.8224 15.5748C17.7107 14.5481 19.3456 14.6407 20.3022 15.6104C21.2799 16.6014 21.2331 18.196 20.1985 19.1452C19.2003 20.0611 17.6234 20.0121 16.6895 19.0252C16.4976 18.8218 16.3463 18.5803 16.1564 18.3304Z" fill="#6E41E2"/>
</g>
<defs>
<clipPath id="clip0_1_202">
<rect width="25" height="23" rx="4" fill="white"/>
</clipPath>
</defs>
</svg>
