<svg width="945" height="147" viewBox="0 0 945 147" fill="none" xmlns="http://www.w3.org/2000/svg">
<path d="M36.8045 51.7568C30.0773 41.7833 32.7089 28.2445 42.6825 21.5173C52.6561 14.79 66.1948 17.4217 72.922 27.3953L118.358 94.7568C125.085 104.73 122.454 118.269 112.48 124.996C102.506 131.724 88.9677 129.092 82.2404 119.118L62.5416 89.9136C60.0093 86.7225 54.8543 87.2192 51.7591 90.3144C49.1923 92.8812 48.352 99.4475 47.6244 105.133C47.5177 105.967 47.4134 106.781 47.3065 107.562C46.9117 111.283 45.6267 114.964 43.3885 118.283C36.0745 129.126 21.3512 131.985 10.5077 124.671C-0.335714 117.357 -3.20073 102.635 4.11326 91.7912C7.9065 86.1675 13.6927 82.6915 19.8969 81.6685L19.8882 81.6596C37.8144 79.0597 41.138 58.8287 37.8573 53.3176L36.8045 51.7568Z" fill="#8142E3"/>
<path d="M172.203 43.1932C176.759 40.7083 181.366 38.7929 186.025 37.4469C190.684 35.9974 195.809 35.2727 201.4 35.2727C205.749 35.2727 209.683 35.7903 213.204 36.8257C216.724 37.7575 219.778 39.3106 222.367 41.4848C224.955 43.6591 226.922 46.5064 228.268 50.0266C229.718 53.4433 230.442 57.6365 230.442 62.6063V110.44H215.999L214.135 102.675H213.669C208.389 108.887 200.883 111.993 191.15 111.993C183.385 111.993 177.328 109.974 172.98 105.936C168.631 101.795 166.457 96.4627 166.457 89.9399C166.457 85.7984 167.337 82.2264 169.097 79.2239C170.857 76.2213 173.239 73.7364 176.241 71.7692C179.347 69.8021 183.023 68.3525 187.268 67.4207C191.513 66.3853 196.12 65.8677 201.09 65.8677H211.961V60.7426C211.961 56.7047 210.77 53.8574 208.389 52.2009C206.008 50.4407 202.798 49.5607 198.76 49.5607C195.861 49.5607 192.755 50.0266 189.442 50.9584C186.232 51.8903 182.66 53.4951 178.726 55.7729L172.203 43.1932ZM212.116 77.5155L203.73 77.8261C196.897 78.0332 192.134 79.2239 189.442 81.3981C186.75 83.4688 185.404 86.0055 185.404 89.008C185.404 92.8389 186.543 95.4273 188.821 96.7733C191.099 98.1192 193.739 98.7922 196.741 98.7922C199.744 98.7922 202.591 98.0675 205.283 96.618C208.078 95.0649 210.356 92.9424 212.116 90.2505V77.5155Z" fill="#404040"/>
<path d="M283.091 98.3263C286.404 98.3263 289.303 97.9639 291.788 97.2392C294.376 96.4109 296.55 95.5308 298.31 94.599L301.882 107.489C299.605 108.628 296.602 109.664 292.875 110.595C289.147 111.527 285.058 111.993 280.606 111.993C275.118 111.993 269.993 111.217 265.231 109.664C260.468 108.007 256.326 105.574 252.806 102.364C249.286 99.1546 246.49 95.1685 244.42 90.4058C242.453 85.6431 241.469 80.1039 241.469 73.7882C241.469 67.9902 242.401 62.7098 244.264 57.9471C246.232 53.1845 248.924 49.1465 252.34 45.8334C255.86 42.4167 260.002 39.8283 264.765 38.0681C269.631 36.2045 274.963 35.2727 280.761 35.2727C283.971 35.2727 287.284 35.5833 290.7 36.2045C294.117 36.8257 297.793 38.0681 301.727 39.9318L297.844 52.9774C295.463 51.6314 293.03 50.596 290.545 49.8713C288.06 49.1465 285.472 48.7842 282.78 48.7842C275.947 48.7842 270.459 50.9067 266.318 55.1516C262.176 59.2931 260.105 65.35 260.105 73.3223C260.105 77.9814 260.778 81.9158 262.124 85.1254C263.47 88.3351 265.231 90.9235 267.405 92.8907C269.579 94.8579 272.012 96.2556 274.704 97.0839C277.5 97.9122 280.295 98.3263 283.091 98.3263Z" fill="#404040"/>
<path d="M356.233 50.0266H335.888V86.9891C335.888 90.5093 336.716 92.9424 338.373 94.2884C340.133 95.5308 342.359 96.1521 345.051 96.1521C347.122 96.1521 349.296 95.945 351.574 95.5308C353.852 95.1167 355.767 94.5472 357.32 93.8225L360.115 106.868C358.148 107.696 355.456 108.525 352.04 109.353C348.727 110.078 345.155 110.44 341.324 110.44C332.937 110.44 326.88 108.732 323.153 105.315C319.529 101.898 317.717 96.7733 317.717 89.9399V50.0266H306.535V36.6704H317.717V13.6853H335.888V36.6704H356.233V50.0266Z" fill="#404040"/>
<path d="M370.983 110.44V36.6704H389.309V110.44H370.983ZM380.146 19.7422C376.937 19.7422 374.4 18.8104 372.536 16.9467C370.776 15.0831 369.896 12.7535 369.896 9.95802C369.896 7.26607 370.828 4.98827 372.692 3.12461C374.555 1.15742 377.04 0.173828 380.146 0.173828C383.149 0.173828 385.582 1.10566 387.445 2.96931C389.309 4.83297 390.241 7.16254 390.241 9.95802C390.241 12.7535 389.309 15.0831 387.445 16.9467C385.582 18.8104 383.149 19.7422 380.146 19.7422Z" fill="#404040"/>
<path d="M452.926 36.6704H472.494L445.782 110.44H425.437L399.346 36.6704H418.914L431.649 78.1367L435.687 96.7733H436.308L440.191 78.1367L452.926 36.6704Z" fill="#404040"/>
<path d="M543.844 77.6708H493.681V78.292C493.681 85.0219 495.752 90.0434 499.893 93.3566C504.138 96.6697 509.677 98.3263 516.511 98.3263C520.549 98.3263 524.121 97.9639 527.227 97.2392C530.436 96.5144 533.491 95.5308 536.39 94.2884L539.962 107.179C536.959 108.525 533.387 109.664 529.246 110.595C525.104 111.527 520.29 111.993 514.802 111.993C509.315 111.993 504.138 111.268 499.272 109.819C494.509 108.369 490.316 106.092 486.692 102.985C483.069 99.8794 480.17 95.945 477.995 91.1823C475.925 86.4196 474.889 80.7251 474.889 74.0988C474.889 68.3008 475.769 63.0204 477.529 58.2577C479.289 53.4951 481.774 49.4054 484.984 45.9887C488.194 42.572 492.076 39.9318 496.632 38.0681C501.187 36.2045 506.209 35.2727 511.696 35.2727C521.532 35.2727 529.349 38.2752 535.147 44.2803C540.945 50.2854 543.844 58.6201 543.844 69.2844V77.6708ZM525.053 64.9358C525.053 62.7616 524.794 60.6908 524.276 58.7237C523.758 56.6529 522.93 54.841 521.791 53.288C520.652 51.7349 519.151 50.5443 517.287 49.716C515.527 48.7842 513.405 48.3183 510.92 48.3183C506.261 48.3183 502.43 49.8713 499.427 52.9774C496.425 56.0835 494.613 60.1732 493.992 65.2465L525.053 64.9358Z" fill="#404040"/>
<path d="M589.298 111.993C586.295 111.993 583.396 111.631 580.601 110.906C577.909 110.181 575.631 109.198 573.767 107.955V146.16H555.597V36.2045H569.729L571.903 44.9015C574.803 42.1061 578.116 39.8283 581.843 38.0681C585.57 36.2045 589.815 35.2727 594.578 35.2727C604.31 35.2727 611.972 38.5341 617.563 45.0568C623.258 51.4761 626.105 60.4838 626.105 72.0799C626.105 78.7062 625.069 84.5042 622.999 89.474C621.032 94.4437 618.34 98.6369 614.923 102.054C611.61 105.367 607.727 107.852 603.275 109.508C598.823 111.165 594.164 111.993 589.298 111.993ZM589.919 49.4054C586.192 49.4054 582.93 50.3372 580.135 52.2009C577.339 53.961 575.217 55.7211 573.767 57.4812V94.1331C575.527 95.5826 577.546 96.6697 579.824 97.3945C582.102 98.0157 584.483 98.3263 586.968 98.3263C589.453 98.3263 591.886 97.8604 594.267 96.9286C596.649 95.9967 598.771 94.5472 600.635 92.5801C602.602 90.5093 604.155 87.8691 605.294 84.6595C606.536 81.3464 607.158 77.3084 607.158 72.5458C607.158 65.7124 605.708 60.1732 602.809 55.9282C600.014 51.5796 595.717 49.4054 589.919 49.4054Z" fill="#404040"/>
<path d="M639.897 110.44V36.6704H658.222V110.44H639.897ZM649.059 19.7422C645.85 19.7422 643.313 18.8104 641.45 16.9467C639.689 15.0831 638.809 12.7535 638.809 9.95802C638.809 7.26607 639.741 4.98827 641.605 3.12461C643.469 1.15742 645.953 0.173828 649.059 0.173828C652.062 0.173828 654.495 1.10566 656.359 2.96931C658.222 4.83297 659.154 7.16254 659.154 9.95802C659.154 12.7535 658.222 15.0831 656.359 16.9467C654.495 18.8104 652.062 19.7422 649.059 19.7422Z" fill="#404040"/>
<path d="M740.941 77.6708H690.778V78.292C690.778 85.0219 692.849 90.0434 696.99 93.3566C701.235 96.6697 706.775 98.3263 713.608 98.3263C717.646 98.3263 721.218 97.9639 724.324 97.2392C727.534 96.5144 730.588 95.5308 733.487 94.2884L737.059 107.179C734.056 108.525 730.484 109.664 726.343 110.595C722.201 111.527 717.387 111.993 711.9 111.993C706.412 111.993 701.235 111.268 696.369 109.819C691.606 108.369 687.413 106.092 683.789 102.985C680.166 99.8794 677.267 95.945 675.092 91.1823C673.022 86.4196 671.986 80.7251 671.986 74.0988C671.986 68.3008 672.866 63.0204 674.626 58.2577C676.387 53.4951 678.871 49.4054 682.081 45.9887C685.291 42.572 689.173 39.9318 693.729 38.0681C698.285 36.2045 703.306 35.2727 708.794 35.2727C718.629 35.2727 726.446 38.2752 732.244 44.2803C738.042 50.2854 740.941 58.6201 740.941 69.2844V77.6708ZM722.15 64.9358C722.15 62.7616 721.891 60.6908 721.373 58.7237C720.855 56.6529 720.027 54.841 718.888 53.288C717.749 51.7349 716.248 50.5443 714.384 49.716C712.624 48.7842 710.502 48.3183 708.017 48.3183C703.358 48.3183 699.527 49.8713 696.524 52.9774C693.522 56.0835 691.71 60.1732 691.089 65.2465L722.15 64.9358Z" fill="#404040"/>
<path d="M790.433 98.3263C793.746 98.3263 796.645 97.9639 799.13 97.2392C801.718 96.4109 803.892 95.5308 805.652 94.599L809.224 107.489C806.947 108.628 803.944 109.664 800.217 110.595C796.489 111.527 792.4 111.993 787.948 111.993C782.46 111.993 777.335 111.217 772.573 109.664C767.81 108.007 763.668 105.574 760.148 102.364C756.628 99.1546 753.833 95.1685 751.762 90.4058C749.795 85.6431 748.811 80.1039 748.811 73.7882C748.811 67.9902 749.743 62.7098 751.606 57.9471C753.574 53.1845 756.266 49.1465 759.682 45.8334C763.203 42.4167 767.344 39.8283 772.107 38.0681C776.973 36.2045 782.305 35.2727 788.103 35.2727C791.313 35.2727 794.626 35.5833 798.043 36.2045C801.459 36.8257 805.135 38.0681 809.069 39.9318L805.187 52.9774C802.805 51.6314 800.372 50.596 797.887 49.8713C795.402 49.1465 792.814 48.7842 790.122 48.7842C783.289 48.7842 777.801 50.9067 773.66 55.1516C769.518 59.2931 767.448 65.35 767.448 73.3223C767.448 77.9814 768.121 81.9158 769.466 85.1254C770.812 88.3351 772.573 90.9235 774.747 92.8907C776.921 94.8579 779.354 96.2556 782.046 97.0839C784.842 97.9122 787.637 98.3263 790.433 98.3263Z" fill="#404040"/>
<path d="M881.086 77.6708H830.922V78.292C830.922 85.0219 832.993 90.0434 837.134 93.3566C841.379 96.6697 846.919 98.3263 853.752 98.3263C857.79 98.3263 861.362 97.9639 864.468 97.2392C867.678 96.5144 870.732 95.5308 873.631 94.2884L877.203 107.179C874.2 108.525 870.628 109.664 866.487 110.595C862.346 111.527 857.531 111.993 852.044 111.993C846.556 111.993 841.379 111.268 836.513 109.819C831.751 108.369 827.557 106.092 823.934 102.985C820.31 99.8794 817.411 95.945 815.237 91.1823C813.166 86.4196 812.13 80.7251 812.13 74.0988C812.13 68.3008 813.01 63.0204 814.771 58.2577C816.531 53.4951 819.016 49.4054 822.225 45.9887C825.435 42.572 829.317 39.9318 833.873 38.0681C838.429 36.2045 843.45 35.2727 848.938 35.2727C858.774 35.2727 866.59 38.2752 872.389 44.2803C878.187 50.2854 881.086 58.6201 881.086 69.2844V77.6708ZM862.294 64.9358C862.294 62.7616 862.035 60.6908 861.517 58.7237C861 56.6529 860.171 54.841 859.032 53.288C857.893 51.7349 856.392 50.5443 854.528 49.716C852.768 48.7842 850.646 48.3183 848.161 48.3183C843.502 48.3183 839.671 49.8713 836.669 52.9774C833.666 56.0835 831.854 60.1732 831.233 65.2465L862.294 64.9358Z" fill="#404040"/>
<path d="M936.634 53.1327C930.525 50.2337 924.572 48.7842 918.774 48.7842C914.943 48.7842 911.992 49.4571 909.921 50.8031C907.954 52.1491 906.97 54.0128 906.97 56.3941C906.97 58.3613 907.799 60.0696 909.455 61.5191C911.112 62.8651 914.425 64.2629 919.395 65.7124L924.054 67.1101C930.68 69.0773 935.65 71.7692 938.963 75.1859C942.38 78.6026 944.088 83.1065 944.088 88.6974C944.088 95.8414 941.396 101.536 936.012 105.781C930.628 109.922 923.277 111.993 913.959 111.993C903.916 111.993 895.581 110.337 888.955 107.023L892.993 93.3566C895.996 94.8061 899.153 95.9967 902.467 96.9286C905.883 97.8604 909.404 98.3263 913.027 98.3263C921.621 98.3263 925.918 95.5826 925.918 90.0952C925.918 87.6103 924.882 85.7467 922.811 84.5042C920.844 83.2618 917.428 81.9158 912.561 80.4663L907.747 78.9133C901.328 76.8425 896.565 74.1506 893.459 70.8374C890.456 67.4207 888.955 62.9686 888.955 57.4812C888.955 54.2716 889.628 51.3208 890.974 48.6289C892.32 45.8334 894.184 43.452 896.565 41.4848C899.05 39.5177 902.001 38.0164 905.417 36.981C908.938 35.8421 912.82 35.2727 917.065 35.2727C921.31 35.2727 925.4 35.6868 929.334 36.5151C933.372 37.2399 937.1 38.3788 940.516 39.9318L936.634 53.1327Z" fill="#404040"/>
</svg>
