<svg width="328" height="298" viewBox="0 0 328 298" fill="none" xmlns="http://www.w3.org/2000/svg">
<path d="M99.0812 91.4884C81.0861 64.8095 88.1256 28.5942 114.804 10.5991C141.483 -7.39597 177.699 -0.356421 195.694 26.3224L317.232 206.511C335.228 233.19 328.188 269.405 301.509 287.4C274.83 305.395 238.615 298.356 220.62 271.677L167.926 193.556C161.153 185.02 147.363 186.348 139.084 194.628C132.218 201.494 129.97 219.059 128.024 234.267C127.738 236.497 127.459 238.676 127.173 240.763C126.117 250.717 122.68 260.565 116.693 269.442C97.1284 298.447 57.7442 306.094 28.7385 286.529C-0.26716 266.965 -7.93094 227.584 11.6336 198.578C21.7803 183.535 37.258 174.237 53.8542 171.5L53.8307 171.477C101.783 164.522 110.673 110.405 101.897 95.6634L99.0812 91.4884Z" fill="black"/>
</svg>
