<svg width="461" height="72" viewBox="0 0 461 72" fill="none" xmlns="http://www.w3.org/2000/svg">
<g clip-path="url(#clip0_6_157)">
<mask id="mask0_6_157" style="mask-type:luminance" maskUnits="userSpaceOnUse" x="0" y="0" width="461" height="72">
<path d="M460.098 0H0V72H460.098V0Z" fill="white"/>
</mask>
<g mask="url(#mask0_6_157)">
<path d="M31.7416 33.7917C31.7546 34.9042 31.5443 36.0081 31.123 37.037C30.7017 38.0659 30.0781 38.9987 29.2898 39.7798C28.5015 40.5608 27.5644 41.1738 26.5348 41.5823C25.5052 41.9907 24.4041 42.1864 23.2976 42.157C19.0663 42.157 14.4971 38.9599 14.4971 33.7917C14.4971 28.6235 19.0663 25.4357 23.2976 25.4357C24.4034 25.4065 25.5036 25.6016 26.5325 26.0096C27.5614 26.4175 28.4981 27.0297 29.2863 27.8097C30.0746 28.5898 30.6982 29.5216 31.1202 30.5492C31.542 31.5771 31.7534 32.6799 31.7416 33.7917ZM31.7416 17.5701C27.9887 13.7411 22.1437 13.6185 21.4212 13.6185C16.0987 13.6185 10.9942 15.7439 7.23059 19.5271C3.46701 23.3103 1.35266 28.4414 1.35266 33.7917C1.35266 39.142 3.46701 44.273 7.23059 48.0561C10.9942 51.8395 16.0987 53.9647 21.4212 53.9647C24.1045 53.9647 28.927 52.8708 31.7416 50.0131V53.2386H43.9384V14.4296H31.7416V17.5701Z" fill="#0B3E9D"/>
<path d="M58.7247 29.9437C59.9538 25.8036 64.007 24.6718 66.3149 24.6718C69.2892 24.6718 72.6855 26.3223 73.4736 29.9437H58.7247ZM66.2306 13.6563C54.559 13.6563 46.0869 22.1442 46.0869 33.7539C46.0869 45.3637 54.7468 54.0874 66.2306 54.0874C74.0364 54.0874 80.4351 51.2015 83.794 46.1746L84.1224 45.6843L75.0968 39.4409L74.7589 39.8841C73.1921 41.9307 70.2368 43.2039 67.0468 43.2039C63.4628 43.2039 59.4097 41.5912 58.5276 38.0922H85.783L85.83 37.5452C85.905 36.6022 85.9895 35.0366 85.9895 34.0369C85.9895 22.2102 77.6861 13.6185 66.2868 13.6185" fill="#0B3E9D"/>
<path d="M134.936 41.7516C133.362 41.7609 131.821 41.3006 130.508 40.4292C129.194 39.5577 128.167 38.3142 127.556 36.8559C126.946 35.3977 126.779 33.7901 127.078 32.2367C127.377 30.6832 128.127 29.2538 129.234 28.129C130.341 27.0044 131.755 26.235 133.297 25.9184C134.839 25.6016 136.44 25.7519 137.897 26.3501C139.354 26.9482 140.602 27.9673 141.483 29.2785C142.364 30.5896 142.838 32.1341 142.846 33.7162C142.893 34.7769 142.721 35.8358 142.342 36.8266C141.962 37.8172 141.382 38.7183 140.64 39.473C139.897 40.2276 139.007 40.8196 138.025 41.2117C137.044 41.6039 135.992 41.7877 134.936 41.7516ZM134.936 13.6185C123.349 13.6185 114.943 22.1065 114.943 33.7162C114.943 45.3259 123.387 53.8894 134.936 53.8894C137.588 53.9487 140.223 53.4674 142.684 52.4745C145.145 51.4814 147.38 49.9975 149.255 48.1122C151.13 46.227 152.605 43.9792 153.592 41.505C154.578 39.0307 155.056 36.3811 154.996 33.7162C154.996 22.0689 146.552 13.6185 134.936 13.6185Z" fill="#0B3E9D"/>
<path d="M120.216 16.3912L119.278 15.7405C116.698 14.2127 113.731 13.4752 110.74 13.6185C107.484 13.6185 103.234 15.5707 100.748 20.8333V14.4295H88.4758V53.2385H100.795V39.5162C100.795 29.6891 103.609 25.115 109.501 25.115C110.838 25.0862 112.172 25.2546 113.461 25.6148L113.892 25.7375C115.114 22.1015 117.301 18.8698 120.216 16.3912Z" fill="#0B3E9D"/>
<path d="M185.384 33.9615C185.384 38.7996 181.988 42.3174 177.306 42.3174C176.221 42.3379 175.141 42.134 174.136 41.7184C173.132 41.3027 172.222 40.684 171.465 39.9006C170.708 39.1172 170.118 38.186 169.734 37.1643C169.349 36.1426 169.177 35.0526 169.229 33.9615C169.229 29.1043 172.7 25.4734 177.306 25.4734C181.914 25.4734 185.384 29.0573 185.384 33.9615ZM179.389 13.6185C175.102 13.6185 171.227 15.2218 168.994 17.8154V14.4296H156.722V71.6953H168.919V49.9283C171.143 52.4746 175.008 54.0497 179.315 54.0497C189.982 54.0497 198.023 45.307 198.023 33.7162C198.023 20.6636 188.378 13.6185 179.315 13.6185" fill="#0B3E9D"/>
<path d="M227.52 33.7162C227.513 35.2798 227.046 36.8062 226.177 38.1033C225.307 39.4003 224.076 40.4097 222.638 41.0047C221.2 41.5997 219.618 41.7533 218.093 41.4465C216.567 41.1396 215.166 40.3858 214.067 39.2802C212.967 38.1746 212.217 36.7665 211.912 35.2333C211.606 33.7 211.759 32.1102 212.351 30.6643C212.943 29.2181 213.947 27.9806 215.238 27.1071C216.527 26.2338 218.046 25.7639 219.602 25.7563C220.65 25.7265 221.693 25.9119 222.666 26.3012C223.641 26.6907 224.526 27.2759 225.267 28.0212C226.008 28.7663 226.591 29.6557 226.977 30.6351C227.365 31.6143 227.55 32.6627 227.52 33.7162ZM219.582 13.6185C208.004 13.6185 199.598 22.1065 199.598 33.7162C199.598 45.3259 208.043 53.8894 219.582 53.8894C222.236 53.9526 224.875 53.474 227.339 52.4829C229.803 51.4918 232.042 50.0084 233.919 48.1227C235.798 46.237 237.275 43.988 238.264 41.5119C239.252 39.0356 239.73 36.3835 239.67 33.7162C239.67 22.0689 231.225 13.6185 219.602 13.6185" fill="#0B3E9D"/>
<path d="M263.492 30.1606L257.159 28.4725C255.414 28.0387 254.344 27.1993 254.344 26.1903C254.332 25.9586 254.369 25.727 254.45 25.5098C254.531 25.2925 254.654 25.0939 254.813 24.9264C255.616 24.2478 256.648 23.9096 257.693 23.9834C261.278 23.9834 261.334 26.0487 261.353 26.7183V27.2936H273.015V26.6995C272.931 17.0609 264.702 13.6185 257.065 13.6185C249.071 13.6185 241.978 18.9 241.894 24.9359C241.781 29.9155 243.104 34.9233 253.547 37.7715L258.445 39.0542C261.165 39.7803 261.69 40.582 261.69 41.7138C261.69 43.3832 259.683 44.2036 257.713 44.2696C254.898 44.2696 252.834 42.2701 252.767 40.4972V39.9314H241.105V40.5255C241.19 49.334 249.55 54.0874 257.328 54.0874C268.85 54.0874 274.104 47.6837 274.104 41.7326C274.104 39.7143 273.333 32.9145 263.483 30.1984" fill="#0B3E9D"/>
<path d="M301.847 14.4296H293.994V0H281.759V14.4296H274.947V24.4642H281.759V53.2386H293.994V24.4642H301.847V14.4296Z" fill="#0B3E9D"/>
<path d="M338.906 25.5207C340.228 25.4969 341.536 25.8064 342.71 26.4208C343.883 27.0353 344.885 27.9351 345.623 29.0385L345.951 29.557L355.991 22.3235L355.654 21.8518C351.901 16.6176 345.83 13.6185 338.906 13.6185C326.963 13.6185 317.956 22.2575 317.956 33.7162C317.956 46.4388 328.605 54.0497 338.906 54.0497C342.151 54.111 345.363 53.3883 348.273 51.9425C351.181 50.4966 353.703 48.3698 355.626 45.7409L355.954 45.2599L345.914 38.1205L345.586 38.6392C344.847 39.7424 343.846 40.6424 342.673 41.2567C341.5 41.8712 340.191 42.1808 338.869 42.157C334.674 42.157 330.152 38.9316 330.152 33.6691C330.152 28.4065 334.581 25.4734 338.869 25.4734" fill="#0B3E9D"/>
<path d="M384.306 33.7162C384.297 35.2772 383.829 36.8004 382.961 38.0945C382.092 39.3884 380.862 40.3953 379.426 40.9884C377.99 41.5814 376.411 41.7342 374.888 41.4272C373.366 41.1204 371.966 40.3678 370.869 39.2641C369.771 38.1602 369.023 36.7548 368.717 35.2242C368.412 33.6937 368.563 32.1067 369.153 30.6627C369.743 29.2188 370.746 27.9825 372.033 27.1096C373.32 26.2364 374.836 25.7656 376.388 25.7563C377.436 25.7265 378.479 25.9119 379.452 26.3012C380.427 26.6907 381.312 27.2759 382.053 28.0212C382.794 28.7663 383.377 29.6557 383.765 30.6351C384.152 31.6143 384.336 32.6627 384.306 33.7162ZM376.388 13.6185C364.81 13.6185 356.404 22.1065 356.404 33.7162C356.404 45.3259 364.849 53.8894 376.388 53.8894C379.04 53.9499 381.677 53.4697 384.139 52.4773C386.601 51.4849 388.837 50.0012 390.712 48.1157C392.588 46.2301 394.065 43.9822 395.052 41.5073C396.039 39.0322 396.516 36.3819 396.457 33.7162C396.457 22.0689 388.013 13.6185 376.388 13.6185Z" fill="#0B3E9D"/>
<path d="M443.33 13.6185C441.107 13.6217 438.921 14.1833 436.97 15.2523C435.017 16.3213 433.363 17.8637 432.156 19.7392C429.847 15.7311 425.785 13.7034 420.081 13.7034C418.295 13.6912 416.532 14.1024 414.934 14.9037C413.336 15.7051 411.951 16.8739 410.886 18.3152V14.4296H398.567V53.248H410.886V32.7732C410.886 26.624 414.583 25.7093 416.787 25.7093C419.518 25.7093 422.305 27.7746 422.417 32.377V53.2763H434.725V32.7732C434.725 28.2178 436.799 25.7093 440.563 25.7093C443.376 25.7093 446.191 27.8406 446.191 32.6128V53.2763H458.389V31.2924C458.389 20.0694 452.919 13.6185 443.376 13.6185" fill="#0B3E9D"/>
<path d="M307.898 37.4886C305.717 37.4886 303.627 38.3589 302.086 39.9083C300.544 41.4577 299.678 43.5591 299.678 45.7502C299.678 47.9412 300.544 50.0428 302.086 51.592C303.627 53.1414 305.717 54.0119 307.898 54.0119C309.01 54.0653 310.121 53.8912 311.165 53.5002C312.208 53.1091 313.161 52.509 313.967 51.7367C314.773 50.9642 315.416 50.0354 315.853 49.0063C316.292 47.9774 316.519 46.8697 316.519 45.7502C316.519 44.6308 316.292 43.5229 315.853 42.494C315.416 41.4649 314.773 40.5361 313.967 39.7636C313.161 38.9913 312.208 38.3914 311.165 38.0003C310.121 37.6092 309.01 37.435 307.898 37.4886Z" fill="#0B3E9D"/>
</g>
</g>
<defs>
<clipPath id="clip0_6_157">
<rect width="460.098" height="72" fill="white"/>
</clipPath>
</defs>
</svg>
