<svg width="261" height="72" viewBox="0 0 261 72" fill="none" xmlns="http://www.w3.org/2000/svg">
<g clip-path="url(#clip0_6_131)">
<path fill-rule="evenodd" clip-rule="evenodd" d="M22.249 18.7571C21.1707 12.4664 15.3425 8.25543 9.25601 9.36934C4.76403 10.1917 1.37289 13.6898 0.335484 17.9948C0.333574 18.0035 0.331663 18.0125 0.328989 18.0212C0.291543 18.1794 0.256772 18.3384 0.225821 18.4985L0.214358 18.5547C0.184937 18.7103 0.15819 18.8666 0.135264 19.0241C0.131825 19.0437 0.128386 19.063 0.125711 19.0826C0.100073 19.2586 0.0784154 19.4351 0.060754 19.612L0.056933 19.649C0.0412669 19.8087 0.0294217 19.9692 0.0213976 20.1293C0.0113836 20.3075 0.00565047 20.4859 0.00420311 20.6644C0.00343891 20.715 0 20.7648 0 20.8154C0 20.8592 0.0026747 20.9023 0.00382101 20.9457C0.00420311 21.0136 0.00649571 21.0816 0.00840621 21.1496C0.0256007 21.6948 0.0787127 22.2454 0.173092 22.7985C0.788656 26.388 4.10261 28.7823 7.57629 28.1468C8.82996 27.9169 9.93385 27.3237 10.8027 26.4903C11.1552 26.1532 11.6011 25.9272 12.0839 25.8411C12.5666 25.7551 13.0643 25.8128 13.5138 26.007C14.6331 26.4897 15.8733 26.6293 17.0738 26.4076C20.408 25.7974 22.6746 22.6165 22.307 19.1872C22.292 19.0432 22.2727 18.9 22.249 18.7571ZM49.1015 10.865C36.8074 10.865 29.1699 15.1568 29.1699 22.0641C29.1699 30.1171 36.9938 41.1101 49.1015 41.1101C61.023 41.1101 69.033 29.9936 69.033 22.0641C69.033 15.0518 61.582 10.865 49.1015 10.865ZM98.1869 20.2834C98.185 20.2301 98.1819 20.1769 98.1792 20.124C98.1704 19.9654 98.159 19.8072 98.1437 19.649L98.1399 19.612C98.1223 19.4345 98.1001 19.2578 98.0749 19.0826L98.0654 19.0241C98.0154 18.6873 97.9507 18.3528 97.8713 18.0216L97.8647 17.9948C96.8273 13.6898 93.4362 10.1914 88.9442 9.36934C82.8578 8.25543 77.0296 12.4664 75.9513 18.7571C75.9274 18.8999 75.908 19.0433 75.8932 19.1872C75.5252 22.6169 77.7922 25.7974 81.1265 26.4076C82.3729 26.636 83.5986 26.4741 84.6869 26.0066C85.1363 25.8126 85.6339 25.7549 86.1165 25.841C86.5992 25.927 87.0451 26.1529 87.3975 26.4899C88.2668 27.3237 89.3703 27.9172 90.6243 28.1468C94.0976 28.7823 97.412 26.388 98.0271 22.7985C98.1215 22.2454 98.1743 21.6948 98.1918 21.1496C98.1941 21.0816 98.1964 21.0136 98.1972 20.9457C98.1972 20.9023 98.1999 20.8588 98.1999 20.8154C98.1999 20.7648 98.1972 20.715 98.196 20.6644C98.1949 20.5371 98.1926 20.4099 98.1869 20.283M66.7744 47.462C63.5468 46.0264 59.2073 48.4777 55.5414 49.0717C53.3825 49.4372 51.2443 49.6267 49.1015 49.6483C46.9426 49.6254 44.789 49.4326 42.6612 49.0717C38.9949 48.4777 34.6561 46.0275 31.4278 47.462C29.7912 48.1956 29.2869 49.9847 29.9517 52.1211C30.4091 53.5809 31.2917 54.9289 32.4136 56.0141C34.7444 58.2812 37.7256 59.9967 40.4706 61.0819C43.2649 62.1946 46.1807 62.7886 49.1015 62.8094C52.0226 62.789 54.9377 62.1954 57.7323 61.0819C60.477 59.9982 63.4585 58.2797 65.7897 56.0138C66.9104 54.9282 67.7942 53.5802 68.2512 52.1208C68.916 49.9866 68.4117 48.1938 66.7748 47.462M246.785 23.6527C241.944 23.6527 238.203 25.3919 235.487 29.3789V25.9182C235.487 25.5287 235.33 25.1552 235.052 24.8798C234.773 24.6044 234.395 24.4496 234.001 24.4494H224.358C224.163 24.4493 223.969 24.4873 223.789 24.5611C223.609 24.6349 223.445 24.7431 223.307 24.8795C223.169 25.0158 223.059 25.1778 222.984 25.356C222.909 25.5343 222.871 25.7253 222.871 25.9182V60.5317C222.871 60.9214 223.028 61.2951 223.307 61.5706C223.585 61.8461 223.964 62.0009 224.358 62.0009H234C234.395 62.0008 234.773 61.8461 235.051 61.5706C235.33 61.2952 235.487 60.9216 235.487 60.5321V41.7033C235.487 37.4259 237.027 33.6556 241.577 33.6556C246.197 33.6556 247.592 38.0783 247.592 41.7033V60.5313C247.592 60.7243 247.63 60.9154 247.705 61.0936C247.78 61.2719 247.889 61.4339 248.027 61.5703C248.165 61.7068 248.329 61.815 248.51 61.8888C248.69 61.9626 248.884 62.0006 249.079 62.0006H258.724C259.118 62.0005 259.496 61.8457 259.775 61.5703C260.054 61.2948 260.21 60.9213 260.211 60.5317V40.9775C260.211 32.786 257.863 23.6527 246.785 23.6527ZM172.1 52.9462L170.108 52.9416C168.527 52.8877 167.831 51.7005 167.831 50.0961V49.3669H167.836V11.7928C167.836 11.5998 167.797 11.4088 167.722 11.2305C167.648 11.0523 167.538 10.8904 167.4 10.754C167.262 10.6176 167.098 10.5094 166.918 10.4356C166.737 10.3618 166.544 10.3239 166.349 10.3239H156.962C156.766 10.3239 156.573 10.3618 156.393 10.4356C156.212 10.5094 156.048 10.6176 155.91 10.754C155.772 10.8904 155.663 11.0523 155.588 11.2305C155.513 11.4088 155.475 11.5998 155.474 11.7928V49.4542C155.474 60.236 162.483 62.7354 169.059 62.7354C169.963 62.7354 170.831 62.6768 172.218 62.5632C172.59 62.5326 172.936 62.3652 173.189 62.094C173.442 61.8228 173.583 61.4676 173.583 61.0989V54.4158C173.583 54.0267 173.427 53.6536 173.149 53.3782C172.871 53.1028 172.494 52.9477 172.1 52.9469M196.113 53.0119C190.759 53.0119 187.456 48.6627 187.456 43.1529C187.456 37.8605 190.611 33.5109 195.968 33.5109C201.322 33.5109 204.916 37.4984 204.916 43.5146C204.916 49.4591 201.101 53.0119 196.113 53.0119ZM215.753 24.449H206.109C205.914 24.449 205.72 24.487 205.54 24.5609C205.36 24.6347 205.196 24.7429 205.058 24.8794C204.92 25.0158 204.81 25.1778 204.736 25.356C204.661 25.5343 204.622 25.7253 204.623 25.9182V29.4525C202.275 25.9726 198.022 23.6527 193.033 23.6527C181.884 23.6527 174.767 32.2792 174.767 43.1525C174.767 54.244 182.174 62.7988 193.108 62.7988C198.461 62.7988 202.203 60.5506 204.622 56.8539V60.5317C204.622 60.7247 204.661 60.9157 204.735 61.094C204.81 61.2723 204.919 61.4343 205.057 61.5707C205.196 61.7072 205.359 61.8154 205.54 61.8892C205.72 61.963 205.914 62.001 206.109 62.0009H215.754C216.148 62.0008 216.526 61.8461 216.805 61.5706C217.084 61.2952 217.24 60.9216 217.241 60.5321V25.9182C217.241 25.5287 217.084 25.1551 216.805 24.8796C216.527 24.6041 216.148 24.4494 215.754 24.4494M128.717 53.0119C123.363 53.0119 120.061 48.6627 120.061 43.1529C120.061 37.8605 123.215 33.5109 128.572 33.5109C133.925 33.5109 137.52 37.4984 137.52 43.5146C137.52 49.4591 133.706 53.0119 128.717 53.0119ZM148.357 24.449H138.712C138.517 24.449 138.324 24.487 138.144 24.5609C137.963 24.6347 137.799 24.7429 137.661 24.8794C137.523 25.0158 137.414 25.1778 137.339 25.356C137.264 25.5343 137.226 25.7253 137.226 25.9182V29.4525C134.878 25.9726 130.625 23.6527 125.637 23.6527C114.487 23.6527 107.37 32.2792 107.37 43.1525C107.37 54.244 114.778 62.7988 125.71 62.7988C131.064 62.7988 134.806 60.5506 137.225 56.8539V60.5317C137.225 60.9213 137.382 61.295 137.661 61.5705C137.94 61.846 138.318 62.0008 138.712 62.0009H148.357C148.751 62.0008 149.129 61.8461 149.408 61.5706C149.687 61.2952 149.844 60.9216 149.844 60.5321V25.9182C149.844 25.5287 149.687 25.1551 149.408 24.8796C149.13 24.6041 148.752 24.449 148.357 24.449Z" fill="black"/>
</g>
<defs>
<clipPath id="clip0_6_131">
<rect width="260.211" height="72" fill="white"/>
</clipPath>
</defs>
</svg>
