<svg xmlns="http://www.w3.org/2000/svg" viewBox="0 0 100 40" fill="none">
  <!-- Auth0 Logo -->
  <path d="M20 8L8 32h8l2.4-4.8h11.2L32 32h8L28 8H20zm4 15.2h-8L20 15l4 8.2z" fill="#EB5424"/>
  <!-- Auth0 Text -->
  <path d="M48 28h-2.5l-1.25-3h-5.5l-1.25 3H35l5.25-14h2.5L48 28zm-6-11l-2 5h4l-2-5z" fill="#191E27"/>
  <path d="M56 28.2c-2.7 0-4.2-1.5-4.2-4v-6h2.3v5.6c0 1.4.7 2.2 1.9 2.2s1.9-.8 1.9-2.2v-5.6h2.3v6c0 2.5-1.5 4-4.2 4z" fill="#191E27"/>
  <path d="M63 18h1.5v-3.5h2.3V18H69v2h-2.2v4.5c0 1.1.4 1.5 1.3 1.5h1v2c-.5.1-1 .2-1.6.2-2 0-3.2-1-3.2-3.2V20H63v-2z" fill="#191E27"/>
  <path d="M71 14h2.3v5.5c.5-.95 1.5-1.7 3-1.7 2.1 0 3.3 1.3 3.3 3.6V28h-2.3v-6.1c0-1.3-.65-2-1.8-2s-1.9.8-1.9 2.2V28H71V14z" fill="#191E27"/>
  <path d="M88 23c0 3-2.2 5.2-5.2 5.2S77.6 26 77.6 23s2.2-5.2 5.2-5.2S88 20 88 23zm-8 0c0 1.8 1.1 3 2.8 3s2.8-1.2 2.8-3-1.1-3-2.8-3-2.8 1.2-2.8 3z" fill="#191E27"/>
</svg>

