<svg width="290" height="72" viewBox="0 0 290 72" fill="none" xmlns="http://www.w3.org/2000/svg">
<g clip-path="url(#clip0_38_299)">
<path d="M0 52.3566L10.3751 44.3286C15.8873 51.5952 21.7438 54.9447 28.2625 54.9447C34.7465 54.9447 40.4374 51.6348 45.7011 44.4253L56.2244 52.2598C48.6293 62.6559 39.191 68.1487 28.2625 68.1487C17.3689 68.1487 7.83909 62.6911 0 52.3566Z" fill="url(#paint0_linear_38_299)"/>
<path d="M28.2294 17.4649L9.76236 33.5388L1.22607 23.5389L28.2686 0.000244141L55.0974 23.5563L46.5221 33.5211L28.2294 17.4649Z" fill="url(#paint1_linear_38_299)"/>
<path fill-rule="evenodd" clip-rule="evenodd" d="M131.086 16.1283C131.086 19.6054 133.596 22.1405 137.038 22.1405V22.145C140.367 22.145 142.938 19.6054 142.938 16.1283C142.938 12.7657 140.367 10.2305 137.038 10.2305C133.714 10.2305 131.086 12.7657 131.086 16.1283ZM127.3 12.5892V57.5888H117.025V12.5892H127.3ZM96.0099 58.2386C89.7056 58.2381 84.4512 56.1739 80.19 52.0459C75.9285 47.8602 73.8281 42.4949 73.8281 35.9456C73.8281 29.3436 75.9851 23.9168 80.2467 19.6693C84.5693 15.3649 89.8245 13.2434 96.0731 13.2434C103.781 13.2434 110.61 16.6016 114.584 21.8525L107.629 29.2248C104.3 25.6244 100.679 23.7978 96.7702 23.7978C93.4411 23.7978 90.6959 24.9158 88.4169 27.2178C86.199 29.5196 85.0922 32.4113 85.0922 35.8884C85.0922 39.2512 86.199 42.0811 88.4169 44.3831C90.6959 46.6234 93.4411 47.7414 96.7092 47.7414C100.971 47.7414 104.71 45.8532 107.803 42.1384L115.046 49.1585C113.059 51.8126 110.374 53.9957 107.045 55.7033C103.717 57.4153 100.04 58.2383 96.0099 58.2386ZM142.236 25.0313V57.5883H131.9V25.0313H142.236ZM149.645 53.5174C152.852 56.704 156.94 58.2973 162.021 58.2973C168.853 58.2973 174.631 54.9346 177.437 49.5077L169.202 44.5561C168.034 47.0914 165.289 48.7418 162.313 48.7418C158.164 48.7418 155.07 45.5553 155.07 41.2508C155.034 39.2971 155.77 37.4092 157.114 36.0043C158.517 34.587 160.269 33.8785 162.43 33.8785C165.406 33.8785 167.685 35.2957 169.319 38.0686L177.551 33.7023C174.81 27.5096 168.91 24.2086 162.195 24.2086C157.057 24.2086 152.913 25.7976 149.702 28.9841C146.491 32.1707 144.913 36.2376 144.913 41.2508C144.913 46.264 146.491 50.3352 149.645 53.5174ZM213.275 57.5888H201.01L191.488 44.6708L189.972 46.0881V57.5888H179.701V12.5892H189.976V34.4684L199.667 25.0319H212.222L198.387 38.126L213.275 57.5888ZM213.964 14.0028V40.6618C213.964 53.5183 222.84 58.3555 231.773 58.3555C240.763 58.3555 249.583 53.5183 249.583 40.6618V14.0028H238.545V40.4858C238.545 45.2614 235.742 47.7392 231.773 47.7392C227.743 47.7392 224.941 45.3802 224.941 40.4858V14.0028H213.964ZM273.976 24.2086C278.591 24.2086 282.33 25.8592 285.305 29.1602C288.281 32.404 289.741 36.4752 289.741 41.2508C289.741 46.0307 288.225 50.0976 285.25 53.4602C282.269 56.7612 278.534 58.4161 274.037 58.4161C270.473 58.4161 267.379 57.2366 264.868 54.8773V70.9776H254.533V25.0317H264.695V28.0422C267.205 25.5026 270.299 24.2086 273.976 24.2086ZM271.993 33.8798C276.199 33.8798 279.23 37.1236 279.23 41.3708H279.236C279.261 43.3417 278.527 45.2452 277.187 46.6789C275.845 48.1534 274.093 48.8619 271.993 48.8619C269.888 48.8619 268.137 48.1534 266.738 46.6789C265.392 45.2045 264.695 43.4351 264.695 41.3708C264.695 37.1236 267.788 33.8798 271.993 33.8798Z" fill="black"/>
</g>
<defs>
<linearGradient id="paint0_linear_38_299" x1="0" y1="72.4389" x2="56.2244" y2="72.4389" gradientUnits="userSpaceOnUse">
<stop stop-color="#7612FA"/>
<stop offset="1" stop-color="#40DDFF"/>
</linearGradient>
<linearGradient id="paint1_linear_38_299" x1="1.22607" y1="39.579" x2="55.0974" y2="39.579" gradientUnits="userSpaceOnUse">
<stop stop-color="#FA12E3"/>
<stop offset="1" stop-color="#FFD700"/>
</linearGradient>
<clipPath id="clip0_38_299">
<rect width="289.8" height="72" fill="white"/>
</clipPath>
</defs>
</svg>
