<svg width="357" height="72" viewBox="0 0 357 72" fill="none" xmlns="http://www.w3.org/2000/svg">
<path d="M24.6492 24.719V19.4962C24.6492 13.7861 22.003 11.3488 19.0086 11.3488C14.3431 11.3488 12.8111 13.7862 12.8111 18.8696V53.2001C12.8111 58.2835 14.3431 60.7208 19.0086 60.7208C23.2564 60.7208 24.6492 58.2835 24.6492 53.8964V45.6795H36.2785V53.4787C36.2785 63.0189 30.6378 70.818 19.0086 70.818C6.82237 70.818 1.18188 63.0189 1.18188 53.4787V18.591C1.18188 8.98124 6.82237 1.18201 19.0086 1.18201C30.6378 1.18201 36.2785 9.60797 36.2785 19.7749V24.719H24.6492ZM114.689 69.9128V2.08723H126.318V29.7328H138.713V2.08723H150.342V69.8431H138.713V39.83H126.318V69.8431H114.689V69.9128ZM159.116 69.9128V2.08723H190.244V12.2541H170.746V29.7328H185.787V39.8996H170.746V59.8156H191.567V69.9825H159.116V69.9128ZM209.185 69.9128H197.556V2.08723H213.92C226.942 2.08723 233.627 7.65822 233.627 22.0728C233.627 32.9361 229.379 37.3926 225.48 39.1336L235.368 69.8431H223.53L215.243 41.7798C213.711 41.9888 211.274 42.0586 209.254 42.0586V69.9129L209.185 69.9128ZM209.185 32.5182H213.293C219.561 32.5182 221.928 30.1507 221.928 22.0728C221.928 13.9951 219.561 11.6274 213.293 11.6274H209.185V32.5182ZM240.591 69.9128V2.08723H271.718V12.2541H252.22V29.7328H267.261V39.8996H252.22V59.8156H273.041V69.9825H240.591V69.9128ZM279.657 69.9128V2.08723H290.45L304.656 40.8745H304.865V2.08723H315.38V69.8431H305.213L290.381 27.5043H290.172V69.8431H279.657V69.9128ZM332.858 12.2541H321.577V2.08723H355.769V12.2541H344.488V69.8431H332.858V12.2541ZM74.439 1.18201C55.2194 1.18201 39.6209 16.7804 39.6209 35.9999C39.6209 55.2195 55.2194 70.818 74.439 70.818C93.6586 70.818 109.257 55.2195 109.257 35.9999C109.257 16.7804 93.6586 1.18201 74.439 1.18201ZM98.8116 52.7824C96.444 56.1945 92.2658 58.005 86.9735 58.005C87.3219 57.0301 87.6695 55.9855 87.9484 54.8713C91.7087 54.6623 94.7031 53.3394 96.3047 51.0414C98.3242 48.1166 98.1153 43.7297 95.6775 38.8551C95.5381 38.5763 95.3988 38.2279 95.1897 37.9499C90.6633 41.362 84.6049 44.5653 78.4074 46.7937C74.647 48.1864 70.817 49.3005 67.2656 49.9969C67.6837 51.9467 68.1708 53.6876 68.7279 55.2892C70.3296 59.8156 72.4187 62.5314 74.2988 62.5314C76.7361 62.5314 79.6608 58.0747 81.3321 50.3451C82.4463 49.9269 83.6301 49.4398 84.7442 48.9523C84.0482 52.7127 83.0729 55.9856 81.8891 58.6317C79.3126 64.3419 76.3183 65.5954 74.2988 65.5954C71.9312 65.5954 68.5191 63.9937 65.8032 56.3337C65.176 54.5928 64.6194 52.6431 64.2016 50.554C62.1125 50.8328 60.093 51.0418 58.2128 51.0418H57.7947C49.9955 51.0418 47.4189 48.4653 46.5833 46.2369C46.0258 44.7049 46.0258 42.4069 48.1153 39.4125C48.6719 40.3179 49.2991 41.2927 49.9955 42.198C49.3691 43.3818 49.1601 44.3567 49.4379 45.1924C50.0651 46.9332 53.1983 47.9778 57.7247 47.9778H58.1428C59.8837 47.9778 61.6943 47.7688 63.644 47.4901C63.0874 43.8689 62.8087 39.9692 62.8087 35.9304C62.8087 29.3846 63.714 22.6995 65.3156 17.2679C64.8975 17.1964 64.4802 17.1286 64.0622 17.1286C63.2965 17.0571 62.5302 16.9891 61.8338 16.9891C57.4467 16.9891 54.1739 18.3121 52.433 20.8887C50.4135 23.8135 50.6224 28.1308 53.0593 33.075C54.661 36.2086 57.1678 39.6905 60.3015 42.6152C58.1427 42.8243 56.1929 42.7545 56.1929 42.7545C53.7556 40.1083 51.7362 37.2533 50.3435 34.3982C47.4188 28.4791 47.2795 23.0475 49.9253 19.1479C52.2929 15.7357 56.4711 13.9252 61.8331 13.9252C62.6685 13.9252 63.5043 13.9967 64.3399 14.0646C64.9671 14.1361 65.663 14.204 66.2898 14.3434C68.2396 9.5385 70.9554 6.33525 74.3675 6.33525C77.8494 6.33525 80.9134 9.81699 83.0024 15.945C82.3064 15.5268 81.6097 15.1793 80.9134 14.7612L78.8242 13.7167C77.5012 11.0009 75.8995 9.32959 74.4372 9.32959C72.766 9.32959 70.9554 11.349 69.4234 14.9004C74.298 16.1539 79.3117 18.5216 84.047 21.7248C88.8518 25.0673 92.8908 28.967 95.8155 33.1451C98.5313 30.5686 99.7848 28.201 99.2276 26.5994C98.7398 25.2067 96.7208 24.3013 93.7264 23.9531C92.6122 22.839 91.3588 21.7944 90.1054 20.7499H90.8014C96.8596 20.7499 100.899 22.4211 102.013 25.5548C103.197 28.7581 101.177 32.3095 97.4168 35.7912C97.6956 36.2791 97.9734 36.8358 98.2522 37.3233C101.386 43.4513 101.528 48.8827 98.8116 52.7824ZM82.4472 24.3708C77.9208 21.2372 73.0463 19.0087 68.4503 17.8946C66.8487 22.8388 66.013 29.1757 66.013 35.9304C66.013 39.7604 66.2917 43.5207 66.7787 46.9329C70.1908 46.2369 73.7423 45.192 77.3633 43.8689C83.7698 41.5013 89.48 38.5069 93.5885 35.2341C90.8727 31.3344 87.0431 27.5741 82.4472 24.3708Z" fill="#0033FF"/>
</svg>
