<svg width="339" height="72" viewBox="0 0 339 72" fill="none" xmlns="http://www.w3.org/2000/svg">
<path d="M26.1375 9.96405C28.5536 12.3753 29.4766 15.9077 28.5536 19.1936C31.5254 17.4057 34.9321 16.4634 38.4017 16.4682H38.4741C43.5721 16.4827 48.4527 18.5316 52.0382 22.1557C54.9133 25.1759 59.6876 25.2918 62.7077 22.4215C65.7278 19.5463 65.8438 14.7721 62.9735 11.752C62.901 11.6747 62.8285 11.6022 62.7512 11.5297C56.3485 5.05452 47.6264 1.4062 38.5176 1.38204H38.3872C31.5689 1.36754 24.9053 3.39707 19.2516 7.20485H19.4642C21.9673 7.20002 24.3689 8.19546 26.1375 9.96888V9.96405Z" fill="#1773EB"/>
<path d="M57.257 47.1334C55.2661 47.1334 53.3525 47.9211 51.9415 49.3224C48.3464 52.8983 43.4803 54.9085 38.4113 54.9036H38.3388C34.8596 54.8988 31.4529 53.942 28.4811 52.1348C28.7082 52.9562 28.8194 53.8067 28.8194 54.6572C28.8194 59.8711 24.596 64.0945 19.3821 64.0945H19.1356C24.7845 67.9409 31.4529 70.0043 38.2857 70.014H38.4162C47.4717 70.0285 56.1649 66.443 62.5772 60.0499C65.5345 57.1119 65.5587 52.3377 62.6207 49.3756C61.2049 47.9452 59.272 47.1431 57.2618 47.1431V47.1334H57.257Z" fill="#E44F20"/>
<path d="M12.6991 47.9791C14.4628 46.2008 16.8693 45.2054 19.3724 45.215C20.2373 45.215 21.0975 45.331 21.9286 45.563C18.2609 39.4647 18.2754 31.8346 21.9673 25.7509C16.9369 27.1329 11.7423 24.1708 10.3651 19.1453C10.1428 18.3286 10.0268 17.4878 10.0268 16.6373V16.3812C2.13584 27.9785 2.09718 43.2145 9.93504 54.8505V54.6524C9.92537 52.1493 10.9208 49.7428 12.6991 47.9791Z" fill="#FFDA00"/>
<path d="M19.4642 8.87683C17.3187 8.87683 15.8159 9.76596 13.9941 11.5877C12.2594 13.3176 11.7133 14.835 11.7085 16.6374C11.7085 20.9187 15.1877 24.3931 19.469 24.3882C23.7504 24.3882 27.2247 20.909 27.2199 16.6277C27.2199 12.3464 23.7455 8.87683 19.4642 8.87683Z" fill="#1773EB"/>
<path d="M11.5973 54.662C11.5973 56.8027 12.4864 58.3103 14.3033 60.1273C16.0381 61.862 17.5506 62.4129 19.353 62.4177C23.6247 62.4032 27.0749 58.9337 27.0604 54.662C27.0459 50.3903 23.5764 46.9401 19.3047 46.9546C15.0427 46.9691 11.5973 50.4242 11.5973 54.6862V54.662Z" fill="#E44F20"/>
<path fill-rule="evenodd" clip-rule="evenodd" d="M95.47 42.422C97.63 40.7887 97.92 41.702 99.7417 43.5286C100.655 44.4419 103.153 46.0268 101.52 47.3702C98.1084 50.1535 95.0351 51.4051 90.6668 51.4051C80.8236 51.3568 73.8603 44.0118 74.4354 34.2604C74.677 29.8921 76.4021 25.7605 79.8136 22.9288C82.9353 20.2856 86.8252 19.1356 90.9084 19.2322C92.9718 19.2805 94.7983 19.5705 96.7167 20.3871C97.9634 20.8655 99.1667 21.4454 100.22 22.262C102.38 23.9436 101.375 24.9052 99.6934 26.582C99.3068 26.9686 98.9251 27.3503 98.5868 27.7369C97.7218 28.6019 97.1468 29.2252 95.9919 28.4086C93.7836 26.8719 90.9954 26.0553 88.357 26.727C79.8571 28.887 80.2437 44.0166 90.662 44.065C92.2952 44.1133 94.1218 43.4416 95.4652 42.4317L95.47 42.422ZM331.731 51.5935C330.291 51.5935 329.137 50.4386 329.137 48.9986L329.282 15.4776C329.282 14.0376 330.436 12.8827 331.876 12.8827H334.66C336.1 12.8827 337.255 14.0376 337.255 15.4776L337.11 48.9986C337.11 50.4386 335.955 51.5935 334.515 51.5935H331.731ZM317.133 47.7036C314.108 50.5353 311.228 52.0236 306.952 52.0236C298.307 51.9753 294.18 44.8188 294.18 36.8021L294.229 23.1656C294.229 21.7256 295.384 20.5707 296.824 20.5707H299.607C301.047 20.5707 302.202 21.7256 302.202 23.1656L302.153 36.8021C302.153 41.2671 304.555 44.7753 309.262 44.7753C313.968 44.7753 316.848 40.837 316.897 36.4204V31.5688C316.848 31.3756 316.848 31.1823 316.848 30.9938L316.897 23.2623C316.897 21.8223 318.051 20.6674 319.491 20.6674H322.275C323.715 20.6674 324.87 21.8223 324.87 23.2623L324.773 49.0035C324.773 50.3952 323.623 51.5501 322.178 51.5501H319.825C318.385 51.5501 317.375 50.3517 317.278 49.0035L317.133 47.7084V47.7036ZM283.999 20.6674H289.377C290.817 20.6674 291.924 21.8658 291.924 23.3106V25.0888C291.924 26.4805 290.774 27.6837 289.329 27.6837H283.951L283.854 48.8633C283.854 50.3033 282.699 51.4582 281.259 51.4582H278.476C277.036 51.4582 275.881 50.3033 275.881 48.8633L275.977 19.5705C275.977 13.1823 279.626 8.14227 286.159 7.56723C286.352 7.56723 286.497 7.51891 286.686 7.51891C287.067 7.47059 287.454 7.51891 287.836 7.51891H290.334C291.774 7.51891 292.88 8.7173 292.88 10.1621V11.7954C292.88 13.1871 291.726 14.3903 290.286 14.3903H288.271C285.197 14.3903 283.902 16.7436 283.854 19.6236L283.999 20.6819V20.6674ZM264.694 20.5707H270.599C271.991 20.5707 273.146 21.7256 273.146 23.1656V24.9439C273.146 26.3356 271.991 27.4905 270.551 27.4905H264.646L264.598 40.4553C264.598 42.9535 265.796 44.3935 268.294 44.3935H269.493C270.884 44.3935 272.039 45.5484 272.039 46.9884V48.7667C272.039 50.1584 270.889 51.3133 269.444 51.3133H267.188C266.758 51.3133 266.371 51.3133 265.941 51.265C259.553 50.8349 256.721 46.7033 256.721 40.4601C256.769 32.0569 256.769 23.702 256.818 15.2988C256.818 13.9071 257.973 12.7522 259.413 12.7522H262.148C263.539 12.7522 264.694 13.9071 264.694 15.3471V20.5804V20.5707ZM179.265 20.2325H185.17C186.562 20.2325 187.717 21.3874 187.717 22.8274V24.6056C187.717 25.9973 186.562 27.1522 185.122 27.1522H179.217V40.117C179.217 42.6153 180.416 44.0553 182.914 44.0553H184.112C185.504 44.0553 186.659 45.2102 186.659 46.6502V48.4284C186.659 49.8201 185.504 50.975 184.064 50.975H182.286C175.322 50.9267 171.287 47.9501 171.287 40.1219C171.336 31.7186 171.336 23.3637 171.384 14.9605C171.384 13.5688 172.539 12.4139 173.979 12.4139H176.714C178.106 12.4139 179.261 13.5688 179.261 15.0088V20.2421L179.265 20.2325ZM144.594 23.8808C147.426 21.2376 150.499 19.5608 154.486 19.5608C163.131 19.6091 167.596 26.669 167.547 34.7823L167.499 48.4188C167.499 49.8588 166.344 51.0137 164.904 51.0137H162.121C160.681 51.0137 159.526 49.8588 159.526 48.4188L159.574 34.8789C159.574 30.4139 157.173 26.9058 152.466 26.9058C147.759 26.9058 144.879 30.7957 144.831 35.2123L144.783 48.4188C144.783 49.8105 143.628 50.9654 142.188 50.9654H139.453C138.061 50.9654 136.906 49.8105 136.906 48.3705C136.955 40.1605 136.955 31.8974 137.003 23.6875V22.5809C137.003 21.1892 138.158 20.0343 139.598 20.0343H141.951C143.391 20.0343 144.401 21.2327 144.498 22.5809L144.594 23.876V23.8808ZM230.168 24.219C233 21.5758 236.073 19.899 240.06 19.899C248.704 19.9474 253.169 27.0072 253.121 35.1205L253.073 48.757C253.073 50.197 251.918 51.3519 250.478 51.3519H247.694C246.254 51.3519 245.1 50.197 245.1 48.757L245.148 35.2172C245.148 30.7522 242.746 27.244 238.04 27.244C233.333 27.244 230.453 31.1339 230.405 35.5506L230.356 48.757C230.356 50.1487 229.202 51.3036 227.762 51.3036H225.027C223.635 51.3036 222.48 50.1487 222.48 48.7087L222.577 22.9192C222.577 21.5275 223.731 20.3726 225.171 20.3726H227.525C228.965 20.3726 229.975 21.571 230.071 22.9192L230.168 24.2142V24.219ZM118.471 19.3192C109.107 19.2709 102.482 26.0408 102.433 35.3573C102.385 44.7705 108.918 51.4437 118.375 51.4921C127.836 51.5404 134.461 44.9154 134.509 35.4539C134.558 26.1858 127.788 19.3675 118.471 19.3192ZM196.217 38.5756C196.889 42.8956 201.02 44.6738 205.055 44.7221C206.978 44.7221 209.187 44.2437 210.912 43.4271C211.202 43.2821 211.487 43.1855 211.777 42.997C212.738 42.4703 213.603 42.1321 214.468 42.997C214.947 43.4754 215.381 43.9586 215.86 44.3887C216.29 44.8188 216.725 45.2537 217.107 45.7804C218.402 47.4137 217.493 47.7954 216 48.8054C212.83 50.917 208.698 51.9753 204.905 51.9753C194.724 51.927 188.002 45.7321 188.002 35.4539C188.05 25.7557 194.772 19.3192 204.475 19.3675C214.367 19.4158 219.987 25.2241 220.131 35.1205C220.18 37.8121 220.276 38.6722 217.488 38.6722L196.217 38.5756ZM118.471 26.5723C123.323 26.5723 126.541 30.8005 126.541 35.4539C126.541 40.1074 123.516 44.1954 118.428 44.1954C113.34 44.1954 110.358 40.2572 110.358 35.4056C110.406 30.6024 113.431 26.5675 118.471 26.5675V26.5723ZM196.41 31.9023L212.352 31.9506C211.777 27.964 208.462 26.379 204.668 26.379C200.875 26.379 197.609 28.1573 196.41 31.9023Z" fill="#2B2D31"/>
</svg>
