<svg width="357" height="72" viewBox="0 0 357 72" fill="none" xmlns="http://www.w3.org/2000/svg">
<g clip-path="url(#clip0_4_86)">
<path d="M347.131 32.7192V56.1922H338.551V34.2701C338.551 28.9313 336.265 25.9487 331.812 25.9487C327.358 25.9487 324.419 29.0804 323.588 34.3298C323.35 35.5825 323.291 37.5211 323.291 41.6073V56.1624H314.71V18.8799H322.311C322.341 19.208 322.519 22.5485 322.519 22.7573C322.519 23.0257 322.845 23.1748 323.053 22.9959C326.2 20.4905 329.674 18.1641 334.513 18.1641C342.47 18.1641 347.131 23.5626 347.131 32.7192Z" fill="black"/>
<path d="M300.875 18.9097L300.608 23.1748C300.578 23.4432 300.251 23.5924 300.073 23.4134C299.034 22.4291 295.204 18.1938 288.702 18.1938C279.38 18.1938 272.521 26.2767 272.521 37.2527C272.521 48.3778 279.32 56.4904 288.702 56.4904C294.967 56.4904 298.797 52.4043 299.509 51.5095C299.717 51.2709 300.103 51.42 300.103 51.7183C300.014 52.8517 299.866 55.6851 298.915 58.1011C297.728 61.1433 295.056 63.9768 289.682 63.9768C285.258 63.9768 281.339 62.2767 277.628 58.6379L273.145 64.8119C277.212 69.4349 283.625 72.0298 290.602 72.0298C301.825 72.0298 308.565 64.3049 308.565 51.6885V18.9097H300.875ZM290.543 48.676C284.991 48.676 281.072 43.8442 281.072 37.2527C281.072 30.6611 284.991 25.9486 290.543 25.9486C296.095 25.9486 300.014 30.6313 300.014 37.2527C299.984 43.874 296.065 48.676 290.543 48.676Z" fill="black"/>
<path d="M254.589 45.1268C254.589 52.1956 248.681 56.9379 240.011 56.9379C233.212 56.9379 227.156 54.2834 223.533 50.4955L226.354 43.7548C229.085 46.2304 233.479 49.7797 239.744 49.7797C244.108 49.7797 246.632 47.841 246.632 45.3953C246.632 42.5618 243.158 41.8161 239.002 41.0108C233.093 39.7581 225.255 37.73 225.255 29.6471C225.255 22.8766 230.718 18.2238 238.794 18.2238C244.999 18.2238 250.343 20.6098 254.025 23.7117L249.809 29.6471C246.246 26.8136 242.505 25.4118 238.794 25.4118C235.083 25.4118 233.242 26.9628 233.242 29.1997C233.242 32.3315 237.25 33.1368 240.189 33.7333C247.582 35.1649 254.589 37.4019 254.589 45.1268Z" fill="black"/>
<path d="M129.12 18.1641C118.64 18.1641 111.099 26.3364 111.099 37.551C111.099 48.7656 118.64 56.9379 129.12 56.9379C139.601 56.9379 147.172 48.7656 147.172 37.551C147.172 26.3364 139.63 18.1641 129.12 18.1641ZM129.12 49.1235C123.568 49.1235 119.649 44.3811 119.649 37.5211C119.649 30.691 123.479 25.9188 129.12 25.9188C134.732 25.9188 138.591 30.6612 138.591 37.5211C138.591 44.3811 134.672 49.1235 129.12 49.1235Z" fill="black"/>
<path d="M150.2 37.551C150.2 26.4855 157.741 18.1641 167.806 18.1641C175.792 18.1641 181.641 22.1906 184.373 29.7664L176.772 32.6595C174.694 27.9768 171.962 25.9785 167.836 25.9785C162.67 25.9785 158.81 30.8699 158.81 37.5808C158.81 44.2618 162.64 49.1831 167.836 49.1831C171.992 49.1831 174.694 47.1848 176.772 42.5021L184.373 45.3952C181.641 52.971 175.792 56.9975 167.806 56.9975C157.741 56.9379 150.2 48.6164 150.2 37.551Z" fill="black"/>
<path d="M104.329 1.58081C104.181 1.58081 104.003 1.61064 103.854 1.70011L98.2727 4.68272C98.154 4.74237 98.0946 4.86167 98.0946 4.98098V22.7275C98.0946 23.0257 97.7383 23.145 97.5305 22.9661C96.6992 22.2502 94.7694 20.4309 92.0973 19.1782C90.7019 18.522 88.6533 18.1641 86.7828 18.1641C77.4009 18.1641 70.602 26.3364 70.602 37.551C70.602 48.7656 77.4009 56.9379 86.7828 56.9379C91.7113 56.9379 95.4225 54.343 97.679 52.0166C97.8274 51.8675 97.9165 51.778 98.0649 51.6289C98.2727 51.4201 98.629 51.5394 98.629 51.8376L98.9259 56.1922H106.675V1.81942C106.675 1.70011 106.586 1.58081 106.437 1.58081H104.329ZM88.6236 49.1235C83.0123 49.1235 79.1526 44.3811 79.1526 37.5212C79.1526 30.6612 83.1013 25.9487 88.6236 25.9487C94.1756 25.9487 98.0946 30.691 98.0946 37.551C98.0946 44.3811 94.2646 49.1235 88.6236 49.1235Z" fill="black"/>
<path d="M264.683 19.029L259.309 21.8923C259.191 21.952 259.131 22.0713 259.131 22.1906V56.1922H267.712V19.1185C267.712 18.9992 267.623 18.8799 267.474 18.8799H265.158C264.98 18.9097 264.832 18.9395 264.683 19.029Z" fill="black"/>
<path d="M263.407 12.855C266.257 12.855 268.573 10.5286 268.573 7.66531C268.573 4.80202 266.257 2.47559 263.407 2.47559C260.556 2.47559 258.241 4.80202 258.241 7.66531C258.241 10.5286 260.556 12.855 263.407 12.855Z" fill="black"/>
<path d="M220.446 18.8799V39.1317C220.446 54.4921 211.895 56.9081 204.265 56.9081C196.635 56.9081 188.084 54.4623 188.084 39.1317V18.8799H196.635V41.2792C196.635 43.4565 197.169 49.1235 204.265 49.1235C211.361 49.1235 211.895 43.4863 211.895 41.2792V18.8799H220.446Z" fill="black"/>
<path d="M352.03 52.3745V52.9114H350.813V56.1624H350.219V52.9114H349.002V52.3745H352.03ZM356.276 56.1624H355.682V53.1798L354.524 55.4168H354.198L353.04 53.2096V56.1624H352.446V52.3745H353.218L354.346 54.5518L355.474 52.3745H356.246L356.276 56.1624Z" fill="black"/>
<path d="M41.4171 41.6073V56.3712C41.4171 57.1467 40.7936 57.773 40.0217 57.773H1.39541C0.623483 57.773 0 57.1467 0 56.3712V17.5974C0 16.8219 0.623483 16.1956 1.39541 16.1956H16.0621V40.2055C16.0621 40.981 16.6856 41.6073 17.4575 41.6073H41.4171Z" fill="#4C00FF"/>
<path d="M57.5089 20.7888C57.5089 33.1964 50.2943 41.5775 41.4171 41.6073V25.9785C41.4171 25.5311 41.2389 25.0837 40.9123 24.7855L32.8368 16.6728C32.5102 16.3447 32.0945 16.1657 31.6492 16.1657H16.0918V1.43169C16.0918 0.656211 16.7153 0.0298648 17.4872 0.0298648H39.2497C49.5817 3.87716e-05 57.5089 8.35132 57.5089 20.7888Z" fill="#FF5252"/>
<path d="M40.9124 24.7557C41.2389 25.0837 41.4171 25.5013 41.4171 25.9487V41.5775H17.4872C16.7153 41.5775 16.0918 40.9512 16.0918 40.1757V16.1658H31.6492C32.0945 16.1658 32.5399 16.3447 32.8368 16.6728L40.9124 24.7557Z" fill="black"/>
</g>
<defs>
<clipPath id="clip0_4_86">
<rect width="356.276" height="72" fill="white"/>
</clipPath>
</defs>
</svg>
