<svg width="480" height="72" viewBox="0 0 480 72" fill="none" xmlns="http://www.w3.org/2000/svg">
<path d="M475.722 24.5539C473.056 22.5439 469.574 21.5279 465.372 21.5279C460.83 21.5279 457.238 22.7899 454.666 25.2899C452.024 22.7899 448.424 21.5279 443.934 21.5279C441.276 21.5279 439 21.9859 437.116 22.8999V21.9759H429.304V56.9159H437.116V33.5799C437.116 32.0879 437.668 30.9959 438.872 30.1139C440.222 29.0879 441.878 28.5879 443.934 28.5879C445.92 28.5879 447.576 29.1139 449.028 30.2159C450.2 31.0719 450.75 32.1479 450.75 33.5879V56.9239H458.562V33.5799C458.562 31.1139 459.368 28.5879 465.38 28.5879C467.698 28.5879 469.448 29.1139 470.568 30.1479C471.672 31.1639 472.19 32.2579 472.19 33.5879V56.9239H480V33.5799C479.992 29.7919 478.566 26.7659 475.722 24.5539ZM27.8439 41.7039C26.9779 44.7459 24.4579 47.2799 21.1719 48.3059C16.6459 49.7139 11.9419 47.9499 9.92194 44.3139L36.2339 36.1179L35.8939 34.6519C35.7939 34.2152 35.6778 33.7822 35.5459 33.3539C32.5579 23.7939 22.3339 18.4439 12.7659 21.4279C3.19594 24.4119 -2.16006 34.6079 0.827945 44.1619C3.81594 53.7139 14.0299 59.0619 23.5999 56.0779C27.1841 54.9595 30.3341 52.7589 32.6173 49.7784C34.9006 46.7979 36.2052 43.1836 36.3519 39.4319L36.3699 39.0519L27.8459 41.7039H27.8439ZM15.2039 29.2099C18.9799 28.0299 22.9279 29.0499 25.3059 31.6339L8.26594 36.9399C8.74994 33.4639 11.4159 30.3879 15.2019 29.2099H15.2039ZM329.776 41.4999C328.91 44.5419 326.388 47.0759 323.102 48.1019C318.576 49.5099 313.872 47.7459 311.852 44.1099L338.164 35.9139L337.824 34.4479C337.724 34.0112 337.608 33.5782 337.476 33.1499C334.488 23.5979 324.274 18.2499 314.706 21.2339C305.128 24.2079 299.77 34.4039 302.758 43.9579C305.748 53.5099 315.962 58.8579 325.53 55.8759C329.114 54.7572 332.265 52.5564 334.548 49.5755C336.832 46.5947 338.137 42.9801 338.284 39.2279L338.3 38.8479L329.776 41.4999ZM317.124 29.0059C320.904 27.8259 324.852 28.8459 327.228 31.4299L310.188 36.7359C310.68 33.2599 313.346 30.1839 317.124 29.0059ZM138.536 41.7019C137.67 44.7459 135.148 47.2799 131.862 48.3059C127.336 49.7119 122.634 47.9499 120.612 44.3139L146.924 36.1159L146.584 34.6499C146.484 34.2138 146.368 33.7815 146.236 33.3539C143.248 23.7999 133.034 18.4539 123.466 21.4359C113.896 24.4199 108.538 34.6159 111.526 44.1699C114.516 53.7219 124.73 59.0699 134.3 56.0859C137.884 54.9675 141.034 52.7669 143.317 49.7864C145.601 46.8059 146.905 43.1916 147.052 39.4399L147.068 39.0579L138.536 41.7019ZM125.884 29.2079C129.664 28.0299 133.612 29.0479 135.988 31.6339L118.948 36.9379C119.432 33.4639 122.108 30.3859 125.884 29.2079ZM216.666 41.7019C215.8 44.7459 213.278 47.2799 209.992 48.3059C205.466 49.7119 200.762 47.9499 198.742 44.3139L225.054 36.1159L224.714 34.6499C224.614 34.2138 224.498 33.7815 224.366 33.3539C221.378 23.7999 211.164 18.4539 201.594 21.4359C192.026 24.4199 186.668 34.6159 189.658 44.1699C192.646 53.7219 202.86 59.0699 212.428 56.0859C216.012 54.9673 219.162 52.7668 221.446 49.7863C223.729 46.8059 225.034 43.1917 225.182 39.4399L225.198 39.0579L216.666 41.7019ZM204.014 29.2079C207.792 28.0299 211.74 29.0479 214.118 31.6339L197.078 36.9379C197.57 33.4639 200.236 30.3859 204.014 29.2079ZM90.9639 21.2919C87.1839 21.2919 83.8559 22.2599 81.0199 24.1739V21.7339H73.1499V70.7599H81.0199V54.2059C83.9159 56.1639 87.2439 57.1559 90.9639 57.1559C95.9819 57.1559 100.294 55.4019 103.766 51.9359C107.188 48.5179 108.93 44.2379 108.93 39.2279C108.93 34.2179 107.17 29.9139 103.7 26.4479C100.27 23.0299 95.9799 21.2919 90.9639 21.2919ZM90.9639 49.3739C88.1619 49.3739 85.8179 48.3919 83.7979 46.3819C81.7779 44.3659 80.7999 42.0259 80.7999 39.2279C80.7999 36.3799 81.7839 34.0239 83.7979 32.0079C85.7679 30.0399 88.1099 29.0819 90.9639 29.0819C93.7639 29.0819 96.1079 30.0659 98.1299 32.0739C100.15 34.0919 101.126 36.4319 101.126 39.2279C101.126 42.0759 100.142 44.4319 98.1299 46.4499C96.1499 48.4159 93.8079 49.3739 90.9639 49.3739ZM168.992 21.9599C167.506 21.5619 165.712 21.3679 163.524 21.3679C161.68 21.3679 159.958 21.8419 158.378 22.7919V21.7319H149.608V56.6459H158.378V34.4199C158.378 33.9879 158.514 33.4719 158.786 32.8699C159.408 31.4762 160.482 30.3327 161.834 29.6239C162.428 29.2999 163.04 29.1479 163.71 29.1479C164.73 29.1479 165.706 29.2839 166.614 29.5559C167.564 29.8439 168.474 30.2339 169.322 30.7159L171.096 31.7339L176.412 25.4339L173.812 24.0039C172.064 23.0359 170.452 22.3499 168.992 21.9599ZM186.804 21.7339H178.032V56.6479H186.804V21.7339ZM256.894 25.1559C253.956 22.6459 249.804 21.3679 244.54 21.3679C241.152 21.3679 238.35 21.8499 236.126 22.8079V21.7319H227.5V56.6459H236.126V35.9539C236.126 33.8099 236.78 32.1999 238.148 30.9959C239.498 29.7759 241.654 29.1559 244.532 29.1559C251.868 29.1559 252.852 32.7419 252.852 36.2519V56.6519H261.48V35.9559C261.488 31.3959 259.942 27.7679 256.894 25.1579V25.1559ZM408.696 20.8859C398.584 20.8859 390.382 29.0739 390.382 39.1699C390.382 49.2639 398.584 57.4519 408.696 57.4519C418.808 57.4519 427.01 49.2639 427.01 39.1699C427.01 29.0659 418.808 20.8859 408.696 20.8859ZM408.696 49.3259C407.361 49.3275 406.039 49.066 404.805 48.5564C403.571 48.0467 402.45 47.299 401.505 46.3558C400.561 45.4126 399.811 44.2925 399.3 43.0595C398.788 41.8266 398.524 40.5048 398.524 39.1699C398.525 37.8352 398.789 36.5137 399.3 35.2809C399.812 34.0482 400.561 32.9283 401.506 31.9854C402.451 31.0424 403.572 30.2948 404.806 29.7853C406.039 29.2758 407.361 29.0144 408.696 29.0159C410.031 29.0144 411.353 29.2758 412.586 29.7853C413.82 30.2948 414.941 31.0424 415.886 31.9854C416.83 32.9283 417.58 34.0482 418.092 35.2809C418.603 36.5137 418.867 37.8352 418.868 39.1699C418.867 40.5047 418.603 41.8262 418.092 43.0589C417.58 44.2917 416.83 45.4115 415.886 46.3545C414.941 47.2975 413.82 48.0451 412.586 48.5546C411.353 49.0641 410.031 49.3275 408.696 49.3259Z" fill="#173057"/>
<path d="M57.5601 38.84L45.3001 20.988H34.7901L46.1761 38.838H46.2621L25.8401 70.568H37.2241L57.5841 38.84H57.5601ZM344.992 47.964C343.778 47.964 342.742 48.38 341.876 49.22C341.456 49.6116 341.124 50.0872 340.9 50.6158C340.677 51.1444 340.567 51.7142 340.578 52.288C340.578 53.55 340.994 54.602 341.834 55.44C342.666 56.272 343.718 56.696 344.992 56.696C346.206 56.696 347.226 56.264 348.066 55.398C348.898 54.534 349.322 53.498 349.322 52.288C349.334 51.7179 349.229 51.1513 349.013 50.6235C348.797 50.0957 348.475 49.618 348.066 49.22C347.226 48.38 346.206 47.964 344.992 47.964Z" fill="#173057"/>
<path d="M58.326 38.838L82.176 1.89795H71.666L46.94 38.84H46.916L58.302 56.68H69.686L58.242 38.84L58.326 38.838Z" fill="#0065B1"/>
<path d="M379.336 42.388C379.237 42.706 379.124 43.0196 378.998 43.328C378.93 43.498 378.844 43.652 378.76 43.812C378.674 43.982 378.59 44.152 378.504 44.312C378.43 44.4378 378.354 44.5625 378.276 44.686C378.106 44.948 377.936 45.21 377.74 45.456C377.732 45.466 377.732 45.474 377.724 45.474C376.782 46.7116 375.568 47.715 374.174 48.4061C372.781 49.0971 371.247 49.4571 369.692 49.458C368.724 49.458 367.782 49.314 366.898 49.058L366.864 49.05C366.735 49.0146 366.608 48.9745 366.482 48.93C365.098 48.5002 363.835 47.7483 362.798 46.736C361.784 45.7954 360.975 44.6558 360.421 43.3884C359.868 42.121 359.581 40.753 359.58 39.37C359.58 38.566 359.682 37.778 359.868 37.03C360.18 35.5574 360.854 34.1859 361.83 33.04C361.872 32.98 361.922 32.93 361.966 32.87C362.008 32.828 362.05 32.776 362.092 32.734C363.039 31.6484 364.207 30.778 365.518 30.1812C366.828 29.5845 368.252 29.2751 369.692 29.274C370.648 29.2779 371.6 29.4152 372.518 29.682C372.596 29.708 372.672 29.726 372.748 29.75C374.139 30.152 375.412 30.8849 376.458 31.886C377.342 32.684 378.08 33.64 378.632 34.71L386.41 32.284C382.81 23.8 373.266 19.232 364.274 22.038C354.706 25.02 349.348 35.218 352.336 44.77C355.326 54.322 365.54 59.67 375.108 56.688C378.693 55.5693 381.843 53.3684 384.127 50.3876C386.41 47.4068 387.715 43.7921 387.862 40.04L387.87 39.726L379.336 42.388ZM290.72 42.446C290.652 42.606 290.568 42.768 290.492 42.922C290.466 42.972 290.44 43.014 290.416 43.066L290.356 43.082L290.254 43.286C290.186 43.4101 290.112 43.5316 290.034 43.65C289.872 43.912 289.694 44.168 289.506 44.414C289.498 44.422 289.498 44.43 289.49 44.43C288.278 46.0274 286.61 47.22 284.706 47.8508C282.803 48.4817 280.753 48.5211 278.826 47.964L278.792 47.956C278.666 47.9213 278.541 47.8812 278.418 47.836C277.056 47.4119 275.814 46.6718 274.792 45.676C273.652 44.6179 272.777 43.3059 272.239 41.8464C271.701 40.3869 271.514 38.8211 271.694 37.276C271.744 36.928 271.804 36.582 271.88 36.242C272.188 34.792 272.85 33.441 273.808 32.31C273.85 32.25 273.902 32.198 273.944 32.15C274.876 31.0394 276.041 30.1466 277.355 29.5343C278.669 28.922 280.102 28.6052 281.552 28.606C282.495 28.6101 283.432 28.7468 284.336 29.012C284.412 29.038 284.488 29.054 284.566 29.08C285.95 29.496 287.206 30.208 288.224 31.19C289.048 31.928 289.728 32.81 290.262 33.784L297.742 31.454H297.98C297.556 30.4935 297.051 29.5714 296.468 28.698L296.562 28.672C292.292 22.138 284.056 18.926 276.236 21.358C269.706 23.392 265.182 28.834 263.976 35.106C263.394 38.0262 263.558 41.0458 264.452 43.886C267.398 53.306 277.458 58.568 286.892 55.636C290.046 54.6496 292.867 52.8102 295.041 50.3212C297.215 47.8321 298.659 44.7903 299.212 41.532C299.212 41.514 299.22 41.498 299.22 41.48C299.284 41.1086 299.335 40.7351 299.372 40.36L299.398 40.2H299.39C299.424 39.88 299.45 39.556 299.466 39.226L299.484 38.846L291.094 41.456C290.988 41.7927 290.863 42.1233 290.72 42.446Z" fill="#173057"/>
</svg>
