<svg width="427" height="72" viewBox="0 0 427 72" fill="none" xmlns="http://www.w3.org/2000/svg">
<g clip-path="url(#clip0_6_193)">
<path d="M106.289 29.7337H99.8696V24.2501H106.289V19.3933C106.289 15.6331 107.398 12.6694 109.615 10.502C111.832 8.3347 114.9 7.25105 118.819 7.25105C120.469 7.25105 122.029 7.51217 123.498 8.03442C124.968 8.55667 126.167 9.2878 127.095 10.2278L124.311 14.9281C123.021 13.7791 121.423 13.2046 119.515 13.2046C117.814 13.2046 116.46 13.7922 115.455 14.9672C114.449 16.1423 113.946 17.7482 113.946 19.7849V24.2501H124.929V29.7337H113.946V63.4185H106.289V29.7337ZM143.165 64.2019C137.235 64.2019 132.569 62.3871 129.165 58.7575C125.762 55.1279 124.061 50.1535 124.061 43.8343C124.061 37.5151 125.762 32.5408 129.165 28.9112C132.569 25.2815 137.235 23.4668 143.165 23.4668C149.095 23.4668 153.774 25.2815 157.203 28.9112C160.632 32.5408 162.346 37.5151 162.346 43.8343C162.346 50.1535 160.632 55.1279 157.203 58.7575C153.774 62.3871 149.095 64.2019 143.165 64.2019ZM143.165 58.3266C146.723 58.3266 149.533 57.0341 151.595 54.449C153.658 51.8638 154.689 48.3257 154.689 43.8343C154.689 39.343 153.658 35.8048 151.595 33.2197C149.533 30.6346 146.723 29.342 143.165 29.342C139.555 29.342 136.745 30.6346 134.734 33.2197C132.723 35.8048 131.718 39.343 131.718 43.8343C131.718 48.3257 132.723 51.8638 134.734 54.449C136.745 57.0341 139.555 58.3266 143.165 58.3266ZM168.361 33.8072C168.361 29.3681 168.284 26.1824 168.129 24.2501H175.322C175.529 26.3391 175.632 28.637 175.632 31.1438V31.9271H175.864C176.895 29.2637 178.532 27.1878 180.775 25.6994C183.018 24.211 185.661 23.4668 188.703 23.4668C189.528 23.4668 190.276 23.5451 190.946 23.7018V29.9687C190.585 29.8643 189.786 29.812 188.548 29.812C186.28 29.812 184.178 30.4779 182.245 31.8096C180.311 33.1414 178.79 34.9431 177.681 37.2149C176.573 39.4866 176.019 41.9803 176.019 44.696V63.4185H168.361V33.8072ZM194.718 34.2772C194.718 30.3082 194.589 26.9658 194.331 24.2501H201.138C201.344 26.1824 201.447 28.4803 201.447 31.1438H201.679C202.659 28.7937 204.244 26.9266 206.436 25.5427C208.627 24.1587 211.115 23.4668 213.9 23.4668C216.633 23.4668 218.979 24.1326 220.938 25.4644C222.897 26.7961 224.212 28.6631 224.883 31.0654C225.965 28.7153 227.603 26.8614 229.794 25.5035C231.985 24.1457 234.448 23.4668 237.18 23.4668C241.46 23.4668 244.799 24.8638 247.197 27.6578C249.594 30.4518 250.793 34.3033 250.793 39.2125V63.4185H243.136V39.9175C243.136 36.6796 242.453 34.1728 241.086 32.3972C239.72 30.6215 237.773 29.7337 235.247 29.7337C232.669 29.7337 230.567 30.6868 228.943 32.593C227.319 34.4992 226.507 36.9668 226.507 39.9958V63.4185H218.927V40.2308C218.927 33.2327 216.4 29.7337 211.347 29.7337C209.697 29.7337 208.189 30.2037 206.823 31.1438C205.456 32.0838 204.36 33.3633 203.535 34.9823C202.71 36.6012 202.298 38.3507 202.298 40.2308V63.4185H194.718V34.2772ZM269.647 64.2019C266.605 64.2019 263.872 63.5752 261.449 62.3218C259.025 61.0684 257.324 59.3972 256.344 57.3082L261.217 53.9398C262.093 55.2976 263.279 56.3682 264.775 57.1516C266.27 57.9349 267.894 58.3266 269.647 58.3266C271.658 58.3266 273.321 57.7522 274.636 56.6032C275.951 55.4543 276.608 53.992 276.608 52.2164C276.608 50.8063 276.093 49.6443 275.062 48.7304C274.03 47.8164 272.122 46.8372 269.338 45.7927C264.852 44.0693 261.694 42.3068 259.863 40.505C258.033 38.7033 257.118 36.4707 257.118 33.8072C257.118 30.6737 258.342 28.167 260.791 26.2869C263.241 24.4068 266.502 23.4668 270.576 23.4668C273.205 23.4668 275.603 24.0151 277.769 25.1118C279.934 26.2086 281.636 27.7492 282.873 29.7337L278.31 33.1805C277.433 31.9271 276.338 30.974 275.023 30.3212C273.708 29.6684 272.251 29.342 270.653 29.342C268.9 29.342 267.469 29.7337 266.36 30.5171C265.252 31.3004 264.697 32.3188 264.697 33.5722C264.697 34.8778 265.265 35.9615 266.399 36.8232C267.533 37.6849 269.751 38.7685 273.051 40.0742C277.176 41.6931 280.076 43.3774 281.752 45.1269C283.428 46.8764 284.266 49.1351 284.266 51.903C284.266 55.611 282.925 58.5877 280.244 60.8334C277.562 63.0791 274.03 64.2019 269.647 64.2019ZM304.512 64.2019C300.903 64.2019 298.08 63.0921 296.043 60.8726C294.006 58.653 292.988 55.5849 292.988 51.668V30.2037H286.027V24.2501H292.988V14.2671H300.645V24.2501H311.705V30.2037H300.645V50.728C300.645 53.287 301.148 55.167 302.153 56.3682C303.159 57.5694 304.692 58.17 306.755 58.17C308.818 58.17 310.648 57.8566 312.247 57.2299L312.711 62.7918C310.803 63.7319 308.07 64.2019 304.512 64.2019ZM329.863 64.2019C327.337 64.2019 325.081 63.6796 323.096 62.6352C321.11 61.5907 319.564 60.1414 318.455 58.2875C317.346 56.4335 316.792 54.3315 316.792 51.9814C316.792 48.0123 318.287 44.9702 321.278 42.8551C324.269 40.74 328.523 39.6825 334.04 39.6825H341.31V37.7241C341.31 35.1128 340.614 33.1022 339.222 31.6921C337.83 30.2821 335.793 29.577 333.112 29.577C330.791 29.577 328.626 30.034 326.615 30.9479C324.604 31.8619 322.954 33.1805 321.665 34.9039L318.03 30.2821C319.886 28.0886 322.142 26.4044 324.797 25.2293C327.453 24.0543 330.327 23.4668 333.421 23.4668C338.371 23.4668 342.213 24.681 344.946 27.1094C347.678 29.5379 349.045 32.9716 349.045 37.4107V55.5848C349.045 57.935 349.354 60.5462 349.973 63.4185H343.244C342.728 62.1651 342.367 60.4156 342.161 58.17H342.006C339.067 62.1913 335.02 64.2019 329.863 64.2019ZM331.333 58.17C334.117 58.17 336.476 57.3997 338.41 55.859C340.344 54.3184 341.31 52.4514 341.31 50.2579V45.0877H333.731C330.688 45.0877 328.355 45.6752 326.731 46.8503C325.107 48.0254 324.294 49.7357 324.294 51.9814C324.294 53.9137 324.926 55.4282 326.189 56.5249C327.453 57.6216 329.167 58.17 331.333 58.17ZM373.545 64.2019C367.719 64.2019 363.181 62.4002 359.933 58.7967C356.684 55.1931 355.06 50.2058 355.06 43.8343C355.06 37.4107 356.684 32.4102 359.933 28.8328C363.181 25.2554 367.719 23.4668 373.545 23.4668C376.897 23.4668 379.849 24.1196 382.401 25.4252C384.954 26.7308 386.952 28.6109 388.395 31.0654L383.832 35.2173C382.749 33.4416 381.331 32.0577 379.578 31.0654C377.825 30.0732 375.917 29.577 373.855 29.577C370.348 29.577 367.615 30.8304 365.656 33.3372C363.697 35.844 362.717 39.343 362.717 43.8343C362.717 48.2734 363.697 51.7594 365.656 54.2923C367.615 56.8252 370.348 58.0916 373.855 58.0916C375.917 58.0916 377.825 57.5955 379.578 56.6032C381.331 55.611 382.749 54.227 383.832 52.4514L388.395 56.6032C386.952 59.0578 384.954 60.9379 382.401 62.2435C379.849 63.5491 376.897 64.2019 373.545 64.2019ZM417.923 63.4185L405.625 44.226L400.289 49.5529V63.4185H392.554V7.13354H400.289V40.2308L416.067 24.2501H425.426L410.808 38.9774L426.586 63.4185H417.923Z" fill="#15232B"/>
<path d="M59.9619 0C62.3036 0 64.2019 1.89831 64.2019 4.24V67.0954C64.2019 69.4371 62.3036 71.3354 59.9619 71.3354H4.24C1.89831 71.3354 0 69.4371 0 67.0954V4.24C0 1.89831 1.89831 0 4.24 0H59.9619ZM72.7621 7.13354C73.9441 7.13354 74.9022 8.09168 74.9022 9.27361V62.0618C74.9022 63.2438 73.9441 64.2019 72.7621 64.2019H67.7687V7.13354H72.7621ZM83.4625 14.2671C84.6444 14.2671 85.6025 15.2252 85.6025 16.4072V54.9283C85.6025 56.1102 84.6444 57.0684 83.4625 57.0684H78.469V14.2671H83.4625Z" fill="#21B573"/>
<path d="M25.5527 51.6069C25.6361 51.7266 25.6808 51.8689 25.6808 52.0148V59.2643C25.6808 59.6583 25.3614 59.9777 24.9674 59.9777H14.955C14.5751 59.9777 14.2671 59.6697 14.2671 59.2898V58.9742C14.2671 58.7409 14.3812 58.5223 14.5726 58.3889L24.5596 51.4295C24.8828 51.2043 25.3274 51.2837 25.5527 51.6069ZM42.0092 34.9544C42.4032 34.9544 42.7226 35.2738 42.7226 35.6677C42.7226 35.9027 42.6069 36.1225 42.4133 36.2556L15.3845 54.8347C15.0599 55.0579 14.6158 54.9756 14.3926 54.6509C14.3108 54.532 14.2671 54.3911 14.2671 54.2468V43.1981C14.2671 42.9791 14.3677 42.7722 14.54 42.637L24.1338 35.1066C24.2594 35.008 24.4145 34.9544 24.5742 34.9544H42.0092ZM47.9012 11.4137C48.2952 11.4137 48.6145 11.7331 48.6145 12.1271C48.6145 12.3438 48.516 12.5487 48.3468 12.6841L15.4261 39.0207C15.1184 39.2668 14.6695 39.2169 14.4234 38.9093C14.3222 38.7828 14.2671 38.6256 14.2671 38.4636V12.1271C14.2671 11.7331 14.5865 11.4137 14.9804 11.4137H47.9012Z" fill="white"/>
</g>
<defs>
<clipPath id="clip0_6_193">
<rect width="426.667" height="72" fill="white"/>
</clipPath>
</defs>
</svg>
