<svg xmlns="http://www.w3.org/2000/svg" viewBox="0 0 140 40" fill="none">
  <!-- Google G Icon -->
  <path d="M20 8c-6.627 0-12 5.373-12 12s5.373 12 12 12c3.059 0 5.842-1.154 7.961-3.039l-3.225-3.225C23.289 27.048 21.71 27.6 20 27.6c-4.198 0-7.6-3.402-7.6-7.6s3.402-7.6 7.6-7.6c2.02 0 3.851.791 5.213 2.087l3.26-3.26C26.076 9.089 23.21 8 20 8z" fill="#4285F4"/>
  <path d="M31.6 20c0-.71-.064-1.393-.184-2.053H20v4.106h6.51a5.567 5.567 0 01-2.414 3.647l3.225 3.225C29.627 26.77 31.6 23.65 31.6 20z" fill="#4285F4"/>
  <path d="M20 27.6c-2.61 0-4.885-1.333-6.236-3.336l-3.47 2.697C12.626 30.55 16.054 32 20 32c3.21 0 6.076-1.089 8.473-3.227l-3.26-3.26c-1.362 1.296-3.193 2.087-5.213 2.087z" fill="#34A853"/>
  <path d="M10.294 16.961A11.954 11.954 0 008 20c0 1.076.146 2.118.418 3.109l3.57-2.77A7.56 7.56 0 0112.4 20c0-.456.032-.903.088-1.339l-2.194-1.7z" fill="#FBBC05"/>
  <path d="M20 12.4c1.71 0 3.289.552 4.528 1.49l3.225-3.225C25.576 8.558 22.91 8 20 8c-3.946 0-7.374 1.45-9.706 5.039l3.47 2.697C15.115 13.733 17.39 12.4 20 12.4z" fill="#EA4335"/>
  <!-- Workspace text -->
  <path d="M44 14h2.5l2.75 8.5h.05L52 14h2.5l-4 14h-2.5l-4-14z" fill="#5F6368"/>
  <path d="M55 22.5c0-2.2 1.65-4.7 4.5-4.7 2.7 0 4.2 2.1 4.2 4.9v.6h-6.4c.15 1.4 1.2 2.35 2.75 2.35 1.15 0 2-.5 2.5-1.25l1.6 1.2c-.85 1.25-2.35 2-4.15 2-2.95 0-5-2.05-5-5.1zm2.35-1h4.2c-.15-1.25-1-2-2.1-2-1.15 0-1.95.75-2.1 2z" fill="#5F6368"/>
  <path d="M66 18h2.2v1.5h.05c.45-.95 1.4-1.7 2.75-1.7 1.2 0 2.15.55 2.65 1.5.6-.95 1.65-1.5 2.95-1.5 1.95 0 3.15 1.25 3.15 3.4V28h-2.3v-6.2c0-1.15-.55-1.8-1.55-1.8-1.1 0-1.75.8-1.75 2v6h-2.3v-6.2c0-1.15-.55-1.8-1.55-1.8-1.1 0-1.75.8-1.75 2v6H66V18z" fill="#5F6368"/>
</svg>

