<svg width="434" height="72" viewBox="0 0 434 72" fill="none" xmlns="http://www.w3.org/2000/svg">
<g clip-path="url(#clip0_4_24)">
<path d="M147.711 52.2464C147.711 62.3248 138.785 70.6293 127.608 71.0325C127.287 71.0325 126.965 71.0325 126.644 71.0325H84.5898V55.5521H113.778C119.326 55.5521 123.829 52.7301 123.829 49.2632C123.829 45.7962 119.326 42.9742 113.778 42.9742H84.5898V29.1064H109.356C114.904 29.1064 119.407 26.2844 119.407 22.7368C119.407 19.1893 114.904 16.3673 109.356 16.3673H42.9382C40.6867 16.3673 38.5157 16.6898 36.5055 17.3348C28.3038 19.9149 22.3536 27.252 22.3536 35.8791C22.3536 46.7637 31.5202 54.8264 42.9382 55.5521C48.0039 55.8746 50.8986 55.7133 55.1603 54.5845V42.8936H40.928V29.1064H76.0665V68.533C64.8897 71.5969 50.4162 72.9675 35.4602 71.4356C15.4384 69.2587 0 55.2296 0 35.7984C0 16.3673 17.6095 0.483765 37.792 0.483765H121.739C133.719 0.483765 143.368 8.38522 143.368 18.1411C143.368 24.9944 138.544 30.9608 131.468 33.8634C140.795 35.7984 147.711 43.2968 147.711 52.2464Z" fill="#26344A"/>
<path d="M200.378 12.8197H185.342V18.4636H191.051V24.3494C190.166 24.6719 188.88 24.8331 187.593 24.8331C180.517 24.8331 175.451 21.2856 175.451 15.4804C175.451 8.54647 181.884 5.88578 189.764 5.88578C192.096 5.88578 195.634 6.36954 198.609 7.82083L199.413 1.37066C195.875 0.241881 190.81 0 188.478 0C175.13 0 165.481 4.27324 165.481 15.4804C165.481 26.6876 176.658 30.7189 186.387 30.7189C189.684 30.7189 194.348 30.6383 200.459 29.3483L200.378 12.8197Z" fill="#26344A"/>
<path fill-rule="evenodd" clip-rule="evenodd" d="M206.65 30.1545H216.379V18.4636H218.39C222.008 18.4636 223.214 19.7536 225.224 24.8331L227.315 30.1545H237.446L233.909 22.0918C232.059 18.4636 231.898 16.206 228.762 15.561V15.4804C233.426 14.5935 235.758 11.9328 235.758 7.98208C235.758 2.90258 230.531 0.483765 224.018 0.483765H206.65V30.1545ZM216.379 6.12766H218.953C222.651 6.12766 226.028 6.61142 226.028 9.43337C226.028 12.8197 222.088 12.9003 218.953 12.9003H216.379V6.12766Z" fill="#26344A"/>
<path fill-rule="evenodd" clip-rule="evenodd" d="M238.331 30.1545H248.141L251.036 23.785H264.705L267.439 30.1545H278.053L263.981 0.483765H252.081L238.331 30.1545ZM262.373 18.2217H253.287L257.951 6.61142H258.031L262.373 18.2217Z" fill="#26344A"/>
<path d="M284.083 30.1545H293.813V6.36954H302.738V0.483765H275.158V6.36954H284.083V30.1545Z" fill="#26344A"/>
<path d="M312.548 30.1545H322.278V6.36954H331.203V0.483765H303.623V6.36954H312.548V30.1545Z" fill="#26344A"/>
<path d="M334.5 30.1545H360.713V24.5913H344.229V17.8186H359.265V12.2553H344.229V6.12766H360.15V0.483765H334.5V30.1545Z" fill="#26344A"/>
<path fill-rule="evenodd" clip-rule="evenodd" d="M166.526 71.0325H181.884C188.397 71.0325 196.036 69.5812 196.036 62.4054C196.036 58.7771 193.543 56.6808 188.719 55.8746V55.7939C192.82 54.6652 195.152 52.6495 195.152 48.86C195.152 43.7805 190.086 41.3617 183.332 41.3617H166.607V71.0325H166.526ZM176.256 58.4546H179.231C182.527 58.4546 186.387 58.7771 186.387 62.0022C186.387 64.9854 182.688 65.4692 179.15 65.4692H176.256V58.4546ZM176.256 47.0056H179.07C182.286 47.0056 185.422 47.2475 185.422 49.9888C185.422 52.4882 182.125 53.1333 178.989 53.1333H176.256V47.0056Z" fill="#26344A"/>
<path fill-rule="evenodd" clip-rule="evenodd" d="M200.941 71.0325H210.67V59.3415H212.681C216.299 59.3415 217.505 60.6316 219.515 65.7111L221.606 71.0325H231.738L228.2 62.9698C226.35 59.3415 226.189 57.084 223.053 56.439V56.3583C227.717 55.4714 230.049 52.8107 230.049 48.86C230.049 43.7805 224.822 41.3617 218.309 41.3617H201.021L200.941 71.0325ZM210.59 47.0056H213.163C216.862 47.0056 220.239 47.4894 220.239 50.3113C220.239 53.6976 216.299 53.7783 213.163 53.7783H210.59V47.0056Z" fill="#26344A"/>
<path fill-rule="evenodd" clip-rule="evenodd" d="M234.15 56.1971C234.15 65.6304 240.502 71.5162 252.403 71.5162C264.303 71.5162 270.655 65.6304 270.655 56.1971C270.655 46.7637 264.383 40.8779 252.403 40.8779C240.422 40.8779 234.15 46.6831 234.15 56.1971ZM244.12 56.1971C244.12 51.0369 246.452 46.6831 252.322 46.6831C258.192 46.6831 260.524 51.0369 260.524 56.1971C260.524 61.3572 258.192 65.7111 252.322 65.7111C246.452 65.7111 244.12 61.1153 244.12 56.1971Z" fill="#26344A"/>
<path d="M281.912 71.0325H291.561V47.2475H300.567V41.3617H272.907V47.2475H281.912V71.0325Z" fill="#26344A"/>
<path d="M304.186 71.0325H313.915V58.2934H325.333V71.0325H335.063V41.3617H325.333V52.7301H313.915V41.3617H304.186V71.0325Z" fill="#26344A"/>
<path d="M341.093 71.0325H367.387V65.4692H350.823V58.6965H365.859V53.1333H350.823V47.0056H366.743V41.3617H341.093V71.0325Z" fill="#26344A"/>
<path fill-rule="evenodd" clip-rule="evenodd" d="M372.533 71.0325H382.262V59.3415H384.273C387.891 59.3415 389.097 60.6316 391.107 65.7111L393.198 71.0325H403.329L399.791 62.9698C397.942 59.3415 397.781 57.084 394.645 56.439V56.3583C399.309 55.4714 401.641 52.8107 401.641 48.86C401.641 43.7805 396.414 41.3617 389.901 41.3617H372.613L372.533 71.0325ZM382.262 47.0056H384.835C388.534 47.0056 391.911 47.4894 391.911 50.3113C391.911 53.6976 387.971 53.7783 384.835 53.7783H382.262V47.0056Z" fill="#26344A"/>
<path d="M406.465 70.3069C409.682 71.1938 413.943 71.5969 417.321 71.5969C425.361 71.5969 433.322 69.5006 433.322 61.841C433.322 51.1176 416.114 54.3427 416.114 49.5857C416.114 47.0057 420.215 46.8444 422.627 46.8444C425.361 46.8444 428.176 47.2475 430.668 48.2151L431.312 42.0874C428.899 41.4424 425.442 40.9586 421.904 40.9586C414.587 40.9586 406.063 42.8937 406.063 50.0695C406.063 60.8735 423.271 57.4065 423.271 62.8892C423.271 65.2274 420.376 65.7918 417.24 65.7918C413.22 65.7918 409.762 64.9049 407.269 63.8567L406.465 70.3069Z" fill="#26344A"/>
</g>
<defs>
<clipPath id="clip0_4_24">
<rect width="433.241" height="72" fill="white"/>
</clipPath>
</defs>
</svg>
