<svg width="227" height="72" viewBox="0 0 227 72" fill="none" xmlns="http://www.w3.org/2000/svg">
<g clip-path="url(#clip0_4_128)">
<path d="M9.30801 -0.148438C14.3954 -0.148438 18.5406 3.93404 18.5406 8.94435C18.5406 13.9547 14.3954 18.0371 9.30801 18.0371C4.22064 18.0371 0.0753784 13.9547 0.0753784 8.94435C0.0753784 3.93404 4.18296 -0.148438 9.30801 -0.148438Z" fill="#5597DC"/>
<path d="M69.5274 47.0969V47.3567C69.5274 48.9526 69.3766 50.4742 69.0375 51.9588H35.084C36.2522 57.4887 40.5105 61.0887 46.2385 61.0887C51.0998 61.0887 54.4537 58.6392 57.0916 55.5588L67.191 62.833C62.4427 68.7711 54.6798 72.1485 46.9545 72.1485C32.1823 72.1485 20.3118 62.4248 20.3118 47.3567V47.0969C20.3872 33.365 29.6952 22.2681 44.8819 22.2681C60.144 22.2681 69.4897 33.365 69.5274 47.0969ZM35.8377 40.9732H54.8305C53.9261 37.2619 50.8737 33.9217 45.3341 33.9217C39.7945 33.9217 36.7421 37.299 35.8377 40.9732ZM1.88422 23.5299H16.6564V70.8495H1.88422V23.5299ZM175.985 65.5423C175.985 65.5423 177.945 67.3237 180.131 67.3237C180.997 67.3237 181.939 66.9897 181.939 65.9505C181.939 65.1712 180.809 64.6887 179.377 64.132C177.116 63.2041 174.139 61.9794 174.139 58.7505C174.139 55.5959 176.814 53.5176 180.281 53.5176C184.012 53.5176 185.859 55.4474 185.859 55.4474L184.05 58.8619C184.05 58.8619 182.279 57.3402 180.244 57.3402C179.377 57.3402 178.397 57.7485 178.397 58.6763C178.397 59.4928 179.565 59.9382 180.997 60.4949C183.258 61.3856 186.198 62.499 186.198 65.8392C186.198 68.6969 184.012 71.1464 180.093 71.1464C176.023 71.1464 173.8 68.734 173.8 68.734L175.985 65.5423ZM106.269 53.8145H102.011V70.8866H106.232V62.9444C106.232 61.8681 106.043 60.0124 106.043 60.0124H106.081C106.081 60.0124 106.872 61.831 107.551 62.9444L112.374 70.8866H116.633V53.8145H112.412V61.7567C112.412 62.833 112.6 64.6887 112.6 64.6887H112.563C112.563 64.6887 111.771 62.8701 111.093 61.7567L106.269 53.8145ZM88.1057 53.8145H83.8851L83.8474 64.5773C83.8474 68.4 86.7114 71.1093 91.1204 71.1093C95.4918 71.1093 98.3558 68.4 98.3558 64.5773V53.8145H94.1352V64.5773C94.1352 66.3959 92.9293 67.3237 91.1204 67.3237C89.2739 67.3237 88.1057 66.3588 88.1057 64.5773V53.8145ZM120.439 53.8145H124.659V70.8866H120.439V53.8145ZM130.915 53.8145H126.317L132.46 70.8866H136.869L142.974 53.8145H138.414L135.324 63.5382C134.985 64.6145 134.646 66.2846 134.646 66.2846H134.608C134.608 66.2846 134.269 64.6145 133.93 63.5382L130.915 53.8145ZM144.67 53.8145H155.523V57.3773H148.928V60.4949H154.204V64.0578H148.928V67.2866H155.862V70.8495H144.67V53.8145ZM164.831 53.8145H158.801V70.8495H163.022V65.0969H165.019L168.109 70.8495H172.857L169.466 64.8742C169.051 64.1691 168.788 63.8722 168.788 63.8722V63.8351C170.521 62.9815 171.388 60.9773 171.388 59.1588C171.388 56.7093 170.144 54.9279 168.185 54.2227C167.431 53.9258 166.602 53.8145 164.831 53.8145ZM167.129 59.4186C167.129 60.7918 166.3 61.4969 164.944 61.4969H163.097V57.3402H164.529C166.64 57.3773 167.129 58.1196 167.129 59.4186ZM193.169 53.8145H188.949V70.8866H193.169V53.8145ZM200.216 57.3773H194.978V53.8145H209.713V57.3773H204.475V70.8866H200.216V57.3773ZM210.542 53.8145L216.27 63.8722H216.194V70.8495H220.415V63.8722L226.143 53.8145H221.319L219.36 57.934C218.795 59.0846 218.342 60.3835 218.342 60.3835H218.305C218.305 60.3835 217.815 59.0846 217.287 57.934L215.328 53.8145H210.542Z" fill="#1D338D"/>
</g>
<defs>
<clipPath id="clip0_4_128">
<rect width="226.105" height="72" fill="white"/>
</clipPath>
</defs>
</svg>
