<svg width="199" height="72" viewBox="0 0 199 72" fill="none" xmlns="http://www.w3.org/2000/svg">
<g clip-path="url(#clip0_13_243)">
<path d="M145.848 72.2482C144.324 67.678 142.91 63.1079 141.431 58.3259C142.324 58.3259 143.106 58.2175 143.831 58.3746C144.162 58.4463 144.499 59.004 144.627 59.4069C145.355 61.6876 146.018 63.9886 146.708 66.2812C146.778 66.5116 146.878 66.7325 147.084 67.2693C147.929 64.3293 148.668 61.6695 149.481 59.0328C149.592 58.6715 150.026 58.2747 150.395 58.1568C151.104 57.93 151.462 58.3173 151.669 59.0639C152.391 61.6755 153.2 64.263 154.282 66.8952C154.436 66.4163 154.601 65.9406 154.742 65.4579C155.308 63.5154 155.938 61.5876 156.399 59.6201C156.642 58.5793 157.086 58.1525 158.139 58.3108C158.579 58.3768 159.037 58.3218 159.662 58.3218C158.987 60.4025 158.364 62.3524 157.723 64.2962C156.985 66.5317 156.239 68.7644 155.477 70.9918C155.348 71.3683 155.122 71.7116 154.932 72.1592C154.417 72.2482 153.91 72.2482 153.265 72.1634C152.895 71.4713 152.634 70.8737 152.437 70.2552C151.763 68.13 151.112 65.9975 150.365 63.5846C149.418 66.6905 148.571 69.4694 147.724 72.2482C147.136 72.2482 146.547 72.2482 145.848 72.2482Z" fill="#777980"/>
<path d="M55.724 72.2484C55.0807 70.315 54.5787 68.3725 54.0072 66.4506C53.2206 63.8055 52.3814 61.176 51.4976 58.3227C52.3831 58.3227 53.1277 58.2158 53.8152 58.3677C54.16 58.4439 54.5442 58.9465 54.6651 59.333C55.4534 61.8536 56.1744 64.3953 57.0252 67.2981C57.2882 66.6116 57.4625 66.2372 57.5767 65.8453C58.2471 63.5444 58.8749 61.2304 59.5957 58.9456C59.7031 58.605 60.1868 58.2784 60.5654 58.1518C61.176 57.9477 61.5139 58.2969 61.6942 58.9295C62.4744 61.667 63.2995 64.3917 64.2068 67.4534C64.9824 64.802 65.6625 62.4544 66.3569 60.111C66.8982 58.2845 66.9062 58.2856 68.8497 58.322C69.0935 58.3265 69.3369 58.3525 69.7249 58.3781C68.2165 62.9906 66.7337 67.5246 65.2737 72.1535C64.6261 72.2484 63.9558 72.2484 63.1699 72.1546C62.2121 69.3381 61.3697 66.6155 60.5273 63.8928C59.6288 66.1756 58.9921 68.4648 58.3103 70.7405C58.1526 71.2668 57.8408 71.747 57.5999 72.2484C57.0114 72.2484 56.4228 72.2484 55.724 72.2484Z" fill="#777980"/>
<path d="M28.9128 72.2482C28.8139 67.5847 28.8273 62.9213 28.8457 58.2578C28.846 58.1848 28.9068 58.112 28.9465 58.0233C30.1129 57.6205 30.8985 57.9982 31.6322 59.0216C33.5994 61.7656 35.6774 64.4301 37.924 67.4079C37.924 64.2178 37.924 61.3385 37.924 58.3929C38.8926 58.3929 39.6969 58.3929 40.6581 58.3929C40.6581 62.9639 40.6581 67.4928 40.6877 72.1349C40.0469 72.2482 39.3766 72.2482 38.5959 72.1614C36.2465 69.0822 34.0074 66.0897 31.7683 63.0973C31.5119 65.4495 31.5322 67.6345 31.5014 69.8188C31.49 70.6294 31.3592 71.4384 31.2828 72.2482C30.5303 72.2482 29.7779 72.2482 28.9128 72.2482Z" fill="#76787F"/>
<path d="M91.4815 72.2483C88.7582 71.0251 87.1501 69.0736 86.7817 66.1459C86.385 62.9934 87.9261 59.7846 90.4635 58.6382C93.3787 57.3211 96.5438 57.9073 98.5115 60.1287C101.981 64.0459 100.264 70.7436 95.3897 72.1752C94.0911 72.2483 92.8442 72.2483 91.4815 72.2483ZM93.8024 69.59C95.0445 69.6545 95.9216 69.0277 96.6065 68.0754C97.6659 66.6024 97.6915 63.7979 96.6368 62.3273C95.7521 61.0937 94.5381 60.4708 93.0091 60.7168C91.1613 61.0141 89.9518 62.309 89.6502 64.1878C89.2959 66.3947 90.1525 68.5118 91.8218 69.2889C92.3474 69.5336 93.0041 69.4969 93.8024 69.59Z" fill="#76797F"/>
<path d="M123.753 72.2483C123.59 70.3929 123.512 68.5377 123.495 66.682C123.469 63.9588 123.488 61.2352 123.488 58.4155C124.452 58.4155 125.323 58.4155 126.297 58.4155C126.297 60.1188 126.297 61.7601 126.297 63.4994C127.897 63.4994 129.4 63.4994 131.05 63.4994C131.05 61.8308 131.05 60.1589 131.05 58.406C132.001 58.406 132.81 58.406 133.725 58.406C133.757 58.6904 133.823 59.0031 133.823 59.316C133.83 63.2032 133.833 67.0903 133.819 70.9774C133.817 71.3336 133.691 71.6894 133.598 72.1468C132.82 72.2483 132.067 72.2483 131.218 72.1326C131.12 70.0513 131.12 68.0856 131.12 66.0667C129.43 66.0667 127.934 66.0667 126.326 66.0667C126.326 67.7453 126.358 69.3451 126.306 70.9422C126.291 71.3818 126.026 71.8131 125.876 72.2483C125.205 72.2483 124.535 72.2483 123.753 72.2483Z" fill="#787A81"/>
<path d="M104.888 72.2482C102.312 71.033 101.544 68.926 101.585 66.3413C101.627 63.7103 101.594 61.078 101.594 58.384C102.543 58.384 103.347 58.384 104.307 58.384C104.307 59.9606 104.286 61.475 104.313 62.9886C104.339 64.4726 104.39 65.9572 104.476 67.4389C104.571 69.0911 105.309 69.9018 106.651 69.9136C107.957 69.9251 108.87 69.0923 108.944 67.5159C109.064 64.9193 109.036 62.3157 109.068 59.7151C109.073 59.3097 109.069 58.9043 109.069 58.4102C110.017 58.4102 110.858 58.4102 111.634 58.4102C111.634 61.811 111.767 65.1893 111.577 68.5494C111.485 70.1665 110.35 71.3984 108.768 72.1658C107.498 72.2482 106.251 72.2482 104.888 72.2482Z" fill="#787A81"/>
<path d="M158.513 72.2482C158.346 72.0218 158.185 71.7539 158.254 71.5751C159.89 67.3437 161.583 63.1339 163.181 58.8884C163.521 57.9869 164.04 57.897 164.853 57.8604C165.721 57.8214 165.87 58.3552 166.087 58.9455C167.538 62.9025 169.003 66.8542 170.438 70.8168C170.579 71.2045 170.549 71.6537 170.582 72.1613C169.813 72.2482 169.061 72.2482 168.181 72.1597C167.61 69.397 165.963 68.6608 163.444 69.0336C162.615 69.1563 162.092 69.2695 161.833 70.1433C161.616 70.8746 161.207 71.5488 160.883 72.2482C160.13 72.2482 159.378 72.2482 158.513 72.2482ZM165.314 64.4758C165.067 63.7824 164.82 63.089 164.458 62.0728C163.95 63.8268 163.533 65.2643 163.1 66.7583C164.147 66.7583 165.061 66.7583 166.101 66.7583C165.825 65.9711 165.595 65.3164 165.314 64.4758Z" fill="#787A80"/>
<path d="M79.5637 72.2483C78.8716 71.7949 78.2859 71.3524 77.7202 70.8857C76.8556 70.1726 76.6889 69.4534 77.7249 68.7273C77.987 68.5437 78.2048 68.2967 78.4728 68.0515C78.8855 68.5364 79.2074 69.0162 79.6268 69.3856C80.4284 70.0916 81.7176 70.0151 82.294 69.2897C83.0122 68.3858 82.8372 67.1294 81.8031 66.4956C81.0715 66.0473 80.2232 65.7941 79.4593 65.3925C77.5565 64.3922 76.878 62.6255 77.5752 60.5939C78.2094 58.7458 80.158 57.5964 82.1022 58.0658C83.1415 58.3167 84.1203 58.8178 85.3029 59.2741C84.7018 60.1205 84.3099 60.6722 83.9417 61.1907C83.2738 60.8689 82.7497 60.5061 82.1714 60.3637C81.3184 60.1536 80.6067 60.4934 80.2667 61.342C79.9304 62.1816 80.4591 62.6705 81.1098 63.0331C81.5767 63.2933 82.0728 63.5085 82.5721 63.7021C84.3396 64.3872 85.5246 65.556 85.5657 67.5394C85.6074 69.5482 84.8378 71.1542 82.9333 72.1618C81.8425 72.2483 80.7608 72.2483 79.5637 72.2483Z" fill="#787A80"/>
<path d="M192.032 72.2484C191.077 71.4893 190.236 70.7302 189.287 69.8731C189.942 69.1837 190.468 68.6306 191.058 68.0095C191.432 68.4757 191.675 69.0457 192.094 69.2406C192.757 69.5498 193.585 69.832 194.251 69.6906C194.665 69.6027 195.048 68.7476 195.194 68.1731C195.416 67.3008 194.906 66.6891 194.105 66.3192C193.246 65.9227 192.349 65.5828 191.551 65.0857C190.024 64.1338 189.547 62.4451 190.181 60.6243C190.758 58.9676 192.592 57.6387 194.194 57.9504C195.397 58.1845 196.539 58.7379 197.898 59.2162C197.309 60.1082 196.93 60.6813 196.502 61.3301C196.08 61.0275 195.751 60.7339 195.373 60.5303C194.494 60.0572 193.327 60.3223 192.98 61.1066C192.532 62.1184 193.023 62.7509 193.948 63.158C194.664 63.4734 195.397 63.7653 196.077 64.1482C197.695 65.0593 198.341 66.4849 198.12 68.3105C197.899 70.134 197.059 71.4948 195.188 72.1729C194.146 72.2484 193.146 72.2484 192.032 72.2484Z" fill="#777980"/>
<path d="M57.7319 0.248291C57.8483 0.248291 57.8509 0.360645 57.7366 0.437302C52.3178 0.504915 47.0133 0.495871 41.7087 0.486827C41.7087 0.486827 41.7105 0.367565 41.7104 0.307928C47.0121 0.248291 52.3139 0.248291 57.7319 0.248291Z" fill="#E7EBEE"/>
<path d="M116.325 0.248291C116.442 0.291913 116.442 0.335535 116.324 0.454179C112.641 0.513952 109.078 0.498704 105.515 0.483455C105.515 0.483455 105.518 0.365893 105.517 0.307092C109.081 0.248291 112.645 0.248291 116.325 0.248291Z" fill="#E7EBEE"/>
<path d="M179.884 0.248291C180 0.248291 180.001 0.372278 179.884 0.445734C176.202 0.504368 172.636 0.489547 169.07 0.474726C169.07 0.474726 169.074 0.361529 169.075 0.30491C172.64 0.248291 176.203 0.248291 179.884 0.248291Z" fill="#E7EBEE"/>
<path d="M13.5389 0.248291C13.6472 0.306388 13.6391 0.364485 13.5011 0.492737C10.651 0.535022 7.93084 0.507152 5.21069 0.479281C5.21069 0.479281 5.21375 0.363806 5.21383 0.306049C7.95013 0.248291 10.6864 0.248291 13.5389 0.248291Z" fill="#E7EBEE"/>
<path d="M50.3862 71.9773C50.3884 72.0225 50.3906 72.0676 50.3964 72.1805C48.1604 72.2482 45.9207 72.2482 43.5647 72.2482C43.4534 72.1987 43.4585 72.1492 43.5868 72.0256C45.9355 71.9601 48.1608 71.9687 50.3862 71.9773Z" fill="#D9D9DC"/>
<path d="M180.365 72.2484C180.254 72.1951 180.259 72.1418 180.39 72.0207C182.744 71.9723 184.973 71.9915 187.202 72.0107C187.202 72.0107 187.202 72.1296 187.201 72.189C184.96 72.2484 182.721 72.2484 180.365 72.2484Z" fill="#E7EBEE"/>
<path d="M172.42 72.2482C172.303 72.2062 172.303 72.1643 172.42 72.0504C174.525 71.978 176.515 71.9775 178.504 71.9771C178.505 72.0222 178.507 72.0674 178.509 72.1804C176.519 72.2482 174.527 72.2482 172.42 72.2482Z" fill="#E7EBEE"/>
<path d="M116.306 72.2482C116.199 72.1917 116.204 72.1352 116.333 72.0151C117.278 71.9602 118.099 71.9689 118.921 71.9776C118.922 72.0227 118.923 72.0678 118.924 72.1805C118.089 72.2482 117.255 72.2482 116.306 72.2482Z" fill="#F6F7F8"/>
<path d="M41.6172 0.503281C47.0133 0.495915 52.3178 0.504959 57.7376 0.49353C60.3183 0.946228 62.8834 1.13428 65.228 1.95346C69.7491 3.53308 72.6432 6.85611 73.7869 11.5198C74.9131 16.1117 74.8133 20.7197 73.1257 25.1757C71.1314 30.4415 66.9982 33.0961 61.6169 33.7215C58.2244 34.1158 54.7703 34.027 51.3432 34.0498C50.2865 34.0568 49.9075 34.2648 49.9355 35.4049C50.0159 38.6711 49.9759 41.9407 49.9585 45.2088C49.9401 48.6535 47.9019 50.6916 44.4871 50.7032C42.1003 50.7114 39.7135 50.7048 37.2005 50.7048C37.2005 50.2034 37.2004 49.8428 37.2005 49.4821C37.2017 35.0027 37.2 20.5232 37.2067 6.04377C37.2081 3.05396 38.5687 1.33341 41.6172 0.503281ZM59.9552 21.5814C61.4239 19.6162 61.2854 17.4108 60.8868 15.1792C60.5177 13.1133 59.2303 11.7817 57.2146 11.4993C54.8692 11.1708 52.4786 11.1643 49.9934 11.011C49.9934 14.7705 49.9362 18.2694 50.0259 21.7645C50.0553 22.9123 50.9744 23.4663 52.0974 23.4809C53.2511 23.4958 54.4075 23.4559 55.5598 23.39C57.1597 23.2987 58.6587 22.9106 59.9552 21.5814Z" fill="#72757C"/>
<path d="M168.98 0.496182C172.636 0.489579 176.202 0.5044 179.884 0.507757C180.976 3.03358 181.982 5.55984 182.923 8.11009C186.526 17.8752 190.109 27.6475 193.698 37.4181C195.235 41.605 196.768 45.7938 198.298 49.9835C198.353 50.132 198.356 50.2993 198.398 50.5515C198.185 50.6051 198.005 50.6893 197.825 50.6898C194.598 50.6977 191.369 50.7697 188.146 50.672C185.593 50.5946 184.279 48.8772 183.513 46.6554C182.488 43.6885 181.499 40.7096 180.49 37.7375C178.245 31.1279 176 24.5188 173.749 17.9113C173.582 17.4188 173.372 16.9406 173.072 16.1763C172.367 18.117 171.738 19.7952 171.148 21.4867C168.902 27.9198 166.67 34.3579 164.429 40.7927C163.383 43.795 162.352 46.8028 161.248 49.7836C161.107 50.1651 160.567 50.6544 160.206 50.6599C156.153 50.7218 152.098 50.6996 148.044 50.6943C147.888 50.6941 147.733 50.6369 147.437 50.5785C148.699 47.2013 149.94 43.8828 151.18 40.5639C154.171 32.5569 157.157 24.548 160.155 16.5435C161.748 12.289 163.347 8.03616 164.975 3.79456C165.664 1.99799 167.035 0.953006 168.98 0.496182Z" fill="#6799AE"/>
<path d="M105.424 0.503866C109.078 0.498683 112.641 0.513932 116.32 0.519507C117.652 3.71512 118.893 6.91108 120.079 10.1275C123.639 19.7826 127.178 29.4454 130.723 39.106C132.018 42.6358 133.309 46.1673 134.596 49.7002C134.692 49.9639 134.739 50.2454 134.857 50.7086C133.576 50.7086 132.395 50.7084 131.215 50.7086C129.146 50.709 127.077 50.7214 125.009 50.7071C122.681 50.6909 120.886 49.4193 120.128 47.1991C117.284 38.8684 114.46 30.5306 111.625 22.1971C110.967 20.264 110.291 18.337 109.5 16.0485C108.823 17.9501 108.271 19.4849 107.731 21.0244C104.371 30.6182 101.02 40.2153 97.6327 49.7994C97.5036 50.1646 97.0348 50.6655 96.7183 50.6699C92.5038 50.7281 88.2882 50.7088 83.8337 50.7088C84.4193 49.0797 84.9361 47.5894 85.4887 46.1125C90.2085 33.4969 94.9346 20.8838 99.6592 8.27009C100.152 6.95506 100.668 5.64857 101.135 4.32452C101.852 2.29155 103.204 0.98348 105.424 0.503866Z" fill="#72757C"/>
<path d="M5.12165 0.502441C7.93066 0.507192 10.6508 0.535063 13.4817 0.578635C13.601 15.5993 13.6217 30.6043 13.6074 45.6092C13.6046 48.4696 11.3041 50.6893 8.45489 50.7063C5.94127 50.7213 3.42748 50.7094 0.831412 50.7094C0.805969 50.2451 0.769112 49.8856 0.769042 49.5261C0.766256 35.1409 0.765113 20.7557 0.768201 6.37055C0.768899 3.11775 1.9327 1.53338 5.12165 0.502441Z" fill="#73757C"/>
<path d="M187.274 71.9373C184.973 71.9915 182.744 71.9723 180.403 71.9414C180.29 67.466 180.29 63.0022 180.29 58.4297C182.636 58.4297 184.958 58.4297 187.35 58.4297C187.35 59.1724 187.35 59.8899 187.35 60.7202C185.93 60.7202 184.579 60.7202 183.12 60.7202C183.12 61.7054 183.12 62.5798 183.12 63.5925C184.437 63.5925 185.74 63.5925 187.135 63.5925C187.135 64.4374 187.135 65.1494 187.135 65.9857C185.797 65.9857 184.491 65.9857 183.099 65.9857C183.099 67.1996 183.099 68.2925 183.099 69.5465C184.481 69.5465 185.859 69.5465 187.345 69.5465C187.345 70.4218 187.345 71.1429 187.274 71.9373Z" fill="#787A81"/>
<path d="M50.4255 71.8716C48.1608 71.9689 45.9354 71.9602 43.5962 71.9518C43.4824 67.4643 43.4824 62.9766 43.4824 58.4055C45.8051 58.4055 48.0952 58.4055 50.4464 58.4055C50.4861 58.6346 50.5558 58.868 50.5625 59.1033C50.6095 60.7452 50.6053 60.7427 48.9976 60.7485C48.1731 60.7515 47.3486 60.7632 46.5243 60.7788C46.4513 60.7801 46.3794 60.8391 46.2287 60.9062C46.2287 61.7189 46.2287 62.5656 46.2287 63.5852C47.5664 63.5852 48.8993 63.5852 50.3087 63.5852C50.3087 64.4358 50.3087 65.1177 50.3087 66.0133C49.2665 66.0133 48.2096 66.0627 47.1597 65.9977C46.32 65.9457 46.0272 66.2692 46.1176 67.2437C46.1096 67.8752 46.1405 68.3246 46.1714 68.7739C46.1663 68.8846 46.1611 68.9953 46.1618 69.2622C46.2443 69.4705 46.321 69.5225 46.3977 69.5745C47.2573 69.5835 48.1257 69.6735 48.9746 69.5825C50.2289 69.4479 50.7327 69.9093 50.5136 71.1551C50.4784 71.3553 50.4802 71.5621 50.4255 71.8716Z" fill="#77797F"/>
<path d="M118.965 71.8893C118.099 71.9691 117.278 71.9604 116.347 71.9314C116.239 68.2439 116.239 64.5768 116.239 60.8157C115.294 60.7736 114.486 60.7375 113.586 60.6974C113.586 59.9415 113.586 59.2259 113.586 58.4128C116.228 58.4128 118.885 58.4128 121.626 58.4128C121.626 59.1577 121.626 59.8757 121.626 60.6856C120.817 60.7251 120.047 60.7628 119.009 60.8134C119.009 64.4903 119.009 68.1455 118.965 71.8893Z" fill="#787A80"/>
<path d="M178.547 71.8933C176.515 71.9776 174.526 71.9781 172.421 71.9875C172.243 71.7636 172.127 71.5309 172.127 71.2978C172.117 67.1668 172.12 63.0358 172.126 58.9048C172.126 58.7488 172.184 58.5929 172.225 58.3821C173.07 58.3821 173.88 58.3821 174.837 58.3821C174.837 62.0653 174.837 65.7212 174.837 69.5961C175.704 69.5961 176.436 69.6659 177.15 69.5803C178.338 69.4378 178.846 69.8674 178.648 71.0718C178.609 71.3143 178.609 71.5634 178.547 71.8933Z" fill="#797C82"/>
<path d="M46.2366 68.7107C46.1406 68.3246 46.1097 67.8753 46.1264 67.354C46.2165 67.7371 46.2591 68.1922 46.2366 68.7107Z" fill="#D9D9DC"/>
<path d="M46.3823 69.5094C46.3209 69.5225 46.2442 69.4705 46.1687 69.3451C46.2356 69.3293 46.3014 69.3868 46.3823 69.5094Z" fill="#D9D9DC"/>
</g>
<defs>
<clipPath id="clip0_13_243">
<rect width="198.621" height="72" fill="white"/>
</clipPath>
</defs>
</svg>
