<svg width="526" height="72" viewBox="0 0 526 72" fill="none" xmlns="http://www.w3.org/2000/svg">
<g clip-path="url(#clip0_14_280)">
<path d="M36.2779 72.2869C38.9456 67.3592 41.7274 62.4199 44.5538 57.5062C51.9246 44.6922 59.3153 31.8896 66.6963 19.0815C66.9297 18.6766 67.1446 18.2612 67.4666 17.6696C61.464 17.6696 55.6135 17.6696 49.5188 17.6696C52.8873 11.7974 56.1301 6.14417 59.3757 0.388916C68.3726 0.286867 77.3666 0.286867 86.4951 0.286865C88.0909 2.94408 89.4516 5.664 91.0539 8.23333C91.9175 9.61819 91.9102 10.5912 91.0766 12.0312C79.5053 32.0205 68.0153 52.0569 56.5077 72.1843C49.8108 72.2869 43.1116 72.2869 36.2779 72.2869Z" fill="#0B152E"/>
<path d="M53.7939 0.286865C50.8572 5.6263 47.7556 10.9486 44.7417 16.3202C44.1652 17.3477 43.5065 17.6538 42.3755 17.6412C37.1657 17.5835 31.9548 17.6158 26.7444 17.6158C26.225 17.6158 25.7056 17.6158 24.9921 17.6158C25.2039 18.0801 25.324 18.412 25.4972 18.7134C31.2792 28.7766 37.0735 38.8328 42.8287 48.9113C43.087 49.3636 43.2526 50.1577 43.0316 50.5514C39.9011 56.1298 36.6961 61.6665 33.3248 67.5342C22.2749 48.3581 11.3543 29.4066 0.360359 10.3909C0.286883 10.1992 0.286883 10.0717 0.384842 9.83092C1.0843 8.69221 1.70796 7.67905 2.28266 6.63884C3.44816 4.52927 4.58716 2.40505 5.73708 0.286866C21.7112 0.286866 37.6853 0.286866 53.7939 0.286865Z" fill="#ED6A25"/>
<path d="M525.801 12.8367C522.875 18.086 519.938 23.2574 517.027 28.4431C514.762 32.4759 512.509 36.5152 510.305 40.5809C509.961 41.2145 509.747 42.0028 509.741 42.7216C509.696 48.4011 509.716 54.0811 509.716 59.8522C505.801 59.8522 501.959 59.8522 498.007 59.8522C497.986 59.4128 497.946 58.9541 497.945 58.4953C497.941 53.2869 497.966 48.0782 497.916 42.8702C497.909 42.1035 497.708 41.2558 497.339 40.5878C492.454 31.7408 487.523 22.9195 482.605 14.0908C482.378 13.6824 482.166 13.2651 481.841 12.6512C486.236 12.6512 490.457 12.6267 494.676 12.6966C495.022 12.7023 495.456 13.2962 495.682 13.7086C498.492 18.8499 501.272 24.0081 504.161 29.3482C504.832 27.9971 505.436 26.7918 506.031 25.5824C507.989 21.6066 509.96 17.6375 511.884 13.6451C512.238 12.9092 512.646 12.6185 513.494 12.6304C517.508 12.6863 521.522 12.6625 525.668 12.6443C525.801 12.6215 525.801 12.765 525.801 12.8367Z" fill="#0C162E"/>
<path d="M5.60242 0.286865C4.58714 2.40505 3.44814 4.52927 2.28264 6.63884C1.70795 7.67905 1.08429 8.69221 0.384825 9.7353C0.286865 6.6245 0.286865 3.49601 0.286865 0.286865C2.01301 0.286865 3.74039 0.286865 5.60242 0.286865Z" fill="#FDFCFA"/>
<path d="M396.07 44.2186C395.739 43.2342 395.202 42.8729 394.218 42.9539C392.938 43.0593 391.643 42.9796 390.236 42.9796C390.236 48.6006 390.236 54.1679 390.236 59.8392C386.236 59.8392 382.352 59.8392 378.388 59.8392C378.388 44.1609 378.388 28.4733 378.388 12.8075C378.528 12.7445 378.612 12.6732 378.695 12.6741C385.667 12.7447 392.654 12.5734 399.608 12.972C405.57 13.3137 410.527 15.8536 412.889 21.7919C414.57 26.0185 414.528 30.3888 413.035 34.6816C411.959 37.7767 409.673 39.8101 406.661 41.1416C410.322 47.4051 413.925 53.5703 417.675 59.9852C416.417 59.9852 415.356 59.9852 414.295 59.9852C411.237 59.9852 408.178 59.9546 405.121 60.0053C404.289 60.019 403.872 59.7487 403.502 59.002C401.072 54.0927 398.587 49.2107 396.07 44.2186ZM401.463 31.4954C401.649 31.0577 401.88 30.6333 402.014 30.1803C402.852 27.3465 401.878 24.5934 399.653 23.8685C396.557 22.8602 393.365 23.3442 390.258 23.2953C390.258 26.9084 390.258 30.3219 390.258 33.9061C392.894 33.7908 395.443 33.8626 397.926 33.4919C399.125 33.3128 400.2 32.3019 401.463 31.4954Z" fill="#0B152E"/>
<path d="M112.492 12.653C115.963 12.6525 119.296 12.6525 122.761 12.6525C122.761 18.8092 122.761 24.8435 122.761 31.3066C124.944 28.399 126.875 25.8297 128.803 23.258C131.237 20.011 133.653 16.7504 136.12 13.5289C136.425 13.1312 136.993 12.6932 137.444 12.6873C142.162 12.6263 146.882 12.6497 151.941 12.6497C146.343 19.4268 140.92 25.992 135.4 32.674C140.984 41.666 146.583 50.6832 152.332 59.9425C151.297 59.9425 150.471 59.9424 149.645 59.9425C146.013 59.9429 142.38 59.9136 138.749 59.9638C137.787 59.977 137.25 59.7258 136.746 58.8242C132.395 51.041 127.972 43.2983 123.569 35.5449C123.387 35.226 123.182 34.9207 122.833 34.3595C122.833 43.0051 122.833 51.3752 122.833 59.8444C118.789 59.8444 114.857 59.8444 110.846 59.8444C110.846 44.1793 110.846 28.5248 110.846 12.6535C111.352 12.6535 111.853 12.6535 112.492 12.653Z" fill="#0C162F"/>
<path d="M267.06 31.0001C270.117 31.0001 273.031 31.0001 276.049 31.0001C276.049 34.4697 276.049 37.8799 276.049 41.4575C269.638 41.4575 263.258 41.4575 256.837 41.4575C256.837 43.9477 256.837 46.2714 256.837 48.6996C263.657 48.6996 270.424 48.6996 277.287 48.6996C277.287 52.455 277.287 56.1079 277.287 59.8523C266.546 59.8523 255.775 59.8523 244.931 59.8523C244.931 44.1748 244.931 28.5178 244.931 12.7554C255.704 12.7554 266.47 12.7554 277.308 12.7554C277.308 16.3876 277.308 19.9998 277.308 23.7698C270.518 23.7698 263.716 23.7698 256.848 23.7698C256.848 26.2407 256.848 28.5542 256.848 31.0001C260.249 31.0001 263.583 31.0001 267.06 31.0001Z" fill="#0B152E"/>
<path d="M365.169 53.3379C362.564 57.5381 358.733 59.75 354.05 60.1927C350.802 60.4997 347.42 60.5972 344.227 60.045C337.333 58.8529 333.165 54.3076 331.913 47.2739C331.596 45.4938 331.372 43.6713 331.362 41.8668C331.308 32.4496 331.336 23.0319 331.337 13.6144C331.338 13.3378 331.362 13.0612 331.377 12.7231C335.359 12.7231 339.255 12.7231 343.315 12.7231C343.315 13.2721 343.315 13.7807 343.315 14.2894C343.315 22.942 343.315 31.5946 343.315 40.2473C343.315 40.7731 343.316 41.299 343.329 41.8246C343.451 47.0434 347.031 49.6532 352.037 48.1403C354.26 47.4685 355.534 45.8795 355.964 43.6452C356.151 42.6678 356.194 41.6507 356.196 40.6515C356.213 31.9032 356.206 23.155 356.206 14.4068C356.206 13.8839 356.206 13.3611 356.206 12.7443C360.169 12.7443 364.057 12.7443 368.025 12.7443C368.045 13.1521 368.078 13.5224 368.078 13.8927C368.077 23.119 368.087 32.3453 368.061 41.5715C368.05 45.6823 367.363 49.6455 365.169 53.3379Z" fill="#0C152E"/>
<path d="M236.395 45.3008C236.149 53.9326 231.057 59.4019 222.111 60.4282C216.06 61.1224 210.256 59.7981 204.63 57.5815C204.63 53.2258 204.63 48.9329 204.63 44.4609C205.093 44.689 205.462 44.8522 205.814 45.0472C209.47 47.0751 213.291 48.7137 217.472 49.158C219.079 49.3288 220.802 49.0745 222.379 48.6597C223.852 48.2721 224.726 47.0346 224.813 45.4415C224.895 43.9521 224.173 42.766 222.87 42.1969C220.827 41.3051 218.69 40.6283 216.587 39.8774C215.197 39.381 213.785 38.9447 212.402 38.4289C205.705 35.9301 203.313 30.6466 204.095 24.1293C204.958 16.9424 209.893 12.5981 217.48 12.0618C222.784 11.687 227.829 12.6695 232.656 14.8959C233.52 15.2946 233.823 15.7636 233.804 16.726C233.737 20.2025 233.778 23.6811 233.778 27.3825C233.255 27.0967 232.898 26.9112 232.55 26.709C228.816 24.5389 224.95 22.7128 220.579 22.292C219.735 22.2108 218.848 22.2572 218.019 22.4292C216.897 22.6619 215.951 23.2547 215.743 24.5139C215.538 25.7516 216.109 26.6931 217.17 27.2366C218.265 27.7977 219.424 28.2502 220.586 28.6617C222.919 29.4875 225.313 30.1527 227.611 31.0632C233.381 33.3495 236.283 37.6704 236.393 43.8715C236.4 44.3016 236.397 44.7319 236.395 45.3008Z" fill="#0C162E"/>
<path d="M314.432 59.7214C309.292 60.886 304.266 61.0299 299.307 59.5101C290.891 56.9307 286.331 50.9403 284.897 42.4931C283.993 37.1698 284.114 31.8127 285.937 26.6445C288.792 18.5488 294.705 14.1476 303.06 12.942C309.273 12.0453 315.21 13.2472 320.947 15.6783C321.849 16.0605 322.253 16.4841 322.233 17.5451C322.157 21.5861 322.202 25.6295 322.202 29.4801C319.299 28.0011 316.497 26.4023 313.554 25.1269C311.134 24.0784 308.508 23.7105 305.838 24.0163C301.132 24.5552 298.003 27.135 296.734 31.6891C295.805 35.0223 295.798 38.4014 296.778 41.732C298.441 47.3823 303.377 50.2337 309.536 49.222C313.576 48.5585 317.169 46.885 320.498 44.5685C320.966 44.2427 321.437 43.9205 321.91 43.603C321.933 43.5877 321.997 43.6334 322.202 43.7131C322.202 45.8238 322.202 47.9997 322.202 50.1755C322.202 51.8009 322.087 53.4369 322.235 55.0488C322.374 56.5716 321.878 57.429 320.401 57.8507C318.435 58.4122 316.499 59.0785 314.432 59.7214Z" fill="#0B152E"/>
<path d="M442.563 16.3535C442.563 15.0732 442.563 13.9359 442.563 12.7272C454.366 12.7272 466.052 12.7272 477.823 12.7272C477.823 16.3911 477.823 20.0383 477.823 23.7602C473.971 23.7602 470.161 23.7602 466.228 23.7602C466.228 35.8037 466.228 47.7741 466.228 59.8441C462.177 59.8441 458.246 59.8441 454.225 59.8441C454.225 47.8836 454.225 35.9482 454.225 23.8734C450.347 23.8734 446.554 23.8734 442.563 23.8734C442.563 21.3249 442.563 18.9107 442.563 16.3535Z" fill="#0C162F"/>
<path d="M165.801 59.9434C163.461 59.9434 161.264 59.9434 158.801 59.9434C164.573 47.6203 170.284 35.4274 176.098 23.0151C169.888 23.0151 163.949 23.0151 157.945 23.0151C157.945 19.597 157.945 16.3206 157.945 12.9597C168.093 12.9597 178.197 12.9597 188.527 12.9597C188.099 17.0889 189.082 21.2119 187.163 25.3688C182.075 36.3901 177.356 47.5817 172.525 58.7207C172.137 59.6145 171.716 60.043 170.672 59.9714C169.103 59.8637 167.521 59.9434 165.801 59.9434Z" fill="#0B152E"/>
<path d="M424.015 33.2749C424.015 26.3596 424.015 19.5878 424.015 12.7343C428.032 12.7343 431.924 12.7343 435.907 12.7343C435.907 28.4332 435.907 44.1174 435.907 59.873C431.991 59.873 428.095 59.873 424.015 59.873C424.015 51.0531 424.015 42.2357 424.015 33.2749Z" fill="#0D162F"/>
</g>
<defs>
<clipPath id="clip0_14_280">
<rect width="525.514" height="72" fill="white"/>
</clipPath>
</defs>
</svg>
