<svg width="206" height="72" viewBox="0 0 206 72" fill="none" xmlns="http://www.w3.org/2000/svg">
<g clip-path="url(#clip0_9_227)">
<path fill-rule="evenodd" clip-rule="evenodd" d="M102.097 19.4772C103.478 19.4772 104.962 19.7869 106.529 20.4064L106.117 21.7278C104.715 21.1497 103.395 20.8607 102.22 20.8607C100.242 20.8607 98.9221 21.79 98.9221 23.194C98.9221 26.9105 107.024 24.8044 107.024 30.0493C107.024 32.3002 105.024 33.8487 102.097 33.8487C100.633 33.8487 98.9428 33.477 97.17 32.7544L97.5822 31.4328C99.1487 32.0523 100.716 32.4651 101.973 32.4651C104.014 32.4651 105.333 31.495 105.333 30.0493C105.333 26.2498 97.252 28.3148 97.252 23.194C97.252 21.005 99.2314 19.4772 102.097 19.4772ZM112.859 32.6509C114.591 32.6509 115.807 31.4121 115.807 29.6362V28.7898C115.107 28.6246 114.426 28.542 113.746 28.542C111.767 28.542 110.592 29.3679 110.592 30.7307C110.592 31.8252 111.56 32.6509 112.859 32.6509ZM113.56 27.5096C114.261 27.5096 115.024 27.592 115.807 27.7984V26.7661C115.807 25.4859 114.818 24.5773 113.354 24.5773C112.282 24.5773 111.19 24.8252 110.035 25.3209L109.582 24.123C110.983 23.5861 112.261 23.3178 113.54 23.3178C115.807 23.3178 117.374 24.7218 117.374 26.8075V31.66C117.374 32.2173 117.704 32.5685 118.281 32.5685C118.446 32.5685 118.694 32.5271 118.817 32.5064L118.941 33.7454C118.611 33.8073 118.24 33.8487 117.869 33.8487C116.776 33.8487 116.075 33.2085 115.952 32.1762C115.148 33.2292 113.849 33.8487 112.468 33.8487C110.489 33.8487 108.984 32.5478 108.984 30.8341C108.984 28.7277 110.715 27.5096 113.56 27.5096ZM120.777 33.6009H122.406V23.5657H120.777V33.6009ZM121.601 19.4151C122.241 19.4151 122.694 19.8694 122.694 20.5096C122.694 21.1498 122.241 21.6038 121.601 21.6038C120.942 21.6038 120.489 21.1498 120.489 20.5096C120.489 19.8694 120.942 19.4151 121.601 19.4151ZM127.292 31.2882C127.292 32.0317 127.767 32.5065 128.509 32.5065C128.797 32.5065 129.147 32.4446 129.498 32.3619L129.704 33.6629C129.147 33.7867 128.612 33.8486 128.158 33.8486C126.612 33.8486 125.664 32.9193 125.664 31.4327V19.0642H127.292V31.2882ZM131.539 33.6009H133.168V23.5657H131.539V33.6009ZM132.364 19.4151C133.003 19.4151 133.457 19.8694 133.457 20.5096C133.457 21.1498 133.003 21.6038 132.364 21.6038C131.705 21.6038 131.251 21.1498 131.251 20.5096C131.251 19.8694 131.705 19.4151 132.364 19.4151ZM136.426 23.5658H137.746L137.952 25.4033C138.632 24.0817 139.972 23.3179 141.56 23.3179C143.786 23.3179 145.373 24.846 145.373 27.0555V33.601H143.724V27.3033C143.724 25.7753 142.631 24.7012 141.086 24.7012C139.354 24.7012 138.055 26.0229 138.055 27.9433V33.601H136.426V23.5658ZM152.652 32.5063C154.384 32.5063 155.601 31.2267 155.601 29.3883V27.7779C155.601 25.9611 154.384 24.6599 152.652 24.6599C150.755 24.6599 149.416 26.291 149.416 28.5834C149.416 30.8957 150.755 32.5063 152.652 32.5063ZM157.23 33.7866C157.23 36.3265 155.147 38.1438 152.282 38.1438C151.106 38.1438 149.746 37.8545 148.323 37.2555L148.818 36.017C150.055 36.5536 151.23 36.8219 152.157 36.8219C154.157 36.8219 155.58 35.6036 155.58 33.8487V32.0316C154.879 33.188 153.683 33.8487 152.261 33.8487C149.622 33.8487 147.725 31.6597 147.725 28.5834C147.725 25.5068 149.622 23.3178 152.261 23.3178C153.746 23.3178 154.982 23.9992 155.703 25.2385L155.909 23.5657H157.23V33.7866ZM161.395 31.4949C162.056 31.4949 162.549 31.9696 162.549 32.651C162.549 33.3117 162.056 33.7867 161.395 33.7867C160.715 33.7867 160.241 33.3117 160.241 32.651C160.241 31.9696 160.715 31.4949 161.395 31.4949ZM173.498 19.4772C175.085 19.4772 176.714 19.9936 178.178 21.005L177.455 22.1616C176.301 21.3357 175.002 20.8812 173.724 20.8812C170.57 20.8812 168.425 23.2352 168.425 26.6629C168.425 30.0907 170.57 32.4447 173.724 32.4447C175.002 32.4447 176.301 31.9902 177.455 31.1642L178.178 32.3206C176.714 33.3325 175.085 33.8487 173.498 33.8487C169.456 33.8487 166.673 30.8959 166.673 26.6629C166.673 22.4299 169.456 19.4772 173.498 19.4772ZM180.612 33.6009H182.241V23.5657H180.612V33.6009ZM181.436 19.4151C182.076 19.4151 182.529 19.8694 182.529 20.5096C182.529 21.1498 182.076 21.6038 181.436 21.6038C180.777 21.6038 180.322 21.1498 180.322 20.5096C180.322 19.8694 180.777 19.4151 181.436 19.4151ZM188.115 23.5658H191.271V24.8667H188.115V30.772C188.115 31.8044 188.818 32.5065 189.847 32.5065C190.28 32.5065 190.755 32.4239 191.271 32.3001L191.498 33.5803C190.796 33.766 190.137 33.8486 189.497 33.8486C187.704 33.8486 186.488 32.651 186.488 30.9165V24.8667H184.406V23.5658H186.488V20.5923H188.115V23.5658ZM197.723 35.1082C196.899 37.1941 195.868 38.1438 194.261 38.1438C193.869 38.1438 193.353 38.0817 192.859 37.9576L193.085 36.6362C193.457 36.7393 193.828 36.8012 194.096 36.8012C195.105 36.8012 195.703 36.2234 196.24 34.8191L196.754 33.5182L192.612 23.5659H194.322L197.539 31.7014L200.651 23.5659H202.383L197.723 35.1082ZM204.074 31.4949C204.734 31.4949 205.23 31.9696 205.23 32.651C205.23 33.3117 204.734 33.7867 204.074 33.7867C203.395 33.7867 202.92 33.3117 202.92 32.651C202.92 31.9696 203.395 31.4949 204.074 31.4949Z" fill="#00223F"/>
<path d="M35.5397 67.8766C35.5397 65.5068 33.8691 63.8518 31.4767 63.8518C29.1108 63.8518 27.4583 65.5068 27.4583 67.8766C27.4583 70.273 29.1108 71.9469 31.4767 71.9469C33.8691 71.9469 35.5397 70.273 35.5397 67.8766Z" fill="#009EE0"/>
<path d="M35.5397 67.8766C35.5397 65.5068 33.8691 63.8518 31.4767 63.8518C29.1108 63.8518 27.4583 65.5068 27.4583 67.8766C27.4583 70.273 29.1108 71.9469 31.4767 71.9469C33.8691 71.9469 35.5397 70.273 35.5397 67.8766Z" fill="white" fill-opacity="0.5"/>
<path d="M55.485 46.9723H46.0393L46.2071 46.2328C46.7377 43.8941 48.6196 42.3829 51.0023 42.3829C53.3109 42.3829 55.0749 43.9509 55.3916 46.2854L55.485 46.9723ZM51.0023 37.6216C44.092 37.6216 39.2662 42.3218 39.2662 49.053C39.2662 55.7563 44.3966 60.4378 51.7432 60.4378C54.5228 60.4378 57.6828 59.7093 60.7006 58.3786L58.7944 54.0469C56.5966 55.1142 54.5205 55.6757 52.7583 55.6757C49.4465 55.6757 46.8763 53.9511 46.2107 51.2822L46.0222 50.5298H61.9206C61.9739 49.9325 62.001 49.3133 62.001 48.6829C62.001 42.1698 57.478 37.6216 51.0023 37.6216Z" fill="#009EE0"/>
<path d="M55.485 46.9723H46.0393L46.2071 46.2328C46.7377 43.8941 48.6196 42.3829 51.0023 42.3829C53.3109 42.3829 55.0749 43.9509 55.3916 46.2854L55.485 46.9723ZM51.0023 37.6216C44.092 37.6216 39.2662 42.3218 39.2662 49.053C39.2662 55.7563 44.3966 60.4378 51.7432 60.4378C54.5228 60.4378 57.6828 59.7093 60.7006 58.3786L58.7944 54.0469C56.5966 55.1142 54.5205 55.6757 52.7583 55.6757C49.4465 55.6757 46.8763 53.9511 46.2107 51.2822L46.0222 50.5298H61.9206C61.9739 49.9325 62.001 49.3133 62.001 48.6829C62.001 42.1698 57.478 37.6216 51.0023 37.6216Z" fill="white" fill-opacity="0.5"/>
<path d="M73.033 69.5591V37.6307C68.3133 37.6307 66.1498 39.8759 66.1498 43.9548V69.5591H73.033Z" fill="#009EE0"/>
<path d="M73.033 69.5591V37.6307C68.3133 37.6307 66.1498 39.8759 66.1498 43.9548V69.5591H73.033Z" fill="white" fill-opacity="0.5"/>
<path d="M34.897 59.8827V37.6309C30.2479 37.6309 28.0138 39.8766 28.0138 43.9547V59.8827H34.897Z" fill="#009EE0"/>
<path d="M34.897 59.8827V37.6309C30.2479 37.6309 28.0138 39.8766 28.0138 43.9547V59.8827H34.897Z" fill="white" fill-opacity="0.5"/>
<path d="M13.8339 54.3852L24.5078 68.0064H16.3752L6.98225 55.4618V68.0064H0V43.9545C0 39.8451 1.84363 37.6273 6.98225 37.6273V52.4262L16.001 40.6096C17.622 38.5017 19.8429 37.4315 22.599 37.4315C23.9136 37.4315 25.0518 37.6827 25.7526 37.8837L13.8339 54.3852Z" fill="#009EE0"/>
<path d="M13.8339 54.3852L24.5078 68.0064H16.3752L6.98225 55.4618V68.0064H0V43.9545C0 39.8451 1.84363 37.6273 6.98225 37.6273V52.4262L16.001 40.6096C17.622 38.5017 19.8429 37.4315 22.599 37.4315C23.9136 37.4315 25.0518 37.6827 25.7526 37.8837L13.8339 54.3852Z" fill="white" fill-opacity="0.5"/>
<path fill-rule="evenodd" clip-rule="evenodd" d="M31.4766 0C29.1107 0 27.4584 1.67387 27.4584 4.07033C27.4584 6.44012 29.1107 8.09508 31.4766 8.09508C33.8692 8.09508 35.5396 6.44012 35.5396 4.07033C35.5396 1.67387 33.8692 0 31.4766 0Z" fill="#00223F"/>
<path fill-rule="evenodd" clip-rule="evenodd" d="M82.0065 26.2303C79.6406 26.2303 77.9883 27.9045 77.9883 30.3007C77.9883 32.6705 79.6406 34.3254 82.0065 34.3254C84.3991 34.3254 86.0697 32.6705 86.0697 30.3007C86.0697 27.9045 84.3991 26.2303 82.0065 26.2303Z" fill="#00223B"/>
<path fill-rule="evenodd" clip-rule="evenodd" d="M55.485 20.8598H46.0393L46.2071 20.1201C46.7377 17.7816 48.6196 16.2704 51.0024 16.2704C53.3109 16.2704 55.0749 17.8384 55.3917 20.1727L55.485 20.8598ZM51.0024 11.5088C44.092 11.5088 39.2663 16.2096 39.2663 22.9405C39.2663 29.644 44.3966 34.3256 51.7432 34.3256C54.5229 34.3256 57.6829 33.5965 60.7007 32.2661L58.7945 27.9344C56.5966 29.0017 54.5205 29.5635 52.7584 29.5635C49.4465 29.5635 46.8763 27.8386 46.2108 25.1697L46.0223 24.4176H61.9206C61.9739 23.8198 62.001 23.2008 62.001 22.5704C62.001 16.0575 57.4781 11.5088 51.0024 11.5088ZM66.1499 2.38782V27.9921C66.1499 32.0707 68.3131 34.3162 73.0331 34.3162V2.38782H66.1499ZM28.0139 12.0641V27.9922C28.0139 32.0703 30.248 34.3163 34.8971 34.3163V12.0641H28.0139ZM13.8339 17.5617L24.5078 3.94045H16.3752L6.98225 16.485V3.94045H0V27.9921C0 32.1018 1.84363 34.3195 6.98225 34.3195V19.5207L16.001 31.3372C17.622 33.4452 19.8429 34.5153 22.599 34.5153C23.9136 34.5153 25.0518 34.2641 25.7526 34.0629L13.8339 17.5617Z" fill="#00223F"/>
</g>
<defs>
<clipPath id="clip0_9_227">
<rect width="205.307" height="72" fill="white"/>
</clipPath>
</defs>
</svg>
