<svg xmlns="http://www.w3.org/2000/svg" viewBox="0 0 160 40" fill="none">
  <!-- Microsoft Logo -->
  <rect x="8" y="10" width="9" height="9" fill="#F25022"/>
  <rect x="19" y="10" width="9" height="9" fill="#7FBA00"/>
  <rect x="8" y="21" width="9" height="9" fill="#00A4EF"/>
  <rect x="19" y="21" width="9" height="9" fill="#FFB900"/>
  <!-- Entra ID Text -->
  <path d="M40 14h10v2h-7.5v4h6v2h-6v4h7.5v2H40V14z" fill="#5E5E5E"/>
  <path d="M53 18h2.3v1.3c.5-.9 1.5-1.5 2.7-1.5 2 0 3.2 1.3 3.2 3.5V28h-2.5v-6c0-1.3-.6-2-1.7-2-1.2 0-1.8.8-1.8 2.2V28H53V18z" fill="#5E5E5E"/>
  <path d="M64 18h2.3v1.5h.1c.3-.5.7-.9 1.2-1.2.5-.3 1-.4 1.6-.4.3 0 .5 0 .8.1v2.3c-.4-.1-.8-.2-1.2-.2-1.5 0-2.3.9-2.3 2.5V28H64V18z" fill="#5E5E5E"/>
  <path d="M72 18h2.3v1.5h.1c.5-1.1 1.5-1.7 2.8-1.7.7 0 1.3.2 1.8.5V21c-.6-.3-1.2-.5-1.8-.5-1.5 0-2.7 1.1-2.7 2.7V28H72V18zm7.5 10h2.5v-4.5c0-1.2.8-2 1.9-2s1.7.7 1.7 1.8V28h2.5v-5.5c0-2.2-1.5-3.7-3.7-3.7-1.2 0-2.2.5-2.8 1.4h-.1V18h-2.5v10h.5z" fill="#5E5E5E"/>
  <path d="M95 23c0 3-2.2 5.2-5.3 5.2-3 0-5.2-2.2-5.2-5.2s2.2-5.2 5.2-5.2c3.1 0 5.3 2.2 5.3 5.2zm-8 0c0 1.8 1.1 3 2.7 3s2.8-1.2 2.8-3-1.2-3-2.8-3-2.7 1.2-2.7 3z" fill="#5E5E5E"/>
  <path d="M104.5 14h2.5v14h-2.5V14z" fill="#5E5E5E"/>
  <path d="M110 14h5c3.3 0 5.5 2.2 5.5 5s-2.2 5-5.5 5h-2.5v4H110V14zm4.8 8c1.8 0 3-1.1 3-2.9s-1.2-3-3-3h-2.3v5.9h2.3z" fill="#5E5E5E"/>
</svg>

