<?xml version="1.0" encoding="utf-8"?>
<!-- Generator: Adobe Illustrator 20.1.0, SVG Export Plug-In . SVG Version: 6.00 Build 0)  -->
<svg version="1.1" id="Layer_1" xmlns="http://www.w3.org/2000/svg" xmlns:xlink="http://www.w3.org/1999/xlink" x="0px" y="0px"
	 viewBox="0 0 794.7 168.4" style="enable-background:new 0 0 794.7 168.4;" xml:space="preserve">
<style type="text/css">
	.st0{fill:#FFFFFF;}
	.st1{fill:#DF2127;}
</style>
<g id="XMLID_129_">
	<g id="XMLID_97_">
		<path id="XMLID_381_" d="M266.1,41.3h-4.2c-4.1,0-5.9,1.2-8.6,5.7l-22.4,36.3l-9.3-35.9c-1.1-4.3-2.3-6-7-6h-3.5
			c-4.6,0-7.5,2.7-8.4,7.5l-10.4,58.4c-0.8,4.4,1.2,6.7,5,6.7h1.6c4,0,5.8-2,6.5-6.3l8.4-47.2l8.1,31.6c0.7,3.2,1.3,5.3,7.4,5.3
			c5.1,0,6.3-1.8,8.1-4.7l19.8-32.5l-8.4,47.2c-0.8,4.5,1.2,6.7,4.9,6.7h1.7c4,0,5.8-2.1,6.5-6.3L272.2,49
			C273.1,44.3,270.8,41.3,266.1,41.3L266.1,41.3z"/>
		<path id="XMLID_378_" d="M328.6,83.1c-0.5-14.2-10.1-24.6-26.3-24.6c-18.5,0-29.8,15.1-29.3,31.6c0.6,15.1,11,24.8,26.3,24.8
			C318.3,114.8,329.1,99.6,328.6,83.1z M299.4,104.5c-8.7,0-14.2-6.3-14.5-14.9c-0.4-11.1,6.9-20.9,17.3-20.9c8,0,14.3,6.3,14.6,15
			C317.1,95.4,309.8,104.5,299.4,104.5z"/>
		<path id="XMLID_308_" d="M369.9,58.5c-7.7,0-13.8,3.8-17.9,10.2c0.4-7.3-3.6-9.4-7.7-9.4c-1.9,0-3.4,0.5-3.5,0.7l-8.4,47.5
			c-0.8,4.9,1.9,6.3,5.5,6.3h1.5c3.9,0,5.5-1.6,6.3-6.3l5-28.5c3.6-6.3,7.6-9.3,13.8-9.3c6.2,0,9.9,3.7,10,9.8
			c0.1,1.6-0.3,3.6-0.6,6l-3.9,22c-0.8,4.9,2,6.3,5.5,6.3h1.5c3.9,0,5.5-1.6,6.3-6.3l4.3-24.3c0.5-2.7,0.8-5.1,0.7-7.3
			C388,65.7,381.2,58.5,369.9,58.5L369.9,58.5z"/>
		<path id="XMLID_305_" d="M606.5,58.5c-6.3,0-11,3.6-14.2,10.2c0.5-7.3-3.5-9.4-7.6-9.4c-2,0-3.4,0.5-3.5,0.7l-8.5,47.5
			c-0.8,4.9,2.4,6.3,6,6.3h1.5c3.4,0,5-1.6,5.9-6.3l2.8-15.9c2.1-12.4,6.7-21,14.1-21c3.6,0,5.9,1.5,7.4,3.2c0.2,0.2,5.8-2,5.6-8.6
			C615.7,61.1,611.6,58.5,606.5,58.5L606.5,58.5z"/>
		<path id="XMLID_113_" d="M671.1,59.3c-5.2,0-8.1,2.5-9.8,9.1c-3.3-6.2-10.1-10-18-10c-16.8,0-28.5,15-28.5,32
			c0,14,8.6,24.4,22.2,24.4c8.3,0,14.7-3.4,18.8-10.3c-0.6,7.2,0.8,9.4,6,9.4c4.6,0,6.1-1.7,6.6-6.8c0.6-9.4,3.8-24.7,7.5-46.2
			C675.9,60.5,673.8,59.3,671.1,59.3z M639.9,104.5c-8.2,0-12.9-5.2-12.9-14.4c0-10.8,6.3-21.6,18-21.6c9.5,0,13.5,7,13.5,14.7
			C658.5,92.9,651.9,104.5,639.9,104.5z"/>
		<path id="XMLID_112_" d="M750.9,58.5c-9.2,0-15.3,4.7-19.6,11.6c-2.1-7.3-8.4-11.6-16.4-11.6c-7,0-13.1,3.3-17.3,9.6
			c0.2-6.7-3.7-8.7-7.7-8.7c-2,0-3.4,0.5-3.5,0.7l-8.4,47.5c-0.8,4.9,1.9,6.3,5.5,6.3h1.5c3.4,0,5.5-1.4,6.3-6.3l5.2-29.5
			c3.8-5.9,7.4-8.4,13-8.4c5.5,0,8.9,4.1,8.9,10.3c0,1-0.1,2.1-0.3,3.3l-4.2,24.3c-0.8,4.9,2,6.3,5.5,6.3h1.4c3.4,0,5.6-1.5,6.4-6.3
			l5.2-29.5c3.8-5.9,7.4-8.4,13-8.4c5.3,0,9.2,3.2,9.2,9.8c0,1.6-0.3,3.6-0.7,6l-3.9,22c-0.8,4.9,1.9,6.3,5.5,6.3h1.5
			c3.9,0,5.5-1.6,6.3-6.3l4.3-24.3c0.5-2.7,0.7-5.1,0.7-7.3C768.4,65.2,761.2,58.5,750.9,58.5L750.9,58.5z"/>
		<path id="XMLID_108_" d="M449,82.3c0-7.4-1.5-12.3-4.8-16.6c-3.6-4.6-10.3-7.4-18.1-7.4c-23.6,0-32.1,17.4-32.1,32.5
			c0,14.4,10.4,24,26.4,24c16,0,25-7.1,25-12.8c0-3.8-2.7-5.1-5.8-5.4c-4.2,5.4-10,8-17.9,8c-7,0-15.3-2.7-15.9-15.2h36.3
			C446,89.5,449,87.3,449,82.3z M437.3,80.6H407c2.9-7.7,9.6-12.5,18.1-12.5c4.3,0,7.6,1.2,9.8,3.6
			C436.8,73.9,437.5,76.9,437.3,80.6z"/>
		<path id="XMLID_107_" d="M561.7,75h-21.6c-2.6,0-3.8,0.6-4.6,1.4c-1.3,1.4-2,4.6-2,6c0.1,2.2,2,3.5,5.5,3.5h15.3
			c-2.1,10.7-8.9,18.1-20.6,18.1c-12.3,0-20.5-7.8-21-21.1c-0.6-16.7,10.5-30.5,26.2-30.5c9.2,0,16.4,4.9,19.3,11.4
			c0.4,0.5,8.9,0.5,8.6-6.8c-0.1-2.6-1.6-5.7-4.4-8.3c-4.5-4.5-13-8.4-24.3-8.4c-15.8,0-28.3,8.7-34.8,21.3c0-0.1-0.1-0.1-0.1-0.1
			c-1.3-1.7-3.4-2.5-5.5-2.5c-3.5,0-5.8,1.1-9.2,7.1l-16.8,29.5l-6.3-29.4c-1.2-5.5-3.2-7.2-6.7-7.2c-4.1,0-7.4,3-7.3,3.7l12,47.5
			L451,130.6c-1.3,2.2-1.4,5.1,3.3,5.1h2.6c4.9,0,6.5-3,8.9-7.1l33.8-57.2c-1,4-1.5,8.3-1.3,12.7c0.6,19.2,13.6,30.8,32.6,30.8
			c9,0,16.2-3.4,20.2-8.6c-0.3,5.6,2.7,7.8,6.7,7.8c2.2,0,3.8-0.7,3.8-1.1l5.5-30.8C568,77.4,566.2,75,561.7,75z"/>
		<g id="XMLID_99_">
			<path id="XMLID_104_" d="M782.6,108c0.4,0.7,0.7,1,1.2,1c0,0,0.1,0.8-0.9,0.8c-0.6,0-1-0.3-1.6-1.4l-1.1-2h-1l-0.5,2.8
				c-0.1,0.4-0.3,0.6-0.7,0.6h-0.2c-0.4,0-0.6-0.2-0.5-0.7l1.4-7.2c0.1-0.5,0.4-0.7,0.9-0.7h2.1c1.9,0,3,0.8,3,2.2
				c0,1.7-1.1,2.8-3,2.9L782.6,108z M781.3,105.3c1.3,0,2-0.7,1.9-1.8c0-0.8-0.6-1.3-1.7-1.3H780l-0.6,3H781.3z"/>
			<path id="XMLID_101_" d="M781,98.9c3.9,0,7,3.2,7,7c0,3.9-3.2,7-7,7c-3.9,0-7-3.2-7-7C773.9,102.1,777.1,98.9,781,98.9 M781,97.7
				c-4.5,0-8.2,3.7-8.2,8.2c0,4.5,3.7,8.2,8.2,8.2s8.2-3.7,8.2-8.2C789.2,101.4,785.5,97.7,781,97.7L781,97.7z"/>
		</g>
	</g>
	<circle id="XMLID_96_" class="st0" cx="84.9" cy="84.2" r="79.3"/>
	<path id="XMLID_13_" class="st1" d="M164.2,84.2c0,43.8-35.5,79.3-79.3,79.3S5.6,128,5.6,84.2c0-12.1,2.7-23.5,7.5-33.7
		c-3.2,8.1-4.7,16.2-4.7,23.7c0,35.9,29,41.1,41.3,41c18.8-0.2,40.7-9.4,59.2-26.4c0,0-2.4,13.4-3.1,17.5c-0.7,4,1.9,7.5,5.9,7.5
		h1.6c4.1,0,7.1-3.4,7.8-7.5l6.7-37.4c0.8-4.2-1.9-7.5-6.1-7.5H84.3c-4.2,0-8,2.2-8.7,6.4c0,0.2-0.3,1.4-0.3,1.7c-0.6,4,2.2,7,6.2,7
		H101c-0.3,0.3-0.6,0.6-0.9,0.9C86.6,90.1,69.9,97.1,56.1,97.1C42.4,97.1,27,88.4,27,68.9c0-40.5,38-64,57.9-64
		C128.6,4.9,164.2,40.4,164.2,84.2z"/>
</g>
</svg>
