<svg width="420" height="72" viewBox="0 0 420 72" fill="none" xmlns="http://www.w3.org/2000/svg">
<g clip-path="url(#clip0_7_209)">
<path d="M41.9563 25.0907C43.6823 25.0907 44.5453 25.0907 45.026 24.543C45.507 23.9953 45.3857 23.1492 45.1429 21.4571L42.4957 3.01738C42.3068 1.71266 42.2125 1.05808 41.763 0.670668C41.3092 0.278809 40.644 0.278809 39.3137 0.278809H37.3137C35.9833 0.278809 35.3181 0.278809 34.8641 0.670668C34.4101 1.06253 34.3157 1.71266 34.1316 3.01738L31.4797 21.4571C31.2371 23.1492 31.1158 23.9953 31.5966 24.543C32.0776 25.0907 32.9406 25.0907 34.6663 25.0907H41.9563Z" fill="#FF6C37"/>
<path d="M25.8989 31.4007C26.4336 29.7754 26.699 28.9648 26.3215 28.3415C25.9439 27.718 25.0944 27.571 23.3955 27.2773L4.87385 24.0711C3.56148 23.844 2.90528 23.7326 2.39291 24.0355C1.88055 24.3427 1.6738 24.9706 1.26031 26.2219L0.644572 28.1099C0.231083 29.3656 0.0288322 29.9891 0.262543 30.5367C0.496256 31.0845 1.09402 31.374 2.28954 31.9527L19.1707 40.1464C20.7213 40.8988 21.4943 41.2729 22.1685 40.9879C22.8427 40.7028 23.1123 39.8925 23.6427 38.2671L25.8989 31.4007Z" fill="#FF6C37"/>
<path d="M26.994 48.4824C25.6008 47.4759 24.8996 46.9773 24.185 47.1421C23.4704 47.3066 23.0659 48.0593 22.2614 49.5733L13.4613 66.0268C12.8365 67.1937 12.5264 67.7769 12.6612 68.3559C12.7961 68.9346 13.3354 69.3221 14.4141 70.0971L16.0321 71.2592C17.1108 72.0339 17.6456 72.4214 18.2434 72.3724C18.8411 72.319 19.3041 71.8469 20.2299 70.8985L33.3087 57.5217C34.5088 56.2927 35.1067 55.6828 35.0435 54.9569C34.9807 54.2312 34.284 53.7324 32.8863 52.7261L26.994 48.4824Z" fill="#FF6C37"/>
<path d="M43.7218 52.7303C42.3286 53.7368 41.6275 54.2354 41.5646 54.9613C41.5015 55.687 42.0994 56.2972 43.2995 57.5262L56.3784 70.9029C57.304 71.8513 57.7672 72.3234 58.3648 72.3769C58.9626 72.4303 59.5018 72.0429 60.5762 71.2634L62.194 70.1013C63.2728 69.3266 63.8075 68.9391 63.9469 68.3601C64.0863 67.7814 63.7717 67.1979 63.1468 66.0313L54.3559 49.5731C53.5469 48.0635 53.1468 47.3066 52.4321 47.1463C51.7174 46.9815 51.0208 47.4848 49.6231 48.4866L43.7218 52.7303Z" fill="#FF6C37"/>
<path d="M52.9794 38.276C53.5141 39.9011 53.7792 40.7117 54.4536 40.9968C55.1277 41.2818 55.9052 40.9032 57.4512 40.1505L74.3326 31.9572C75.528 31.3782 76.1259 31.089 76.3596 30.5411C76.5933 29.9933 76.3865 29.3656 75.9773 28.1144L75.3617 26.2307C74.9482 24.9749 74.746 24.3515 74.2291 24.0443C73.7166 23.737 73.0606 23.8528 71.7481 24.0799L53.2311 27.286C51.5322 27.5799 50.6825 27.7269 50.305 28.3502C49.9275 28.9737 50.1929 29.7843 50.7276 31.4094L52.9794 38.276Z" fill="#FF6C37"/>
<path d="M149.441 28.0394C146.538 25.1619 141.863 25.1619 132.514 25.1619H94.6528V65.353H105.921V38.1122C105.921 36.0072 105.921 34.9545 106.581 34.3008C107.241 33.6467 108.303 33.6467 110.428 33.6467H132.063C136.314 33.6467 138.437 33.6467 139.757 34.9545C141.078 36.2623 141.078 38.3679 141.078 42.578V65.353H152.346V44.8109C152.346 35.5482 152.346 30.917 149.441 28.0394Z" fill="#023A4F"/>
<path fill-rule="evenodd" clip-rule="evenodd" d="M205.532 25.1619C211.906 25.1619 215.094 25.1619 217.073 27.124C219.054 29.086 219.054 32.2432 219.054 38.5589V43.0245C219.054 45.9718 219.054 47.4452 218.13 48.3611C217.205 49.2765 215.719 49.2765 212.744 49.2765H173.53C173.106 49.2765 172.893 49.2765 172.761 49.4072C172.629 49.5382 172.629 49.7489 172.629 50.1696V52.4025C172.629 54.5076 172.629 55.5602 173.289 56.2139C173.949 56.8681 175.011 56.8681 177.136 56.8681H219.054V65.353H174.883C168.509 65.353 165.32 65.353 163.341 63.391C161.361 61.429 161.361 58.2715 161.361 51.9558V38.5589C161.361 32.2432 161.361 29.086 163.341 27.124C165.32 25.1619 168.509 25.1619 174.883 25.1619H205.532ZM172.629 41.2382H203.954C205.43 41.2382 206.168 41.2382 206.71 40.9094C207.013 40.725 207.268 40.4725 207.453 40.172C207.56 39.9988 207.633 39.8057 207.682 39.5741C207.786 39.0873 207.786 38.4329 207.786 37.4426C207.786 36.7997 207.786 36.2982 207.758 35.8927C207.722 35.3752 207.64 35.0137 207.453 34.7129C207.268 34.4124 207.013 34.1599 206.71 33.9755C206.168 33.6467 205.43 33.6467 203.954 33.6467H177.136C175.011 33.6467 173.949 33.6467 173.289 34.3008C172.629 34.9545 172.629 36.0072 172.629 38.1122V41.2382Z" fill="#023A4F"/>
<path fill-rule="evenodd" clip-rule="evenodd" d="M274.666 15.5061C274.493 15.7411 274.494 16.0543 274.494 16.6809V24.2687C274.494 24.4414 274.494 24.5787 274.486 24.6895C274.47 24.8491 274.438 24.9538 274.363 25.031C274.302 25.0885 274.229 25.1208 274.129 25.1387C274.001 25.1618 273.831 25.1618 273.592 25.1618H241.59C235.217 25.1618 232.028 25.1618 230.049 27.1239C228.068 29.0859 228.068 32.2437 228.068 38.5588V51.9558C228.068 58.2715 228.068 61.4292 230.049 63.391C232.028 65.353 235.217 65.353 241.59 65.353H285.762V11.7648L275.741 14.9815C275.141 15.1747 274.839 15.2715 274.666 15.5061ZM272.589 56.7677C271.957 56.868 271.124 56.868 269.987 56.868H243.844C241.719 56.868 240.657 56.868 239.997 56.2144C239.337 55.5602 239.337 54.5075 239.337 52.4025V38.1122C239.337 36.0071 239.337 34.9544 239.997 34.3008C240.657 33.6466 241.719 33.6466 243.844 33.6466H274.494V52.4025C274.494 54.5075 274.494 55.5602 273.833 56.2144C273.527 56.518 273.134 56.6807 272.589 56.7677Z" fill="#023A4F"/>
<path fill-rule="evenodd" clip-rule="evenodd" d="M308.298 65.353C301.923 65.353 298.735 65.353 296.757 63.391C294.777 61.429 294.776 58.2715 294.776 51.9558V47.4903C294.776 46.2988 294.776 45.348 294.839 44.5775C294.928 43.4429 295.149 42.6993 295.701 42.1536C296.149 41.7114 296.726 41.4829 297.538 41.3648C298.007 41.2967 298.554 41.2652 299.199 41.2511C299.752 41.2382 300.375 41.2382 301.088 41.2382H340.299C340.443 41.2382 340.566 41.2382 340.666 41.233C340.745 41.2291 340.81 41.2223 340.865 41.2094C340.952 41.1908 341.017 41.1594 341.069 41.1075C341.132 41.0446 341.166 40.9632 341.185 40.8489C341.193 40.7926 341.195 40.7284 341.198 40.6548L341.2 40.5353V38.1122C341.2 37.6375 341.2 37.2162 341.195 36.8405C341.182 36.2529 341.153 35.7779 341.072 35.387C341.02 35.1206 340.944 34.8935 340.836 34.6964C340.758 34.5489 340.661 34.4185 340.54 34.3008C339.88 33.6467 338.819 33.6467 336.694 33.6467H294.776V25.1619H338.947C345.322 25.1619 348.51 25.1619 350.488 27.124C352.471 29.086 352.471 32.2432 352.471 38.5589V65.353H308.298ZM341.2 49.2765H309.875C308.4 49.2765 307.664 49.2765 307.121 49.6053C306.998 49.6789 306.885 49.7641 306.781 49.8586C306.736 49.9 306.689 49.9438 306.647 49.9886C306.61 50.0284 306.574 50.0693 306.542 50.1117C306.482 50.1848 306.427 50.2621 306.377 50.3428C306.045 50.8796 306.045 51.6105 306.045 53.0724C306.045 54.0816 306.045 54.7421 306.155 55.2315C306.204 55.4507 306.272 55.6357 306.377 55.8018C306.563 56.1023 306.817 56.3548 307.121 56.5393C307.664 56.8681 308.4 56.8681 309.875 56.8681H336.694L337.561 56.866C337.907 56.8634 338.216 56.8573 338.499 56.8432C339.487 56.7945 340.103 56.6488 340.54 56.2139C340.794 55.9632 340.952 55.6532 341.048 55.2477C341.2 54.5969 341.2 53.6994 341.2 52.4025V49.2765Z" fill="#023A4F"/>
<path fill-rule="evenodd" clip-rule="evenodd" d="M372.733 74.5425C372.723 74.6598 372.702 74.7583 372.668 74.8443C372.644 74.904 372.618 74.958 372.581 75.0085C372.408 75.2433 372.107 75.3402 371.507 75.5333L361.483 78.75V25.1619H405.657C412.028 25.1619 415.217 25.1619 417.197 27.124C419.178 29.086 419.178 32.2437 419.178 38.5589V51.9558C419.178 58.2715 419.178 61.4293 417.197 63.391C415.217 65.353 412.028 65.353 405.657 65.353H373.655C373.53 65.353 373.425 65.353 373.333 65.3564C373.244 65.3596 373.168 65.3656 373.105 65.3782C373.011 65.397 372.94 65.4287 372.885 65.4838C372.814 65.5527 372.783 65.6438 372.767 65.7764C372.752 65.8953 372.752 66.0473 372.752 66.2461V73.8338V74.1778C372.749 74.3179 372.744 74.4379 372.733 74.5425ZM374.588 33.759C374.077 33.8489 373.708 34.0103 373.412 34.3008C372.752 34.9545 372.752 36.0072 372.752 38.1122V56.8681H403.401C405.529 56.8681 406.59 56.8681 407.25 56.2144C407.91 55.5602 407.91 54.5076 407.91 52.4025V38.1122C407.91 36.0072 407.91 34.9545 407.25 34.3008C406.59 33.6467 405.529 33.6467 403.401 33.6467H377.26C376.485 33.6467 375.851 33.6467 375.324 33.6789C375.049 33.6954 374.808 33.7208 374.588 33.759Z" fill="#023A4F"/>
</g>
<defs>
<clipPath id="clip0_7_209">
<rect width="419.178" height="72" fill="white"/>
</clipPath>
</defs>
</svg>
