<svg xmlns="http://www.w3.org/2000/svg" viewBox="0 0 120 40" fill="none">
  <path d="M20 8C13.373 8 8 13.373 8 20C8 26.627 13.373 32 20 32C26.627 32 32 26.627 32 20C32 13.373 26.627 8 20 8ZM20 26C16.686 26 14 23.314 14 20C14 16.686 16.686 14 20 14C23.314 14 26 16.686 26 20C26 23.314 23.314 26 20 26Z" fill="#007DC1"/>
  <path d="M48.5 13.5H52.5L46.5 27H42L48.5 13.5Z" fill="#191E27"/>
  <path d="M54 27H50.5L52.25 23L49 16.5H52.5L54.25 20.75L56 16.5H59.5L54 27Z" fill="#191E27"/>
  <path d="M63.5 16.5H59.5V13.5H63.5V16.5ZM63.5 27H59.5V17.5H63.5V27Z" fill="#191E27"/>
  <path d="M76 27H72V23.5C72 22.119 71.381 21.5 70.25 21.5C69.119 21.5 68.5 22.119 68.5 23.5V27H64.5V17.5H68.5V19C69.25 17.869 70.5 17.25 72 17.25C74.209 17.25 76 19.041 76 21.25V27Z" fill="#191E27"/>
  <path d="M88.5 27H84.5V25.5C83.75 26.75 82.5 27.25 81 27.25C78.239 27.25 76 25.011 76 22.25C76 19.489 78.239 17.25 81 17.25C82.5 17.25 83.75 17.75 84.5 19V17.5H88.5V27ZM81.5 24C82.881 24 84 22.881 84 21.5C84 20.119 82.881 19 81.5 19C80.119 19 79 20.119 79 21.5C79 22.881 80.119 24 81.5 24Z" fill="#191E27"/>
</svg>

