<svg xmlns="http://www.w3.org/2000/svg" viewBox="0 0 130 40" fill="none">
  <!-- OneLogin Logo Mark -->
  <circle cx="16" cy="20" r="10" fill="#00A1E0"/>
  <text x="16" y="25" text-anchor="middle" fill="white" font-family="Arial, sans-serif" font-size="12" font-weight="bold">1</text>
  <!-- OneLogin Text -->
  <path d="M36 23c0-3 2.2-5.2 5.2-5.2s5.2 2.2 5.2 5.2-2.2 5.2-5.2 5.2S36 26 36 23zm8 0c0-1.8-1.1-3-2.8-3s-2.8 1.2-2.8 3 1.1 3 2.8 3 2.8-1.2 2.8-3z" fill="#2D2D2D"/>
  <path d="M49 18h2.2v1.5h.05c.5-1 1.5-1.7 3-1.7 2.1 0 3.3 1.3 3.3 3.6V28h-2.3v-6.1c0-1.3-.65-2-1.8-2s-1.9.8-1.9 2.2V28H49V18z" fill="#2D2D2D"/>
  <path d="M60 22.5c0-2.2 1.65-4.7 4.5-4.7 2.7 0 4.2 2.1 4.2 4.9v.6h-6.4c.15 1.4 1.2 2.35 2.75 2.35 1.15 0 2-.5 2.5-1.25l1.6 1.2c-.85 1.25-2.35 2-4.15 2-2.95 0-5-2.05-5-5.1zm2.35-1h4.2c-.15-1.25-1-2-2.1-2-1.15 0-1.95.75-2.1 2z" fill="#2D2D2D"/>
  <path d="M72 14h2.3v14H72V14z" fill="#2D2D2D"/>
  <path d="M78 23c0-3 2.2-5.2 5.2-5.2s5.2 2.2 5.2 5.2-2.2 5.2-5.2 5.2S78 26 78 23zm8 0c0-1.8-1.1-3-2.8-3s-2.8 1.2-2.8 3 1.1 3 2.8 3 2.8-1.2 2.8-3z" fill="#2D2D2D"/>
  <path d="M91 24.5c0-2.4 1.7-3.8 4.3-3.8 1 0 1.8.2 2.5.5v-.3c0-1.3-.8-2-2.3-2-1.1 0-2 .4-2.8 1.1l-1.2-1.6c1.1-1 2.5-1.5 4.3-1.5 2.8 0 4.4 1.4 4.4 4V28h-2.2v-1.2c-.6.9-1.6 1.4-3 1.4-2 0-4-1.2-4-3.7zm6.8-.8v-.7c-.5-.3-1.2-.5-2-.5-1.4 0-2.3.6-2.3 1.7 0 1 .8 1.6 2 1.6 1.5 0 2.3-.8 2.3-2.1z" fill="#2D2D2D"/>
  <path d="M103 14h2.3v2H103v-2zm0 4h2.3v10H103V18z" fill="#2D2D2D"/>
  <path d="M109 18h2.2v1.5h.05c.5-1 1.5-1.7 3-1.7 2.1 0 3.3 1.3 3.3 3.6V28h-2.3v-6.1c0-1.3-.65-2-1.8-2s-1.9.8-1.9 2.2V28H109V18z" fill="#2D2D2D"/>
</svg>

