<svg width="330" height="72" viewBox="0 0 330 72" fill="none" xmlns="http://www.w3.org/2000/svg">
<path fill-rule="evenodd" clip-rule="evenodd" d="M319.875 14.6751C321.852 15.4606 323.658 16.6677 325.182 18.222H325.161C326.694 19.7628 327.915 21.621 328.746 23.6822C329.58 25.7433 330.006 27.9638 329.997 30.2067V30.2355C329.994 30.7641 329.793 31.2693 329.439 31.6407C329.085 32.0124 328.605 32.2203 328.11 32.2191H302.766C303.132 34.632 304.155 36.8784 305.709 38.6814C307.263 40.4841 309.279 41.7648 311.508 42.3654C313.737 42.966 316.083 42.8604 318.255 42.0618C320.43 41.2629 322.335 39.8058 323.739 37.8696C323.892 37.6608 324.081 37.4856 324.294 37.3542C324.51 37.2225 324.747 37.1373 324.993 37.1031C325.239 37.0689 325.488 37.0863 325.728 37.1547C325.965 37.2231 326.19 37.341 326.388 37.5015C326.583 37.662 326.748 37.8621 326.871 38.0901C326.997 38.3184 327.075 38.5704 327.108 38.8317C327.141 39.093 327.123 39.3582 327.06 39.6126C326.997 39.867 326.886 40.1055 326.733 40.3143C324.708 43.1001 321.9 45.1269 318.717 46.1001C315.534 47.0736 312.141 46.9431 309.03 45.7275C305.922 44.5119 303.258 42.2748 301.428 39.3408C299.598 36.4068 298.695 32.9289 298.851 29.4123C299.06 25.305 300.69 21.4246 303.426 18.5162C306.162 15.6076 309.813 13.876 313.68 13.6538C315.789 13.5419 317.895 13.8895 319.875 14.6751ZM306.789 20.6553C304.656 22.5827 303.237 25.2533 302.79 28.1896H326.067C325.617 25.2533 324.201 22.5827 322.068 20.6553C319.935 18.728 317.226 17.6697 314.427 17.6697C311.628 17.6697 308.922 18.728 306.789 20.6553Z" fill="#21232F"/>
<path fill-rule="evenodd" clip-rule="evenodd" d="M82.5402 22.947C84.7017 21.9429 87.0513 21.4232 89.4297 21.4234C92.2041 21.4187 94.9347 22.1196 97.371 23.4619C99.8067 24.8042 101.87 26.7446 103.37 29.1044C104.87 31.4643 105.759 34.1679 105.956 36.9663C106.152 39.7647 105.649 42.5682 104.492 45.1185C103.337 47.6688 101.564 49.884 99.3405 51.5604C97.1157 53.2365 94.5102 54.3201 91.7628 54.711C89.0157 55.1019 86.2152 54.7881 83.6196 53.7978C81.0243 52.8075 78.7164 51.1728 76.9095 49.0443V62.1462C76.9218 62.4213 76.8786 62.6955 76.7832 62.9532C76.6878 63.2109 76.5414 63.4461 76.3536 63.6447C76.1655 63.8442 75.9399 64.0023 75.6897 64.1103C75.4395 64.2183 75.1701 64.2747 74.898 64.2747C74.6262 64.2747 74.3568 64.2183 74.1066 64.1103C73.8564 64.0023 73.6302 63.8442 73.4427 63.6447C73.2543 63.4461 73.1079 63.2109 73.0125 62.9532C72.9171 62.6955 72.8745 62.4213 72.8868 62.1462V24.5316C72.9096 24.008 73.1319 23.5138 73.5069 23.1517C73.8816 22.7895 74.3799 22.5874 74.898 22.5874C75.4164 22.5874 75.9147 22.7895 76.2894 23.1517C76.6638 23.5138 76.8861 24.008 76.9095 24.5316V27.2409C78.4584 25.4159 80.379 23.9512 82.5402 22.947ZM99.8445 45.1629C101.22 43.0809 101.955 40.6329 101.955 38.1288C101.95 34.7721 100.63 31.554 98.2824 29.1806C95.9352 26.807 92.7534 25.4716 89.4339 25.4672C86.958 25.4672 84.5373 26.2098 82.4778 27.6011C80.4189 28.9923 78.8145 30.9699 77.8665 33.2835C76.9191 35.5968 76.6713 38.1426 77.1543 40.5987C77.6376 43.0548 78.8301 45.3108 80.5809 47.0817C82.332 48.8526 84.5628 50.0583 86.9913 50.547C89.4198 51.0354 91.9377 50.7846 94.2255 49.8264C96.5133 48.8679 98.4687 47.2452 99.8445 45.1629Z" fill="#21232F"/>
<path fill-rule="evenodd" clip-rule="evenodd" d="M137.623 23.105C137.999 22.7279 138.51 22.516 139.044 22.516C139.577 22.516 140.088 22.7279 140.465 23.105C140.842 23.4821 141.054 23.9936 141.054 24.5269V51.4422C141.054 51.9753 140.842 52.4868 140.465 52.8639C140.088 53.241 139.577 53.4531 139.044 53.4531C138.51 53.4531 137.999 53.241 137.623 52.8639C137.246 52.4868 137.034 51.9753 137.034 51.4422V48.7815C134.83 51.3435 131.895 53.1693 128.624 54.0138C125.352 54.858 121.901 54.6804 118.733 53.5047C115.566 52.329 112.834 50.2113 110.904 47.4366C108.975 44.6616 107.942 41.3625 107.942 37.9824C107.942 34.6023 108.975 31.3032 110.904 28.5284C112.834 25.7536 115.566 23.636 118.733 22.4602C121.901 21.2845 125.352 21.1068 128.624 21.9512C131.895 22.7955 134.83 24.6214 137.034 27.1835V24.5269C137.034 23.9936 137.246 23.4821 137.623 23.105ZM134.924 44.9466C136.3 42.8847 137.034 40.461 137.033 37.9818C137.028 34.6593 135.707 31.4739 133.358 29.1249C131.009 26.7759 127.825 25.4548 124.504 25.4515C122.026 25.4515 119.603 26.1868 117.543 27.5643C115.483 28.9417 113.877 30.8997 112.929 33.1902C111.981 35.4807 111.733 38.0013 112.217 40.4328C112.7 42.8643 113.894 45.0978 115.646 46.8504C117.399 48.6033 119.632 49.7967 122.062 50.28C124.493 50.763 127.012 50.5143 129.302 49.5648C131.591 48.6156 133.547 47.0085 134.924 44.9466Z" fill="#21232F"/>
<path fill-rule="evenodd" clip-rule="evenodd" d="M209.717 23.1026C210.093 22.727 210.602 22.516 211.133 22.516H211.117C211.381 22.5144 211.643 22.565 211.888 22.6648C212.132 22.7647 212.354 22.9119 212.542 23.098C212.73 23.284 212.879 23.5053 212.981 23.7491C213.083 23.993 213.135 24.2545 213.136 24.5187V51.4461C213.136 51.9777 212.925 52.4874 212.549 52.8639C212.174 53.2401 211.664 53.4519 211.133 53.4531C210.601 53.4519 210.092 53.2401 209.717 52.8639C209.341 52.4874 209.13 51.9777 209.13 51.4461V48.7815C206.925 51.3435 203.989 53.1693 200.716 54.0138C197.443 54.858 193.99 54.6804 190.82 53.5047C187.652 52.329 184.918 50.2113 182.988 47.4366C181.058 44.6616 180.023 41.3625 180.023 37.9824C180.023 34.6023 181.058 31.3032 182.988 28.5284C184.918 25.7536 187.652 23.636 190.82 22.4602C193.99 21.2845 197.443 21.1068 200.716 21.9512C203.989 22.7955 206.925 24.6214 209.13 27.1835V24.5187C209.13 23.9876 209.341 23.4782 209.717 23.1026ZM207.026 44.9466C208.403 42.885 209.137 40.461 209.136 37.9818C209.132 34.6593 207.81 31.4742 205.46 29.125C203.11 26.776 199.925 25.4549 196.602 25.4517C194.122 25.4517 191.699 26.1869 189.637 27.5644C187.576 28.9418 185.969 30.8997 185.02 33.1902C184.072 35.4807 183.824 38.0013 184.308 40.4328C184.792 42.8643 185.986 45.0978 187.739 46.8504C189.493 48.6033 191.727 49.7967 194.158 50.28C196.591 50.763 199.111 50.5143 201.401 49.5651C203.692 48.6156 205.649 47.0085 207.026 44.9466Z" fill="#21232F"/>
<path fill-rule="evenodd" clip-rule="evenodd" d="M172.682 23.0927C173.057 22.7193 173.567 22.5096 174.098 22.5096C174.363 22.5079 174.624 22.5583 174.869 22.6576C175.113 22.7569 175.336 22.9033 175.523 23.0884C175.711 23.2734 175.859 23.4935 175.961 23.736C176.063 23.9785 176.116 24.2386 176.116 24.5014V54.1056C176.116 62.8869 169.043 70.0731 160.354 70.1223H160.259C157.115 70.1295 154.039 69.2022 151.427 67.4595C148.815 65.7162 146.786 63.237 145.598 60.3387C145.476 60.0396 145.429 59.7144 145.462 59.3931C145.495 59.0712 145.607 58.7628 145.788 58.494C145.99 58.1934 146.271 57.9528 146.6 57.7983C146.929 57.6444 147.293 57.5811 147.656 57.6171C148.018 57.6528 148.363 57.7857 148.655 58.0011C148.947 58.2171 149.175 58.5075 149.314 58.842C150.2 60.9828 151.701 62.8164 153.629 64.1127C155.557 65.409 157.826 66.1107 160.153 66.1302C161.699 66.1395 163.233 65.8419 164.662 65.2548C166.092 64.6683 167.39 63.8031 168.48 62.7111C170.778 60.4446 172.078 57.3624 172.093 54.1422V48.6369C169.889 51.1848 166.954 53.0001 163.683 53.8395C160.412 54.6789 156.962 54.5019 153.794 53.3322C150.627 52.1628 147.896 50.0565 145.967 47.2968C144.038 44.5371 143.004 41.256 143.004 37.8945C143.004 34.533 144.038 31.2516 145.967 28.492C147.896 25.7323 150.627 23.6262 153.794 22.4566C156.962 21.287 160.412 21.1099 163.683 21.9493C166.954 22.7886 169.889 24.6041 172.093 27.1518V24.5014C172.094 23.9728 172.306 23.4661 172.682 23.0927ZM169.982 44.823C171.359 42.7716 172.094 40.3602 172.093 37.8933C172.089 34.593 170.771 31.4286 168.428 29.0929C166.084 26.7572 162.907 25.4405 159.59 25.4308C157.111 25.4259 154.687 26.153 152.623 27.5201C150.56 28.8871 148.95 30.8328 147.998 33.1104C147.047 35.3883 146.795 37.896 147.276 40.3158C147.757 42.7359 148.948 44.9595 150.7 46.7052C152.451 48.4512 154.684 49.6404 157.115 50.1231C159.546 50.6055 162.066 50.3595 164.357 49.416C166.647 48.4728 168.605 46.8741 169.982 44.823Z" fill="#21232F"/>
<path d="M227.384 40.9341C226.558 40.6887 225.827 40.1517 225.306 39.4062C224.785 38.6607 224.502 37.7481 224.501 36.8088V1.96244C224.501 1.44197 224.312 0.942813 223.977 0.574782C223.641 0.206756 223.186 0 222.711 0C222.237 0 221.781 0.206756 221.446 0.574782C221.11 0.942813 220.922 1.44197 220.922 1.96244V36.8046C220.923 38.6127 221.468 40.3701 222.473 41.8032C223.479 43.2366 224.887 44.2656 226.48 44.7306C226.742 44.8098 227.016 44.8203 227.282 44.7618C227.548 44.7033 227.797 44.577 228.01 44.3937C228.229 44.2098 228.407 43.9728 228.529 43.7013C228.651 43.4298 228.713 43.131 228.713 42.8283C228.712 42.3963 228.581 41.9763 228.34 41.6334C228.101 41.2905 227.765 41.0436 227.384 40.9302" fill="#21232F"/>
<path fill-rule="evenodd" clip-rule="evenodd" d="M235.533 18.4974C238.439 15.5897 242.316 13.8586 246.42 13.6364V13.6528C248.659 13.5483 250.894 13.8987 252.993 14.683C255.091 15.4672 257.009 16.669 258.631 18.2157C260.252 19.7624 261.543 21.6219 262.426 23.6819C263.309 25.7419 263.765 27.9595 263.767 30.2007C263.764 30.7326 263.55 31.2414 263.172 31.6155C262.794 31.9896 262.283 32.1984 261.752 32.1963H234.852C235.242 34.6077 236.329 36.8523 237.978 38.6535C239.627 40.455 241.766 41.7348 244.133 42.3351C246.5 42.9354 248.99 42.8304 251.298 42.0327C253.606 41.2347 255.63 39.7794 257.121 37.8453C257.278 37.6284 257.478 37.4451 257.707 37.3065C257.937 37.1679 258.192 37.0767 258.457 37.0383C258.722 36.9996 258.992 37.0149 259.252 37.0824C259.511 37.1502 259.754 37.2693 259.966 37.4325C260.179 37.5957 260.357 37.8 260.49 38.0331C260.622 38.2662 260.707 38.5233 260.738 38.7897C260.769 39.0558 260.747 39.3258 260.673 39.5832C260.598 39.8409 260.473 40.0809 260.304 40.2894C258.156 43.0833 255.172 45.1176 251.787 46.0965C248.403 47.0751 244.794 46.947 241.487 45.7305C238.18 44.5143 235.348 42.2733 233.402 39.3339C231.458 36.3948 230.502 32.9112 230.674 29.3903C230.896 25.2843 232.627 21.405 235.533 18.4974ZM239.1 20.6361C236.835 22.5629 235.33 25.2328 234.853 28.1683H259.573C259.096 25.2328 257.59 22.5629 255.326 20.6361C253.061 18.7094 250.185 17.6514 247.213 17.6514C244.24 17.6514 241.364 18.7094 239.1 20.6361Z" fill="#21232F"/>
<path d="M294.936 13.6348C294.579 13.6372 294.23 13.7369 293.927 13.9227C293.624 14.1086 293.379 14.3734 293.218 14.6882L280.323 39.5553L267.433 14.6882C267.273 14.3734 267.028 14.1086 266.724 13.9227C266.421 13.7369 266.073 13.6372 265.716 13.6348C265.377 13.6355 265.045 13.7247 264.753 13.8934C264.461 14.062 264.219 14.3041 264.052 14.595C263.878 14.8891 263.782 15.2219 263.772 15.5625C263.763 15.9032 263.841 16.2406 263.998 16.5437L277.869 43.2828C278.094 43.7376 278.444 44.121 278.878 44.3892C279.313 44.6571 279.815 44.7993 280.328 44.7993C280.84 44.7993 281.342 44.6571 281.777 44.3892C282.212 44.121 282.562 43.7376 282.787 43.2828L296.657 16.5437C296.815 16.2406 296.893 15.9032 296.883 15.5625C296.874 15.2219 296.778 14.8891 296.604 14.595C296.437 14.3035 296.196 14.061 295.903 13.8923C295.611 13.7235 295.279 13.6347 294.94 13.6348" fill="#21232F"/>
<path d="M13.7502 20.481C13.0996 19.6472 12.6952 18.6469 12.5832 17.5939C12.4711 16.5409 12.6559 15.4775 13.1164 14.5246C13.5769 13.5718 14.2947 12.7679 15.1881 12.2044C16.0815 11.6409 17.1146 11.3404 18.1697 11.3372C18.3973 11.338 18.6247 11.3525 18.8505 11.3806C19.585 11.4674 20.295 11.6997 20.9394 12.0637C21.5839 12.4278 22.15 12.9165 22.6049 13.5017L34.2105 28.3292C38.9586 28.236 43.6893 27.7205 48.3465 26.7888L52.2348 21.8318C53.6286 20.0509 54.261 17.7873 53.9919 15.5388C53.7228 13.2903 52.5747 11.2412 50.8002 9.84221C49.026 8.44319 46.7706 7.80893 44.5302 8.0789C42.2898 8.3489 40.2483 9.50102 38.8542 11.2819L32.1246 19.8727L25.407 11.2898C23.8973 9.37592 21.6935 8.14037 19.2782 7.85387C16.8629 7.56731 14.4328 8.25302 12.5202 9.76094C10.6076 11.2688 9.36826 13.476 9.0736 15.899C8.77897 18.3221 9.45304 20.7636 10.9482 22.6889L14.0493 26.6387C15.6983 27.01 17.4614 27.322 19.311 27.5708L13.7502 20.481Z" fill="#12F2AA"/>
<path d="M29.8598 48.2363L22.6069 57.5024C21.674 58.6502 20.3295 59.3846 18.8627 59.5478C17.3958 59.7104 15.9238 59.2895 14.7634 58.3742C13.603 57.4589 12.8468 56.1233 12.6577 54.6542C12.4686 53.1851 12.8615 51.7004 13.7521 50.5193L18.3408 44.6537C16.9556 44.4854 15.5991 44.2892 14.2716 44.0654L10.9501 48.3035C10.1989 49.2557 9.64248 50.3474 9.31275 51.5162C8.98296 52.6847 8.88636 53.9072 9.02838 55.1135C9.17046 56.3195 9.5484 57.4856 10.1406 58.5455C10.7327 59.6045 11.5274 60.536 12.4791 61.2863C13.4308 62.0363 14.5208 62.5907 15.6864 62.9174C16.852 63.2438 18.0704 63.3362 19.2716 63.1892C20.473 63.0422 21.6334 62.6585 22.6866 62.06C23.7398 61.4618 24.6649 60.6605 25.4088 59.7026L32.1267 51.1274L38.8563 59.7224C40.2603 61.472 42.2952 62.5964 44.5197 62.8505C46.7439 63.1052 48.9786 62.4692 50.739 61.0811C52.4994 59.6933 53.6439 57.665 53.9241 55.4354C54.2043 53.2064 53.5983 50.9561 52.2366 49.1723L48.3012 44.1521C42.9294 44.9963 37.5009 45.428 32.0637 45.4439L29.8598 48.2363Z" fill="#12F2AA"/>
<path d="M19.3119 27.5815L23.448 32.8665C24.0369 33.6165 24.3572 34.5438 24.3572 35.499C24.3572 36.4539 24.0369 37.3812 23.448 38.1315L22.8892 38.8464L18.3398 44.6526C22.7124 45.1764 27.1121 45.4404 31.5156 45.4425H32.0628L37.0962 38.9925C37.8762 37.9971 38.3001 36.7674 38.3001 35.5008C38.3001 34.2345 37.8762 33.0048 37.0962 32.0091L34.2153 28.328C29.2357 28.4738 24.2524 28.2241 19.3119 27.5815Z" fill="#DA38EB"/>
<path d="M62.3931 31.6851C61.7544 29.5171 60.2844 27.692 58.3062 26.6108C56.328 25.5295 54.0033 25.2805 51.8421 25.9186C50.7519 26.2385 49.587 26.5308 48.363 26.7875L41.5314 35.5008L48.3003 44.1507C51.1185 43.7076 53.9064 43.0878 56.6475 42.2943C57.7191 41.9769 58.7178 41.4504 59.5863 40.7451C60.4551 40.0401 61.1769 39.1701 61.7106 38.1846C62.244 37.1994 62.5788 36.1182 62.6961 35.0031C62.8131 33.888 62.7105 32.7606 62.3931 31.6851Z" fill="#DA38EB"/>
<path d="M20.6456 35.0745L14.0617 26.6497C13.0699 26.4246 12.1176 26.1837 11.2203 25.919C10.1367 25.5533 8.99067 25.4105 7.85079 25.4992C6.71094 25.5879 5.60052 25.9062 4.58601 26.4352C3.57144 26.9642 2.67352 27.6929 1.94586 28.578C1.21819 29.463 0.675705 30.4863 0.350802 31.5864C0.025898 32.6865 -0.0747574 33.8412 0.0548462 34.9812C0.18445 36.1212 0.541653 37.2234 1.10512 38.2218C1.66859 39.2202 2.42677 40.0944 3.33438 40.7922C4.242 41.49 5.28039 41.997 6.38757 42.2829C8.97333 43.0335 11.6017 43.6269 14.2585 44.0604L20.6456 35.9238C20.7411 35.8032 20.7931 35.6535 20.7931 35.4993C20.7931 35.3451 20.7411 35.1954 20.6456 35.0745Z" fill="#DA38EB"/>
<path d="M22.8897 38.8455L23.4486 38.1306C24.0375 37.3803 24.3577 36.453 24.3577 35.4981C24.3577 34.5429 24.0375 33.6156 23.4486 32.8653L19.3125 27.5806C17.4628 27.3318 15.6997 27.0197 14.0508 26.6484L20.6466 35.0733C20.742 35.1942 20.7939 35.3439 20.7939 35.4981C20.7939 35.6523 20.742 35.8017 20.6466 35.9226L14.2712 44.0709C15.5961 44.2923 16.9525 44.4882 18.3404 44.6595L22.8897 38.8455Z" fill="#24359C"/>
<path d="M48.3474 26.7891C43.6911 27.7206 38.9619 28.2361 34.2153 28.3294L37.0959 32.0145C37.878 33.0093 38.3031 34.2393 38.3031 35.5062C38.3031 36.7731 37.878 38.0034 37.0959 38.9979L32.0625 45.444C37.5 45.4281 42.9282 44.9964 48.3 44.1522L41.5311 35.5023L48.3474 26.7891Z" fill="#24359C"/>
</svg>
