<svg xmlns="http://www.w3.org/2000/svg" viewBox="0 0 140 40" fill="none">
  <!-- Ping Identity Logo Mark -->
  <circle cx="16" cy="20" r="8" fill="#B8232F"/>
  <circle cx="16" cy="20" r="4" fill="white"/>
  <!-- Ping Text -->
  <path d="M32 14h5.5c2.5 0 4 1.5 4 3.8s-1.5 3.8-4 3.8H34.3V28H32V14zm5.2 5.8c1.2 0 1.9-.7 1.9-2s-.7-2-1.9-2H34.3v4h2.9z" fill="#2D2D2D"/>
  <path d="M44 14h2.3v2h-2.3v-2zm0 4h2.3v10H44V18z" fill="#2D2D2D"/>
  <path d="M50 18h2.2v1.5h.05c.5-1 1.5-1.7 3-1.7 2.1 0 3.3 1.3 3.3 3.6V28h-2.3v-6.1c0-1.3-.65-2-1.8-2s-1.9.8-1.9 2.2V28H50V18z" fill="#2D2D2D"/>
  <path d="M61 24.5c0-2.4 1.7-3.8 4.3-3.8 1 0 1.8.2 2.5.5v-.3c0-1.3-.8-2-2.3-2-1.1 0-2 .4-2.8 1.1l-1.2-1.6c1.1-1 2.5-1.5 4.3-1.5 2.8 0 4.4 1.4 4.4 4V28h-2.2v-1.2c-.6.9-1.6 1.4-3 1.4-2 0-4-1.2-4-3.7zm6.8-.8v-.7c-.5-.3-1.2-.5-2-.5-1.4 0-2.3.6-2.3 1.7 0 1 .8 1.6 2 1.6 1.5 0 2.3-.8 2.3-2.1z" fill="#2D2D2D"/>
  <!-- Identity Text -->
  <path d="M78 14h2.3v2H78v-2zm0 4h2.3v10H78V18z" fill="#2D2D2D"/>
  <path d="M84 23c0-3 2.2-5.2 5.2-5.2 1.6 0 2.9.6 3.7 1.5V14h2.3v14h-2.2v-1.3c-.7 1-2 1.5-3.5 1.5-3.1 0-5.5-2-5.5-5.2zm8.9.05c0-1.9-1.2-3.1-2.9-3.1s-3 1.2-3 3.05c0 1.85 1.3 3.05 3 3.05s2.9-1.2 2.9-3z" fill="#2D2D2D"/>
</svg>

