<svg width="340" height="72" viewBox="0 0 340 72" fill="none" xmlns="http://www.w3.org/2000/svg">
<path fill-rule="evenodd" clip-rule="evenodd" d="M57.4758 12.9172C61.0824 12.9172 64.0062 10.0359 64.0062 6.48173C64.0062 2.92753 61.0824 0.0462646 57.4758 0.0462646C53.869 0.0462646 50.9451 2.92753 50.9451 6.48173C50.9451 10.0359 53.869 12.9172 57.4758 12.9172Z" fill="#027737"/>
<path fill-rule="evenodd" clip-rule="evenodd" d="M63.3398 16.1404H51.6151V55.7811H63.3398V16.1404Z" fill="#027737"/>
<path fill-rule="evenodd" clip-rule="evenodd" d="M246.158 12.9172C249.764 12.9172 252.688 10.0359 252.688 6.48173C252.688 2.92753 249.764 0.0462646 246.158 0.0462646C242.551 0.0462646 239.627 2.92753 239.627 6.48173C239.627 10.0359 242.551 12.9172 246.158 12.9172Z" fill="#027737"/>
<path fill-rule="evenodd" clip-rule="evenodd" d="M252.022 16.1404H240.297V55.7811H252.022V16.1404Z" fill="#027737"/>
<path fill-rule="evenodd" clip-rule="evenodd" d="M337.285 34.6541C337.285 23.3395 328.13 15.2693 317.13 15.2693C304.766 15.2693 295.771 23.7357 295.771 35.9213C295.771 47.9498 304.204 56.5731 317.13 56.5731C328.13 56.5731 335.437 49.8486 336.802 42.4102H325.479C324.193 45.6549 320.419 47.4751 316.889 47.4751C312.151 47.3965 308.619 44.6267 307.577 38.6125H337.203L337.285 34.6541ZM307.816 31.4097C309.102 25.556 313.516 24.1318 317.127 24.1318C320.823 24.1318 325.159 25.9522 325.718 31.4097H307.816Z" fill="#027737"/>
<path fill-rule="evenodd" clip-rule="evenodd" d="M287.1 16.1404H299.144L282.761 55.7811H270.4L254.018 16.1404H266.626L276.822 42.4068L287.1 16.1404Z" fill="#027737"/>
<path fill-rule="evenodd" clip-rule="evenodd" d="M222.625 22.4689C225.356 18.275 229.692 15.5837 234.669 15.5837C235.552 15.5837 236.675 15.6623 237.4 15.9014V26.7414C236.436 26.5843 235.393 26.5058 234.429 26.5058C226.881 26.5058 222.948 31.967 222.948 39.7978V55.7812H211.307V26.5843C211.307 25.9526 211.064 25.792 210.343 25.792H206.326V16.1405H216.442C220.539 16.1405 222.625 18.0394 222.625 21.6016V22.4689Z" fill="#027737"/>
<path fill-rule="evenodd" clip-rule="evenodd" d="M204.236 46.1262C203.595 46.1262 203.432 45.969 203.432 45.3337V5.77512C203.432 1.82035 201.346 0 197.09 0H186.894V9.57287H190.668C191.389 9.57287 191.632 9.80845 191.632 10.4438V19.7811C190.107 17.8037 185.851 15.2695 180.15 15.2695C168.827 15.2695 160.558 23.7359 160.558 35.9214C160.558 48.3427 168.509 56.5734 179.828 56.5734C186.17 56.5734 190.668 53.4074 192.353 50.7982C192.512 52.5401 193.718 55.7848 198.053 55.7848H208.413V46.1332H204.236V46.1262ZM182.236 47.0755C176.615 47.0755 172.522 42.8032 172.522 35.918C172.522 29.3505 176.698 24.9209 182.316 24.9209C188.658 24.9209 191.871 30.4604 191.871 35.8394C191.871 44.2271 186.735 47.0755 182.236 47.0755Z" fill="#027737"/>
<path fill-rule="evenodd" clip-rule="evenodd" d="M157.987 34.6541C157.987 23.3395 148.834 15.2693 137.834 15.2693C125.468 15.2693 116.475 23.7357 116.475 35.9213C116.475 47.9498 124.907 56.5731 137.834 56.5731C148.834 56.5731 156.139 49.8486 157.505 42.4102H146.182C144.897 45.6549 141.123 47.4751 137.591 47.4751C132.853 47.3965 129.322 44.6267 128.279 38.6125H157.907L157.987 34.6541ZM128.522 31.4097C129.807 25.556 134.223 24.1318 137.834 24.1318C141.528 24.1318 145.864 25.9522 146.425 31.4097H128.522Z" fill="#027737"/>
<path fill-rule="evenodd" clip-rule="evenodd" d="M94.9599 15.2693C88.3753 15.2693 83.7174 18.6708 81.9533 21.5976C81.6309 19.9344 80.5082 16.1366 76.0132 16.1366H66.2194V25.7916H70.2325C70.9534 25.7916 71.1163 25.9486 71.1163 26.584V71.9997H82.8407V54.4353L82.7612 51.5869C84.4453 54.3566 88.944 56.5731 94.4022 56.5731C105.884 56.5731 113.914 48.1854 113.914 35.9213C113.907 23.575 106.279 15.2693 94.9599 15.2693ZM91.9864 47.0752C85.6441 47.0752 82.5908 41.4573 82.5908 36.0783C82.5908 27.851 87.6508 24.9207 92.1459 24.9207C97.6041 24.9207 101.94 29.4322 101.94 35.9961C101.943 43.7524 96.6443 47.0752 91.9864 47.0752Z" fill="#027737"/>
<path fill-rule="evenodd" clip-rule="evenodd" d="M48.8699 35.9214C48.8699 48.1855 40.8399 56.5735 29.3581 56.5735C23.8996 56.5735 19.4011 54.357 17.7168 51.5872L17.7965 54.4354V72H6.07564V26.5842C6.07564 25.9524 5.91628 25.7918 5.19188 25.7918H1.17505V16.1404H10.9726C15.4675 16.1404 16.594 19.9381 16.9127 21.6015C18.6803 18.6746 23.3346 15.2731 29.9195 15.2731C41.2417 15.2695 48.8699 23.5753 48.8699 35.9214ZM36.9062 36C36.9062 29.4325 32.5707 24.9245 27.1087 24.9245C22.6138 24.9245 17.5538 27.8513 17.5538 36.082C17.5538 41.461 20.6036 47.0792 26.9494 47.0792C31.6072 47.0756 36.9062 43.7525 36.9062 36Z" fill="#027737"/>
</svg>
