<svg width="276" height="72" viewBox="0 0 276 72" fill="none" xmlns="http://www.w3.org/2000/svg">
<g clip-path="url(#clip0_4_104)">
<path d="M43.6334 0.000480359C36.1976 0.027094 29.3393 2.58251 23.7987 6.88858C18.2606 11.192 14.0376 17.2461 11.8774 24.2592C11.7899 24.5466 11.6549 24.8105 11.4849 25.043C11.3098 25.2782 11.0998 25.4794 10.8623 25.6414C7.43691 27.9695 4.61909 31.1834 2.71388 34.9747C0.806171 38.7634 -0.18894 43.1295 0.0310848 47.7596C0.34612 54.4539 3.25644 60.3564 7.69194 64.5763C12.1249 68.7987 18.0856 71.3411 24.5013 71.3179H43.8685H63.2356C69.6488 71.294 75.592 68.6733 80 64.3881C84.408 60.0977 87.2783 54.1429 87.5483 47.4435C87.7408 42.8134 86.7132 38.4551 84.7805 34.6768C82.8503 30.9012 80.0125 27.7082 76.5746 25.4088C76.3321 25.2442 76.1195 25.043 75.947 24.8131C75.772 24.5805 75.6395 24.3193 75.5495 24.0318C73.3417 17.0345 69.0813 11.0117 63.5106 6.74487C57.945 2.48061 51.0693 -0.027777 43.6334 0.000480359ZM43.6634 8.89756C49.1515 8.877 54.3621 10.7792 58.5951 14.0558C62.8306 17.335 66.0834 21.9885 67.6611 27.4783L68.0011 28.6671L68.3437 29.856C68.4337 30.1643 68.5762 30.4465 68.7637 30.6974C68.9487 30.9482 69.1813 31.1598 69.4463 31.3245L70.4689 31.9542L71.494 32.5865C73.9468 34.0967 75.8895 36.2106 77.1922 38.6928C78.4948 41.1725 79.1549 44.0179 79.0474 46.9966C78.8898 51.321 77.0271 55.1541 74.1743 57.9107C71.319 60.6674 67.4686 62.3475 63.3306 62.3605L43.8385 62.4337L24.3463 62.5018C20.2083 62.5173 16.3454 60.8659 13.4726 58.1276C10.5998 55.3919 8.71705 51.5718 8.52953 47.2501C8.39951 44.2714 9.04459 41.4233 10.3297 38.9306C11.6149 36.4405 13.5451 34.3136 15.9904 32.7851L17.0105 32.1475L18.0281 31.51C18.2906 31.3427 18.5206 31.1285 18.7057 30.8776C18.8907 30.6268 19.0332 30.3394 19.1182 30.0311L19.4532 28.8396L19.7883 27.6507C21.326 22.1505 24.5513 17.4708 28.7643 14.1629C32.9747 10.855 38.1728 8.91619 43.6634 8.89756Z" fill="#03A94A"/>
<path d="M37.0341 30.4959C37.0341 31.0185 36.8341 31.4941 36.5066 31.839C36.1791 32.1839 35.7265 32.3981 35.2239 32.4007L33.3962 32.406L31.566 32.4138C31.066 32.4138 30.6134 32.2022 30.2834 31.8599C29.9534 31.5202 29.7483 31.0473 29.7458 30.5247L29.7383 28.612L29.7308 26.6994C29.7308 26.1768 29.9334 25.7013 30.2609 25.3564C30.5884 25.0115 31.041 24.7972 31.5435 24.7946L33.3712 24.7894L35.2014 24.7815C35.7015 24.7815 36.154 24.9958 36.4841 25.3355C36.8141 25.6777 37.0191 26.1507 37.0216 26.6733L37.0291 28.5859L37.0341 30.4959ZM47.3821 30.4959C47.3845 31.0185 47.182 31.4941 46.8545 31.839C46.5269 32.1839 46.0744 32.3981 45.5718 32.4007L43.7441 32.406L41.9139 32.4138C41.4139 32.4138 40.9613 32.2022 40.6313 31.8599C40.3013 31.5202 40.0962 31.0473 40.0937 30.5247L40.0862 28.612L40.0812 26.6994C40.0787 26.1768 40.2813 25.7013 40.6088 25.3564C40.9363 25.0115 41.3914 24.7972 41.8914 24.7946L43.7191 24.7894L45.5493 24.7815C46.0494 24.7815 46.5019 24.9958 46.832 25.3355C47.162 25.6777 47.367 26.1507 47.3695 26.6733L47.377 28.5859L47.3821 30.4959ZM57.7322 30.4986C57.7322 31.0211 57.5297 31.4967 57.2021 31.8416C56.8746 32.1865 56.4221 32.4007 55.9195 32.4034L54.0918 32.4086L52.2616 32.4139C51.7615 32.4164 51.3065 32.2048 50.9764 31.8625C50.6464 31.5228 50.4414 31.0473 50.4414 30.5247L50.4339 28.612L50.4288 26.702C50.4264 26.1768 50.6289 25.7013 50.9564 25.3564C51.284 25.0115 51.7365 24.7972 52.2391 24.7946L54.0668 24.7894L55.897 24.7815C56.3995 24.7711 56.8596 24.9696 57.1971 25.3067C57.5347 25.6412 57.7522 26.1089 57.7647 26.6341V26.655V26.6733L57.7472 28.5859L57.7322 30.4986ZM37.0389 41.3073C37.0389 41.8299 36.8389 42.3055 36.5088 42.6504C36.1813 42.9953 35.7313 43.2095 35.2287 43.2122L33.401 43.2174L31.5708 43.2252C31.0707 43.2252 30.6182 43.0136 30.2881 42.6713C29.9581 42.3316 29.7531 41.8587 29.7481 41.3361L29.7431 39.4208L29.7356 37.5108C29.7356 36.9882 29.9381 36.5127 30.2656 36.1678C30.5932 35.8229 31.0457 35.6086 31.5458 35.606L33.376 35.5982L35.2062 35.5929C35.7062 35.5929 36.1588 35.8072 36.4888 36.1469C36.8189 36.4892 37.0239 36.9621 37.0264 37.4847L37.0339 39.3973L37.0389 41.3073ZM47.3868 41.3073C47.3868 41.8299 47.1868 42.3055 46.8592 42.6504C46.5317 42.9953 46.0792 43.2095 45.5766 43.2122L43.7489 43.2174L41.9187 43.2252C41.4186 43.2252 40.9661 43.0136 40.636 42.6713C40.306 42.3316 40.101 41.8587 40.0985 41.3361L40.091 39.4208L40.0835 37.5108C40.0835 36.9882 40.286 36.5127 40.6135 36.1678C40.9411 35.8229 41.3936 35.6086 41.8962 35.606L43.7239 35.5982L45.5541 35.5929C46.0541 35.5929 46.5067 35.8072 46.8367 36.1469C47.1668 36.4892 47.3718 36.9621 47.3743 37.4847L47.3818 39.3973L47.3868 41.3073ZM57.7347 41.3073C57.7347 41.8299 57.5347 42.3055 57.2071 42.6504C56.8796 42.9953 56.4271 43.2095 55.9245 43.2122L54.0968 43.2174L52.2666 43.2252C51.7665 43.2252 51.3115 43.0162 50.9814 42.6739C50.6514 42.3342 50.4464 41.8587 50.4464 41.3361L50.4389 39.4208L50.4314 37.5108C50.4314 36.9882 50.6314 36.5127 50.9614 36.1678C51.289 35.8229 51.7415 35.6086 52.2441 35.606L54.0718 35.5982L55.902 35.5929C56.402 35.5929 56.8546 35.8072 57.1846 36.1469C57.5147 36.4892 57.7197 36.9621 57.7222 37.4847L57.7297 39.3973L57.7347 41.3073ZM37.0439 52.1164C37.0464 52.639 36.8439 53.1171 36.5163 53.4621C36.1888 53.8043 35.7363 54.0212 35.2337 54.0212L33.406 54.0264L31.5758 54.0317C31.0732 54.0343 30.6207 53.8226 30.2906 53.4803C29.9606 53.1407 29.7556 52.6677 29.7531 52.1425L29.7481 50.2299L29.7406 48.3199C29.7406 47.7973 29.9431 47.3217 30.2706 46.9768C30.5982 46.6319 31.0507 46.4177 31.5508 46.415L33.3785 46.4072L35.2112 46.4019C35.7112 46.3994 36.1638 46.6136 36.4938 46.9533C36.8239 47.2956 37.0289 47.7712 37.0314 48.2937L37.0364 50.2064L37.0439 52.1164ZM47.3918 52.1164C47.3943 52.639 47.1918 53.1171 46.8642 53.4621C46.5367 53.8043 46.0842 54.0212 45.5816 54.0212L43.7539 54.0264L41.9237 54.0317C41.4211 54.0343 40.9686 53.8226 40.6385 53.4803C40.3085 53.1407 40.1035 52.6677 40.101 52.1425L40.096 50.2299L40.0885 48.3199C40.0885 47.7973 40.291 47.3217 40.6185 46.9768C40.9461 46.6319 41.3986 46.4177 41.8987 46.415L43.7289 46.4072L45.5591 46.4019C46.0591 46.3994 46.5117 46.6136 46.8417 46.9533C47.1718 47.2956 47.3768 47.7712 47.3793 48.2937L47.3868 50.2064L47.3918 52.1164ZM57.7395 52.1164C57.7419 52.639 57.5394 53.1171 57.2119 53.4621C56.8844 53.8043 56.4318 54.0212 55.9292 54.0212L54.1015 54.0264L52.2713 54.0317C51.7688 54.0343 51.3162 53.8226 50.9862 53.4803C50.6562 53.1407 50.4511 52.6677 50.4486 52.1425L50.4436 50.2299L50.4361 48.3199C50.4361 47.7973 50.6362 47.3191 50.9637 46.9742C51.2912 46.6293 51.7463 46.415 52.2488 46.415L54.0765 46.4072L55.9067 46.4019C56.4068 46.3994 56.8594 46.6136 57.1894 46.9533C57.5194 47.2956 57.7244 47.7712 57.7269 48.2937L57.7344 50.2064L57.7395 52.1164Z" fill="#03A94A"/>
<path d="M130.382 43.4511C131.122 42.6123 131.674 41.622 132.039 40.475C132.41 39.3305 132.59 38.0319 132.585 36.5791C132.58 35.1237 132.389 33.8251 132.014 32.6859C131.639 31.5414 131.079 30.5538 130.337 29.7203C129.594 28.8893 128.744 28.2649 127.794 27.8494C126.841 27.4366 125.786 27.2302 124.629 27.2352C123.469 27.2406 122.416 27.4523 121.468 27.8729C120.521 28.2936 119.676 28.9233 118.938 29.7621C118.198 30.6008 117.643 31.5911 117.278 32.7355C116.91 33.8826 116.73 35.1812 116.735 36.6366C116.74 38.0868 116.928 39.3854 117.305 40.5298C117.678 41.6691 118.238 42.6567 118.981 43.4929C119.726 44.3238 120.573 44.9483 121.526 45.3611C122.476 45.7765 123.531 45.983 124.691 45.9779C125.849 45.9725 126.901 45.7609 127.849 45.3402C128.799 44.9195 129.642 44.2872 130.382 43.4511ZM135.195 18.7278C136.597 19.5587 137.858 20.5646 138.978 21.7483C140.093 22.9293 141.063 24.2906 141.893 25.8244C142.721 27.3582 143.343 29.02 143.758 30.802C144.176 32.5866 144.388 34.4966 144.394 36.5321C144.401 38.5649 144.201 40.475 143.796 42.2622C143.391 44.0494 142.778 45.7138 141.963 47.2528C141.145 48.7944 140.18 50.1584 139.073 51.3499C137.963 52.5413 136.71 53.5552 135.312 54.3965C133.912 55.2379 132.435 55.8702 130.877 56.2935C129.319 56.7142 127.686 56.9284 125.969 56.9363C123.769 56.9441 121.803 56.607 120.066 55.9224C118.325 55.2431 116.81 54.211 115.51 52.8366L115.513 60.7511V68.6656C115.515 69.3789 115.24 70.0243 114.798 70.4946C114.35 70.9623 113.735 71.255 113.052 71.2576L108.917 71.2706L104.784 71.2837C104.101 71.2863 103.481 71.0015 103.034 70.5364C102.586 70.0713 102.306 69.4259 102.306 68.7152L102.241 43.9919L102.179 19.2686C102.176 18.5579 102.451 17.9125 102.896 17.4422C103.341 16.9719 103.959 16.6819 104.639 16.6793L108.459 16.6662L112.282 16.6531C112.965 16.6505 113.582 16.9379 114.03 17.4004C114.48 17.8681 114.758 18.5109 114.76 19.2242L114.745 20.0473L114.73 20.8703C115.953 19.3418 117.49 18.1921 119.341 17.4239C121.191 16.6531 123.356 16.2664 125.839 16.2558C127.551 16.2507 129.187 16.4519 130.747 16.8648C132.309 17.275 133.79 17.8995 135.195 18.7278ZM152.867 3.03519L157 3.01951L161.138 3.0038C161.818 3.00122 162.436 3.28864 162.886 3.75374C163.336 4.21884 163.613 4.86422 163.616 5.57755V29.9481V54.3186C163.618 55.0294 163.343 55.6747 162.898 56.1451C162.453 56.6128 161.838 56.9028 161.153 56.9054L157.02 56.9211L152.885 56.9368C152.202 56.9394 151.585 56.6546 151.137 56.1869C150.69 55.7218 150.412 55.0764 150.41 54.3657V29.9925L150.407 5.62197C150.405 4.91126 150.68 4.26587 151.125 3.79555C151.567 3.32784 152.187 3.0378 152.867 3.03519ZM230.976 20.9785L227.616 29.5645L224.256 38.1531L220.895 46.7417L217.532 55.3304C217.437 55.5734 217.31 55.7928 217.16 55.9888C217.005 56.1848 216.827 56.3546 216.627 56.4931C216.43 56.6342 216.212 56.7439 215.98 56.8197C215.75 56.8929 215.507 56.9347 215.257 56.9347H212.672H210.087L207.499 56.9373H204.914C204.664 56.9373 204.418 56.8981 204.186 56.8249C203.956 56.7518 203.736 56.642 203.536 56.5062C203.338 56.3651 203.158 56.1978 203.003 56.0019C202.848 55.8085 202.721 55.5864 202.623 55.346L199.253 46.76L195.885 38.1767L192.512 29.5933L189.144 21.0073C188.974 20.584 188.924 20.1502 188.967 19.7348C189.012 19.3219 189.149 18.93 189.367 18.5877C189.582 18.248 189.877 17.9632 190.224 17.7594C190.572 17.5556 190.975 17.4407 191.415 17.438L193.462 17.4302L195.508 17.4224L197.555 17.4145L199.6 17.4091C199.855 17.4067 200.101 17.4459 200.336 17.5217C200.571 17.5974 200.793 17.7098 200.993 17.8509C201.196 17.992 201.376 18.167 201.531 18.3656C201.683 18.5642 201.811 18.7889 201.906 19.0371L204.028 24.6287L206.151 30.2256L208.276 35.8198L210.402 41.414L212.589 35.8224L214.782 30.2308L216.975 24.6392L219.168 19.0476C219.26 18.8072 219.388 18.5825 219.543 18.3839C219.695 18.1853 219.878 18.0103 220.075 17.8666C220.273 17.7228 220.493 17.6079 220.72 17.5295C220.953 17.4511 221.195 17.4091 221.445 17.4091L223.256 17.4119L225.066 17.4145L226.874 17.4171L228.684 17.4197C229.124 17.4197 229.529 17.5347 229.879 17.7333C230.226 17.9345 230.519 18.2193 230.739 18.5564C230.956 18.896 231.101 19.2906 231.146 19.7034C231.194 20.1163 231.141 20.5526 230.976 20.9785ZM259.483 42.9763C260.221 42.1402 260.776 41.142 261.141 39.9819C261.508 38.827 261.691 37.5075 261.686 36.0312C261.681 34.5784 261.491 33.285 261.116 32.1458C260.741 31.0118 260.181 30.032 259.436 29.2089C258.693 28.3911 257.845 27.777 256.893 27.3668C255.943 26.9592 254.888 26.758 253.727 26.7606C252.57 26.7658 251.515 26.9749 250.57 27.3903C249.62 27.8058 248.777 28.4276 248.039 29.2507C247.299 30.0764 246.744 31.0588 246.379 32.2007C246.012 33.3399 245.832 34.6359 245.836 36.0887C245.842 37.5676 246.029 38.8819 246.407 40.0368C246.779 41.1917 247.339 42.1846 248.082 43.0181C248.827 43.8516 249.675 44.4735 250.627 44.8863C251.577 45.3044 252.632 45.5082 253.792 45.5056C254.95 45.5004 256 45.2887 256.95 44.868C257.9 44.4447 258.743 43.815 259.483 42.9763ZM242.904 53.8982C241.281 53.0334 239.831 51.996 238.558 50.7889C237.286 49.5817 236.191 48.2073 235.268 46.6605C234.348 45.1136 233.658 43.4649 233.193 41.7116C232.73 39.9558 232.495 38.098 232.49 36.1383C232.483 34.1996 232.705 32.3601 233.158 30.6146C233.608 28.8692 234.29 27.2205 235.2 25.6658C236.111 24.1137 237.196 22.7315 238.453 21.5217C239.713 20.3146 241.146 19.2773 242.754 18.4124C244.361 17.5475 246.077 16.8969 247.899 16.4606C249.725 16.0242 251.655 15.7995 253.695 15.7938C255.733 15.7864 257.665 15.9928 259.501 16.4161C261.331 16.8394 263.061 17.477 264.684 18.3314C266.309 19.1884 267.757 20.2101 269.022 21.4042C270.287 22.5983 271.377 23.9622 272.285 25.4986C273.192 27.0297 273.877 28.6706 274.335 30.4187C274.792 32.1667 275.025 34.0219 275.03 35.9842C275.037 37.9438 274.817 39.8042 274.372 41.5627C273.925 43.3186 273.255 44.9752 272.352 46.5272C271.454 48.0793 270.377 49.4641 269.119 50.6791C267.859 51.8941 266.419 52.9393 264.801 53.8172C263.181 54.6952 261.458 55.3562 259.631 55.7978C257.8 56.2394 255.865 56.4641 253.825 56.4723C251.812 56.4798 249.892 56.2681 248.074 55.8396C246.252 55.4111 244.531 54.7631 242.904 53.8982ZM182.168 14.6171H178.09H174.014C173.319 14.6171 172.686 14.3219 172.229 13.8437C171.774 13.3656 171.489 12.7071 171.489 11.9781V8.80866V5.64182C171.489 4.91282 171.774 4.25437 172.229 3.77882C172.686 3.30066 173.319 3.0054 174.014 3.0054H178.09H182.168C182.863 3.0054 183.495 3.30066 183.953 3.77882C184.408 4.25437 184.69 4.91282 184.69 5.64182V8.80866V11.9781C184.69 12.7071 184.408 13.3656 183.953 13.8437C183.495 14.3219 182.863 14.6171 182.168 14.6171ZM182.168 56.9365H178.09H174.014C173.319 56.9365 172.686 56.6413 172.229 56.1631C171.774 55.6849 171.489 55.0291 171.489 54.2975V37.1856V20.0763C171.489 19.3473 171.774 18.6888 172.229 18.2107C172.686 17.7325 173.319 17.4399 174.014 17.4399H178.09H182.168C182.863 17.4399 183.495 17.7325 183.953 18.2107C184.408 18.6888 184.69 19.3473 184.69 20.0763V37.1856V54.2975C184.69 55.0291 184.408 55.6849 183.953 56.1631C183.495 56.6413 182.863 56.9365 182.168 56.9365Z" fill="#040403"/>
</g>
<defs>
<clipPath id="clip0_4_104">
<rect width="275.586" height="72" fill="white"/>
</clipPath>
</defs>
</svg>
