<svg width="384" height="72" viewBox="0 0 384 72" fill="none" xmlns="http://www.w3.org/2000/svg">
<g clip-path="url(#clip0_4_43)">
<path d="M26.6101 41.294C25.7098 43.063 23.14 43.063 22.2396 41.294L20.0862 37.0635C19.7423 36.3879 19.7423 35.5925 20.0862 34.9169L22.2396 30.6862C23.14 28.9174 25.7098 28.9174 26.6101 30.6862L28.7636 34.9169C29.1073 35.5925 29.1073 36.3879 28.7636 37.0635L26.6101 41.294Z" fill="#1D4AFF"/>
<path d="M26.6101 65.2862C25.7098 67.0553 23.14 67.0553 22.2396 65.2862L20.0862 61.0557C19.7423 60.3801 19.7423 59.5848 20.0862 58.9092L22.2396 54.6787C23.14 52.9097 25.7098 52.9097 26.6101 54.6787L28.7636 58.9092C29.1073 59.5848 29.1073 60.3801 28.7636 61.0557L26.6101 65.2862Z" fill="#1D4AFF"/>
<path d="M0 56.1797C0 54.0415 2.63169 52.9706 4.17085 54.4826L15.3691 65.4828C16.9082 66.9948 15.8181 69.5798 13.6415 69.5798H2.44322C1.09387 69.5798 0 68.5054 0 67.1798V56.1797ZM0 44.593C0 45.2294 0.257411 45.84 0.715603 46.29L23.7093 68.8769C24.1675 69.3269 24.789 69.5798 25.4369 69.5798H38.0664C40.2431 69.5798 41.3332 66.9948 39.794 65.4828L4.17085 30.4899C2.63169 28.9779 0 30.0487 0 32.1869V44.593ZM0 20.6001C0 21.2367 0.257411 21.8471 0.715603 22.2972L48.1342 68.8769C48.5923 69.3269 49.2139 69.5798 49.8618 69.5798H62.4913C64.668 69.5798 65.7582 66.9948 64.2189 65.4828L4.17085 6.49708C2.63172 4.98517 0 6.05596 0 8.19412V20.6001ZM24.4249 20.6001C24.4249 21.2367 24.6824 21.8471 25.1405 22.2972L69.1039 65.4828C70.6431 66.9948 73.2747 65.9239 73.2747 63.7858V51.3797C73.2747 50.7432 73.0172 50.1326 72.5591 49.6826L28.5957 6.49705C27.0565 4.98515 24.4249 6.05596 24.4249 8.19412V20.6001ZM53.0207 6.49708C51.4814 4.98515 48.8498 6.05596 48.8498 8.19412V20.6001C48.8498 21.2367 49.1073 21.8471 49.5654 22.2972L69.1039 41.49C70.6431 43.002 73.2747 41.9311 73.2747 39.793V27.3869C73.2747 26.7504 73.0172 26.1399 72.5591 25.6899L53.0207 6.49708Z" fill="#F9BD2B"/>
<path d="M103.898 56.4739L80.9003 33.8832C79.3611 32.3712 76.7295 33.4421 76.7295 35.5802V67.1796C76.7295 68.5051 77.8233 69.5796 79.1727 69.5796H114.796C116.146 69.5796 117.24 68.5051 117.24 67.1796V64.302C117.24 62.9765 116.141 61.9181 114.803 61.747C110.697 61.2216 106.856 59.3794 103.898 56.4739ZM88.4533 61.902C86.2962 61.902 84.5454 60.1822 84.5454 58.0632C84.5454 55.944 86.2962 54.2242 88.4533 54.2242C90.6107 54.2242 92.3615 55.944 92.3615 58.0632C92.3615 60.1822 90.6107 61.902 88.4533 61.902Z" fill="black"/>
<path d="M0 67.1797C0 68.5052 1.09387 69.5797 2.44322 69.5797H13.6415C15.8181 69.5797 16.9082 66.9946 15.3691 65.4826L4.17085 54.4825C2.63169 52.9705 0 54.0413 0 56.1795V67.1797Z" fill="#1D4AFF"/>
<path d="M24.4249 26.3928L4.17085 6.49707C2.63169 4.98514 0 6.05595 0 8.19411V20.6001C0 21.2366 0.257411 21.8471 0.715603 22.2972L24.4249 45.5871V26.3928Z" fill="#1D4AFF"/>
<path d="M4.17085 30.49C2.63169 28.978 0 30.0489 0 32.1871V44.5931C0 45.2296 0.257411 45.8399 0.715603 46.2902L24.4249 69.58V50.3858L4.17085 30.49Z" fill="#1D4AFF"/>
<path d="M48.8498 27.3869C48.8498 26.7504 48.5925 26.1398 48.1342 25.6898L28.5957 6.49707C27.0567 4.98514 24.4249 6.05595 24.4249 8.19411V20.6001C24.4249 21.2366 24.6824 21.8471 25.1405 22.2972L48.8498 45.5871V27.3869Z" fill="#F54E00"/>
<path d="M24.4249 69.5796H38.0664C40.2431 69.5796 41.3332 66.9946 39.794 65.4826L24.4249 50.3854V69.5796Z" fill="#F54E00"/>
<path d="M24.4249 26.3931V44.5932C24.4249 45.2297 24.6824 45.84 25.1405 46.2903L48.8498 69.5801V51.3799C48.8498 50.7435 48.5925 50.1329 48.1342 49.6829L24.4249 26.3931Z" fill="#F54E00"/>
<path d="M145.737 59.9999H155.774V43.6511H164.159C173.37 43.6511 179.278 38.285 179.278 29.9855C179.278 21.6865 173.37 16.3201 164.159 16.3201H145.737V59.9999ZM155.774 35.2271V24.7442H163.143C166.954 24.7442 169.241 26.7407 169.241 29.9855C169.241 33.2306 166.954 35.2271 163.143 35.2271H155.774Z" fill="black"/>
<path d="M197.436 60.4991C207.218 60.4991 214.333 53.6351 214.333 44.2751C214.333 34.9151 207.218 28.0511 197.436 28.0511C187.526 28.0511 180.538 34.9151 180.538 44.2751C180.538 53.6351 187.526 60.4991 197.436 60.4991ZM189.813 44.2751C189.813 39.2831 192.862 35.8511 197.436 35.8511C201.946 35.8511 204.995 39.2831 204.995 44.2751C204.995 49.2671 201.946 52.6991 197.436 52.6991C192.862 52.6991 189.813 49.2671 189.813 44.2751Z" fill="black"/>
<path d="M230.395 60.4991C237.891 60.4991 242.973 55.8815 242.973 50.4527C242.973 37.7231 225.758 41.8415 225.758 36.8495C225.758 35.477 227.219 34.6034 229.315 34.6034C231.475 34.6034 234.079 35.9135 234.905 38.7839L242.401 35.7263C240.94 31.1711 235.54 28.0511 228.997 28.0511C221.946 28.0511 217.563 32.1695 217.563 37.0991C217.563 49.0175 234.524 45.7103 234.524 50.6399C234.524 52.3871 232.872 53.573 230.395 53.573C226.837 53.573 224.36 51.1394 223.598 48.2066L216.102 51.0767C217.754 55.8191 222.581 60.4991 230.395 60.4991Z" fill="black"/>
<path d="M267.118 59.6882L266.482 51.7634C265.403 52.325 264.005 52.5119 262.862 52.5119C260.575 52.5119 259.05 50.8898 259.05 48.0815V36.1631H266.8V28.5503H259.05V19.4401H249.712V28.5503H244.63V36.1631H249.712V49.2671C249.712 56.8802 254.985 60.4991 261.909 60.4991C263.814 60.4991 265.593 60.1874 267.118 59.6882Z" fill="black"/>
<path d="M299.676 16.3201V33.2927H282.017V16.3201H271.98V59.9999H282.017V41.7167H299.676V59.9999H309.776V16.3201H299.676Z" fill="black"/>
<path d="M332.054 60.4991C341.836 60.4991 348.951 53.6351 348.951 44.2751C348.951 34.9151 341.836 28.0511 332.054 28.0511C322.144 28.0511 315.156 34.9151 315.156 44.2751C315.156 53.6351 322.144 60.4991 332.054 60.4991ZM324.431 44.2751C324.431 39.2831 327.48 35.8511 332.054 35.8511C336.564 35.8511 339.613 39.2831 339.613 44.2751C339.613 49.2671 336.564 52.6991 332.054 52.6991C327.48 52.6991 324.431 49.2671 324.431 44.2751Z" fill="black"/>
<path d="M366.975 59.0015C370.468 59.0015 373.581 57.8159 375.233 55.7567V58.7519C375.233 62.2463 372.374 64.6802 367.991 64.6802C364.878 64.6802 362.147 63.1823 361.702 60.6239L353.19 61.9343C354.333 67.8623 360.495 71.8562 367.991 71.8562C377.837 71.8562 384.38 66.1775 384.38 57.7535V28.5503H375.169V31.2335C373.454 29.2991 370.532 28.0511 366.784 28.0511C357.891 28.0511 352.301 34.0415 352.301 43.5263C352.301 53.0111 357.891 59.0015 366.975 59.0015ZM361.385 43.5263C361.385 38.8463 364.18 35.8511 368.499 35.8511C372.882 35.8511 375.677 38.8463 375.677 43.5263C375.677 48.2063 372.882 51.2015 368.499 51.2015C364.18 51.2015 361.385 48.2063 361.385 43.5263Z" fill="black"/>
</g>
<defs>
<clipPath id="clip0_4_43">
<rect width="383.586" height="72" fill="white"/>
</clipPath>
</defs>
</svg>
