<svg width="247" height="72" viewBox="0 0 247 72" fill="none" xmlns="http://www.w3.org/2000/svg">
<g clip-path="url(#clip0_39_311)">
<path fill-rule="evenodd" clip-rule="evenodd" d="M100.685 51.2494L87.1197 35.5161V51.2494H77.6487V0.241089H87.1197V26.2913L98.1545 12.9488H111.048L95.2707 30.9019L113.572 51.2494H100.685ZM154.263 38.5622C154.261 47.1145 161.079 52.2232 167.938 52.2232C170.493 52.2232 174.041 51.4319 176.935 49.8122L170.872 42.1866C170.047 42.7161 169.004 43.1285 167.797 43.1285C166.294 43.1285 163.461 42.0434 163.461 38.4292V22.0391H171.327V12.9483H163.461L163.46 3.40397H154.263L154.263 12.9483H149.397V22.0391H154.263V38.5622ZM26.0108 33.3442L40.2441 51.2491H28.2024L16.4234 36.4107H9.61956V51.2491H0V3.40425H15.8969C25.5282 3.40425 33.3597 10.7972 33.3597 19.8996C33.3597 25.4421 30.4465 30.3352 26.0108 33.3442ZM222.588 14.3726C222.588 14.3726 225.881 12.0079 230.405 12.0079C240.175 12.0079 246.857 19.5181 246.857 28.7499V51.2491H237.659V28.7499C237.659 24.5296 234.589 20.9652 230.124 20.9652C225.655 20.9652 222.588 24.5295 222.588 28.7499V51.2491H213.39V12.9487H222.588V14.3726ZM54.541 52.19C44.0779 52.19 36.1293 43.1779 36.1293 32.1004C36.1293 21.0255 44.0779 12.0082 54.541 12.0082C57.9466 12.0082 60.4337 12.9793 63.2067 14.6485V12.9488H72.404V51.2494H63.2067V49.5509C60.4337 51.2231 57.9466 52.19 54.541 52.19ZM49.3714 58.426H198.722L61.2684 69.6695L49.3714 58.426ZM63.3471 32.1002C63.3471 38.1654 59.7065 42.967 54.5408 42.967C49.3817 42.967 45.604 38.1654 45.604 32.1002C45.604 26.0393 49.3817 21.2371 54.5408 21.2371C59.7065 21.2371 63.3471 26.0393 63.3471 32.1002ZM129.067 52.1902C133.592 52.1902 136.885 49.8253 136.885 49.8253V51.2494H146.083V12.9489H136.885V35.4482C136.885 39.6687 133.817 43.2329 129.349 43.2329C124.884 43.2329 121.814 39.6687 121.814 35.4482V12.9489H112.616V35.4482C112.616 44.6801 119.298 52.1902 129.067 52.1902ZM15.897 12.4886C20.2166 12.4886 23.7494 15.8096 23.7494 19.8999C23.7494 24.0011 20.2166 27.3199 15.897 27.3196H9.61966V12.4886H15.897ZM209.728 34.7801L183.234 34.7747C184.443 43.5271 194.914 47.9698 201.197 39.2169L209.321 43.6505C204.099 50.6523 197.883 52.2242 193.032 52.2242C183.421 52.2242 173.836 43.9606 173.836 32.0989C173.836 20.8179 181.472 11.9768 192.118 11.9768C202.584 11.9769 211.995 21.0239 209.728 34.7801ZM200.147 27.1553C198.355 17.6701 185.517 18.1848 183.581 27.1553H200.147Z" fill="#8529CD"/>
</g>
<defs>
<clipPath id="clip0_39_311">
<rect width="246.857" height="72" fill="white"/>
</clipPath>
</defs>
</svg>
