<svg width="442" height="72" viewBox="0 0 442 72" fill="none" xmlns="http://www.w3.org/2000/svg">
<mask id="mask0_4_109" style="mask-type:luminance" maskUnits="userSpaceOnUse" x="0" y="0" width="441" height="72">
<path d="M0 0H440.338V72H0V0Z" fill="white"/>
</mask>
<g mask="url(#mask0_4_109)">
<path fill-rule="evenodd" clip-rule="evenodd" d="M384.788 50.496V31.496H374.514V52.516C374.514 59.628 381.744 65.4 390.665 65.4C399.588 65.4 406.816 59.628 406.816 52.516V31.496H396.618V50.496C396.618 53.656 393.967 56.224 390.706 56.224C387.444 56.224 384.794 53.658 384.794 50.496H384.788Z" fill="#D2003C"/>
<path d="M440.338 8.91199H429.989V64.216H440.338V8.91199ZM422.85 8.91199H412.5V64.216H422.85V8.91199Z" fill="#D2003C"/>
<path fill-rule="evenodd" clip-rule="evenodd" d="M223.183 20.516H217.558V64.216H206.549V11.45H225.473C234.09 11.45 241.069 18.426 241.069 27.032C241.069 34.3599 236.005 40.5039 229.189 42.1719L244.398 64.216H231.419L220.418 46.9399V34.3199H222.973C227.037 34.3199 230.333 31.2259 230.333 27.4139C230.333 23.6 227.247 20.508 223.177 20.508L223.183 20.516Z" fill="#D2003C"/>
<path d="M276.918 50.004C276.987 49.284 277.02 48.544 277.012 47.79C277.169 36.388 269.757 30.126 260.311 30.126C250.866 30.126 243.208 38.02 243.208 47.756C243.208 57.49 250.866 65.4 260.311 65.4C267.52 65.4 273.147 62.078 276.042 56.874L267.643 52.93C266.569 55.284 264.069 56.944 261.16 56.936C257.131 56.93 254.156 53.92 254.12 50.37V50.01H276.912L276.918 50.004ZM254.087 43.944C254.116 42.257 254.795 40.6491 255.977 39.4666C257.159 38.284 258.749 37.6214 260.407 37.6214C262.064 37.6214 263.654 38.284 264.836 39.4666C266.018 40.6491 266.697 42.257 266.726 43.944H254.079H254.087ZM318.108 64.216L318.094 8.91199H307.781V35.08C305.035 32.312 301.379 30.638 297.384 30.638C288.836 30.638 281.911 38.352 281.911 47.872C281.911 57.392 288.836 65.108 297.384 65.108C301.421 65.108 305.076 63.358 307.828 60.534V64.214H318.108V64.216ZM300.319 56.136C296.127 56.136 292.721 52.342 292.721 47.672C292.721 43.002 296.119 39.212 300.319 39.212C304.518 39.212 307.916 43.002 307.916 47.672C307.916 52.342 304.518 56.134 300.319 56.134V56.136ZM361.849 35.494C364.684 32.802 366.416 29.198 366.416 25.24C366.416 21.656 365.057 18.356 362.686 15.768C360.219 13 355.851 11.45 349.945 11.45H332.258V64.216H355.102C363.855 64.07 370.908 57.338 370.908 49.084C370.908 43.078 368.828 38.794 361.857 35.494H361.849ZM353.187 55.054H343.286V20.514H350.19C353.221 20.514 355.68 23.338 355.68 26.43C355.68 27.1643 355.539 27.8916 355.263 28.5701C354.987 29.2487 354.583 29.8653 354.073 30.3846C353.563 30.9039 352.958 31.3159 352.292 31.5968C351.625 31.8778 350.911 32.0223 350.19 32.022H346.596V41.508H353.187C356.862 41.508 359.642 44.524 359.642 48.268C359.512 52.134 357.183 54.806 353.187 55.054Z" fill="#D2003C"/>
<path d="M92.8408 72C112.364 72 128.195 55.882 128.195 36C128.195 16.118 112.364 0 92.8408 0C73.3153 0 57.4863 16.118 57.4863 36C57.4863 55.882 73.3153 72 92.8408 72Z" fill="#FFCC00"/>
<path d="M90.3189 52.702C88.3214 51.554 87.9266 49.292 86.8817 47.908C86.4535 47.36 85.7464 46.752 85.5559 46.254C83.7547 41.562 83.1439 38.926 82.5114 34.346C82.1854 32 80.6573 30.022 78.428 27.246C77.4558 26.036 76.071 24.036 74.8729 22.854C70.8523 19.402 68.678 17.484 65.995 15.644C65.4708 15.282 64.9153 14.9693 64.3353 14.71H64.3216C64.3112 14.7083 64.3016 14.7035 64.2941 14.696C63.3984 14.296 62.5892 14.184 61.4873 14.122C61.338 14.114 61.1966 14.108 61.0474 14.108C59.0479 14.108 57.1466 14.848 55.2296 16.356C53.837 17.284 52.2402 17.802 50.6924 18.3C48.7401 18.93 46.715 19.588 45.0652 21.054C44.7705 21.27 44.5015 21.574 44.2363 21.858C43.8749 22.252 43.6176 22.702 43.0676 22.882C42.5904 22.992 42.2506 22.992 41.8636 23.026C41.2538 23.0751 40.6477 23.1633 40.0488 23.29C38.0178 23.78 36.4622 25.054 34.8242 26.404C34.6415 26.556 34.451 26.708 34.2663 26.86C33.2057 27.718 31.3791 28.5 30.3459 28.534C27.4586 28.624 25.414 29.316 23.2868 30.928C21.0909 32.638 18.7398 34.402 16.1373 35.488C15.5396 35.7242 14.9047 35.8482 14.2636 35.854C13.584 35.854 12.6117 35.702 11.8378 34.97C10.8518 34.042 10.5258 32.256 11.117 31.06C12.0009 29.288 13.8 27.842 15.2692 26.776C17.1646 25.316 18.9991 23.4 18.184 20.224C17.306 17.318 13.8216 16.384 11.5177 15.762C10.8656 15.588 10.2999 15.436 9.96799 15.278C9.24126 14.932 8.73058 14.578 8.23562 14.238C7.75473 13.8833 7.23781 13.5823 6.69377 13.34C6.6019 13.3053 6.50499 13.2863 6.40701 13.284C6.08096 13.284 5.82366 13.444 5.62724 13.762C4.79641 15.236 4.55286 16.738 4.90051 18.204C5.43672 20.612 7.76815 22.804 10.1998 23.192C10.4433 23.254 10.7222 23.276 10.9952 23.304C11.2466 23.324 11.5039 23.352 11.7416 23.4C10.1284 24.6694 8.65635 26.1147 7.35176 27.71C5.57225 29.842 5.08318 33.364 6.21648 35.896C7.19659 38.428 9.68319 40.49 12.266 40.906C12.7747 41.002 13.3267 41.05 13.9493 41.05C14.8469 41.05 15.7504 40.954 16.6146 40.858C16.8248 40.838 17.0428 40.808 17.2451 40.788C17.3335 42.794 17.4022 44.04 18.4963 46.884C18.5631 47.064 18.5159 47.368 18.2861 47.576C18.0956 47.748 16.5046 48.42 16.049 48.516C15.88 48.552 15.6561 48.558 15.4656 48.558H14.8135C14.5975 48.558 14.3166 48.558 14.0455 48.598C13.0458 48.744 12.5508 49.602 12.1973 50.434C11.9812 50.938 11.8241 51.382 11.6866 51.762C11.3468 52.71 11.1366 53.298 10.4846 53.658C10.4846 53.658 9.12537 52.426 8.8936 52.258C8.57935 52.0688 8.22161 51.9674 7.85654 51.964C7.00018 51.964 6.24005 52.518 5.50547 53.05C5.26977 53.224 5.04389 53.39 4.81802 53.528C4.20128 53.922 3.73774 54.594 3.60418 55.292C2.60444 55.804 1.6263 56.42 1.17062 57.438C0.95456 57.874 0.913313 58.406 0.872066 58.918C0.856171 59.1612 0.82864 59.4035 0.789572 59.644C0.714935 59.804 0.626549 59.956 0.524414 60.114C0.24747 60.502 0.00195312 61.076 0.00195312 61.43C0.00195312 62.176 0.273004 62.46 0.681545 62.814C1.17847 63.174 2.5298 63.594 3.49419 63.838C3.56883 63.858 3.63757 63.866 3.71025 63.866C4.00487 63.866 4.24056 63.712 4.46644 63.566C4.57447 63.498 4.68249 63.422 4.80623 63.366C5.60171 63.56 6.77626 63.81 7.91743 63.81C8.50863 63.81 9.04681 63.74 9.52802 63.61C10.6908 63.29 11.6827 61.686 12.2189 60.82C12.3485 60.612 12.4782 60.406 12.5115 60.378C12.5456 60.3631 12.5825 60.3562 12.6196 60.358C12.7963 60.358 13.0831 60.44 13.3876 60.53C13.7411 60.634 14.1496 60.75 14.5169 60.786C15.827 60.904 17.0782 60.074 17.8874 59.458C18.2193 59.208 18.5788 58.856 18.9323 58.518C19.3251 58.136 19.7278 57.742 20.0754 57.506C20.5344 57.3168 21.0259 57.2229 21.521 57.23C21.6978 57.23 21.8942 57.236 22.1064 57.258C23.0491 57.458 24.2865 57.694 25.4906 57.694C26.6926 57.694 27.604 57.486 28.3975 57.064L29.1321 56.676C29.9276 56.262 30.7427 55.84 31.5165 55.41C33.0113 54.586 33.6103 53.23 34.0994 52.144L34.2212 51.868C34.5079 51.238 34.942 50.096 35.0579 49.812C35.2877 49.846 35.5273 49.86 35.7787 49.86C36.586 49.86 37.3815 49.688 38.1494 49.52C38.9037 49.356 39.6913 49.19 40.4789 49.19C40.8953 49.19 41.2744 49.23 41.6554 49.328C43.0696 49.612 44.9316 49.938 46.827 49.938C47.8876 49.938 48.8717 49.834 49.7477 49.626C49.9657 49.84 50.2112 50.026 50.4489 50.206C50.6846 50.386 50.9026 50.552 51.1069 50.754C50.889 50.7942 50.6694 50.8242 50.4489 50.844C49.7889 50.92 49.1034 50.996 48.6006 51.544C48.0577 51.3176 47.4744 51.2087 46.8879 51.224C46.2229 51.2397 45.5599 51.3045 44.9041 51.418C44.6389 51.458 44.3797 51.494 44.1283 51.528C43.1167 51.652 42.4234 52.048 42.064 52.718C41.8459 53.154 41.6829 53.612 42.0365 54.358L44.0261 57.72C44.2717 58.156 44.6782 58.51 44.9571 58.53C45.1064 58.544 45.3048 58.53 45.5208 58.51C45.6917 58.496 45.8685 58.482 46.0374 58.482C46.3576 58.482 46.5481 58.538 46.6168 58.648C46.717 58.808 46.8132 58.96 46.9075 59.118C47.3161 59.77 47.7364 60.448 48.3747 61.022C49.3411 61.88 50.8967 62.238 52.358 61.894C52.908 61.686 53.4579 61.484 54.0079 61.284C55.7285 60.654 57.508 60.004 59.2325 59.258L62.0942 58.842C63.039 58.654 63.7598 57.354 63.9975 56.814L64.0584 56.69C64.0584 56.69 64.9226 54.946 65.1858 53.888C65.1995 54.068 65.1995 54.308 65.1995 54.642C65.1995 56.288 65.4863 58.372 68.244 58.262C69.7799 58.198 71.8187 57.272 73.2721 57.002C74.7944 56.738 76.7781 57.396 78.2532 56.662C79.687 56.068 80.51 54.932 80.7398 55.168C81.6907 56.1137 82.8207 56.8525 84.061 57.3393C85.3012 57.8262 86.6258 58.051 87.9541 58C90.0145 57.932 90.2384 56.25 88.7987 55.488C91.6093 55.82 92.4402 54.272 91.9157 53.772C91.5818 53.454 91.3854 53.296 90.3189 52.686V52.702ZM65.0621 51.138C64.0014 49.678 63.31 48.642 63.2079 47.306C64.5592 47.146 65.7966 46.69 67.8079 46.58C67.2835 48.164 65.4843 48.918 65.0562 51.132L65.0621 51.138ZM184.582 60.432C184.486 60.238 184.391 60.052 184.336 59.912C184.248 59.602 184.234 59.276 184.215 58.93C184.195 58.55 184.175 58.154 184.057 57.782C183.739 56.702 182.604 56.03 181.687 55.65C181.653 55.242 181.579 54.8 181.205 54.53C179.62 53.38 178.792 52.73 178.344 52.384C178.079 52.176 177.984 52.1 177.929 52.08C177.741 51.9909 177.537 51.9432 177.33 51.94C176.631 51.94 176.073 52.508 175.531 53.048L175.158 53.422C175.144 53.436 175.138 53.436 175.117 53.436C174.946 53.436 174.592 52.904 174.504 52.662C174.347 52.232 174.227 51.824 174.103 51.43C173.887 50.716 173.683 50.046 173.321 49.29C172.724 48.08 171.448 48.06 170.318 48.04H170C169.483 48.04 168.802 47.964 168.68 47.616C168.558 47.272 168.81 46.62 168.967 46.144C169.075 45.812 169.177 45.5 169.21 45.196C169.497 43.896 169.517 42.164 169.265 40.76C169.55 40.768 169.835 40.8 170.136 40.836C170.393 40.872 170.658 40.898 170.937 40.912H171.182C172.881 40.912 174.315 40.572 175.564 39.882C178.084 38.338 179.628 35.848 179.689 33.198C179.601 31.814 179.281 30.672 178.589 29.26C177.658 27.392 176.109 25.552 173.846 23.642C175.156 23.366 176.244 23.042 177.25 22.396C179.302 21.068 180.212 18.66 179.811 15.61C179.703 14.89 179.43 13.644 178.833 13.32C178.747 13.2733 178.651 13.2492 178.554 13.25C178.12 13.25 177.697 13.728 177.324 14.15C177.187 14.31 177.053 14.454 176.937 14.558C176.238 15.194 175.415 15.36 174.553 15.534C174.097 15.624 173.63 15.72 173.186 15.886C171.12 16.572 167.608 18.134 167.293 20.978C166.989 23.788 168.953 25.678 170.856 27.504C171.487 28.112 172.094 28.686 172.608 29.296C173.708 30.59 174.647 31.876 174.402 33.33C174.315 33.828 173.622 34.59 172.962 34.894C172.459 35.074 171.937 35.162 171.406 35.162C169.646 35.162 167.953 34.182 166.467 33.308L166.254 33.184C162.803 30.748 159.237 28.224 154.813 27.744C153.128 27.414 151.667 26.376 150.247 25.364C149.921 25.1301 149.592 24.9 149.261 24.674C147.773 23.7845 146.134 23.1881 144.429 22.916C143.545 22.798 142.846 22.21 142.105 21.596C141.722 21.2576 141.314 20.95 140.884 20.676C139.149 19.5355 137.215 18.7458 135.188 18.35C134.987 18.2889 134.784 18.2381 134.579 18.198C134.048 18.086 133.497 17.962 133.115 17.554C132.532 16.854 131.729 15.954 130.759 15.25C129.46 14.364 127.443 13.422 125.683 13.422C125.302 13.422 124.949 13.464 124.628 13.554C123.65 13.804 122.89 14.384 122.087 15L121.782 15.228C120.172 16.508 118.031 18.268 116.346 19.492C111.317 23.138 109.428 24.736 106.936 27.512C100.521 34.644 102.471 45.32 96.9263 51.506C95.4924 53.11 95.0917 53.318 94.5693 53.762C93.9211 54.314 93.7719 57.256 97.9712 55.816C96.0561 57.484 97.2641 58.258 98.5211 58.286C100.739 58.334 103.184 57.552 105.582 54.952C107.248 57.392 110.149 56.266 111.657 56.392C113.071 56.508 115.674 58.072 117.188 57.982C119.498 57.836 120.349 55.484 120.117 54.176C120.49 54.176 120.592 54.086 120.694 53.9C120.967 55.262 121.15 56.196 121.409 56.88C121.429 56.93 121.462 56.992 121.496 57.06V57.076C121.661 57.372 122 58.03 122.34 58.348C122.733 58.832 123.324 58.896 123.794 58.896C123.984 58.896 124.175 58.882 124.357 58.876C124.568 58.86 124.772 58.854 124.968 58.854C125.144 58.9867 125.312 59.1296 125.471 59.282C125.844 59.614 126.225 59.962 126.695 60.092C128.883 60.666 130.698 61.178 132.458 61.808C132.817 61.926 133.367 62.078 133.917 62.078C134.094 62.078 134.27 62.064 134.433 62.03C136.107 61.662 137.596 60.204 137.961 58.55C137.989 58.294 138.171 58.272 138.483 58.258C138.709 58.252 138.967 58.238 139.11 58.072C140.019 57.332 140.577 56.314 141.121 55.338C141.235 55.132 141.351 54.918 141.475 54.71C141.616 54.4637 141.695 54.1862 141.707 53.9014C141.719 53.6167 141.662 53.3334 141.542 53.076C141.365 52.716 141.047 52.454 140.583 52.296C139.713 52.046 138.743 52.024 137.906 52.024H136.983C136.547 52.024 136.044 52.024 135.555 51.976L135.201 51.582C134.944 51.346 134.618 51.292 134.298 51.236L134.068 51.196L134.862 50.564C135.182 50.572 135.494 50.578 135.806 50.578C137.655 50.578 139.354 50.412 140.87 50.088C142.219 49.7577 143.6 49.5832 144.987 49.568C145.171 49.568 145.36 49.568 145.55 49.582C145.774 49.596 146.006 49.61 146.23 49.63C147.059 49.686 147.909 49.75 148.758 49.75C149.879 49.75 150.791 49.644 151.606 49.424C151.708 49.838 151.789 50.246 151.863 50.648C152.162 52.156 152.441 53.582 153.582 54.82C154.269 55.712 155.165 56.224 156.037 56.73C156.485 56.986 156.94 57.276 157.38 57.574C157.966 57.878 158.435 57.926 159.107 57.926C160.044 57.926 161.24 57.518 161.92 57.518C164.754 57.518 166.942 59.082 169.313 60.97C169.735 61.254 170.251 61.4 170.843 61.4C171.562 61.4 172.371 61.18 173.078 60.79L173.133 60.874C173.565 61.496 174.023 62.148 174.633 62.654C175.509 63.462 176.645 63.574 177.639 63.574C177.971 63.574 178.316 63.558 178.65 63.544C179.125 63.524 179.607 63.504 180.07 63.524C180.253 63.786 180.606 63.988 180.885 63.974C181.164 63.96 184.228 62.942 184.391 62.888C184.554 62.832 184.784 62.694 184.784 62.694C185.527 62.306 184.988 61.214 184.596 60.41L184.582 60.432ZM121.128 51.24C120.388 49.74 119.808 48.39 118.891 46.98C120.993 47.484 123.389 47.24 123.389 47.24C122.711 48.224 121.936 49.628 121.128 51.24Z" fill="#FFCC00"/>
<path d="M134.196 52.724C134.086 52.584 133.87 52.564 133.746 52.564C133.693 52.564 133.644 52.564 133.589 52.572C133.21 52.62 132.862 52.64 132.503 52.64C132.317 52.6392 132.132 52.6345 131.947 52.626C131.796 52.626 131.66 52.612 131.524 52.612C131.301 52.612 131.118 52.626 130.935 52.662H130.892L130.872 52.702C130.845 52.758 130.146 54.002 130.24 54.792C130.342 55.644 131.191 55.816 131.837 55.948C132.069 55.996 132.334 56.044 132.605 56.044C133.066 56.044 133.373 55.884 133.528 55.574C133.917 54.558 134.141 53.726 134.249 52.958C134.26 52.9154 134.262 52.8705 134.252 52.8273C134.243 52.7841 134.224 52.7438 134.196 52.71V52.724ZM180.359 55.532C179.958 54.944 179.259 54.472 178.701 54.092C178.479 53.9513 178.265 53.7971 178.061 53.63L177.947 53.546C177.82 53.435 177.658 53.374 177.491 53.374C176.859 53.374 176.173 54.148 176.16 54.41C176.14 54.798 176.682 55.49 177.389 56.35L177.538 56.536C177.898 56.97 178.285 57.206 178.693 57.234C179.108 57.234 179.434 57.094 179.781 56.764C180.039 56.522 180.61 55.912 180.351 55.538L180.359 55.532ZM183.317 60.542C183.218 60.3471 183.136 60.1437 183.073 59.934C183.013 59.6411 182.967 59.3454 182.936 59.048C182.877 58.576 182.822 58.128 182.679 57.782C182.577 57.5679 182.419 57.3866 182.222 57.2581C182.026 57.1296 181.798 57.059 181.565 57.054C181.404 57.0521 181.244 57.0905 181.101 57.166C180.41 57.518 179.994 57.9 180.109 58.694C180.49 59.85 180.679 60.688 180.932 61.828C180.96 62.002 181.076 62.576 181.345 62.576C181.366 62.576 181.388 62.576 181.408 62.57L183.399 61.906C183.446 61.8918 183.488 61.8677 183.525 61.8353C183.561 61.8029 183.59 61.7628 183.61 61.718C183.725 61.448 183.515 60.992 183.311 60.548L183.317 60.542Z" fill="#D2003C"/>
<path d="M179.797 62.16C179.64 60.9142 179.3 59.6995 178.79 58.556L178.764 58.502H178.703C177.546 58.576 176.833 57.622 176.14 56.708C175.91 56.404 175.698 56.12 175.468 55.872C175.125 55.481 174.755 55.1154 174.36 54.778C173.952 54.418 173.606 54.1 173.471 53.818C173.308 53.47 173.131 52.806 172.96 52.162C172.838 51.706 172.724 51.27 172.614 50.972C172.595 50.912 172.567 50.848 172.546 50.786C172.335 50.218 172.084 49.512 171.363 49.396C171.004 49.334 170.609 49.32 170.236 49.306C169.195 49.264 168.15 49.078 167.614 48.316C167.117 47.616 167.319 46.966 167.6 46.276C167.722 45.97 167.81 45.716 167.879 45.424C168.252 44.144 168.382 42.552 168.095 41.438C168.048 41.2585 167.993 41.081 167.932 40.906C167.783 40.442 167.606 39.736 167.716 39.522C167.83 39.308 167.946 39.272 168.156 39.272C168.34 39.272 168.551 39.336 168.747 39.392C168.89 39.432 168.998 39.452 169.136 39.488C169.65 39.612 170.426 39.756 171.133 39.756C172.302 39.756 173.53 39.5 174.59 39.036C176.596 38.048 178.574 35.814 178.471 33.046C178.206 30.244 176.507 27.538 173.266 24.764C173.192 24.694 173.103 24.624 173.021 24.556C172.601 24.202 172.09 23.754 172.078 23.358C172.064 22.964 173.076 22.722 173.708 22.57C173.858 22.536 173.987 22.508 174.101 22.474L174.264 22.432C175.073 22.218 175.902 21.996 176.59 21.512C178.9 19.926 178.817 17.138 178.554 15.602C178.54 15.562 178.532 15.512 178.519 15.458C178.479 15.258 178.424 15.008 178.24 15.008C178.187 15.008 178.124 15.036 178.063 15.09C177.996 15.152 177.927 15.222 177.853 15.29C177.588 15.548 177.295 15.838 176.955 16.03C176.222 16.474 175.339 16.662 174.49 16.842C173.946 16.958 173.382 17.076 172.86 17.262C170.562 18.072 169.136 19.256 168.625 20.784C168.36 21.58 168.503 22.584 169.012 23.552C169.766 24.764 170.847 25.822 171.899 26.846C173.559 28.466 175.27 30.132 175.665 32.402C175.881 33.722 175.352 34.838 174.054 35.8C173.374 36.214 172.504 36.436 171.54 36.436C170.317 36.4268 169.115 36.1181 168.034 35.536C166.689 34.852 165.39 33.966 164.133 33.108C162.244 31.822 160.287 30.492 158.121 29.788C157.182 29.35 156.137 29.136 155.13 28.928C153.696 28.632 152.215 28.328 151.025 27.378C150.616 27.1039 150.215 26.8178 149.822 26.52C148.742 25.726 147.629 24.9 146.366 24.576C145.894 24.41 145.435 24.348 144.985 24.28C144.291 24.176 143.647 24.086 143.048 23.65L142.233 23.048C141.227 22.3 140.188 21.526 139.149 20.992C137.362 20.086 135.459 19.616 133.332 19.146C132.652 18.98 132.232 18.46 131.782 17.906C131.483 17.534 131.171 17.152 130.776 16.882C129.14 15.562 127.651 14.676 125.734 14.676C125.558 14.676 125.375 14.682 125.198 14.696C124.192 14.766 123.214 15.54 122.562 16.122C120.653 17.822 118.595 19.338 116.611 20.806C113.645 22.986 110.589 25.24 107.973 28.154C105.398 30.86 104.467 34.234 103.555 37.508C103.42 37.992 103.292 38.47 103.149 38.954C102.903 39.848 102.679 40.768 102.461 41.654C101.281 46.474 100.065 51.292 95.3333 54.418C95.021 54.626 95.131 55.028 95.4217 55.138C95.5455 55.186 97.5293 55.864 99.5071 53.844C100.701 52.336 101.367 50.944 102.795 49.388C102.842 49.34 103.005 49.208 103.141 49.222C103.237 49.27 103.265 49.32 103.237 49.492C103.052 50.116 102.679 50.662 102.314 51.194C101.941 51.74 101.558 52.302 101.367 52.944C100.913 54.328 99.6486 55.45 98.527 56.432C98.527 56.432 98.3503 56.55 98.2501 56.682C98.148 56.812 98.148 56.868 98.148 56.868C98.1126 57.172 98.3503 57.36 98.8334 57.38C101.485 57.38 103.373 55.464 105.193 53.602C105.233 53.5614 105.281 53.5299 105.334 53.5095C105.387 53.4892 105.443 53.4805 105.5 53.484C105.594 53.484 105.69 53.492 105.792 53.532C105.914 53.602 106.193 53.88 106.409 54.072C107.008 54.612 107.619 55.172 108.42 55.338H108.448C109.414 55.2 110.282 55.09 111.18 55.09C111.439 55.09 111.683 55.096 111.901 55.118C112.865 55.414 113.837 55.788 114.768 56.142C115.426 56.398 116.106 56.654 116.792 56.888H116.821C117.705 56.854 118.333 56.018 118.797 55.276C119.013 54.75 118.913 54.238 118.811 53.74C118.75 53.43 118.689 53.14 118.709 52.854C118.872 52.772 119.095 52.786 119.335 52.82C119.545 52.854 119.85 52.82 119.952 52.806C120.184 52.772 120.427 52.502 120.36 52.15C120.184 51.25 119.742 50.696 119.3 50.004C118.913 49.416 118.546 48.864 118.363 48.24C118.07 47.416 117.452 46.732 116.854 46.068C116.161 45.3 115.509 44.572 115.311 43.652C115.311 43.652 115.252 43.458 115.318 43.382C115.385 43.306 115.57 43.396 115.57 43.396C115.888 43.632 116.208 43.896 116.513 44.15C117.52 44.982 118.559 45.846 119.824 46.04C120.999 46.158 122.289 46.31 123.546 46.2C123.88 46.144 124.049 45.846 123.969 45.562C123.466 44.482 122.949 43.322 122.637 42.054C122.372 41.1 121.78 38.588 122.385 36.692C122.446 36.506 122.568 36.442 122.678 36.442C122.69 36.442 122.704 36.442 122.725 36.45C122.929 36.498 123.065 36.748 123.093 36.94L123.112 37.19C123.289 39.77 123.458 42.206 125.008 44.282C125.422 44.954 126.013 45.306 126.585 45.652C126.978 45.888 127.433 46.102 127.72 46.476C128.046 46.896 128.099 47.616 127.877 48.052L125.972 50.912C125.524 51.562 125.088 52.26 124.933 52.972C124.791 53.692 124.852 54.392 124.913 55.07L124.927 55.234C124.866 55.1952 124.817 55.1406 124.784 55.076C124.018 53.664 123.86 52.468 124.253 51.548C124.505 50.952 126.054 48.718 126.502 47.984C126.646 47.748 126.762 47.514 126.64 47.354C126.489 47.154 125.328 46.648 125.021 46.648C125.002 46.648 124.982 46.648 124.96 46.656C124.689 46.732 124.513 46.988 124.355 47.216C124.32 47.2672 124.284 47.3179 124.247 47.368L121.902 51.7L121.847 51.86C121.712 52.294 121.592 52.668 121.712 53.166C121.841 53.816 122.038 54.516 122.187 55.026L122.311 55.45C122.521 56.204 122.717 56.91 123.043 57.304C123.248 57.552 123.507 57.664 123.853 57.664C124.029 57.664 124.212 57.636 124.389 57.608C124.683 57.56 125.002 57.526 125.239 57.588C125.593 57.678 125.836 57.948 126.096 58.224C126.353 58.508 126.618 58.798 127.013 58.916C127.74 59.166 128.5 59.366 129.234 59.56C130.212 59.822 131.226 60.092 132.19 60.472C132.734 60.652 133.318 60.818 133.882 60.818C134.508 60.818 134.895 60.638 135.439 60.19C136.199 59.56 136.451 58.936 136.641 58.038C136.79 57.214 137.061 57.158 137.647 57.124C137.932 57.11 137.973 57.124 138.252 57.028C138.544 56.93 139.393 55.872 139.835 55.008C139.957 54.772 140.086 54.556 140.208 54.37C140.325 54.2127 140.39 54.0214 140.393 53.824C140.393 53.394 140.039 53.264 139.815 53.256H139.664C139.664 53.256 137.164 53.236 136.478 53.256C135.453 53.312 135.005 54.316 134.644 55.208C134.5 55.554 134.371 55.872 134.202 56.156C133.931 56.654 133.4 56.958 132.748 56.944C132.558 56.944 132.135 56.826 131.919 56.772C130.566 56.432 129.173 56.086 128.602 54.716C128.549 54.482 128.46 53.996 128.798 53.588C129.519 52.738 130.472 51.658 131.45 50.884C132.809 50.592 134.168 49.568 134.915 48.282C135.072 48.06 135.152 47.798 135.235 47.548C135.357 47.16 135.471 46.794 135.818 46.566C136.036 46.454 136.213 46.49 136.26 46.684C136.39 47.404 136.125 48.094 135.859 48.764C135.8 48.9135 135.744 49.0642 135.69 49.216L135.649 49.326L135.765 49.34C136.138 49.374 136.525 49.396 136.912 49.396C138.307 49.396 139.631 49.154 140.915 48.918C142.186 48.682 143.504 48.44 144.863 48.44C145.006 48.44 145.156 48.44 145.305 48.448C145.91 48.448 146.493 48.502 147.065 48.552C147.623 48.6 148.2 48.656 148.778 48.656C148.98 48.656 149.17 48.656 149.361 48.636C151.101 48.552 152.366 47.748 152.745 46.476C153.105 45.39 153.065 43.516 152.629 40.898C152.61 40.774 152.596 40.692 152.596 40.678V40.63C152.596 40.532 152.596 40.43 152.725 40.366C152.888 40.276 153.059 40.366 153.138 40.58C153.798 42.462 154.179 44.628 154.383 46.116C154.607 47.562 155.198 49.028 156.204 50.592C157.447 52.482 159.5 53.568 161.829 53.568C162.373 53.568 162.917 53.464 163.454 53.394C163.827 53.346 163.97 53.366 164.222 53.366C167.185 53.366 169.76 54.674 171.683 57.146C171.683 57.146 171.717 57.194 171.717 57.262C171.717 57.366 171.567 57.47 171.438 57.414L171.186 57.214C169.517 55.894 167.788 54.53 165.622 54.26C165.218 54.189 164.808 54.1542 164.398 54.156C163.774 54.156 163.155 54.226 162.564 54.294C161.967 54.364 161.409 54.434 160.831 54.434C160.16 54.4489 159.492 54.3265 158.867 54.074C156.373 53.234 154.336 50.314 153.682 48.502C153.658 48.4512 153.621 48.4082 153.574 48.3778C153.528 48.3474 153.474 48.3309 153.419 48.33C153.35 48.33 153.281 48.35 153.207 48.4C152.916 48.586 152.867 48.682 152.828 48.862C152.786 49.014 153.03 50.316 153.14 50.876C153.466 52.26 153.955 54.35 155.735 55.124C155.953 55.256 156.176 55.402 156.394 55.546C157.284 56.126 158.201 56.73 159.254 56.73C159.506 56.73 159.757 56.696 160.001 56.626C160.635 56.486 161.279 56.412 161.931 56.412C163.984 56.412 166.07 57.124 167.824 58.424C168.114 58.598 168.393 58.832 168.659 59.062C169.04 59.386 169.427 59.718 169.89 59.892C170.181 60.01 170.493 60.072 170.827 60.072C171.622 60.072 171.825 59.83 172.39 59.546C172.598 59.4423 172.825 59.3856 173.056 59.38C173.695 59.38 174.048 59.884 174.496 60.528C174.767 60.916 175.073 61.352 175.488 61.732C176.065 62.306 176.867 62.376 177.499 62.376C177.847 62.376 178.192 62.348 178.532 62.328C178.858 62.308 179.253 62.292 179.463 62.272C179.668 62.244 179.783 62.216 179.783 62.216V62.134L179.797 62.16ZM112.28 52.51C112.166 52.724 111.887 52.848 111.52 52.848C111.215 52.8523 110.915 52.7683 110.656 52.606C110.18 52.26 109.903 51.686 109.862 50.932C109.854 50.758 109.842 50.578 110.072 50.406C110.188 50.336 110.257 50.336 110.392 50.336C110.846 50.336 111.575 50.634 111.962 51.112C111.989 51.146 112.594 51.962 112.282 52.516L112.28 52.51ZM112.934 41.86C112.763 42.082 112.506 42.248 112.254 42.124C112.017 42.04 111.805 41.728 111.677 41.494C111.514 41.196 111.376 40.94 110.989 40.968H110.929C110.589 40.996 110.332 41.168 110.058 41.382C109.923 41.494 109.371 41.91 109.237 42.026C108.497 42.664 107.749 43.32 107.572 44.212C107.534 44.3712 107.5 44.5313 107.47 44.692C107.415 45.002 107.362 45.326 107.102 45.492H107.083C107.047 45.5119 107.007 45.5216 106.967 45.52C106.85 45.5155 106.737 45.4719 106.647 45.396C106.6 45.3606 106.562 45.3149 106.535 45.2622C106.508 45.2095 106.493 45.1514 106.492 45.092C106.362 43.556 106.873 42.172 107.931 41.19C108.619 40.616 109.169 39.896 109.705 39.196C109.964 38.856 110.235 38.504 110.514 38.18C110.724 37.966 111.072 38.146 111.642 38.78C111.879 39.044 112.628 40.34 112.967 41.19C113.097 41.564 112.928 41.846 112.928 41.846L112.934 41.86ZM125.416 24.002C125.131 24.28 124.831 24.556 124.532 24.84C123.472 25.822 122.378 26.84 121.659 27.988C121.319 28.458 121.067 28.998 120.822 29.524C120.794 29.58 120.734 29.696 120.618 29.696C120.588 29.6946 120.559 29.6871 120.532 29.674C120.505 29.661 120.481 29.6426 120.461 29.62C120.258 29.412 120.427 27.966 120.692 27.24C121.278 25.636 122.601 23.954 124.336 22.632C124.528 22.5123 124.749 22.4481 124.974 22.446C125.3 22.446 125.552 22.598 125.654 22.86C125.87 23.214 125.791 23.628 125.416 24.002ZM54.6089 54.412C54.5481 54.3079 54.4917 54.2011 54.44 54.092C54.2632 53.754 54.1689 53.394 54.0806 53.082C53.9038 52.454 53.7545 51.906 53.0808 52.002C52.1302 52.142 51.2051 52.204 50.1739 52.204C50.1582 52.204 49.84 52.204 49.7378 52.432C49.622 52.696 49.8812 52.944 50.1601 53.2C50.3153 53.346 50.4783 53.498 50.5863 53.664C50.7769 53.948 50.9595 54.356 51.1363 54.75C51.4152 55.38 51.6607 55.92 51.9396 56.01C52.0674 56.0467 52.1997 56.0649 52.3325 56.064C52.9806 56.064 53.8684 55.712 54.5146 55.2C54.8741 54.888 54.7601 54.68 54.5971 54.404L54.6089 54.412ZM8.13936 53.43L8.08633 53.388C7.88992 53.228 7.53637 53.248 7.29675 53.416C7.13373 53.532 6.96285 53.644 6.80179 53.756C6.27147 54.114 5.72151 54.48 5.14405 54.978C4.93193 55.158 4.81604 55.498 4.7964 55.76C4.77676 55.968 4.81604 56.134 4.89854 56.24C4.94568 56.294 5.36797 56.77 5.45635 56.848C5.59188 56.964 5.81579 57.116 6.12809 57.116C6.32699 57.1113 6.52205 57.0592 6.69769 56.964C7.72493 56.44 8.78557 54.502 8.82681 54.39C8.93484 54.08 8.58915 53.796 8.13936 53.43ZM4.75516 58.024C4.54499 57.72 3.84576 56.882 3.45097 56.882C3.41758 56.882 3.38222 56.882 3.35669 56.902C2.81262 57.13 2.18017 57.85 2.14678 58.28C2.00929 60.154 1.95626 60.354 1.45344 60.93C1.31006 61.09 1.21578 61.462 1.3788 61.622C1.52022 61.766 3.32919 62.348 3.5315 62.348H3.57274C3.73577 62.292 3.87129 61.87 4.24055 60.576C4.43696 59.876 4.66088 59.088 4.91229 58.376C4.92604 58.328 4.93193 58.258 4.7689 58.024H4.75516Z" fill="#D2003C"/>
<path d="M60.187 57.9C60.9275 57.844 61.6955 57.788 62.2395 57.2C62.927 56.182 63.5162 55.16 64.0348 54.08C64.4963 53.11 64.5022 52.162 64.0485 51.422C62.6815 49.194 62.4379 48.606 61.8801 47.092L61.8664 47.05L61.8271 47.036C61.6655 46.9854 61.5062 46.9273 61.3498 46.862C61.0159 46.732 60.6623 46.586 60.2636 46.586H60.2086C59.7392 46.6 59.421 46.752 59.2914 47.016L59.2717 47.056L61.7505 52.038C61.9076 52.426 62.0903 52.82 61.996 53.402C61.8998 53.982 60.684 55.934 60.3167 56.182C60.2547 56.2326 60.1796 56.2638 60.1006 56.272C60.0731 56.272 59.9435 56.246 60.024 55.954C60.2558 55.146 60.5484 53.242 60.4659 52.634C60.3775 51.928 58.2995 48.426 58.2111 48.274L58.1699 48.214C57.8497 47.68 57.5178 47.126 57.5453 46.482C57.5453 46.184 57.8163 45.978 58.0127 45.902C58.3741 45.762 58.7198 45.708 59.0871 45.624C59.971 45.424 60.8804 45.224 61.2084 44.718C62.2003 43.182 62.7895 41.578 63.1843 39.356C63.2039 39.258 63.2727 39.072 63.4082 39.072C63.4907 39.072 63.5712 39.1 63.6046 39.292C63.7846 40.3427 63.7572 41.4193 63.5242 42.459C63.2912 43.4988 62.8572 44.4809 62.2474 45.348C62.1619 45.4933 62.1305 45.6651 62.159 45.832C62.1865 46.012 62.3829 46.158 62.3829 46.158C62.8583 46.49 64.5985 46.296 65.8614 45.624C66.8258 45.644 67.7313 45.472 68.6132 45.306C68.8921 45.25 69.171 45.202 69.442 45.154C69.5304 45.202 69.5992 45.286 69.6129 45.348C68.8724 46.198 68.4227 47.154 68.1929 48.35C67.9821 48.567 67.7647 48.7772 67.5408 48.98C66.7315 49.734 65.8614 50.58 65.8202 51.658C65.8202 51.658 65.7946 52.046 66.2091 52.072C66.3367 52.08 66.486 52.012 66.6215 51.956C66.7551 51.887 66.902 51.8487 67.0517 51.844C67.115 51.8533 67.1732 51.8847 67.2162 51.9328C67.2592 51.981 67.2844 52.043 67.2874 52.108L66.3642 53.484C66.0185 54.058 66.1678 54.668 66.3034 55.264C66.4055 55.588 66.3583 55.844 66.4467 56.134C66.6765 56.82 67.4995 57.144 68.1516 57.144C69.3537 57.09 70.4496 56.688 71.5083 56.3C71.6988 56.232 71.8815 56.162 72.0779 56.094C73.2407 55.582 74.7904 55.478 76.6327 55.782C78.1137 55.684 79.2274 54.688 80.3077 53.72C80.7692 53.734 81.2465 54.01 81.7356 54.55C83.3383 56.3 85.3025 57.15 87.7419 57.15H88.0208L88.2644 57.13C88.5158 57.07 88.5845 56.944 88.5983 56.784C88.6179 56.592 88.4686 56.398 88.1976 56.266L86.8306 55.526C85.7365 54.82 84.5482 53.968 84.2222 52.846C83.8686 51.65 83.2087 50.434 82.7137 49.624C82.6125 49.459 82.5057 49.2976 82.3936 49.14C82.203 48.856 82.0007 48.564 81.8633 48.26C83.3521 48.8 84.1868 49.92 85.1944 51.79C85.9408 53.18 87.8853 54.674 89.7257 54.674C89.9712 54.674 90.201 54.646 90.4328 54.598C90.6292 54.558 90.7588 54.426 90.7863 54.252C90.806 54.1 90.7863 53.954 90.6233 53.864L89.5077 53.298C88.1838 52.508 87.4218 51.208 86.6813 49.942C86.3886 49.442 86.092 48.932 85.764 48.468C85.5539 48.148 85.1866 47.818 84.8684 47.528C84.5895 47.272 84.3243 47.028 84.2752 46.898C83.0673 43.534 81.7493 39.584 81.4292 35.19C81.382 34.52 80.9185 33.046 80.3685 32.09C78.6499 29.24 74.5449 24.362 74.321 24.12C74.1797 23.9686 74.035 23.8206 73.8869 23.676L73.7769 23.566L66.3839 17.312C64.9167 16.26 64.4688 16.072 63.4023 15.686C62.6547 15.4257 61.8689 15.2972 61.0787 15.306C60.0319 15.306 58.985 15.512 58.1286 15.886C57.5394 16.206 56.9678 16.578 56.41 16.938C55.4672 17.554 54.4851 18.19 53.4265 18.55C52.5976 18.93 51.7078 19.208 50.8456 19.478C49.1662 20.002 47.4339 20.55 46.0609 21.838C45.6603 22.21 45.3342 22.522 45.0612 22.792C43.7924 24.01 43.6627 24.14 42.6237 24.14C40.2176 24.14 38.5128 24.742 36.7313 26.216C35.325 27.516 33.9324 28.736 32.3081 29.31C31.5813 29.566 30.7721 29.662 29.9157 29.746C28.6862 29.856 28.4957 29.87 27.3349 30.154C25.5809 30.562 23.7208 32.034 22.1495 33.28C21.633 33.688 20.9475 34.228 20.6214 34.444C20.4506 34.554 20.2482 34.684 20.0833 34.784C18.127 35.944 16.2846 37.044 13.9198 37.044H13.743C11.9773 36.914 10.3745 35.674 9.83635 34.034C9.34139 32.188 9.87171 30.292 11.3036 28.838C11.9832 28.146 12.757 27.476 13.5132 26.826C14.7231 25.78 15.8643 24.79 16.6598 23.706C17.5829 22.446 17.4808 20.322 16.4417 19.166C15.4086 18.01 13.0988 17.436 12.2287 17.222L12.0794 17.186C11.991 17.166 11.8417 17.146 11.7592 17.126C11.2093 17.014 10.679 16.938 10.1428 16.806C8.76983 16.426 7.7033 15.34 6.4875 14.676C6.01807 15.408 5.86094 16.204 5.92379 17.09C6.1536 18.958 7.68366 20.896 9.38067 21.684C9.45531 21.712 9.52406 21.746 9.59869 21.768C10.1349 22.002 10.6986 22.038 11.2289 22.038H11.9164C12.2424 22.038 12.6372 22.038 12.9888 22.128C13.1757 22.1827 13.3428 22.2916 13.4698 22.4415C13.5968 22.5914 13.6781 22.7758 13.7037 22.972C13.7312 23.22 13.6212 23.414 13.3109 23.656L12.4467 24.382C10.9854 25.608 9.47692 26.882 8.25326 28.422C6.60928 30.23 6.53464 33.37 7.30262 35.404C8.28076 38.084 10.9854 39.584 13.2343 39.874C13.635 39.936 14.0357 39.972 14.458 39.972C15.7818 39.972 17.0388 39.646 18.2625 39.334C18.3096 39.32 18.345 39.32 18.3784 39.32C18.4334 39.32 18.5414 39.32 18.5611 39.604C18.5964 40.158 18.6298 40.788 18.6573 41.396C18.6966 42.386 18.7457 43.32 18.8144 43.716C18.9755 44.594 19.4037 45.666 19.6904 46.372C19.8122 46.67 19.9065 46.904 19.934 47.022C20.044 47.422 19.9418 47.86 19.6767 48.108C18.7535 48.974 16.868 49.658 16.5223 49.708C15.9664 49.776 15.3752 49.81 14.9392 49.832C14.7231 49.844 14.5464 49.852 14.458 49.866C14.263 49.8862 14.0807 49.9737 13.9414 50.114C13.6762 50.378 13.3914 51.132 13.0516 52.004C12.8474 52.53 12.6431 53.076 12.4329 53.526C11.8417 54.522 10.8557 55.11 9.89921 55.67C9.65958 55.81 9.42192 55.954 9.19212 56.1L9.16462 56.128C8.77179 56.764 8.37504 57.366 7.86632 57.822C7.4735 58.196 6.96871 58.28 6.47964 58.342H6.44625L6.42661 58.37C5.67827 59.242 5.44061 60.396 5.20295 61.524C5.16956 61.698 5.12832 61.87 5.09296 62.036L5.05957 62.196H5.15581C5.54864 62.244 5.94147 62.328 6.35787 62.424C6.90782 62.548 7.47153 62.674 8.02935 62.674C8.55966 62.674 9.00749 62.562 9.41603 62.334C10.129 62.002 10.5101 61.33 10.8832 60.688C11.1288 60.266 11.3802 59.822 11.72 59.484C11.8141 59.3742 11.9313 59.2873 12.0629 59.2298C12.1945 59.1724 12.337 59.1458 12.4801 59.152C12.759 59.152 13.0654 59.234 13.3561 59.318C13.6291 59.394 13.906 59.47 14.1712 59.484C15.4911 59.56 16.7403 58.716 17.3453 58.224C17.6104 58.01 17.8756 57.754 18.1329 57.512C18.5336 57.132 18.9421 56.736 19.384 56.46C19.9202 56.196 20.5664 56.072 21.3678 56.072C22.3597 56.072 23.4125 56.272 24.2492 56.432C24.695 56.55 25.1536 56.6105 25.6143 56.612C26.3662 56.6242 27.1085 56.4382 27.7689 56.072C28.5035 55.652 29.242 55.256 29.8352 54.938C30.1809 54.75 30.4873 54.592 30.725 54.454C31.7777 53.866 32.6753 52.232 33.0073 51.554C33.3215 50.924 33.8519 49.562 33.8578 49.548L33.8853 49.486L32.6537 48.53L32.6066 48.614C32.6066 48.614 31.7915 49.976 31.269 50.606C29.1006 53.61 25.573 53.996 22.7407 53.996C22.5443 53.99 22.3479 53.982 22.1554 53.982C18.6494 53.982 15.823 55.18 13.7568 57.546C13.6625 57.656 13.4916 57.678 13.4229 57.58C13.3836 57.526 13.3698 57.436 13.3973 57.324C13.4373 57.113 13.516 56.9115 13.6291 56.73C15.823 53.554 19.5745 53.084 22.5974 53.028C24.8325 52.876 26.4569 52.482 27.8711 51.748C29.6859 50.808 31.0235 48.732 31.5538 47.084C31.8995 46.004 32.0704 44.85 32.2334 43.736C32.363 42.85 32.4986 41.936 32.7146 41.092C32.7343 41.0396 32.769 40.9945 32.8141 40.9624C32.8593 40.9303 32.9129 40.9127 32.968 40.912C32.9935 40.912 33.0151 40.912 33.0544 40.932C33.1723 40.954 33.3883 41.036 33.3883 41.21C33.0819 42.954 32.6675 45.348 33.4492 47.34C33.8165 48.128 34.5904 48.516 35.8278 48.516C36.5742 48.516 37.3912 48.384 38.1848 48.26C38.7976 48.164 39.375 48.066 39.87 48.046C40.0821 48.026 40.2923 48.018 40.5103 48.018C41.4943 48.018 42.4469 48.212 43.3642 48.398C44.1656 48.564 44.9944 48.73 45.8429 48.772C45.9922 48.78 46.1572 48.792 46.3261 48.808C46.6188 48.834 46.9232 48.856 47.2375 48.856C47.9563 48.856 48.467 48.71 48.8343 48.406C49.0916 48.192 49.0032 47.866 48.8873 47.458L48.8677 47.382C48.8481 47.312 48.8284 47.236 48.799 47.154C48.6359 46.614 48.3865 45.798 48.799 45.416C48.8664 45.3663 48.9475 45.3397 49.0307 45.34C49.0975 45.34 49.1937 45.36 49.2212 45.472L49.3568 45.942C49.5394 46.594 49.73 47.272 50.1385 47.852C51.0027 48.972 52.3324 50.038 53.9902 50.918C55.0587 51.664 56.3412 52.924 56.4453 54.682C56.4453 55.478 55.6833 56.03 55.1195 56.376C54.2278 56.826 52.7056 57.332 51.9868 57.332C51.8914 57.338 51.796 57.3215 51.7078 57.284C50.6747 56.724 50.1444 55.816 49.5807 54.854C49.2884 54.3249 48.9547 53.8206 48.5829 53.346C48.0447 52.738 47.3651 52.502 46.4479 52.578C45.564 52.648 44.7489 52.82 43.7845 53.028C43.6908 53.0453 43.6024 53.0852 43.5269 53.1444C43.4514 53.2035 43.3909 53.2802 43.3504 53.368C43.3076 53.4728 43.2901 53.5865 43.2993 53.6996C43.3085 53.8127 43.3443 53.9219 43.4035 54.018C43.9063 54.93 44.3895 55.76 44.906 56.638L45.1378 57.034C45.2596 57.248 45.5247 57.276 45.7408 57.276C45.8586 57.276 45.9863 57.27 46.1218 57.256C46.2652 57.248 46.4145 57.236 46.5638 57.236C47.0116 57.236 47.2984 57.346 47.481 57.574C47.6381 57.814 47.7737 58.072 47.9092 58.32C48.249 58.936 48.5966 59.58 49.18 60.036C49.7103 60.516 50.4763 60.784 51.2797 60.784C51.6332 60.784 51.973 60.728 52.299 60.632C54.6167 59.892 56.8716 59.132 59.0184 57.962C59.0184 57.962 59.8688 57.948 60.1949 57.92L60.187 57.9ZM64.0407 31.44C64.0014 31.586 63.911 31.682 63.8089 31.682C63.7696 31.682 63.6596 31.662 63.6262 31.474C63.2393 29.462 63.0075 28.472 62.5518 27.544C62.4104 27.248 62.2258 26.998 62.0706 26.776C61.7367 26.314 61.4519 25.918 61.7721 25.38C61.8664 25.22 62.104 25.116 62.3613 25.116C62.491 25.116 62.6068 25.144 62.709 25.192C63.09 25.38 63.4632 25.85 63.8443 26.632C64.7949 28.618 64.0407 31.42 64.0328 31.448L64.0407 31.44ZM76.4697 51.492C76.4697 51.492 76.4069 52.06 76.1496 52.308C75.8844 52.55 74.9475 52.682 74.4506 52.668C73.9556 52.648 73.7848 52.578 73.6846 52.426C73.5667 52.252 73.7572 51.914 73.7572 51.914C73.8181 51.79 74.3956 50.564 75.5643 50.24C75.5643 50.24 75.9374 50.1 76.2988 50.28C76.6583 50.46 76.4894 51.374 76.4756 51.5L76.4697 51.492ZM79.852 43.576C79.8185 43.856 79.736 44.1277 79.6084 44.378C79.5475 44.49 79.4454 44.732 79.1056 44.738C78.7324 44.738 78.7579 44.296 78.7579 44.234C78.7579 44.234 78.7108 42.994 78.479 42.476C78.2276 41.908 77.0059 40.31 76.2988 40.38C76.1221 40.394 75.6605 40.678 75.3207 41.126C74.9063 41.674 74.9063 41.742 74.7766 41.826C74.647 41.908 74.484 41.866 74.431 41.542C74.376 41.216 74.3131 40.954 74.4643 40.338C74.6136 39.722 74.7629 39.584 74.9397 39.142C74.9397 39.142 75.307 38.276 75.4425 38.062C75.8235 37.474 76.3263 37.516 76.3263 37.516C76.4619 37.522 76.8959 37.466 77.3673 38.062C77.9094 38.754 77.7936 38.692 77.9428 38.934C78.0921 39.174 78.2571 39.432 78.7049 39.93C79.1527 40.43 79.6477 41.396 79.7852 41.998C79.9207 42.6 79.9148 43.112 79.8382 43.578L79.852 43.576Z" fill="#D2003C"/>
</g>
</svg>
