<svg width="390" height="72" viewBox="0 0 390 72" fill="none" xmlns="http://www.w3.org/2000/svg">
<path d="M46.9211 46.7079L58.1239 67.211H37.3377L27.8789 49.6892H18.9178V67.211H0V5.09969H34.5996C48.9123 5.09969 57.9994 13.0434 57.9994 27.3291C57.9994 36.5216 53.7675 43.1067 46.9211 46.7079ZM18.9178 21.2421V33.5402H32.3594C36.3421 33.5402 38.8313 31.18 38.8313 27.3291C38.8313 23.4782 36.3421 21.2421 32.3594 21.2421H18.9178ZM118.238 71.8025L61.6086 56.5229L76.7929 0L105.107 7.63973L133.421 15.2794L118.238 71.8025ZM107.534 30.1862L91.7275 25.8384L87.496 41.6147L103.302 45.9639L107.534 30.1862ZM198.266 49.6892C198.266 61.6145 190.674 67.211 178.85 67.211H141.762V5.09969H177.606C189.43 5.09969 197.022 11.1866 197.022 21.8698C197.022 28.5779 194.532 33.0512 189.803 36.1568C195.155 38.5092 198.266 43.2309 198.266 49.6892ZM160.182 20.0065V29.199H172.496C175.857 29.199 177.848 27.7083 177.848 24.4785C177.848 21.4972 175.857 20.0065 172.496 20.0065H160.182ZM160.182 52.3046H173.997C177.232 52.3046 179.106 50.5654 179.106 47.5827C179.106 44.3542 177.239 42.8635 173.997 42.8635H160.182V52.3046ZM207.601 5.09969H226.516V48.8209H253.648V67.211H207.598L207.601 5.09969ZM323.225 36.1568C323.225 42.5447 321.327 48.7892 317.771 54.1007C314.215 59.4122 309.161 63.5517 303.248 65.9963C297.336 68.4409 290.829 69.0806 284.552 67.8342C278.275 66.5878 272.509 63.5118 267.983 58.9948C263.458 54.4777 260.376 48.7231 259.128 42.4578C257.879 36.1926 258.52 29.6985 260.969 23.7969C263.418 17.8952 267.566 12.8509 272.887 9.30196C278.208 5.75299 284.465 3.85876 290.865 3.85876C295.116 3.85032 299.327 4.67976 303.257 6.29946C307.187 7.91922 310.757 10.2974 313.763 13.2975C316.77 16.2976 319.153 19.8607 320.777 23.7823C322.4 27.704 323.232 31.907 323.225 36.1502V36.1568ZM304.307 36.1568C304.307 28.4536 298.208 22.3667 290.865 22.3667C283.522 22.3667 277.422 28.4536 277.422 36.1568C277.422 43.8599 283.522 49.9456 290.865 49.9456C298.208 49.9456 304.307 43.8508 304.307 36.1502V36.1568ZM368.777 35.1617L389.189 67.211H366.656L355.46 48.9439L343.885 67.211H320.984L342.267 35.9057L322.727 5.09969H345.254L355.584 21.8698L365.541 5.09969H387.943L368.777 35.1617Z" fill="black"/>
</svg>
