<svg width="528" height="72" viewBox="0 0 528 72" fill="none" xmlns="http://www.w3.org/2000/svg">
<g clip-path="url(#clip0_4_67)">
<path d="M186.56 71.28L179.79 59.28C182.955 53.07 182.955 45.75 182.955 36.12C182.955 24.12 182.955 15.12 176.185 7.83002C173.852 5.22447 170.99 3.17331 167.8 1.82062C164.609 0.467932 161.169 -0.153484 157.719 2.15159e-05C154.279 -0.0776794 150.86 0.578352 147.681 1.92638C144.502 3.27441 141.632 5.28492 139.254 7.83002C132.483 14.79 132.483 23.61 132.483 36C132.483 48.39 132.131 57 139.254 64.26C141.614 66.8434 144.48 68.888 147.666 70.26C150.851 71.5964 154.279 72.2204 157.719 72.09C159.644 72.0611 161.56 71.8197 163.435 71.37L186.56 71.28ZM148.867 55.83C146.405 52.83 145.702 49.59 145.702 36C145.702 22.41 146.552 19.08 148.867 16.17C149.994 15.0192 151.328 14.1023 152.795 13.47C154.25 12.8356 155.815 12.5091 157.397 12.51C158.987 12.5124 160.561 12.8387 162.028 13.47C163.486 14.103 164.81 15.02 165.926 16.17C168.388 19.17 169.091 22.41 169.091 36C169.091 49.59 168.388 52.89 165.926 55.83C164.836 57.0133 163.519 57.953 162.057 58.59C160.574 59.1898 158.991 59.4854 157.397 59.46C155.809 59.4926 154.231 59.1861 152.766 58.56C151.299 57.9301 149.972 57.0013 148.867 55.83Z" fill="black"/>
<path d="M342.433 0.719971H355.534V71.28H342.433V0.719971Z" fill="black"/>
<path d="M24.8845 72C14.6552 72 6.8 69.81 0 62.82L8.52931 54C10.733 56.0564 13.313 57.6455 16.1202 58.6754C18.9274 59.7052 21.9062 60.1554 24.8845 60C32.7103 60 36.9603 57 36.9603 51.18C37.0007 50.0967 36.8314 49.016 36.4621 48C36.1042 46.993 35.5452 46.0735 34.8207 45.3C33.1249 43.8087 31.0112 42.9055 28.7828 42.72L20.5172 41.55C15.613 41.1228 10.9948 39.0079 7.41552 35.55C5.76945 33.6797 4.49514 31.4991 3.66379 29.13C2.7888 26.725 2.39991 24.1633 2.52069 21.6C2.46207 9.17998 11.3431 0.359985 26.3793 0.359985C35.6121 0.359985 42.7345 2.51999 48.45 8.42998L39.8328 16.92C37.9755 15.1608 35.7818 13.8152 33.3904 12.9684C30.999 12.1215 28.462 11.7917 25.9397 12C18.8172 12 15.3 16.08 15.3 21C15.3564 22.9101 16.1092 24.7294 17.4103 26.1C19.2526 27.6643 21.4678 28.6996 23.8293 29.1L32.0069 30.18C36.8929 30.3153 41.5583 32.2915 45.1086 35.73C46.9273 37.7491 48.3413 40.1138 49.2707 42.69C50.1797 45.2953 50.5878 48.056 50.4724 50.82C50.4724 64.35 39.1293 72.09 24.8552 72.09" fill="black"/>
<path d="M69.6121 71.28V0.719971H114.721V12.72H83.0655V29.37H110.031V42H83.0948V59.31H114.75V71.31H69.6121" fill="black"/>
<path d="M228.064 72C214.171 72 202.828 62.1 202.828 47.04V0.719971H216.398V46.62C216.398 54.72 221.059 59.46 228.122 59.46C235.186 59.46 239.846 54.63 239.846 46.62V0.719971H252.948V46.98C252.948 61.98 242.045 71.94 228.152 71.94" fill="black"/>
<path d="M316.141 64.26C313.806 66.8601 310.942 68.9057 307.753 70.2531C304.563 71.6006 301.123 72.2173 297.676 72.06C294.24 72.1559 290.823 71.5111 287.647 70.1673C284.471 68.8235 281.606 66.8108 279.24 64.26C272.586 57.27 272.586 48.45 272.586 36C272.586 23.55 272.234 15 279.386 7.74C281.699 5.16317 284.535 3.1352 287.694 1.79817C290.853 0.46115 294.26 -0.152575 297.676 -6.57048e-07C301.11 -0.0492846 304.517 0.616775 307.692 1.95768C310.866 3.29858 313.741 5.28631 316.141 7.8C322.912 14.79 322.912 23.61 322.912 36.06C322.912 48.51 322.912 57 316.141 64.26ZM306.205 16.26C305.091 15.109 303.764 14.1953 302.303 13.5718C300.841 12.9483 299.274 12.6272 297.691 12.6272C296.107 12.6272 294.54 12.9483 293.078 13.5718C291.617 14.1953 290.29 15.109 289.176 16.26C286.684 19.26 286.01 22.5 286.01 36.09C286.01 49.68 286.684 52.98 289.176 55.89C290.286 57.0483 291.611 57.9685 293.073 58.5966C294.535 59.2247 296.105 59.5482 297.691 59.5482C299.276 59.5482 300.846 59.2247 302.308 58.5966C303.77 57.9685 305.095 57.0483 306.205 55.89C308.667 52.89 309.371 49.68 309.371 36.09C309.371 22.5 308.755 19.08 306.205 16.17V16.26Z" fill="black"/>
<path d="M418.493 71.28L414.595 58.8H390.414L386.193 71.28H372.241L397.214 0.719971H407.414L432.298 71.28H418.493ZM402.46 21.27L393.931 46.98H410.99L402.46 21.27Z" fill="black"/>
<path d="M510.528 0.719971H527.586V18.36H510.528V0.719971Z" fill="black"/>
<path d="M467.881 56.1V0.719971H459.352V65.01L467.881 56.1Z" fill="black"/>
<path d="M473.86 62.46L465.331 71.28H527.586V62.46H473.86Z" fill="black"/>
<path d="M484.94 38.55V0.719971H476.41V47.37L484.94 38.55Z" fill="black"/>
<path d="M490.919 44.8201L482.36 53.6401H527.586V44.8201H490.919Z" fill="black"/>
<path d="M501.969 21V0.719971H493.44V29.73L501.969 21Z" fill="black"/>
<path d="M507.978 27.1801L499.478 36.0001H527.586V27.1801H507.978Z" fill="black"/>
</g>
<defs>
<clipPath id="clip0_4_67">
<rect width="527.586" height="72" fill="white"/>
</clipPath>
</defs>
</svg>
