<svg width="315" height="72" viewBox="0 0 315 72" fill="none" xmlns="http://www.w3.org/2000/svg">
<path d="M170.847 41.7409V56.2721C170.846 57.0114 170.556 57.72 170.041 58.2422C169.526 58.7644 168.829 59.0576 168.103 59.0576H167.922C167.195 59.0576 166.498 58.7644 165.983 58.2422C165.469 57.72 165.179 57.0114 165.177 56.2721V43.7841C165.177 37.4385 162.832 34.2277 158.197 34.2277C151.635 34.2277 149.19 40.1607 149.19 43.8982V56.2721C149.188 57.0103 148.899 57.7179 148.386 58.2399C147.873 58.7619 147.177 59.056 146.452 59.0576H146.271C145.544 59.0576 144.847 58.7644 144.332 58.2422C143.818 57.72 143.528 57.0114 143.526 56.2721V32.1147C143.51 31.3743 143.783 30.6574 144.286 30.1219C144.789 29.5864 145.48 29.2759 146.208 29.2593C146.936 29.2424 147.641 29.5205 148.167 30.0321C148.694 30.5438 148.999 31.2474 149.015 31.9878L149.071 33.2568C149.072 33.2935 149.084 33.3288 149.105 33.3583C149.126 33.388 149.156 33.4101 149.19 33.4218C149.224 33.4357 149.261 33.4391 149.297 33.431C149.332 33.4231 149.365 33.4044 149.39 33.3774C150.746 31.9311 152.373 30.7751 154.174 29.9775C155.976 29.1798 157.917 28.7566 159.881 28.7325C166.849 28.7514 170.847 33.4852 170.847 41.7409ZM129.916 42.0771L128.001 41.3348C123.778 39.7166 121.663 38.9043 121.663 36.8928C121.663 34.8813 123.959 33.7201 126.179 33.7201C127.583 33.7201 129.454 34.234 130.477 35.6745C130.796 36.147 131.251 36.5085 131.778 36.7106C132.306 36.9124 132.881 36.945 133.428 36.804C133.873 36.6793 134.279 36.441 134.608 36.1121C134.938 35.7829 135.179 35.3739 135.309 34.9234C135.44 34.473 135.455 33.9962 135.354 33.5379C135.253 33.0798 135.039 32.6554 134.731 32.3051C132.791 30.0461 129.629 28.7517 126.055 28.7517C121.195 28.7517 116.037 31.6071 116.037 36.8865C116.037 41.963 120.447 44.1331 124.277 45.4467L126.148 46.1637C130.752 47.8897 132.854 48.7017 132.854 51.24C132.854 53.2326 130.683 54.5778 127.446 54.5778C124.526 54.5778 122.331 53.5689 121.252 51.7413C121.003 51.3216 120.65 50.9754 120.228 50.7373C119.807 50.499 119.332 50.3771 118.85 50.3834H118.513C118.051 50.3917 117.6 50.5233 117.203 50.765C116.807 51.0066 116.48 51.3498 116.255 51.7604C116.031 52.1537 115.913 52.6003 115.913 53.0548C115.913 53.5095 116.031 53.9559 116.255 54.3492C118.201 57.7443 122.131 59.6478 127.358 59.6478C134.051 59.6478 138.549 56.3355 138.549 51.3986C138.549 47.1852 135.885 44.3172 129.916 42.0771ZM311.43 30.5854C311.183 30.1957 310.844 29.8753 310.442 29.6537C310.041 29.4321 309.592 29.316 309.137 29.3164H309.035C308.504 29.3207 307.984 29.4825 307.542 29.7824C307.098 30.0821 306.75 30.5067 306.54 31.0041L298.12 50.8338C298.098 50.886 298.063 50.9304 298.016 50.961C297.967 50.9916 297.914 51.0071 297.859 51.0053C297.802 51.0062 297.748 50.9904 297.702 50.9598C297.656 50.9295 297.618 50.8856 297.596 50.8338L289.094 30.9978C288.881 30.5031 288.534 30.0816 288.09 29.7844C287.647 29.487 287.13 29.3268 286.599 29.3227H286.499C286.046 29.3277 285.601 29.4467 285.203 29.669C284.805 29.8913 284.469 30.2099 284.221 30.5969C283.976 30.9837 283.825 31.4267 283.788 31.8864C283.75 32.346 283.823 32.8082 284.005 33.2314L294.745 58.3025C294.782 58.3887 294.802 58.4816 294.802 58.5754C294.802 58.6695 294.782 58.7624 294.745 58.8483L291.77 66.0378C291.589 66.4603 291.516 66.922 291.553 67.381C291.591 67.8402 291.739 68.2828 291.987 68.6689C292.235 69.055 292.571 69.3725 292.969 69.5934C293.367 69.8142 293.812 69.9312 294.265 69.9339H294.309C294.84 69.9285 295.358 69.7669 295.8 69.4686C296.244 69.1702 296.592 68.7477 296.804 68.2524L311.643 33.2251C311.826 32.8017 311.901 32.3388 311.864 31.878C311.828 31.4172 311.678 30.9731 311.43 30.5854ZM207.3 32.1147V56.2721C207.28 56.9957 206.987 57.6837 206.481 58.1929C205.975 58.7023 205.296 58.9932 204.585 59.0056C203.873 59.0178 203.184 58.7502 202.662 58.2588C202.139 57.7674 201.823 57.0897 201.78 56.3673L201.711 54.4064C201.709 54.3562 201.692 54.3078 201.662 54.268C201.632 54.2282 201.59 54.1989 201.542 54.1843C201.494 54.171 201.444 54.1731 201.397 54.1902C201.35 54.207 201.309 54.2383 201.281 54.2795C200.045 55.9683 198.434 57.3354 196.578 58.2685C194.723 59.2016 192.677 59.6743 190.608 59.6478C182.318 59.6478 175.825 52.8453 175.825 44.152C175.825 35.4587 182.318 28.7706 190.608 28.7706C192.676 28.7427 194.722 29.2134 196.577 30.1442C198.432 31.0752 200.044 32.4396 201.281 34.1262C201.308 34.1685 201.349 34.2003 201.396 34.2165C201.444 34.2324 201.495 34.232 201.542 34.2151C201.591 34.2034 201.635 34.1748 201.666 34.1346C201.696 34.0941 201.712 34.0441 201.711 33.993L201.78 32.0385C201.823 31.316 202.139 30.6383 202.662 30.1469C203.184 29.6555 203.873 29.388 204.585 29.4001C205.296 29.4125 205.975 29.7034 206.481 30.2128C206.987 30.722 207.28 31.41 207.3 32.1336V32.1147ZM201.125 44.1331C201.131 42.8281 200.881 41.535 200.39 40.3293C199.899 39.1237 199.177 38.0295 198.266 37.1109C197.355 36.1922 196.273 35.4675 195.083 34.979C193.894 34.4905 192.62 34.2482 191.338 34.2657C189.948 34.2655 188.573 34.5632 187.304 35.1394C186.035 35.7154 184.899 36.5574 183.971 37.6099C183.055 38.6361 182.364 39.8498 181.947 41.1699C181.53 42.4897 181.395 43.8852 181.551 45.2626C181.855 47.8375 183.12 50.1951 185.084 51.8484C187.048 53.5017 189.562 54.3243 192.105 54.1463C194.581 53.9649 196.895 52.8267 198.573 50.9646C200.25 49.1027 201.163 46.6583 201.125 44.1331ZM281.284 44.1331C281.315 52.8264 274.766 59.6478 266.445 59.6478C264.378 59.6889 262.329 59.2248 260.474 58.2939C258.62 57.3631 257.012 55.9929 255.785 54.2986C255.765 54.2682 255.736 54.2451 255.703 54.2325C255.67 54.2199 255.632 54.2187 255.599 54.2289C255.561 54.2397 255.53 54.2624 255.508 54.2932C255.484 54.3243 255.473 54.3616 255.473 54.4001V67.1673C255.471 67.9055 255.183 68.6131 254.67 69.1351C254.157 69.6573 253.46 69.9512 252.735 69.953H252.547C251.821 69.9512 251.127 69.6573 250.614 69.1351C250.101 68.6131 249.811 67.9055 249.809 67.1673V32.1147C249.824 31.395 250.112 30.7087 250.612 30.1995C251.111 29.6901 251.786 29.3972 252.494 29.3817C253.202 29.3661 253.887 29.6292 254.409 30.1158C254.931 30.6027 255.247 31.2757 255.292 31.9941L255.387 34.1643C255.387 34.2003 255.398 34.2351 255.42 34.2639C255.44 34.2925 255.471 34.3132 255.504 34.3229C255.537 34.3332 255.573 34.3326 255.606 34.3213C255.637 34.3098 255.665 34.2882 255.685 34.2594C256.9 32.5177 258.516 31.1049 260.392 30.1449C262.267 29.1848 264.347 28.7064 266.445 28.7517C274.766 28.7517 281.315 35.535 281.315 44.1331H281.284ZM265.722 34.2657C264.415 34.2322 263.115 34.4651 261.898 34.9504C260.682 35.436 259.574 36.1641 258.638 37.0922C257.702 38.0203 256.959 39.1296 256.451 40.3547C255.944 41.5796 255.681 42.8956 255.681 44.2251C255.681 45.5544 255.944 46.8705 256.451 48.0956C256.959 49.3205 257.702 50.4297 258.638 51.3579C259.574 52.286 260.682 53.0143 261.898 53.4996C263.115 53.9852 264.415 54.2178 265.722 54.1843C267.027 54.2178 268.328 53.9852 269.544 53.4996C270.761 53.0143 271.871 52.286 272.806 51.3579C273.742 50.4297 274.485 49.3205 274.992 48.0956C275.5 46.8705 275.761 45.5544 275.761 44.2251C275.761 42.8956 275.5 41.5796 274.992 40.3547C274.485 39.1296 273.742 38.0203 272.806 37.0922C271.871 36.1641 270.761 35.436 269.544 34.9504C268.328 34.4651 267.027 34.2322 265.722 34.2657ZM244.476 44.1648C244.476 52.8582 237.958 59.6606 229.637 59.6606C227.569 59.7018 225.524 59.2374 223.67 58.3065C221.815 57.3757 220.208 56.0055 218.983 54.3112C218.963 54.2784 218.933 54.2532 218.898 54.2397C218.863 54.2264 218.824 54.2253 218.788 54.237C218.752 54.2489 218.721 54.2725 218.699 54.3045C218.678 54.3362 218.668 54.3744 218.671 54.4127V67.1799C218.669 67.9194 218.38 68.628 217.865 69.1502C217.351 69.6724 216.653 69.9656 215.927 69.9656H215.746C215.019 69.9656 214.322 69.6724 213.807 69.1502C213.293 68.628 213.003 67.9194 213.001 67.1799V32.1147C213.016 31.395 213.303 30.7087 213.804 30.1995C214.304 29.6901 214.978 29.3972 215.686 29.3817C216.393 29.3661 217.079 29.6292 217.601 30.1158C218.122 30.6027 218.439 31.2757 218.484 31.9941L218.578 34.1643C218.579 34.2007 218.592 34.2358 218.614 34.2644C218.637 34.293 218.668 34.3134 218.702 34.3229C218.735 34.3323 218.77 34.3312 218.803 34.32C218.835 34.3085 218.863 34.2876 218.883 34.2594C220.098 32.5186 221.713 31.1065 223.588 30.1464C225.462 29.1864 227.539 28.7076 229.637 28.7517C237.951 28.7517 244.469 35.535 244.469 44.1331L244.476 44.1648ZM228.919 34.2657C226.366 34.3314 223.938 35.4094 222.155 37.2699C220.372 39.1307 219.374 41.6264 219.374 44.2251C219.374 46.8237 220.372 49.3196 222.155 51.1801C223.938 53.0406 226.366 54.1188 228.919 54.1843C230.226 54.2178 231.526 53.9852 232.743 53.4996C233.959 53.0143 235.067 52.286 236.003 51.3579C236.938 50.4297 237.684 49.3205 238.19 48.0956C238.699 46.8705 238.96 45.5544 238.96 44.2251C238.96 42.8956 238.699 41.5796 238.19 40.3547C237.684 39.1296 236.938 38.0203 236.003 37.0922C235.067 36.1641 233.959 35.436 232.743 34.9504C231.526 34.4651 230.226 34.2322 228.919 34.2657Z" fill="#012754"/>
<path d="M104.466 39.2344C103.337 32.7238 96.931 28.3136 89.7514 28.7831C89.2036 28.8223 88.6544 28.7276 88.1499 28.5068C87.6452 28.2861 87.1999 27.9457 86.8509 27.5141C82.2272 21.769 76.2367 17.3217 69.4479 14.5947H69.7036C63.073 10.4193 59.948 2.74127 56.6421 2.74127C53.3362 2.74127 56.5859 9.56903 54.0285 9.56903C51.471 9.56903 48.9386 0 44.8466 0C40.7549 0 44.3538 10.1528 42.0709 10.1528C39.7879 10.1528 38.9521 7.0562 35.4714 7.0562C33.0263 7.0562 33.7124 10.9206 34.3238 13.1987C34.4425 13.6316 34.4069 14.0935 34.2231 14.5023C34.0393 14.9111 33.7193 15.2405 33.3196 15.4323C27.2939 18.3195 21.1312 23.3705 17.819 27.4887C17.4748 27.9275 17.0326 28.2762 16.5292 28.5057C16.0257 28.7352 15.4756 28.8392 14.9247 28.8086C7.72647 28.2947 1.30169 32.7112 0.172675 39.2344C-0.694358 44.2283 1.76951 49.1396 6.08597 52.0839C6.57464 52.4156 6.97016 52.8705 7.23372 53.4044C7.49727 53.9386 7.61978 54.533 7.58923 55.1297C7.53934 56.0689 7.51439 57.0335 7.51439 57.9726C7.63913 60.1619 11.0324 60.1745 11.0324 57.9726C11.0324 52.1982 16.7399 19.7472 52.3257 19.7472C87.9114 19.7472 93.6063 52.1982 93.6063 57.9726C93.6063 60.1682 96.9498 60.1682 97.1243 57.9726C97.1243 57.008 97.0995 56.0563 97.0495 55.1171C97.0212 54.5225 97.1448 53.9305 97.4083 53.399C97.6717 52.8674 98.066 52.4144 98.5529 52.0839C102.857 49.1396 105.327 44.2283 104.46 39.2344H104.466ZM8.88667 46.0683C8.84071 46.2683 8.74291 46.4522 8.60346 46.6004C8.46398 46.7489 8.28797 46.8565 8.09371 46.9123C7.89945 46.9681 7.69405 46.9697 7.49893 46.9172C7.30378 46.8648 7.12605 46.7602 6.98419 46.6142C6.14569 45.7724 5.51434 44.741 5.14149 43.6043C4.76863 42.4674 4.66479 41.2571 4.83843 40.0718C5.38734 36.8991 8.09449 34.5323 11.5377 33.8024C11.7474 33.755 11.9661 33.7694 12.168 33.8441C12.37 33.9185 12.5468 34.0502 12.6778 34.2234C12.8088 34.3967 12.8885 34.6043 12.9075 34.8219C12.9265 35.0397 12.8841 35.2584 12.7852 35.4524C11.0714 38.819 9.76244 42.3833 8.88667 46.0683ZM95.7709 46.0683C94.9176 42.4031 93.6383 38.8541 91.9596 35.4967C91.8597 35.3032 91.8165 35.0845 91.8353 34.8667C91.8539 34.6489 91.9337 34.441 92.0651 34.268C92.1965 34.0949 92.3739 33.9638 92.5765 33.8904C92.7789 33.8168 92.9978 33.804 93.207 33.8533C96.6129 34.6021 99.2763 36.95 99.8253 40.1036C99.996 41.276 99.8956 42.4726 99.5318 43.5985C99.1679 44.7244 98.5509 45.7484 97.7294 46.5887C97.5903 46.7433 97.4123 46.8563 97.2145 46.9154C97.0168 46.9744 96.8071 46.9773 96.6078 46.9238C96.4088 46.87 96.2276 46.762 96.0845 46.6112C95.9414 46.4605 95.8415 46.2728 95.7957 46.0683H95.7709ZM76.3157 41.7535C78.3492 41.7535 80.002 43.9173 80.002 46.5696C80.002 49.2221 78.3492 51.3923 76.3157 51.3923C74.2822 51.3923 72.6291 49.2284 72.6291 46.5696C72.6291 43.911 74.2822 41.7535 76.3157 41.7535ZM28.3233 41.7535C30.3565 41.7535 32.0096 43.9173 32.0096 46.5696C32.0096 49.2221 30.3565 51.3986 28.3233 51.3986C26.2898 51.3986 24.6367 49.2347 24.6367 46.5761C24.6367 43.9173 26.2898 41.7598 28.3233 41.7598V41.7535ZM68.9428 59.9967C69.319 60.0217 69.6718 60.1913 69.9297 60.4712C70.1876 60.7511 70.3311 61.1204 70.3311 61.5038C70.3311 61.8874 70.1876 62.2566 69.9297 62.5365C69.6718 62.8164 69.319 62.9861 68.9428 63.0108C68.1417 62.9849 67.3532 62.7995 66.6222 62.4652C65.749 63.1697 60.6903 66.9515 52.3442 66.9515C44.1417 66.9515 39.1142 63.3029 38.1163 62.5095C37.4134 62.8173 36.6605 62.9894 35.8957 63.0173C35.5194 62.9924 35.1664 62.8227 34.9085 62.5428C34.6509 62.2629 34.5073 61.8937 34.5073 61.5103C34.5073 61.1267 34.6509 60.7574 34.9085 60.4775C35.1664 60.1976 35.5194 60.028 35.8957 60.0032C36.438 59.9436 36.9617 59.7681 37.4326 59.4882C37.9035 59.2083 38.3107 58.8301 38.6278 58.3787C38.7117 58.1848 38.8346 58.0111 38.989 57.8689C39.1434 57.7269 39.3256 57.6196 39.5236 57.5539C39.7215 57.4884 39.931 57.4661 40.138 57.4886C40.345 57.5111 40.545 57.578 40.725 57.6844C40.9048 57.791 41.0605 57.935 41.182 58.1072C41.3034 58.2793 41.3877 58.4755 41.4295 58.6829C41.471 58.8904 41.4693 59.1046 41.4239 59.3114C41.3786 59.5181 41.2908 59.7128 41.1665 59.8826C41.0574 60.0721 40.9367 60.2543 40.8046 60.4283C44.2601 62.5982 48.2529 63.7187 52.3131 63.6581C56.4117 63.7202 60.4404 62.5766 63.9153 60.3648C63.802 60.2127 63.6978 60.0539 63.6032 59.8889C63.4063 59.5422 63.353 59.1302 63.4548 58.7435C63.5565 58.3567 63.8051 58.0268 64.1459 57.8266C64.4868 57.6263 64.8917 57.5721 65.2719 57.6756C65.6521 57.7791 65.9764 58.032 66.1732 58.3787C66.4928 58.8366 66.9055 59.2193 67.3835 59.5008C67.8612 59.7823 68.3932 59.9558 68.9428 60.0095" fill="#012754"/>
</svg>
