<svg width="275" height="72" viewBox="0 0 275 72" fill="none" xmlns="http://www.w3.org/2000/svg">
<g clip-path="url(#clip0_6_146)">
<path d="M255.24 10.3613H274.105V0.774048H244.317V67.8826H274.105V58.2976H255.24V38.6438H270.234V29.0566H255.24V10.3613Z" fill="black"/>
<path d="M224.789 67.8825C223.697 65.3917 223.599 62.9932 223.599 59.7352V49.3807C223.599 42.3832 221.811 37.3005 216.349 35.0955C221.214 32.8905 223.499 28.3837 223.499 21.483V16.2067C223.499 5.85223 218.633 0.771729 207.315 0.771729H190.83V67.8825H201.753V40.5607H205.526C210.492 40.5607 212.676 42.8602 212.676 49.0927V59.6385C212.676 65.1037 213.073 66.159 213.67 67.8847L224.789 67.8825ZM207.018 10.3635C210.89 10.3635 212.578 12.4717 212.578 17.2665V23.8815C212.578 29.25 210.095 30.9757 206.022 30.9757H201.753V10.3612H207.016L207.018 10.3635Z" fill="black"/>
<path d="M158.38 67.8825H169.303V0.776245H158.38V67.8825Z" fill="black"/>
<path d="M104.781 0.773979V51.8715C104.781 62.6107 110.341 68.7465 121.065 68.7465C131.79 68.7465 137.352 62.6107 137.352 51.8715V0.776229H127.023V52.5487C127.023 57.3412 124.839 59.0647 121.362 59.0647C117.888 59.0647 115.704 57.3412 115.704 52.5465V0.771729H104.781V0.773979Z" fill="black"/>
<path d="M51.4724 51.7724C51.4724 62.5094 57.3291 68.6452 68.0558 68.6452C70.9339 68.6452 73.515 68.1659 75.6987 67.3987C77.188 70.2742 80.2672 71.9999 85.1325 71.9999H86.6218V62.6039H85.6305C83.842 62.6039 83.0493 62.4127 82.5514 61.1662C83.9402 58.6732 84.6369 55.5097 84.6369 51.7702V16.8749C84.6369 6.13795 78.7779 0.00219727 68.0535 0.00219727C57.3291 0.00219727 51.4701 6.13795 51.4701 16.8772V51.7747L51.4724 51.7724ZM62.3932 16.1999C62.3932 11.4074 64.5792 9.58495 68.0535 9.58495C71.5301 9.58495 73.7138 11.4074 73.7138 16.1999V52.4407C73.7138 57.2332 71.5301 59.0557 68.0535 59.0557C64.5792 59.0557 62.3932 57.2332 62.3932 52.4407V16.1999Z" fill="black"/>
<path d="M0.296947 16.875C0.296947 36.0472 21.6475 38.637 21.6475 52.443C21.6475 57.2355 19.4615 58.9612 15.9872 58.9612C12.5106 58.9612 10.3269 57.2355 10.3269 52.443V47.6505H0V51.7703C0 62.5095 5.55977 68.6453 16.2864 68.6453C27.0085 68.6453 32.5683 62.5095 32.5683 51.7703C32.5683 32.5958 11.22 30.0083 11.22 16.2023C11.22 11.4098 13.2073 9.58725 16.6816 9.58725C20.1559 9.58725 22.1409 11.4098 22.1409 16.2023V18.9833H32.4701V16.8728C32.4701 6.13575 27.0085 0 16.3846 0C5.75621 0 0.296947 6.13575 0.296947 16.875Z" fill="black"/>
</g>
<defs>
<clipPath id="clip0_6_146">
<rect width="274.105" height="72" fill="white"/>
</clipPath>
</defs>
</svg>
