<svg width="246" height="72" viewBox="0 0 246 72" fill="none" xmlns="http://www.w3.org/2000/svg">
<g clip-path="url(#clip0_6_153)">
<path d="M13.4182 72.1227H33.9954L60.9545 37.5955H39.4363L13.4182 72.1227ZM12.5181 18.6136L18.4909 26.3455L12.2318 34.2818H0.0817871L12.5181 18.6136Z" fill="#003058"/>
<path d="M60.9545 34.3227H39.7636L13.3772 -0.20459H33.9954L60.9545 34.3227ZM12.5181 53.1818L18.4909 45.45L12.2318 37.5136H0.0817871L12.5181 53.1818Z" fill="#3EA636"/>
<path d="M130.214 8.87724H79.7318V19.5954H99.5318V66.6H110.864V19.5545H130.214V8.87724ZM245.536 55.6772L220.5 55.4318C211.377 55.2681 204.055 47.9045 203.973 38.8227V36.6136C203.973 27.8591 211.582 20.2091 220.582 19.4727L221.482 19.3909L238.582 19.4727V8.83633H221.4C205.65 8.71361 192.805 21.3954 192.641 37.1045V38.25C192.805 54 205.65 66.6409 221.4 66.5182H245.495L245.536 55.6772ZM187.405 66.5182L169.977 44.4272L170.673 44.3863C178.282 43.6909 184.255 35.8772 184.255 26.6318C184.255 17.3454 178.282 9.53179 170.673 8.87724H141.423V19.7182H168.259H168.341C171.409 20.0045 173.782 23.1954 173.782 27C173.782 30.8045 171.409 33.9545 168.382 34.2818H130.214V66.6409H141.423V44.5091H155.495L172.923 66.6L187.405 66.5182Z" fill="#003058"/>
</g>
<defs>
<clipPath id="clip0_6_153">
<rect width="245.455" height="72" fill="white"/>
</clipPath>
</defs>
</svg>
