<svg width="420" height="72" viewBox="0 0 420 72" fill="none" xmlns="http://www.w3.org/2000/svg">
<path d="M111.483 12.783V6.17843H144.258V12.783H131.607V51.8764H124.265V12.783H111.483ZM149.437 51.8764V18.5202H156.516V22.523C156.516 22.523 162.088 18.8538 167.66 17.7864V25.058C161.695 26.2589 156.582 28.5938 156.582 28.5938V51.8764H149.437ZM192.963 18.5202H200.042V51.8764H192.963V49.8084C192.963 49.8084 188.177 52.6103 184.113 52.6103C174.739 52.6103 172.773 47.6736 172.773 35.9322V18.5202H179.918V35.9989C179.918 43.404 180.377 46.1392 185.49 46.1392C189.423 46.1392 192.963 44.4046 192.963 44.4046V18.5202ZM231.572 19.3208L231.441 25.3916C231.441 25.3916 223.706 24.3242 219.773 24.3242C215.84 24.3242 214.07 25.2582 214.07 27.9934C214.07 30.1949 215.446 30.7953 221.87 31.9294C229.737 33.3304 232.555 35.3318 232.555 42.003C232.555 49.8084 227.704 52.6103 219.576 52.6103C215.053 52.6103 207.449 51.1426 207.449 51.1426L207.711 45.0718C207.711 45.0718 215.578 46.1392 218.921 46.1392C223.64 46.1392 225.476 45.1385 225.476 42.2031C225.476 39.8682 224.361 39.1344 217.872 38.067C210.661 36.8661 206.99 35.265 206.99 28.1935C206.99 20.655 212.759 17.8531 219.248 17.8531C224.034 17.8531 231.572 19.3208 231.572 19.3208ZM257.071 24.7245H248.025V39.4012C248.025 44.4046 248.222 46.1392 251.63 46.1392C253.466 46.1392 257.006 45.939 257.006 45.939L257.333 51.743C257.333 51.743 252.941 52.6103 250.647 52.6103C243.24 52.6103 240.946 49.8084 240.946 40.2018V24.7245H236.75V18.5202H240.946V8.84693H248.025V18.5202H257.071V24.7245ZM263.757 51.8764V6.17843H291.616V12.6495H271.033V28.0601H288.142V34.5312H271.033V51.8764H263.757ZM297.975 51.8764V4.64404H305.12V51.8764H297.975ZM314.166 51.8764V18.5202H321.311V51.8764H314.166ZM314.166 12.8497V5.17774H321.311V12.8497H314.166ZM343.467 67.3537C333.569 67.3537 328.39 65.3523 328.39 57.7471C328.39 54.3448 330.029 52.2767 333.372 49.6749C331.996 48.741 331.209 46.873 331.209 44.8049C331.209 43.2705 333.569 39.4679 333.569 39.4679C331.143 38.0003 328.849 35.4652 328.849 29.4611C328.849 21.0553 334.421 17.8531 341.959 17.8531C344.975 17.8531 348.645 18.7204 348.645 18.7204L358.806 18.4535V24.3242L353.365 23.9906C354.217 25.1248 355.135 26.8593 355.135 29.4611C355.135 38.534 350.481 41.0023 341.763 41.0023C341.107 41.0023 339.468 40.8689 338.878 40.7355C338.878 40.7355 337.961 43.0037 337.961 43.8709C337.961 46.0057 338.682 46.406 345.04 46.4727C355.397 46.5394 358.609 48.741 358.609 56.4129C358.609 64.285 352.251 67.3537 343.467 67.3537ZM344.45 52.7437C342.418 52.7437 338.026 52.3434 338.026 52.3434C336.191 53.8778 335.404 55.0119 335.404 57.08C335.404 60.1488 337.567 61.4163 343.533 61.4163C348.842 61.4163 351.464 60.0821 351.464 56.8132C351.464 53.2107 349.76 52.8104 344.45 52.7437ZM341.959 35.3985C346.351 35.3985 348.056 33.5305 348.056 29.4611C348.056 25.4583 346.351 23.5237 341.959 23.5237C337.764 23.5237 335.929 25.4583 335.929 29.4611C335.929 33.5305 337.764 35.3985 341.959 35.3985ZM371.523 51.8764H364.378V4.64404H371.523V20.2547C371.523 20.2547 376.373 17.7864 380.503 17.7864C389.615 17.7864 391.843 23.0567 391.843 33.9975V51.8764H384.698V34.1976C384.698 27.5264 383.912 24.2575 378.864 24.2575C375.259 24.2575 371.523 25.7252 371.523 25.7252V51.8764ZM417.801 24.7245H408.755V39.4012C408.755 44.4046 408.952 46.1392 412.361 46.1392C414.196 46.1392 417.736 45.939 417.736 45.939L418.064 51.743C418.064 51.743 413.672 52.6103 411.378 52.6103C403.97 52.6103 401.676 49.8084 401.676 40.2018V24.7245H397.481V18.5202H401.676V8.84693H408.755V18.5202H417.801V24.7245Z" fill="#062955"/>
<path d="M63.6631 15.7265L65.1353 14.2423L65.2823 13.9355L64.9381 14.0829L64.0643 14.9633C64.3208 12.966 63.3586 10.9279 63.3586 10.9279L64.9096 7.82283C64.9688 7.76389 66.4808 6.00466 66.4808 6.00466L66.8333 4.97466L65.8133 5.3321C65.8133 5.3321 64.0651 6.85404 64.0073 6.91299L60.9241 8.47649C60.9241 8.47649 58.9043 7.50771 56.9191 7.76464L57.7936 6.88352L57.9398 6.53666L57.6353 6.68553L56.1623 8.16893C56.1623 8.16893 58.2248 10.6816 58.8721 11.0571C58.8826 11.0466 57.9301 12.0471 57.9301 12.0471C57.9301 12.0471 55.9171 11.8189 55.3193 12.0879C55.3291 12.1559 56.5163 13.6106 57.3901 14.491C58.2631 15.3713 59.7083 16.5683 59.7773 16.5782C60.0421 15.9744 59.8163 13.9476 59.8163 13.9476C59.8163 13.9476 60.8078 12.9872 60.7981 12.997C61.1693 13.6491 63.6631 15.7265 63.6631 15.7265ZM65.1953 30.8008L66.6676 29.3167L66.8138 29.0106L66.4718 29.1595L65.5981 30.0391C65.8516 28.0411 64.8916 26.0038 64.8916 26.0038L66.4418 22.8972C66.5003 22.8382 68.0123 21.0782 68.0123 21.0782L68.3656 20.049L67.3456 20.4064C67.3456 20.4064 65.5981 21.9291 65.5396 21.9873L62.4563 23.5516C62.4563 23.5516 60.4351 22.5828 58.4521 22.839L59.3258 21.9594L59.4721 21.6125L59.1683 21.7606L57.6953 23.2448C57.6953 23.2448 59.7563 25.7567 60.4043 26.1322C60.4141 26.1217 59.4623 27.1214 59.4623 27.1214C59.4623 27.1214 57.4486 26.894 56.8516 27.1615C56.8621 27.231 58.0493 28.6864 58.9223 29.5661C59.7953 30.4457 61.2406 31.6427 61.3096 31.6533C61.5743 31.0495 61.3486 29.0227 61.3486 29.0227C61.3486 29.0227 62.3401 28.063 62.3311 28.0736C62.7016 28.7235 65.1953 30.8008 65.1953 30.8008ZM68.4346 46.8848L69.9068 45.4006L70.0546 45.0931L69.7103 45.2419L68.8373 46.1223C69.0923 44.1235 68.1301 42.087 68.1301 42.087L69.6803 38.9803C69.7388 38.9206 71.2523 37.1607 71.2523 37.1607L71.6048 36.1329L70.5856 36.4889C70.5856 36.4889 68.8381 38.0123 68.7788 38.0713L65.6963 39.6355C65.6963 39.6355 63.6751 38.6652 61.6913 38.9229L62.5643 38.0425L62.7113 37.6957L62.4061 37.8438L60.9338 39.328C60.9338 39.328 62.9963 41.8398 63.6436 42.2169C63.6541 42.2063 62.7016 43.2061 62.7016 43.2061C62.7016 43.2061 60.6893 42.9771 60.0901 43.2454C60.1013 43.3149 61.2886 44.7681 62.1623 45.6492C63.0361 46.5296 64.4798 47.7258 64.5481 47.7372C64.8136 47.1326 64.5871 45.1059 64.5871 45.1059C64.5871 45.1059 65.5786 44.1462 65.5696 44.1568C65.9408 44.8074 68.4346 46.8848 68.4346 46.8848ZM41.2006 6.62432L42.6728 5.14091L42.9773 4.99204L42.8303 5.33966L41.9573 6.21927C43.9403 5.9631 45.9631 6.93263 45.9631 6.93263L49.0448 5.36837C49.1033 5.30943 50.8516 3.78673 50.8516 3.78673L51.8716 3.43005L51.5191 4.45929C51.5191 4.45929 50.0056 6.21852 49.9471 6.27746L48.3961 9.38331C48.3961 9.38331 49.3576 11.4214 49.1026 13.4187L49.9763 12.5383L50.3213 12.3909L50.1736 12.697L48.7013 14.1819C48.7013 14.1819 46.2061 12.1038 45.8341 11.4516C45.8438 11.4418 44.8531 12.4023 44.8531 12.4023C44.8531 12.4023 45.0781 14.4298 44.8133 15.032C44.7436 15.0207 43.2998 13.8252 42.4261 12.9448C41.5531 12.0645 40.3643 10.6098 40.3553 10.541C40.9546 10.2735 42.9661 10.501 42.9661 10.501C42.9661 10.501 43.9186 9.50195 43.9081 9.51102C43.2623 9.13696 41.2006 6.62432 41.2006 6.62432ZM25.2383 3.36053L26.7106 1.87712L27.0158 1.72825L26.8673 2.07511L25.9943 2.95473C27.9781 2.69779 29.9986 3.66733 29.9986 3.66733L33.0818 2.10458C33.1411 2.04488 34.8878 0.520675 34.8878 0.520675L35.9086 0.16626L35.5561 1.19399C35.5561 1.19399 34.0441 2.95473 33.9856 3.01442L32.4338 6.11952C32.4338 6.11952 33.3961 8.15608 33.1411 10.1556L34.0141 9.27525L34.3583 9.12714L34.2113 9.43319L32.7383 10.9189C32.7383 10.9189 30.2453 8.84073 29.8726 8.18782C29.8816 8.178 28.8893 9.13847 28.8893 9.13847C28.8893 9.13847 29.1166 11.1652 28.8496 11.7682C28.7813 11.7577 27.3376 10.5614 26.4646 9.68105C25.5916 8.80144 24.4021 7.34599 24.3923 7.27647C24.9923 7.00896 27.0038 7.23717 27.0038 7.23717C27.0038 7.23717 27.9563 6.23816 27.9458 6.24874C27.2993 5.87317 25.2383 3.36053 25.2383 3.36053Z" fill="#062955"/>
<path d="M58.005 15.054L31.266 40.812L56.829 13.866L58.005 15.054Z" fill="#062955"/>
<path d="M59.538 30.129L32.796 55.887L58.359 28.944L59.538 30.129Z" fill="#062955"/>
<path d="M62.778 46.2119L36.036 71.9669L61.599 45.0239L62.778 46.2119Z" fill="#062955"/>
<path d="M27.081 10.2481L0.342041 36.0031L25.905 9.06006L27.081 10.2481Z" fill="#062955"/>
<path d="M43.044 13.509L16.302 39.267L41.868 12.324L43.044 13.509Z" fill="#062955"/>
</svg>
