<svg width="310" height="72" viewBox="0 0 310 72" fill="none" xmlns="http://www.w3.org/2000/svg">
<g clip-path="url(#clip0_4_123)">
<path d="M36.9529 38.1636C36.9529 47.3497 35.622 54.3553 21.7446 54.3553C7.86711 54.3553 5.80642 47.6411 5.80642 38.1636V15.819C5.80642 10.8319 3.6706 10.3246 0 10.3246V8.98609H17.5373V10.3246C13.9419 10.3246 11.7416 10.7888 11.7416 15.819V38.1636C11.7416 45.0072 13.3408 51.7106 22.0129 51.7106C31.6724 51.7106 33.1535 46.1407 33.1535 38.1636V15.819C33.1535 10.8319 30.9533 10.3246 27.3685 10.3246V8.98609H42.7593V10.3246C39.0887 10.3246 36.9529 10.7888 36.9529 15.819V38.1636ZM73.8414 52.5202C70.0038 53.8412 65.9609 54.4555 61.9066 54.3337C48.5657 54.3337 42.1583 44.1329 42.1583 29.841C42.1583 17.4274 46.1616 8.30604 60.404 8.30604C64.7469 8.35293 69.0641 8.98462 73.2403 10.1843L73.8414 20.7197H72.1778C71.3085 16.9632 68.6467 10.9183 60.3718 10.9183C49.639 10.9183 48.7697 22.3928 48.7697 29.2689C48.7697 37.9045 50.6479 51.2788 65.2552 51.2788C68.2037 51.3374 71.1308 50.7633 73.8414 49.5949V52.5202ZM109.667 18.6364C109.066 15.085 106.394 10.9183 99.2566 10.9183C94.7917 10.9183 90.8528 13.8112 90.8528 18.237C90.8528 24.2063 98.795 26.1493 104.601 29.5712C109.871 32.6584 113.402 35.411 113.402 41.7905C113.402 50.3073 106.061 54.3337 96.9275 54.3337C93.0756 54.208 89.2394 53.7785 85.4542 53.0491L84.982 43.5932H86.6563C87.1822 47.1446 90.3269 51.3112 97.4642 51.3112C103.335 51.3112 107.124 47.49 107.124 42.8591C107.124 35.6161 96.0475 33.3924 89.8439 28.632C88.4136 27.6372 87.2656 26.2849 86.5128 24.7082C85.76 23.1316 85.4285 21.3849 85.5508 19.6402C85.5508 11.5984 92.1622 8.30604 100.577 8.30604C104.057 8.30347 107.527 8.6872 110.923 9.45026L111.385 18.6364H109.667ZM140.664 53.7184C139.26 54.0774 137.818 54.2587 136.37 54.2581C132.925 54.2581 131.916 52.4662 131.916 49.9403H131.788C130.885 51.342 129.631 52.4794 128.152 53.2375C126.672 53.9956 125.02 54.3477 123.362 54.2581C119.273 54.2581 116.247 51.3868 116.247 47.5116C116.247 38.876 127.409 38.876 131.916 38.4334V36.1774C131.916 31.9891 131.852 27.5418 126.872 27.5418C123.191 27.5418 122.718 29.0962 122.718 31.0068C122.759 31.3996 122.717 31.7966 122.595 32.1721C122.473 32.5475 122.275 32.8931 122.011 33.1862C121.748 33.4793 121.427 33.7136 121.068 33.8737C120.709 34.0338 120.321 34.1162 119.928 34.1156C119.562 34.1409 119.196 34.09 118.851 33.9661C118.506 33.8423 118.19 33.6481 117.923 33.3958C117.656 33.1435 117.443 32.8385 117.299 32.4999C117.155 32.1612 117.081 31.7963 117.084 31.4278C117.084 27.5418 122.836 25.5772 126.926 25.5772C135.061 25.5772 136.585 29.5172 136.585 35.0655V49.8971C136.585 51.9913 137.293 52.7037 139.139 52.7037C139.679 52.6821 140.216 52.6025 140.739 52.4662L140.664 53.7184ZM131.884 40.4088C129.094 40.4736 121.495 41.0025 121.495 46.5617C121.495 49.6597 123.513 51.7538 125.53 51.7538C129.394 51.7538 131.884 47.9865 131.884 43.9278V40.4088ZM141.973 52.6389C144.452 52.6389 146.47 52.11 146.47 48.224V31.9351C146.47 28.3514 143.679 28.1787 141.973 28.0599V27.0237L151.107 25.588V33.5003H151.225C152.051 31.3414 154.723 25.6204 160.594 25.6204C166.894 25.6204 167.485 29.0746 167.485 34.6338V48.2348C167.485 52.1208 169.502 52.6497 171.982 52.6497V53.7292H158.308V52.6497C160.798 52.6497 162.816 52.1208 162.816 48.2348V35.9291C162.816 30.8017 162.816 28.4701 158.845 28.4701C155.346 28.4701 151.074 35.2167 151.074 40.8838V48.224C151.074 52.11 153.081 52.6389 155.582 52.6389V53.7184H141.973V52.6389ZM178.776 52.3151C182.382 52.3151 184.582 51.8402 184.582 46.8207V15.819C184.582 10.7888 182.435 10.3246 178.776 10.3246V8.98609H194.392C205.457 8.98609 217.199 11.3933 217.199 31.3846C217.199 51.376 204.867 53.6644 194.392 53.6644H178.776V52.3151ZM190.506 45.3743C190.506 50.275 191.043 51.009 194.381 51.009C205.854 51.009 210.587 44.8345 210.587 31.3522C210.587 19.0034 207.056 11.566 194.381 11.566C191.043 11.566 190.506 11.9654 190.506 17.2007V45.3743ZM219.624 52.6389C222.125 52.6389 224.143 52.11 224.143 48.224V31.9351C224.143 28.3514 221.417 28.1787 219.624 28.0599V27.0237L228.769 25.588V48.2564C228.769 52.1424 230.787 52.6713 233.277 52.6713V53.7508H219.624V52.6389ZM222.898 16.7149C222.898 16.042 223.097 15.3841 223.468 14.8247C223.84 14.2653 224.369 13.8295 224.987 13.5725C225.606 13.3155 226.286 13.2487 226.942 13.3808C227.598 13.5129 228.201 13.8378 228.673 14.3144C229.146 14.791 229.467 15.3979 229.596 16.0582C229.725 16.7185 229.657 17.4025 229.399 18.0237C229.142 18.6448 228.707 19.1751 228.149 19.5474C227.592 19.9197 226.937 20.1173 226.268 20.1152C225.823 20.1195 225.382 20.0345 224.971 19.865C224.559 19.6955 224.186 19.4451 223.872 19.1283C223.558 18.8116 223.31 18.4349 223.143 18.0205C222.975 17.606 222.892 17.1622 222.898 16.7149ZM254.753 53.1787C252.488 53.9859 250.091 54.3522 247.691 54.2581C238.493 54.2581 233.341 49.1847 233.341 39.1459C233.341 30.4347 236.84 25.5988 245.383 25.5988C250.749 25.5988 255.526 28.5781 255.526 35.5081V36.8142H238.257C238.257 41.8337 240.693 52.0344 250.599 52.0344C252.023 52.0819 253.441 51.8167 254.753 51.2573V53.1787ZM250.245 34.8281C250.245 31.6653 249.172 27.5418 244.61 27.5418C240.049 27.5418 238.257 32.6152 238.257 34.8281H250.245ZM274.812 48.8825C277.656 48.8825 284.246 49.0012 284.246 55.629C284.246 62.4295 277.603 66.2508 269.703 66.2508C263.886 66.2508 257.897 64.0379 257.897 58.6946C257.897 54.9921 260.624 53.3838 262.523 52.4231C261.744 52.032 261.09 51.4272 260.638 50.6784C260.186 49.9296 259.954 49.0675 259.969 48.1916C259.969 45.9788 261.869 43.7119 262.523 42.9887C261.16 41.9092 259.078 40.0742 259.078 35.0008C259.078 27.3043 264.659 25.6312 270.294 25.6312C272.431 25.5427 274.551 26.0588 276.411 27.1208C277.356 24.854 278.773 20.7413 282.4 20.7413C282.78 20.7158 283.161 20.7724 283.518 20.9071C283.875 21.0418 284.198 21.2517 284.468 21.5226C284.737 21.7935 284.946 22.1191 285.08 22.4777C285.214 22.8363 285.27 23.2196 285.245 23.6018C285.268 23.9704 285.212 24.3397 285.079 24.6841C284.946 25.0284 284.74 25.3395 284.476 25.5954C284.211 25.8514 283.894 26.0461 283.547 26.1661C283.199 26.286 282.83 26.3281 282.465 26.2896C280.919 26.2896 280.554 25.4477 279.792 25.4477C278.483 25.4477 277.957 27.1856 277.646 28.1355C279.438 30.0782 280.395 32.6543 280.307 35.303C280.307 41.3263 276.572 44.7266 269.457 44.7266C267.625 44.8091 265.797 44.5038 264.09 43.8307C263.435 44.5756 263.056 45.525 263.017 46.5185C263.017 48.9041 265.99 48.9041 267.89 48.9041L274.812 48.8825ZM264.563 53.1247C263.382 54.0098 261.718 55.0245 261.718 57.7123C261.718 61.2313 264.863 64.2754 270.025 64.2754C275.392 64.2754 280.404 61.4796 280.404 57.1834C280.404 54.1394 277.925 53.1247 274.952 53.1247H264.563ZM269.725 42.7404C274.716 42.7404 275.37 38.8004 275.37 35.6376C275.37 31.1579 273.825 27.5742 269.543 27.5742C264.863 27.5742 263.972 31.0392 263.972 34.5042C263.951 39.0379 265.432 42.7404 269.703 42.7404H269.725Z" fill="#0E284B"/>
<path d="M284.311 39.977C284.311 31.0176 289.108 25.6527 296.696 25.6527C304.284 25.6527 309.103 31.0499 309.103 39.977C309.103 48.904 304.274 54.2581 296.696 54.2581C289.119 54.2581 284.311 48.8824 284.311 39.977ZM296.696 52.2827C302.632 52.2827 303.823 44.8885 303.823 39.9338C303.823 34.9791 302.632 27.5741 296.696 27.5741C290.761 27.5741 289.581 34.9791 289.581 39.9338C289.581 44.8885 290.772 52.2827 296.696 52.2827Z" fill="#0E284B"/>
<path d="M254.817 63.9407H0V65.4627H256.245C255.715 65.0096 255.236 64.4992 254.817 63.9407ZM308.631 63.9407H285.191C284.649 64.4986 284.06 65.0078 283.431 65.4627H308.631V63.9407Z" fill="#C69215"/>
</g>
<defs>
<clipPath id="clip0_4_123">
<rect width="309.103" height="72" fill="white"/>
</clipPath>
</defs>
</svg>
