<svg width="277" height="72" viewBox="0 0 277 72" fill="none" xmlns="http://www.w3.org/2000/svg">
<g clip-path="url(#clip0_4_3)">
<mask id="mask0_4_3" style="mask-type:luminance" maskUnits="userSpaceOnUse" x="0" y="0" width="277" height="72">
<path d="M276.769 0H0V72H276.769V0Z" fill="white"/>
</mask>
<g mask="url(#mask0_4_3)">
<path d="M13.2524 22.5H48.5921V58.5C48.5921 60.28 48.2583 62.02 47.5908 63.66C46.9233 65.3 45.9416 66.78 44.7243 68.04C43.4874 69.3 42.0346 70.28 40.4247 70.96C38.8148 71.64 37.087 71.98 35.3593 71.98H13.2524C11.505 71.98 9.79695 71.64 8.18703 70.96C6.57711 70.28 5.12425 69.28 3.88737 68.04C2.65048 66.78 1.68845 65.3 1.02092 63.66C0.333764 62.02 0 60.28 0 58.5V36C0 34.22 0.333764 32.48 1.00129 30.84C1.66882 29.2 2.65048 27.72 3.86773 26.46C5.10462 25.2 6.55748 24.22 8.16739 23.54C9.77731 22.86 11.505 22.52 13.2327 22.52L13.2524 22.5Z" fill="url(#paint0_linear_4_3)"/>
<path d="M48.5921 22.5H35.3397V36.42H48.5921V22.5Z" fill="#C40D40"/>
<path d="M55.2085 31.5H39.7572V15.76C39.7572 12.64 40.6603 9.6 42.3684 7C44.0765 4.42 46.4914 2.4 49.2989 1.2C52.1261 0 55.2281 -0.3 58.232 0.3C61.2359 0.9 63.9845 2.4 66.1442 4.62C68.3038 6.82 69.7763 9.62 70.3849 12.68C70.9739 15.74 70.6794 18.9 69.5014 21.78C68.3235 24.66 66.3405 27.12 63.8078 28.84C61.2555 30.58 58.2713 31.5 55.2085 31.5Z" fill="#09A2DD"/>
<path d="M50.8106 13.5C51.3996 13.5 51.9689 13.74 52.3812 14.16C52.7935 14.58 53.0291 15.16 53.0291 15.76C53.0291 16.36 52.7935 16.94 52.3812 17.36C51.9689 17.78 51.3996 18.02 50.8106 18.02C50.2216 18.02 49.6522 17.78 49.2399 17.36C48.8276 16.94 48.592 16.36 48.592 15.76C48.592 15.16 48.8276 14.58 49.2399 14.16C49.6522 13.74 50.2216 13.5 50.8106 13.5Z" fill="white"/>
<path d="M59.6263 13.5C60.2153 13.5 60.7846 13.74 61.1969 14.16C61.6092 14.58 61.8448 15.16 61.8448 15.76C61.8448 16.36 61.6092 16.94 61.1969 17.36C60.7846 17.78 60.2153 18.02 59.6263 18.02C59.0373 18.02 58.4679 17.78 58.0556 17.36C57.6433 16.94 57.4077 16.36 57.4077 15.76C57.4077 15.16 57.6433 14.58 58.0556 14.16C58.4679 13.74 59.0373 13.5 59.6263 13.5Z" fill="white"/>
<path d="M247.771 27.7002C247.476 27.4002 247.103 27.1402 246.71 26.9802C246.318 26.8202 245.886 26.7402 245.454 26.7402C244.59 26.7402 243.765 27.1202 243.157 27.7402C242.548 28.3802 242.214 29.2202 242.234 30.1002C242.254 30.9602 242.607 31.8002 243.216 32.4002C243.824 33.0002 244.649 33.3602 245.493 33.3602C245.925 33.3602 246.337 33.2802 246.73 33.1002C247.123 32.9402 247.476 32.6802 247.771 32.3802C248.065 32.0802 248.301 31.7002 248.477 31.3002C248.654 30.9002 248.713 30.4602 248.713 30.0402C248.713 29.6002 248.634 29.1602 248.458 28.7602C248.301 28.3602 248.045 28.0002 247.751 27.6802L247.771 27.7002Z" fill="#393939"/>
<path d="M221.933 37.3002C217.712 35.7002 213.727 36.2802 209.879 38.8202V37.2602H204.911V70.7802H209.879V59.3602C212.47 61.2602 215.69 62.1002 218.851 61.7002C221.992 61.3602 224.878 59.8202 226.901 57.3802C230.415 53.2802 230.808 46.9202 227.843 42.1802C226.449 39.9402 224.368 38.2202 221.914 37.3202L221.933 37.3002ZM217.339 56.7602C213.118 56.7602 209.879 53.4602 209.879 49.1002C209.879 44.7402 213.098 41.4802 217.359 41.4802C221.56 41.4802 224.78 44.7802 224.761 49.1002C224.761 53.4602 221.56 56.7602 217.339 56.7602Z" fill="#393939"/>
<path d="M113.813 38.1395C111.261 36.5195 108.434 36.1395 105.489 36.5595C102.033 37.0395 99.1863 38.6595 97.1641 41.6195C95.4756 44.0995 94.8278 46.8795 95.0045 49.8395C95.2401 53.9595 96.9089 57.3395 100.345 59.6395C102.877 61.3395 105.724 61.8595 108.728 61.7195C111.673 61.5795 114.304 60.6195 116.483 58.5795C117.131 57.9795 117.661 57.2595 118.289 56.5595L114.088 54.0595C111.752 57.1795 107.884 57.5395 104.919 56.5595C102.406 55.7395 100.894 53.9595 100.286 51.2795H119.173C119.428 49.8995 119.448 48.4995 119.251 47.0995C118.721 43.2995 117.092 40.1995 113.813 38.1195V38.1395ZM100.345 47.0395C100.6 44.4795 102.76 41.2595 107.04 41.0795C111.32 40.8995 113.892 43.8795 114.225 47.0395H100.345Z" fill="#393939"/>
<path d="M275.846 44.2598C275.218 42.7198 274.314 41.2998 273.136 40.1198C271.978 38.9398 270.604 37.9998 269.072 37.3598C267.561 36.7198 265.931 36.3998 264.282 36.4198C257.273 36.4198 251.736 41.9398 251.736 48.9398C251.736 56.1998 257.135 61.7598 264.243 61.7598C271.252 61.7598 276.749 56.1998 276.749 49.1198C276.749 47.4398 276.454 45.7998 275.826 44.2398L275.846 44.2598ZM271.114 52.1598C270.741 53.0798 270.191 53.9198 269.485 54.5998C268.778 55.2998 267.953 55.8398 267.05 56.1998C266.147 56.5598 265.165 56.7398 264.184 56.7198C259.982 56.6798 256.802 53.3798 256.821 49.0598C256.841 44.6798 260.002 41.4198 264.302 41.4398C268.601 41.4398 271.703 44.7398 271.684 49.2598C271.684 50.2598 271.507 51.2398 271.114 52.1598Z" fill="#393939"/>
<path d="M188.635 36.42C181.528 36.42 175.992 41.9 175.972 49.02C175.933 56.14 181.43 61.74 188.459 61.76C195.448 61.76 200.965 56.28 200.985 49.28C201.004 42.06 195.605 36.44 188.655 36.42H188.635ZM188.262 56.74C183.963 56.62 180.88 53.12 181.037 48.68C181.175 44.54 184.454 41.38 188.655 41.46C189.637 41.46 190.599 41.68 191.502 42.06C192.405 42.46 193.21 43.02 193.897 43.74C194.565 44.46 195.095 45.3 195.448 46.24C195.802 47.18 195.959 48.16 195.919 49.16C195.821 53.62 192.582 56.86 188.282 56.74H188.262Z" fill="#393939"/>
<path d="M169.905 40.1C168.747 38.92 167.372 37.98 165.841 37.36C164.329 36.72 162.7 36.42 161.051 36.42C154.022 36.42 148.485 41.98 148.485 49.08C148.485 50.76 148.799 52.42 149.428 53.96C150.056 55.5 150.979 56.92 152.137 58.1C153.315 59.28 154.689 60.22 156.221 60.84C157.752 61.46 159.382 61.78 161.031 61.76C168.079 61.76 173.518 56.24 173.518 49.1C173.518 47.42 173.223 45.78 172.615 44.22C171.986 42.68 171.083 41.26 169.925 40.08L169.905 40.1ZM160.972 56.74C156.751 56.74 153.59 53.42 153.59 49.02C153.59 44.72 156.81 41.46 161.031 41.46C165.252 41.46 168.452 44.7 168.472 49.06C168.472 53.42 165.193 56.76 160.972 56.74Z" fill="#393939"/>
<path d="M82.8719 55.2396H82.7345C80.5356 49.1796 78.3367 43.1196 76.1378 37.0596H70.6208C70.6797 37.2796 70.7386 37.4396 70.7975 37.6196C73.7425 45.2596 76.6679 52.9196 79.5932 60.5796C79.6325 60.7596 79.7306 60.8996 79.8877 60.9996C80.0448 61.0996 80.2215 61.1396 80.3785 61.1196C81.9492 61.0996 83.5198 61.0796 85.0709 61.1196C85.2672 61.1596 85.4635 61.1196 85.6402 60.9996C85.7973 60.8796 85.9151 60.7196 85.974 60.5196C88.5656 53.7596 91.1375 47.0196 93.7291 40.2796C94.1414 39.2196 94.534 38.1596 94.9463 37.0796H89.4098C87.2305 43.1396 85.0512 49.1996 82.8719 55.2596V55.2396Z" fill="#393939"/>
<path d="M144.756 26H139.749V61.1H144.756V26Z" fill="#393939"/>
<path d="M248.006 37.04H243.019V61.08H248.006V37.04Z" fill="#393939"/>
<path d="M237.365 55.58C237.031 55.24 236.638 54.98 236.207 54.8C235.775 54.62 235.303 54.54 234.832 54.54C234.361 54.54 233.909 54.62 233.478 54.8C233.046 54.98 232.653 55.24 232.339 55.58C232.005 55.92 231.75 56.3 231.573 56.74C231.396 57.18 231.318 57.64 231.318 58.12C231.338 59.06 231.73 59.94 232.378 60.6C233.026 61.26 233.929 61.62 234.832 61.62C235.755 61.62 236.638 61.26 237.306 60.62C237.974 59.96 238.366 59.08 238.386 58.14C238.386 57.66 238.307 57.18 238.131 56.74C237.954 56.3 237.699 55.9 237.365 55.56V55.58Z" fill="#393939"/>
<path d="M135.469 37.2402H131.405C126.752 37.2402 122.982 41.0802 122.982 45.8202V61.1202H128.048V46.2002C128.048 44.1002 129.716 42.4202 131.758 42.4202H135.449V37.2602L135.469 37.2402Z" fill="#393939"/>
</g>
</g>
<defs>
<linearGradient id="paint0_linear_4_3" x1="8.94094" y1="26.9532" x2="43.9114" y2="63.7283" gradientUnits="userSpaceOnUse">
<stop stop-color="#E91476"/>
<stop offset="1" stop-color="#F82D38"/>
</linearGradient>
<clipPath id="clip0_4_3">
<rect width="276.828" height="72" fill="white"/>
</clipPath>
</defs>
</svg>
