<svg width="189" height="72" viewBox="0 0 189 72" fill="none" xmlns="http://www.w3.org/2000/svg">
<path fill-rule="evenodd" clip-rule="evenodd" d="M40.7397 0H10.7209V6.35294H40.7397V0ZM10.7209 19.0588H40.7397V65.6471H10.7209V19.0588ZM4.28833 72V12.7059H47.1723V72H4.28833Z" fill="#67B7AE"/>
<path d="M82.4572 61.4117L69.3347 25.9369H77.0024L86.8314 54.2456L96.6604 25.9369H104.38L91.2056 61.4117H82.4572Z" fill="#282C52"/>
<path d="M111.103 61.4117V25.9369H118.359V61.4117H111.103Z" fill="#282C52"/>
<path d="M151.792 61.4118L149.476 54.7539H135.479L133.163 61.4118H125.496L138.206 25.8353H146.8L159.46 61.4118H151.792ZM137.383 49.265H147.624L142.478 34.4753L137.383 49.265Z" fill="#282C52"/>
<path d="M166.651 25.9369H173.907V55.9736H185.434V61.4117H166.651V25.9369Z" fill="#282C52"/>
</svg>
