<svg width="116" height="24" viewBox="0 0 116 24" fill="none" xmlns="http://www.w3.org/2000/svg">
<g clip-path="url(#clip0_122_2764)">
<path d="M24 0V24H0V0H24ZM7.03906 5.83984L11.1992 13.5996V18.6396H12.7988V13.6797L16.959 5.83984H15.1992L12.7988 10.7197C12.6389 10.9596 12.4795 11.1996 12.3994 11.4395C12.3194 11.7595 12.1591 11.9202 12.0791 12.1602C11.9991 12.0802 11.9989 11.9198 11.9189 11.8398C11.839 11.6799 11.8388 11.5994 11.7588 11.4395V11.3594L11.6787 11.2803C11.5988 11.1205 11.5992 11.0399 11.5195 10.96C11.4395 10.88 11.3594 10.7997 11.3594 10.7197L8.95898 5.83984H7.03906Z" fill="white"/>
<path d="M34.96 4.63989C36.16 4.63989 37.2 4.95989 38 5.59989L37.2 6.55989C36.48 6.07989 35.76 5.75989 34.88 5.75989C33.52 5.75989 32.48 6.47989 31.92 7.83989C31.6 8.63989 31.44 9.67989 31.44 11.0399C31.44 12.0799 31.6 12.9599 31.84 13.5999C32.48 15.1199 33.52 15.8399 35.12 15.8399C36 15.8399 36.8 15.5999 37.52 15.0399L38.32 16.0799C37.28 16.7199 36.16 17.0399 34.96 17.0399C33.52 17.0399 32.32 16.4799 31.36 15.2799C30.4 14.1599 30 12.6399 30 10.7999C30 8.95989 30.48 7.51989 31.44 6.31989C32.32 5.27989 33.52 4.63989 34.96 4.63989Z" fill="white"/>
<path d="M39.5195 12.5599C39.5195 11.1199 39.8395 9.99992 40.5595 9.19992C41.2795 8.39992 42.1595 7.91992 43.2795 7.91992C44.5595 7.91992 45.5995 8.39992 46.3195 9.43992C46.8795 10.2399 47.1195 11.3599 47.1195 12.7199C47.1195 14.3199 46.6395 15.5999 45.7595 16.3999C45.1195 16.9599 44.3195 17.2799 43.3595 17.2799C42.1595 17.2799 41.2795 16.8799 40.5595 15.9999C39.8395 15.1999 39.5195 13.9999 39.5195 12.5599ZM45.1195 10.2399C44.7195 9.51992 44.1595 9.11992 43.2795 9.11992C42.3995 9.11992 41.8395 9.43992 41.4395 10.0799C41.1195 10.5599 41.0395 11.3599 41.0395 12.3999C41.0395 13.7599 41.1995 14.7199 41.5995 15.2799C41.9995 15.8399 42.5595 16.1599 43.3595 16.1599C44.3195 16.1599 44.9595 15.6799 45.2795 14.7999C45.4395 14.3199 45.5195 13.6799 45.5195 12.8799C45.5995 11.6799 45.4395 10.7999 45.1195 10.2399Z" fill="white"/>
<path d="M49.6794 10.3999C49.6794 9.51992 49.5994 8.79992 49.3594 8.23992L50.7194 7.91992C50.9594 8.31992 51.0394 8.79992 51.0394 9.19992V9.27992C51.3594 8.95992 51.6794 8.63992 52.1594 8.39992C52.7194 8.07992 53.1994 7.91992 53.6794 7.91992C54.3994 7.91992 55.0394 8.23992 55.4394 8.79992C55.5194 8.95992 55.6794 9.19992 55.7594 9.35992C56.7194 8.39992 57.5994 7.91992 58.5594 7.91992C59.1994 7.91992 59.7594 8.15992 60.1594 8.55992C60.5594 9.03992 60.7994 9.59992 60.7994 10.2399V16.8799H59.3594V10.3199C59.3594 9.43992 58.9594 9.03992 58.2394 9.03992C57.8394 9.03992 57.3594 9.19992 56.9594 9.51992C56.7994 9.67992 56.4794 9.91992 56.0794 10.2399L55.9194 10.3999V16.8799H54.3994V10.6399C54.3994 10.0799 54.3194 9.67992 54.1594 9.51992C53.9194 9.27992 53.6794 9.19992 53.2794 9.19992C52.6394 9.19992 51.9194 9.59992 51.0394 10.3999V16.9599H49.6794V10.3999Z" fill="white"/>
<path d="M63.2812 4.32L64.7213 4C64.8813 4.64 64.9612 5.36 64.9612 6.24V8.24C64.9612 8.72 64.9612 9.04 64.9612 9.2C65.7612 8.4 66.6413 8 67.5213 8C68.5613 8 69.4413 8.4 70.0013 9.2C70.6413 10 70.9612 11.12 70.9612 12.48C70.9612 13.92 70.6413 15.04 70.0013 15.92C69.3613 16.8 68.4813 17.2 67.4413 17.2C66.9613 17.2 66.5613 17.12 66.0813 16.88C65.6013 16.64 65.2813 16.4 65.0413 16.08C64.9613 16.48 64.8813 16.8 64.8013 17.04H63.4413C63.6013 16.64 63.6813 15.92 63.6813 14.8V6.4C63.6013 5.44 63.5213 4.72 63.2812 4.32ZM65.6013 9.76C65.3613 9.92 65.1212 10.16 64.9612 10.4V14.96C65.5212 15.68 66.2413 16 67.1213 16C67.8413 16 68.4013 15.76 68.7213 15.2C69.1213 14.56 69.3612 13.68 69.3612 12.4C69.3612 11.28 69.2013 10.48 68.8013 10C68.4813 9.52 67.9213 9.28 67.1213 9.28C66.6413 9.2 66.0813 9.36 65.6013 9.76Z" fill="white"/>
<path d="M73.0391 5.44031C73.0391 5.12031 73.1191 4.88031 73.3591 4.64031C73.5991 4.40031 73.8391 4.32031 74.1591 4.32031C74.4791 4.32031 74.7191 4.40031 74.9591 4.64031C75.1991 4.88031 75.2791 5.12031 75.2791 5.44031C75.2791 5.76031 75.1991 6.00031 74.9591 6.24031C74.7191 6.48031 74.4791 6.56031 74.1591 6.56031C73.8391 6.56031 73.5991 6.48031 73.3591 6.24031C73.1191 6.00031 73.0391 5.76031 73.0391 5.44031ZM73.3591 16.9603V8.16031L74.7991 7.92031V16.9603H73.3591Z" fill="white"/>
<path d="M77.9195 10.3999C77.9195 9.75992 77.9195 9.35992 77.8395 9.19992C77.8395 8.95992 77.6795 8.71992 77.5195 8.31992L78.8795 7.91992C79.1195 8.39992 79.1995 8.79992 79.1995 9.27992C80.0795 8.39992 81.0395 7.91992 81.9995 7.91992C82.4795 7.91992 82.8795 7.99992 83.2795 8.23992C83.6795 8.47992 83.9995 8.79992 84.1595 9.19992C84.3195 9.51992 84.3995 9.83992 84.3995 10.2399V16.9599H83.0395V10.9599C83.0395 10.2399 82.9595 9.75992 82.7195 9.51992C82.4795 9.27992 82.1595 9.11992 81.7595 9.11992C81.4395 9.11992 80.9595 9.27992 80.4795 9.51992C79.9995 9.75992 79.5995 10.0799 79.2795 10.3999V16.9599H77.9195V10.3999Z" fill="white"/>
<path d="M87.6005 10.0799L86.8805 9.11992C88.0805 8.31992 89.2805 7.91992 90.5605 7.91992C91.8405 7.91992 92.6405 8.39992 93.0405 9.27992C93.2005 9.59992 93.2005 10.0799 93.2005 10.7999V11.2799L93.1205 14.1599C93.1205 14.2399 93.1205 14.3999 93.1205 14.5599C93.1205 15.0399 93.1205 15.3599 93.2005 15.5999C93.2805 15.9199 93.5205 16.1599 93.8405 16.3199L93.1205 17.2799C92.4805 17.0399 92.0805 16.6399 91.9205 15.9999C91.1205 16.7999 90.2405 17.1999 89.3605 17.1999C88.4805 17.1999 87.7605 16.9599 87.2005 16.4799C86.7205 16.0799 86.4805 15.4399 86.4805 14.6399C86.4805 13.5999 86.8805 12.8799 87.6805 12.3199C88.4805 11.7599 89.6805 11.5199 91.1205 11.5199C91.3605 11.5199 91.5205 11.5199 91.7605 11.5199V10.8799C91.7605 10.1599 91.6805 9.67992 91.4405 9.51992C91.1205 9.19992 90.8005 9.03992 90.2405 9.03992C89.7605 9.03992 89.2005 9.19992 88.5605 9.43992C88.3205 9.59992 88.0005 9.83992 87.6005 10.0799ZM91.8405 14.7999L91.9205 12.4799C91.5205 12.4799 91.2805 12.4799 91.2005 12.4799C89.9205 12.4799 89.1205 12.7199 88.6405 13.1999C88.3205 13.5199 88.1605 13.9999 88.1605 14.6399C88.1605 15.6799 88.6405 16.2399 89.6805 16.2399C90.6405 16.1599 91.3605 15.6799 91.8405 14.7999Z" fill="white"/>
<path d="M97.7592 8.15961H99.9992L99.5992 9.27961H97.7592V14.9596C97.7592 15.4396 97.8392 15.7596 97.9992 15.9996C98.1592 16.1596 98.4792 16.3196 98.8792 16.3196C99.1992 16.3196 99.5192 16.2396 99.7592 16.1596L99.9192 17.0396C99.4392 17.2796 98.9592 17.3596 98.3992 17.3596C97.0392 17.3596 96.3992 16.7196 96.3992 15.3596V9.27961H95.1992V8.15961H96.3192V7.99961C96.3192 7.83961 96.3992 7.19961 96.4792 6.15961V5.91961L97.9192 5.59961C97.7592 6.55961 97.7592 7.43961 97.7592 8.15961Z" fill="white"/>
<path d="M101.441 12.5599C101.441 11.1199 101.761 9.99992 102.481 9.19992C103.121 8.39992 104.081 7.91992 105.201 7.91992C106.481 7.91992 107.521 8.39992 108.241 9.43992C108.801 10.2399 109.041 11.3599 109.041 12.7199C109.041 14.3199 108.561 15.5999 107.681 16.3999C107.041 16.9599 106.241 17.2799 105.281 17.2799C104.081 17.2799 103.201 16.8799 102.481 15.9999C101.841 15.1999 101.441 13.9999 101.441 12.5599ZM107.121 10.2399C106.721 9.51992 106.161 9.11992 105.281 9.11992C104.401 9.11992 103.841 9.43992 103.441 10.0799C103.121 10.5599 103.041 11.3599 103.041 12.3999C103.041 13.7599 103.201 14.7199 103.601 15.2799C104.001 15.8399 104.561 16.1599 105.361 16.1599C106.321 16.1599 106.961 15.6799 107.281 14.7999C107.441 14.3199 107.521 13.6799 107.521 12.8799C107.521 11.6799 107.361 10.7999 107.121 10.2399Z" fill="white"/>
<path d="M111.679 10.2399C111.679 9.43992 111.599 8.79992 111.359 8.31992L112.719 7.91992C112.959 8.39992 113.039 8.79992 113.039 9.27992V9.43992C113.759 8.47992 114.559 7.99992 115.519 7.99992C115.679 7.99992 115.839 7.99992 115.999 8.07992L115.439 9.59992C115.279 9.51992 115.119 9.51992 115.039 9.51992C114.719 9.51992 114.319 9.59992 113.999 9.83992C113.679 10.0799 113.359 10.3199 113.199 10.6399C113.119 10.8799 113.039 11.1999 113.039 11.5999V17.1199H111.679V10.2399Z" fill="white"/>
</g>
<defs>
<clipPath id="clip0_122_2764">
<rect width="116" height="24" fill="white"/>
</clipPath>
</defs>
</svg>
